<svg version="1.1" viewBox="0.0 0.0 422.54068241469815 116.8267716535433" fill="none" stroke="none" stroke-linecap="square" stroke-miterlimit="10" xmlns:xlink="http://www.w3.org/1999/xlink" xmlns="http://www.w3.org/2000/svg"><clipPath id="p.0"><path d="m0 0l422.54068 0l0 116.826775l-422.54068 0l0 -116.826775z" clip-rule="nonzero"/></clipPath><g clip-path="url(#p.0)"><path fill="#000000" fill-opacity="0.0" d="m0 0l422.54068 0l0 116.826775l-422.54068 0z" fill-rule="evenodd"/><path fill="#000000" fill-opacity="0.0" d="m0 90.338585l424.12598 0" fill-rule="evenodd"/><path stroke="#000000" stroke-width="3.0" stroke-linejoin="round" stroke-linecap="butt" d="m10.28126 90.338585l403.56348 0" fill-rule="evenodd"/><path fill="#000000" stroke="#000000" stroke-width="3.0" stroke-linecap="butt" d="m10.28126 90.338585l3.3737507 -3.3737564l-9.269304 3.3737564l9.269304 3.3737488z" fill-rule="evenodd"/><path fill="#000000" stroke="#000000" stroke-width="3.0" stroke-linecap="butt" d="m413.84473 90.338585l-3.3737488 3.3737488l9.269287 -3.3737488l-9.269287 -3.3737564z" fill-rule="evenodd"/><path fill="#9fc5e8" d="m56.939632 72.54593l0 0c0 -7.7580795 6.2891655 -14.047241 14.047245 -14.047241l0 0c3.725563 0 7.2985306 1.4799728 9.932899 4.1143417c2.634369 2.634369 4.1143417 6.207344 4.1143417 9.932899l0 0c0 7.7580795 -6.2891617 14.047249 -14.047241 14.047249l0 0c-7.7580795 0 -14.047245 -6.2891693 -14.047245 -14.047249z" fill-rule="evenodd"/><path stroke="#a4c2f4" stroke-width="1.0" stroke-linejoin="round" stroke-linecap="butt" d="m56.939632 72.54593l0 0c0 -7.7580795 6.2891655 -14.047241 14.047245 -14.047241l0 0c3.725563 0 7.2985306 1.4799728 9.932899 4.1143417c2.634369 2.634369 4.1143417 6.207344 4.1143417 9.932899l0 0c0 7.7580795 -6.2891617 14.047249 -14.047241 14.047249l0 0c-7.7580795 0 -14.047245 -6.2891693 -14.047245 -14.047249z" fill-rule="evenodd"/><path fill="#9fc5e8" d="m56.939632 44.451443l0 0c0 -7.7580795 6.2891655 -14.047243 14.047245 -14.047243l0 0c3.725563 0 7.2985306 1.4799728 9.932899 4.1143436c2.634369 2.634369 4.1143417 6.2073402 4.1143417 9.932899l0 0c0 7.7580795 -6.2891617 14.047245 -14.047241 14.047245l0 0c-7.7580795 0 -14.047245 -6.2891655 -14.047245 -14.047245z" fill-rule="evenodd"/><path stroke="#a4c2f4" stroke-width="1.0" stroke-linejoin="round" stroke-linecap="butt" d="m56.939632 44.451443l0 0c0 -7.7580795 6.2891655 -14.047243 14.047245 -14.047243l0 0c3.725563 0 7.2985306 1.4799728 9.932899 4.1143436c2.634369 2.634369 4.1143417 6.2073402 4.1143417 9.932899l0 0c0 7.7580795 -6.2891617 14.047245 -14.047241 14.047245l0 0c-7.7580795 0 -14.047245 -6.2891655 -14.047245 -14.047245z" fill-rule="evenodd"/><path fill="#9fc5e8" d="m56.939632 16.356955l0 0c0 -7.7580776 6.2891655 -14.047243 14.047245 -14.047243l0 0c3.725563 0 7.2985306 1.4799733 9.932899 4.1143427c2.634369 2.6343694 4.1143417 6.2073407 4.1143417 9.932901l0 0c0 7.7580795 -6.2891617 14.047245 -14.047241 14.047245l0 0c-7.7580795 0 -14.047245 -6.2891655 -14.047245 -14.047245z" fill-rule="evenodd"/><path stroke="#a4c2f4" stroke-width="1.0" stroke-linejoin="round" stroke-linecap="butt" d="m56.939632 16.356955l0 0c0 -7.7580776 6.2891655 -14.047243 14.047245 -14.047243l0 0c3.725563 0 7.2985306 1.4799733 9.932899 4.1143427c2.634369 2.6343694 4.1143417 6.2073407 4.1143417 9.932901l0 0c0 7.7580795 -6.2891617 14.047245 -14.047241 14.047245l0 0c-7.7580795 0 -14.047245 -6.2891655 -14.047245 -14.047245z" fill-rule="evenodd"/><path fill="#9fc5e8" d="m113.37008 72.54593l0 0c0 -7.7580795 6.2891617 -14.047241 14.047241 -14.047241l0 0c3.725563 0 7.2985306 1.4799728 9.932899 4.1143417c2.634369 2.634369 4.1143494 6.207344 4.1143494 9.932899l0 0c0 7.7580795 -6.2891693 14.047249 -14.047249 14.047249l0 0c-7.7580795 0 -14.047241 -6.2891693 -14.047241 -14.047249z" fill-rule="evenodd"/><path stroke="#a4c2f4" stroke-width="1.0" stroke-linejoin="round" stroke-linecap="butt" d="m113.37008 72.54593l0 0c0 -7.7580795 6.2891617 -14.047241 14.047241 -14.047241l0 0c3.725563 0 7.2985306 1.4799728 9.932899 4.1143417c2.634369 2.634369 4.1143494 6.207344 4.1143494 9.932899l0 0c0 7.7580795 -6.2891693 14.047249 -14.047249 14.047249l0 0c-7.7580795 0 -14.047241 -6.2891693 -14.047241 -14.047249z" fill-rule="evenodd"/><path fill="#9fc5e8" d="m169.80052 72.54593l0 0c0 -7.7580795 6.2891693 -14.047241 14.047241 -14.047241l0 0c3.7255707 0 7.298538 1.4799728 9.932907 4.1143417c2.634369 2.634369 4.1143494 6.207344 4.1143494 9.932899l0 0c0 7.7580795 -6.2891693 14.047249 -14.047256 14.047249l0 0c-7.758072 0 -14.047241 -6.2891693 -14.047241 -14.047249z" fill-rule="evenodd"/><path stroke="#a4c2f4" stroke-width="1.0" stroke-linejoin="round" stroke-linecap="butt" d="m169.80052 72.54593l0 0c0 -7.7580795 6.2891693 -14.047241 14.047241 -14.047241l0 0c3.7255707 0 7.298538 1.4799728 9.932907 4.1143417c2.634369 2.634369 4.1143494 6.207344 4.1143494 9.932899l0 0c0 7.7580795 -6.2891693 14.047249 -14.047256 14.047249l0 0c-7.758072 0 -14.047241 -6.2891693 -14.047241 -14.047249z" fill-rule="evenodd"/><path fill="#9fc5e8" d="m169.80052 44.451443l0 0c0 -7.7580795 6.2891693 -14.047243 14.047241 -14.047243l0 0c3.7255707 0 7.298538 1.4799728 9.932907 4.1143436c2.634369 2.634369 4.1143494 6.2073402 4.1143494 9.932899l0 0c0 7.7580795 -6.2891693 14.047245 -14.047256 14.047245l0 0c-7.758072 0 -14.047241 -6.2891655 -14.047241 -14.047245z" fill-rule="evenodd"/><path stroke="#a4c2f4" stroke-width="1.0" stroke-linejoin="round" stroke-linecap="butt" d="m169.80052 44.451443l0 0c0 -7.7580795 6.2891693 -14.047243 14.047241 -14.047243l0 0c3.7255707 0 7.298538 1.4799728 9.932907 4.1143436c2.634369 2.634369 4.1143494 6.2073402 4.1143494 9.932899l0 0c0 7.7580795 -6.2891693 14.047245 -14.047256 14.047245l0 0c-7.758072 0 -14.047241 -6.2891655 -14.047241 -14.047245z" fill-rule="evenodd"/><path fill="#9fc5e8" d="m226.23097 72.54593l0 0c0 -7.7580795 6.2891693 -14.047241 14.047241 -14.047241l0 0c3.7255554 0 7.298538 1.4799728 9.932907 4.1143417c2.634369 2.634369 4.114334 6.207344 4.114334 9.932899l0 0c0 7.7580795 -6.289154 14.047249 -14.047241 14.047249l0 0c-7.758072 0 -14.047241 -6.2891693 -14.047241 -14.047249z" fill-rule="evenodd"/><path stroke="#a4c2f4" stroke-width="1.0" stroke-linejoin="round" stroke-linecap="butt" d="m226.23097 72.54593l0 0c0 -7.7580795 6.2891693 -14.047241 14.047241 -14.047241l0 0c3.7255554 0 7.298538 1.4799728 9.932907 4.1143417c2.634369 2.634369 4.114334 6.207344 4.114334 9.932899l0 0c0 7.7580795 -6.289154 14.047249 -14.047241 14.047249l0 0c-7.758072 0 -14.047241 -6.2891693 -14.047241 -14.047249z" fill-rule="evenodd"/><path fill="#9fc5e8" d="m282.6614 72.54593l0 0c0 -7.7580795 6.2891846 -14.047241 14.047241 -14.047241l0 0c3.725586 0 7.2985535 1.4799728 9.932922 4.1143417c2.634369 2.634369 4.1143494 6.207344 4.1143494 9.932899l0 0c0 7.7580795 -6.2891846 14.047249 -14.047272 14.047249l0 0c-7.7580566 0 -14.047241 -6.2891693 -14.047241 -14.047249z" fill-rule="evenodd"/><path stroke="#a4c2f4" stroke-width="1.0" stroke-linejoin="round" stroke-linecap="butt" d="m282.6614 72.54593l0 0c0 -7.7580795 6.2891846 -14.047241 14.047241 -14.047241l0 0c3.725586 0 7.2985535 1.4799728 9.932922 4.1143417c2.634369 2.634369 4.1143494 6.207344 4.1143494 9.932899l0 0c0 7.7580795 -6.2891846 14.047249 -14.047272 14.047249l0 0c-7.7580566 0 -14.047241 -6.2891693 -14.047241 -14.047249z" fill-rule="evenodd"/><path fill="#9fc5e8" d="m282.6614 44.451443l0 0c0 -7.7580795 6.2891846 -14.047243 14.047241 -14.047243l0 0c3.725586 0 7.2985535 1.4799728 9.932922 4.1143436c2.634369 2.634369 4.1143494 6.2073402 4.1143494 9.932899l0 0c0 7.7580795 -6.2891846 14.047245 -14.047272 14.047245l0 0c-7.7580566 0 -14.047241 -6.2891655 -14.047241 -14.047245z" fill-rule="evenodd"/><path stroke="#a4c2f4" stroke-width="1.0" stroke-linejoin="round" stroke-linecap="butt" d="m282.6614 44.451443l0 0c0 -7.7580795 6.2891846 -14.047243 14.047241 -14.047243l0 0c3.725586 0 7.2985535 1.4799728 9.932922 4.1143436c2.634369 2.634369 4.1143494 6.2073402 4.1143494 9.932899l0 0c0 7.7580795 -6.2891846 14.047245 -14.047272 14.047245l0 0c-7.7580566 0 -14.047241 -6.2891655 -14.047241 -14.047245z" fill-rule="evenodd"/><path fill="#9fc5e8" d="m282.6614 16.356955l0 0c0 -7.7580776 6.2891846 -14.047243 14.047241 -14.047243l0 0c3.725586 0 7.2985535 1.4799733 9.932922 4.1143427c2.634369 2.6343694 4.1143494 6.2073407 4.1143494 9.932901l0 0c0 7.7580795 -6.2891846 14.047245 -14.047272 14.047245l0 0c-7.7580566 0 -14.047241 -6.2891655 -14.047241 -14.047245z" fill-rule="evenodd"/><path stroke="#a4c2f4" stroke-width="1.0" stroke-linejoin="round" stroke-linecap="butt" d="m282.6614 16.356955l0 0c0 -7.7580776 6.2891846 -14.047243 14.047241 -14.047243l0 0c3.725586 0 7.2985535 1.4799733 9.932922 4.1143427c2.634369 2.6343694 4.1143494 6.2073407 4.1143494 9.932901l0 0c0 7.7580795 -6.2891846 14.047245 -14.047272 14.047245l0 0c-7.7580566 0 -14.047241 -6.2891655 -14.047241 -14.047245z" fill-rule="evenodd"/><path fill="#9fc5e8" d="m339.09186 72.54593l0 0c0 -7.7580795 6.2891846 -14.047241 14.047241 -14.047241l0 0c3.7255554 0 7.2985535 1.4799728 9.932922 4.1143417c2.634369 2.634369 4.114319 6.207344 4.114319 9.932899l0 0c0 7.7580795 -6.289154 14.047249 -14.047241 14.047249l0 0c-7.7580566 0 -14.047241 -6.2891693 -14.047241 -14.047249z" fill-rule="evenodd"/><path stroke="#a4c2f4" stroke-width="1.0" stroke-linejoin="round" stroke-linecap="butt" d="m339.09186 72.54593l0 0c0 -7.7580795 6.2891846 -14.047241 14.047241 -14.047241l0 0c3.7255554 0 7.2985535 1.4799728 9.932922 4.1143417c2.634369 2.634369 4.114319 6.207344 4.114319 9.932899l0 0c0 7.7580795 -6.289154 14.047249 -14.047241 14.047249l0 0c-7.7580566 0 -14.047241 -6.2891693 -14.047241 -14.047249z" fill-rule="evenodd"/><path fill="#9fc5e8" d="m339.09186 44.451443l0 0c0 -7.7580795 6.2891846 -14.047243 14.047241 -14.047243l0 0c3.7255554 0 7.2985535 1.4799728 9.932922 4.1143436c2.634369 2.634369 4.114319 6.2073402 4.114319 9.932899l0 0c0 7.7580795 -6.289154 14.047245 -14.047241 14.047245l0 0c-7.7580566 0 -14.047241 -6.2891655 -14.047241 -14.047245z" fill-rule="evenodd"/><path stroke="#a4c2f4" stroke-width="1.0" stroke-linejoin="round" stroke-linecap="butt" d="m339.09186 44.451443l0 0c0 -7.7580795 6.2891846 -14.047243 14.047241 -14.047243l0 0c3.7255554 0 7.2985535 1.4799728 9.932922 4.1143436c2.634369 2.634369 4.114319 6.2073402 4.114319 9.932899l0 0c0 7.7580795 -6.289154 14.047245 -14.047241 14.047245l0 0c-7.7580566 0 -14.047241 -6.2891655 -14.047241 -14.047245z" fill-rule="evenodd"/><path fill="#000000" fill-opacity="0.0" d="m56.404198 86.59318l29.16536 0l0 42.01574l-29.16536 0z" fill-rule="evenodd"/><path fill="#000000" d="m73.70107 100.9038l-3.015625 10.375q-0.234375 0.796875 -0.234375 1.015625q0 0.21875 0.171875 0.453125q0.171875 0.234375 0.359375 0.3125q0.203125 0.0625 1.1875 0.109375l-0.109375 0.34375l-6.21875 0l0.09375 -0.34375q0.9375 -0.015625 1.296875 -0.140625q0.375 -0.140625 0.59375 -0.453125q0.234375 -0.3125 0.53125 -1.296875l1.78125 -6.171875q0.40625 -1.390625 0.4375 -1.484375q0.046875 -0.234375 0.046875 -0.4375q0 -0.40625 -0.25 -0.640625q-0.25 -0.25 -0.71875 -0.25q-0.21875 0 -0.890625 0.0625l-0.078125 -0.328125l4.640625 -1.125l0.375 0z" fill-rule="nonzero"/><path fill="#000000" fill-opacity="0.0" d="m112.83465 86.59318l29.165352 0l0 42.01574l-29.165352 0z" fill-rule="evenodd"/><path fill="#000000" d="m128.45964 113.513176l-6.5468674 0l0 -0.34375q2.546875 -2.359375 4.3125 -4.34375q1.46875 -1.65625 1.8437424 -2.515625q0.390625 -0.875 0.390625 -1.765625q0 -0.828125 -0.5312424 -1.34375q-0.515625 -0.515625 -1.296875 -0.515625q-1.265625 0 -2.171875 1.390625l-0.34375 -0.15625q0.484375 -1.34375 1.234375 -2.046875q1.046875 -0.96875 2.453125 -0.96875q1.3124924 0 2.1718674 0.8125q0.875 0.8125 0.875 1.875q0 0.9375 -0.421875 1.859375q-0.421875 0.90625 -1.734375 2.296875q-0.9999924 1.0625 -4.0624924 3.671875l2.375 0q1.1562424 0 1.6093674 -0.25q0.453125 -0.265625 0.859375 -1.046875l0.4375 0l-1.453125 3.390625z" fill-rule="nonzero"/><path fill="#000000" fill-opacity="0.0" d="m169.26509 86.59318l29.16536 0l0 42.01574l-29.16536 0z" fill-rule="evenodd"/><path fill="#000000" d="m180.64009 106.794426l0.125 -0.390625q1.265625 -0.171875 2.03125 -0.53125q1.046875 -0.453125 1.515625 -1.0625q0.46875 -0.609375 0.46875 -1.3125q0 -0.609375 -0.421875 -1.03125q-0.421875 -0.4375 -1.0625 -0.4375q-0.5 0 -0.9375 0.265625q-0.421875 0.265625 -0.921875 0.921875l-0.359375 -0.171875q0.765625 -1.15625 1.53125 -1.640625q0.765625 -0.5 1.71875 -0.5q1.203125 0 1.953125 0.6875q0.75 0.671875 0.75 1.625q0 0.734375 -0.375 1.296875q-0.359375 0.5625 -1.0625 0.96875q-0.515625 0.296875 -1.640625 0.609375q1.015625 0.4375 1.421875 0.984375q0.609375 0.8125 0.609375 1.953125q0 2.15625 -1.859375 3.5625q-1.546875 1.171875 -3.59375 1.171875q-1.09375 0 -1.65625 -0.40625q-0.375 -0.28125 -0.375 -0.75q0 -0.421875 0.28125 -0.6875q0.296875 -0.28125 0.71875 -0.28125q0.21875 0 0.421875 0.09375q0.34375 0.15625 1.03125 0.625q0.703125 0.46875 1.15625 0.46875q0.5625 0 1.0 -0.578125q0.625 -0.84375 0.625 -2.125q0 -0.984375 -0.40625 -1.734375q-0.390625 -0.75 -1.03125 -1.109375q-0.625 -0.359375 -1.65625 -0.484375z" fill-rule="nonzero"/><path fill="#000000" fill-opacity="0.0" d="m225.69554 86.59318l29.165344 0l0 42.01574l-29.165344 0z" fill-rule="evenodd"/><path fill="#000000" d="m239.05492 110.9038l-4.03125 0l0.453125 -1.53125l7.390625 -8.46875l1.1875 0l-2.46875 8.46875l1.421875 0l-0.484375 1.53125l-1.390625 0l-0.828125 2.859375l-2.078125 0l0.828125 -2.859375zm0.46875 -1.53125l1.515625 -5.390625l-4.671875 5.390625l3.15625 0z" fill-rule="nonzero"/><path fill="#000000" fill-opacity="0.0" d="m282.3937 86.59318l29.165344 0l0 42.01574l-29.165344 0z" fill-rule="evenodd"/><path fill="#000000" d="m296.12808 101.1538l4.671875 0l-0.609375 2.140625l-4.328125 0l-0.546875 1.109375q1.3125 0.203125 2.171875 0.703125q0.859375 0.484375 1.375 1.421875q0.53125 0.9375 0.53125 2.03125q0 1.3125 -0.703125 2.546875q-0.703125 1.21875 -1.96875 1.953125q-1.25 0.71875 -2.65625 0.71875q-1.0 0 -1.484375 -0.375q-0.484375 -0.375 -0.484375 -0.859375q0 -0.40625 0.28125 -0.6875q0.296875 -0.296875 0.6875 -0.296875q0.328125 0 0.59375 0.109375q0.140625 0.078125 0.921875 0.703125q0.5 0.40625 1.015625 0.40625q0.6875 0 1.15625 -0.609375q0.640625 -0.78125 0.640625 -1.984375q0 -1.09375 -0.53125 -2.03125q-0.515625 -0.9375 -1.4375 -1.421875q-0.703125 -0.375 -1.8125 -0.390625l2.515625 -5.1875z" fill-rule="nonzero"/><path fill="#000000" fill-opacity="0.0" d="m339.6273 86.59318l29.165375 0l0 42.01574l-29.165375 0z" fill-rule="evenodd"/><path fill="#000000" d="m358.1429 100.81005l0 0.34375q-1.375 0.390625 -2.453125 1.390625q-1.328125 1.234375 -2.296875 3.375q0.859375 -0.28125 1.46875 -0.28125q1.03125 0 1.71875 0.78125q0.6875 0.765625 0.6875 2.171875q0 1.828125 -1.015625 3.34375q-1.25 1.828125 -3.328125 1.828125q-1.421875 0 -2.296875 -0.96875q-0.875 -0.96875 -0.875 -2.765625q0 -1.921875 0.84375 -3.71875q0.859375 -1.796875 2.171875 -3.03125q1.3125 -1.234375 2.8125 -1.875q1.171875 -0.5 2.5625 -0.59375zm-5.046875 5.8125q-0.609375 1.609375 -1.015625 3.3125q-0.28125 1.140625 -0.28125 1.90625q0 0.6875 0.296875 1.03125q0.296875 0.328125 0.75 0.328125q0.359375 0 0.640625 -0.25q0.453125 -0.421875 0.859375 -1.671875q0.625 -2.0 0.625 -3.3125q0 -0.671875 -0.375 -1.125q-0.28125 -0.359375 -0.6875 -0.359375q-0.3125 0 -0.8125 0.140625z" fill-rule="nonzero"/></g></svg>