<svg version="1.1" viewBox="0.0 0.0 426.501312335958 158.501312335958" fill="none" stroke="none" stroke-linecap="square" stroke-miterlimit="10" xmlns:xlink="http://www.w3.org/1999/xlink" xmlns="http://www.w3.org/2000/svg"><clipPath id="p.0"><path d="m0 0l426.5013 0l0 158.50131l-426.5013 0l0 -158.50131z" clip-rule="nonzero"/></clipPath><g clip-path="url(#p.0)"><path fill="#000000" fill-opacity="0.0" d="m0 0l426.5013 0l0 158.50131l-426.5013 0z" fill-rule="evenodd"/><path fill="#000000" fill-opacity="0.0" d="m1.187664 75.301834l424.126 0" fill-rule="evenodd"/><path stroke="#000000" stroke-width="3.0" stroke-linejoin="round" stroke-linecap="butt" d="m11.4689245 75.301834l403.56348 0" fill-rule="evenodd"/><path fill="#000000" stroke="#000000" stroke-width="3.0" stroke-linecap="butt" d="m11.468924 75.301834l3.3737507 -3.3737488l-9.269304 3.3737488l9.269304 3.3737564z" fill-rule="evenodd"/><path fill="#000000" stroke="#000000" stroke-width="3.0" stroke-linecap="butt" d="m415.03238 75.301834l-3.3737488 3.3737564l9.269318 -3.3737564l-9.269318 -3.3737488z" fill-rule="evenodd"/><path fill="#9fc5e8" d="m58.127296 75.301834l0 0c0 -7.758072 6.2891693 -14.047241 14.047241 -14.047241l0 0c3.725563 0 7.298538 1.4799728 9.932907 4.1143417c2.634369 2.634369 4.1143417 6.207344 4.1143417 9.932899l0 0c0 7.7580795 -6.2891693 14.047249 -14.047249 14.047249l0 0c-7.758072 0 -14.047241 -6.2891693 -14.047241 -14.047249z" fill-rule="evenodd"/><path stroke="#a4c2f4" stroke-width="1.0" stroke-linejoin="round" stroke-linecap="butt" d="m58.127296 75.301834l0 0c0 -7.758072 6.2891693 -14.047241 14.047241 -14.047241l0 0c3.725563 0 7.298538 1.4799728 9.932907 4.1143417c2.634369 2.634369 4.1143417 6.207344 4.1143417 9.932899l0 0c0 7.7580795 -6.2891693 14.047249 -14.047249 14.047249l0 0c-7.758072 0 -14.047241 -6.2891693 -14.047241 -14.047249z" fill-rule="evenodd"/><path fill="#9fc5e8" d="m124.232285 75.301834l0 0c0 -7.758072 6.2891693 -14.047241 14.047241 -14.047241l0 0c3.7255554 0 7.298538 1.4799728 9.932907 4.1143417c2.634369 2.634369 4.114334 6.207344 4.114334 9.932899l0 0c0 7.7580795 -6.289154 14.047249 -14.047241 14.047249l0 0c-7.758072 0 -14.047241 -6.2891693 -14.047241 -14.047249z" fill-rule="evenodd"/><path stroke="#a4c2f4" stroke-width="1.0" stroke-linejoin="round" stroke-linecap="butt" d="m124.232285 75.301834l0 0c0 -7.758072 6.2891693 -14.047241 14.047241 -14.047241l0 0c3.7255554 0 7.298538 1.4799728 9.932907 4.1143417c2.634369 2.634369 4.114334 6.207344 4.114334 9.932899l0 0c0 7.7580795 -6.289154 14.047249 -14.047241 14.047249l0 0c-7.758072 0 -14.047241 -6.2891693 -14.047241 -14.047249z" fill-rule="evenodd"/><path fill="#9fc5e8" d="m274.16666 75.301834l0 0c0 -7.758072 6.2891846 -14.047241 14.047241 -14.047241l0 0c3.725586 0 7.2985535 1.4799728 9.932922 4.1143417c2.634369 2.634369 4.1143494 6.207344 4.1143494 9.932899l0 0c0 7.7580795 -6.2891846 14.047249 -14.047272 14.047249l0 0c-7.7580566 0 -14.047241 -6.2891693 -14.047241 -14.047249z" fill-rule="evenodd"/><path stroke="#a4c2f4" stroke-width="1.0" stroke-linejoin="round" stroke-linecap="butt" d="m274.16666 75.301834l0 0c0 -7.758072 6.2891846 -14.047241 14.047241 -14.047241l0 0c3.725586 0 7.2985535 1.4799728 9.932922 4.1143417c2.634369 2.634369 4.1143494 6.207344 4.1143494 9.932899l0 0c0 7.7580795 -6.2891846 14.047249 -14.047272 14.047249l0 0c-7.7580566 0 -14.047241 -6.2891693 -14.047241 -14.047249z" fill-rule="evenodd"/><path fill="#9fc5e8" d="m371.32678 75.301834l0 0c0 -7.758072 6.289154 -14.047241 14.047241 -14.047241l0 0c3.7255554 0 7.298523 1.4799728 9.932892 4.1143417c2.634369 2.634369 4.1143494 6.207344 4.1143494 9.932899l0 0c0 7.7580795 -6.2891846 14.047249 -14.047241 14.047249l0 0c-7.758087 0 -14.047241 -6.2891693 -14.047241 -14.047249z" fill-rule="evenodd"/><path stroke="#a4c2f4" stroke-width="1.0" stroke-linejoin="round" stroke-linecap="butt" d="m371.32678 75.301834l0 0c0 -7.758072 6.289154 -14.047241 14.047241 -14.047241l0 0c3.7255554 0 7.298523 1.4799728 9.932892 4.1143417c2.634369 2.634369 4.1143494 6.207344 4.1143494 9.932899l0 0c0 7.7580795 -6.2891846 14.047249 -14.047241 14.047249l0 0c-7.758087 0 -14.047241 -6.2891693 -14.047241 -14.047249z" fill-rule="evenodd"/><path fill="#0000ff" d="m212.8727 105.20473l8.897644 -28.09449l8.897644 28.09449z" fill-rule="evenodd"/><path stroke="#0000ff" stroke-width="1.0" stroke-linejoin="round" stroke-linecap="butt" d="m212.8727 105.20473l8.897644 -28.09449l8.897644 28.09449z" fill-rule="evenodd"/><path fill="#000000" fill-opacity="0.0" d="m52.40026 44.78478l45.196854 0l0 48.47244l-45.196854 0z" fill-rule="evenodd"/><path fill="#000000" d="m62.49401 66.668526l4.09375 -0.703125q1.109375 1.734375 1.5625 3.84375q1.15625 -1.703125 1.734375 -2.390625q0.78125 -0.90625 1.296875 -1.171875q0.515625 -0.28125 1.078125 -0.28125q0.65625 0 1.0 0.359375q0.34375 0.34375 0.34375 0.9375q0 0.5625 -0.34375 0.921875q-0.34375 0.359375 -0.859375 0.359375q-0.375 0 -0.875 -0.140625q-0.484375 -0.140625 -0.671875 -0.140625q-0.484375 0 -0.9375 0.359375q-0.609375 0.484375 -1.5 2.046875q1.0 3.515625 1.59375 4.296875q0.359375 0.453125 0.71875 0.453125q0.3125 0 0.53125 -0.15625q0.34375 -0.25 1.046875 -1.234375l0.421875 0.25q-1.03125 1.671875 -2.015625 2.34375q-0.75 0.53125 -1.484375 0.53125q-0.75 0 -1.25 -0.328125q-0.5 -0.34375 -0.890625 -1.09375q-0.375 -0.765625 -0.90625 -2.421875q-1.375 1.75 -2.15625 2.546875q-0.765625 0.796875 -1.28125 1.046875q-0.515625 0.25 -1.109375 0.25q-0.609375 0 -0.96875 -0.34375q-0.359375 -0.359375 -0.359375 -0.921875q0 -0.59375 0.390625 -0.984375q0.390625 -0.390625 0.984375 -0.390625q0.3125 0 0.71875 0.1875q0.578125 0.28125 0.84375 0.28125q0.34375 0 0.609375 -0.140625q0.34375 -0.171875 0.890625 -0.765625q0.328125 -0.359375 1.203125 -1.546875q-1.125 -4.171875 -1.75 -4.984375q-0.40625 -0.53125 -1.015625 -0.53125q-0.3125 0 -0.765625 0.09375l0.078125 -0.4375z" fill-rule="nonzero"/><path fill="#000000" d="m79.08776 85.824776l-5.625 0l0 -0.296875q2.203125 -2.03125 3.703125 -3.734375q1.265625 -1.40625 1.59375 -2.15625q0.328125 -0.75 0.328125 -1.5q0 -0.71875 -0.453125 -1.15625q-0.453125 -0.453125 -1.125 -0.453125q-1.078125 0 -1.859375 1.203125l-0.28125 -0.140625q0.40625 -1.15625 1.046875 -1.75q0.90625 -0.828125 2.109375 -0.828125q1.125 0 1.859375 0.703125q0.75 0.6875 0.75 1.59375q0 0.8125 -0.359375 1.59375q-0.359375 0.78125 -1.484375 1.96875q-0.859375 0.90625 -3.484375 3.15625l2.03125 0q0.984375 0 1.375 -0.21875q0.40625 -0.234375 0.75 -0.90625l0.359375 0l-1.234375 2.921875z" fill-rule="nonzero"/><path fill="#000000" fill-opacity="0.0" d="m268.29004 44.78478l45.19684 0l0 48.47244l-45.19684 0z" fill-rule="evenodd"/><path fill="#000000" d="m278.3838 66.668526l4.09375 -0.703125q1.109375 1.734375 1.5625 3.84375q1.15625 -1.703125 1.734375 -2.390625q0.78125 -0.90625 1.296875 -1.171875q0.515625 -0.28125 1.078125 -0.28125q0.65625 0 1.0 0.359375q0.34375 0.34375 0.34375 0.9375q0 0.5625 -0.34375 0.921875q-0.34375 0.359375 -0.859375 0.359375q-0.375 0 -0.875 -0.140625q-0.484375 -0.140625 -0.671875 -0.140625q-0.484375 0 -0.9375 0.359375q-0.609375 0.484375 -1.5 2.046875q1.0 3.515625 1.59375 4.296875q0.359375 0.453125 0.71875 0.453125q0.3125 0 0.53125 -0.15625q0.34375 -0.25 1.046875 -1.234375l0.421875 0.25q-1.03125 1.671875 -2.015625 2.34375q-0.75 0.53125 -1.484375 0.53125q-0.75 0 -1.25 -0.328125q-0.5 -0.34375 -0.890625 -1.09375q-0.375 -0.765625 -0.90625 -2.421875q-1.375 1.75 -2.15625 2.546875q-0.765625 0.796875 -1.28125 1.046875q-0.515625 0.25 -1.109375 0.25q-0.609375 0 -0.96875 -0.34375q-0.359375 -0.359375 -0.359375 -0.921875q0 -0.59375 0.390625 -0.984375q0.390625 -0.390625 0.984375 -0.390625q0.3125 0 0.71875 0.1875q0.578125 0.28125 0.84375 0.28125q0.34375 0 0.609375 -0.140625q0.34375 -0.171875 0.890625 -0.765625q0.328125 -0.359375 1.203125 -1.546875q-1.125 -4.171875 -1.75 -4.984375q-0.40625 -0.53125 -1.015625 -0.53125q-0.3125 0 -0.765625 0.09375l0.078125 -0.4375z" fill-rule="nonzero"/><path fill="#000000" d="m296.41504 75.012276l-2.59375 8.890625q-0.203125 0.6875 -0.203125 0.875q0 0.1875 0.140625 0.390625q0.15625 0.203125 0.3125 0.265625q0.171875 0.046875 1.015625 0.09375l-0.078125 0.296875l-5.34375 0l0.09375 -0.296875q0.796875 -0.015625 1.109375 -0.125q0.3125 -0.125 0.5 -0.390625q0.203125 -0.265625 0.453125 -1.109375l1.53125 -5.28125q0.359375 -1.203125 0.375 -1.28125q0.046875 -0.203125 0.046875 -0.375q0 -0.359375 -0.21875 -0.5625q-0.21875 -0.203125 -0.609375 -0.203125q-0.203125 0 -0.78125 0.0625l-0.0625 -0.296875l3.984375 -0.953125l0.328125 0z" fill-rule="nonzero"/><path fill="#000000" fill-opacity="0.0" d="m119.18767 44.78478l45.196854 0l0 48.47244l-45.196854 0z" fill-rule="evenodd"/><path fill="#000000" d="m129.28142 66.668526l4.09375 -0.703125q1.109375 1.734375 1.5625 3.84375q1.15625 -1.703125 1.734375 -2.390625q0.78125 -0.90625 1.296875 -1.171875q0.515625 -0.28125 1.078125 -0.28125q0.65625 0 1.0 0.359375q0.34375 0.34375 0.34375 0.9375q0 0.5625 -0.34375 0.921875q-0.34375 0.359375 -0.859375 0.359375q-0.375 0 -0.875 -0.140625q-0.484375 -0.140625 -0.671875 -0.140625q-0.484375 0 -0.9375 0.359375q-0.609375 0.484375 -1.5 2.046875q1.0 3.515625 1.59375 4.296875q0.359375 0.453125 0.71875 0.453125q0.3125 0 0.53125 -0.15625q0.34375 -0.25 1.046875 -1.234375l0.421875 0.25q-1.03125 1.671875 -2.015625 2.34375q-0.75 0.53125 -1.484375 0.53125q-0.75 0 -1.25 -0.328125q-0.5 -0.34375 -0.890625 -1.09375q-0.375 -0.765625 -0.90625 -2.421875q-1.375 1.75 -2.15625 2.546875q-0.765625 0.796875 -1.28125 1.046875q-0.515625 0.25 -1.109375 0.25q-0.609375 0 -0.96875 -0.34375q-0.359375 -0.359375 -0.359375 -0.921875q0 -0.59375 0.390625 -0.984375q0.390625 -0.390625 0.984375 -0.390625q0.3125 0 0.71875 0.1875q0.578125 0.28125 0.84375 0.28125q0.34375 0 0.609375 -0.140625q0.34375 -0.171875 0.890625 -0.765625q0.328125 -0.359375 1.203125 -1.546875q-1.125 -4.171875 -1.75 -4.984375q-0.40625 -0.53125 -1.015625 -0.53125q-0.3125 0 -0.765625 0.09375l0.078125 -0.4375z" fill-rule="nonzero"/><path fill="#000000" d="m143.93767 83.5904l-3.46875 0l0.390625 -1.3125l6.34375 -7.265625l1.015625 0l-2.125 7.265625l1.234375 0l-0.421875 1.3125l-1.1875 0l-0.71875 2.453125l-1.78125 0l0.71875 -2.453125zm0.390625 -1.3125l1.3125 -4.640625l-4.015625 4.640625l2.703125 0z" fill-rule="nonzero"/><path fill="#000000" fill-opacity="0.0" d="m365.45013 44.78478l45.19684 0l0 48.47244l-45.19684 0z" fill-rule="evenodd"/><path fill="#000000" d="m375.54388 66.668526l4.09375 -0.703125q1.109375 1.734375 1.5625 3.84375q1.15625 -1.703125 1.734375 -2.390625q0.78125 -0.90625 1.296875 -1.171875q0.515625 -0.28125 1.078125 -0.28125q0.65625 0 1.0 0.359375q0.34375 0.34375 0.34375 0.9375q0 0.5625 -0.34375 0.921875q-0.34375 0.359375 -0.859375 0.359375q-0.375 0 -0.875 -0.140625q-0.484375 -0.140625 -0.671875 -0.140625q-0.484375 0 -0.9375 0.359375q-0.609375 0.484375 -1.5 2.046875q1.0 3.515625 1.59375 4.296875q0.359375 0.453125 0.71875 0.453125q0.3125 0 0.53125 -0.15625q0.34375 -0.25 1.046875 -1.234375l0.421875 0.25q-1.03125 1.671875 -2.015625 2.34375q-0.75 0.53125 -1.484375 0.53125q-0.75 0 -1.25 -0.328125q-0.5 -0.34375 -0.890625 -1.09375q-0.375 -0.765625 -0.90625 -2.421875q-1.375 1.75 -2.15625 2.546875q-0.765625 0.796875 -1.28125 1.046875q-0.515625 0.25 -1.109375 0.25q-0.609375 0 -0.96875 -0.34375q-0.359375 -0.359375 -0.359375 -0.921875q0 -0.59375 0.390625 -0.984375q0.390625 -0.390625 0.984375 -0.390625q0.3125 0 0.71875 0.1875q0.578125 0.28125 0.84375 0.28125q0.34375 0 0.609375 -0.140625q0.34375 -0.171875 0.890625 -0.765625q0.328125 -0.359375 1.203125 -1.546875q-1.125 -4.171875 -1.75 -4.984375q-0.40625 -0.53125 -1.015625 -0.53125q-0.3125 0 -0.765625 0.09375l0.078125 -0.4375z" fill-rule="nonzero"/><path fill="#000000" d="m388.497 80.05915l0.09375 -0.328125q1.09375 -0.15625 1.75 -0.46875q0.890625 -0.390625 1.296875 -0.90625q0.40625 -0.53125 0.40625 -1.125q0 -0.515625 -0.375 -0.875q-0.359375 -0.375 -0.90625 -0.375q-0.421875 0 -0.796875 0.234375q-0.359375 0.21875 -0.796875 0.78125l-0.3125 -0.15625q0.65625 -0.984375 1.3125 -1.40625q0.671875 -0.421875 1.484375 -0.421875q1.03125 0 1.671875 0.578125q0.640625 0.578125 0.640625 1.390625q0 0.640625 -0.3125 1.125q-0.3125 0.46875 -0.921875 0.828125q-0.4375 0.25 -1.390625 0.515625q0.859375 0.375 1.21875 0.84375q0.515625 0.703125 0.515625 1.6875q0 1.84375 -1.59375 3.046875q-1.328125 1.015625 -3.09375 1.015625q-0.9375 0 -1.40625 -0.359375q-0.328125 -0.234375 -0.328125 -0.640625q0 -0.359375 0.25 -0.59375q0.25 -0.234375 0.609375 -0.234375q0.1875 0 0.359375 0.078125q0.296875 0.125 0.890625 0.53125q0.59375 0.40625 0.984375 0.40625q0.484375 0 0.859375 -0.5q0.53125 -0.71875 0.53125 -1.8125q0 -0.859375 -0.34375 -1.5q-0.34375 -0.640625 -0.890625 -0.9375q-0.53125 -0.3125 -1.40625 -0.421875z" fill-rule="nonzero"/><path fill="#000000" fill-opacity="0.0" d="m205.33202 38.965878l45.196854 0l0 48.472446l-45.196854 0z" fill-rule="evenodd"/><path fill="#000000" d="m221.55077 63.66213l-2.46875 -5.765625q-0.65625 -1.53125 -1.0625 -1.890625q-0.40625 -0.375 -1.265625 -0.453125l0 -0.4375l7.015625 0l-0.125 0.4375q-0.75 0.046875 -1.015625 0.28125q-0.25 0.234375 -0.25 0.625q0 0.453125 0.421875 1.4375l1.40625 3.328125l1.953125 -1.796875q1.640625 -1.484375 2.09375 -2.234375q0.265625 -0.421875 0.265625 -0.78125q0 -0.3125 -0.28125 -0.5625q-0.28125 -0.265625 -0.921875 -0.296875l0.140625 -0.4375l5.1875 0l-0.09375 0.4375q-0.59375 0.09375 -1.078125 0.421875q-0.796875 0.5 -2.625 2.1875l-4.28125 3.921875l2.40625 5.593754q0.828125 1.90625 1.234375 2.328125q0.421875 0.40625 1.25 0.5625l-0.125 0.4375l-7.046875 0l0.140625 -0.4375q0.75 -0.015625 1.078125 -0.296875q0.34375 -0.28125 0.34375 -0.703125q0 -0.578125 -0.65625 -2.078125l-1.28125 -2.984375l-2.9375 2.71875q-1.390625 1.296875 -1.625 1.6875q-0.21875 0.390625 -0.21875 0.75q0 0.34375 0.328125 0.625q0.328125 0.265625 1.078125 0.28125l-0.140625 0.4375l-5.515625 0l0.109375 -0.4375q0.625 -0.109375 1.078125 -0.390625q1.09375 -0.65625 2.6875 -2.125l4.796875 -4.390629z" fill-rule="nonzero"/><path fill="#000000" fill-opacity="0.0" d="m215.54987 50.501312l17.952759 0" fill-rule="evenodd"/><path stroke="#000000" stroke-width="2.0" stroke-linejoin="round" stroke-linecap="butt" d="m215.54987 50.501312l17.952759 0" fill-rule="evenodd"/><path fill="#000000" fill-opacity="0.0" d="m73.08268 41.475067c0 -2.2700233 1.84021 -4.110237 4.110237 -4.110237l66.58267 0c2.2700195 0 4.1102448 -1.8402176 4.1102448 -4.110237l0 0c0 2.2700195 1.84021 4.110237 4.1102295 4.110237l66.58267 0l0 0c2.2700195 0 4.1102448 1.8402138 4.1102448 4.110237z" fill-rule="evenodd"/><path fill="#000000" fill-opacity="0.0" d="m73.08268 41.475067c0 -2.2700233 1.84021 -4.110237 4.110237 -4.110237l66.58267 0c2.2700195 0 4.1102448 -1.8402176 4.1102448 -4.110237l0 0c0 2.2700195 1.84021 4.110237 4.1102295 4.110237l66.58267 0l0 0c2.2700195 0 4.1102448 1.8402138 4.1102448 4.110237" fill-rule="evenodd"/><path stroke="#000000" stroke-width="1.0" stroke-linejoin="round" stroke-linecap="butt" d="m73.08268 41.475067c0 -2.2700233 1.84021 -4.110237 4.110237 -4.110237l66.58267 0c2.2700195 0 4.1102448 -1.8402176 4.1102448 -4.110237l0 0c0 2.2700195 1.84021 4.110237 4.1102295 4.110237l66.58267 0l0 0c2.2700195 0 4.1102448 1.8402138 4.1102448 4.110237" fill-rule="evenodd"/><path fill="#000000" fill-opacity="0.0" d="m140.41731 112.12861c0 2.7048874 2.192749 4.8976364 4.897644 4.8976364l31.496063 0c2.7048798 0 4.897629 2.192749 4.897629 4.8976364l0 0c0 -2.7048874 2.192749 -4.8976364 4.897644 -4.8976364l31.496063 0l0 0c2.7048798 0 4.897629 -2.192749 4.897629 -4.8976364z" fill-rule="evenodd"/><path fill="#000000" fill-opacity="0.0" d="m140.41731 112.12861c0 2.7048874 2.192749 4.8976364 4.897644 4.8976364l31.496063 0c2.7048798 0 4.897629 2.192749 4.897629 4.8976364l0 0c0 -2.7048874 2.192749 -4.8976364 4.897644 -4.8976364l31.496063 0l0 0c2.7048798 0 4.897629 -2.192749 4.897629 -4.8976364" fill-rule="evenodd"/><path stroke="#000000" stroke-width="1.0" stroke-linejoin="round" stroke-linecap="butt" d="m140.41731 112.12861c0 2.7048874 2.192749 4.8976364 4.897644 4.8976364l31.496063 0c2.7048798 0 4.897629 2.192749 4.897629 4.8976364l0 0c0 -2.7048874 2.192749 -4.8976364 4.897644 -4.8976364l31.496063 0l0 0c2.7048798 0 4.897629 -2.192749 4.897629 -4.8976364" fill-rule="evenodd"/><path fill="#000000" fill-opacity="0.0" d="m223.37534 41.475067c0 -2.2700233 1.84021 -4.110237 4.1102295 -4.110237l20.803162 0c2.2700195 0 4.1102295 -1.8402176 4.1102295 -4.110237l0 0c0 2.2700195 1.84021 4.110237 4.1102295 4.110237l20.803162 0l0 0c2.2700195 0 4.1102295 1.8402138 4.1102295 4.110237z" fill-rule="evenodd"/><path fill="#000000" fill-opacity="0.0" d="m223.37534 41.475067c0 -2.2700233 1.84021 -4.110237 4.1102295 -4.110237l20.803162 0c2.2700195 0 4.1102295 -1.8402176 4.1102295 -4.110237l0 0c0 2.2700195 1.84021 4.110237 4.1102295 4.110237l20.803162 0l0 0c2.2700195 0 4.1102295 1.8402138 4.1102295 4.110237" fill-rule="evenodd"/><path stroke="#000000" stroke-width="1.0" stroke-linejoin="round" stroke-linecap="butt" d="m223.37534 41.475067c0 -2.2700233 1.84021 -4.110237 4.1102295 -4.110237l20.803162 0c2.2700195 0 4.1102295 -1.8402176 4.1102295 -4.110237l0 0c0 2.2700195 1.84021 4.110237 4.1102295 4.110237l20.803162 0l0 0c2.2700195 0 4.1102295 1.8402138 4.1102295 4.110237" fill-rule="evenodd"/><path fill="#000000" fill-opacity="0.0" d="m223.37007 112.12861c0 2.7048874 2.192749 4.8976364 4.897644 4.8976364l68.61418 0c2.7048645 0 4.8976135 2.192749 4.8976135 4.8976364l0 0c0 -2.7048874 2.192749 -4.8976364 4.897644 -4.8976364l68.61417 0l0 0c2.704895 0 4.897644 -2.192749 4.897644 -4.8976364z" fill-rule="evenodd"/><path fill="#000000" fill-opacity="0.0" d="m223.37007 112.12861c0 2.7048874 2.192749 4.8976364 4.897644 4.8976364l68.61418 0c2.7048645 0 4.8976135 2.192749 4.8976135 4.8976364l0 0c0 -2.7048874 2.192749 -4.8976364 4.897644 -4.8976364l68.61417 0l0 0c2.704895 0 4.897644 -2.192749 4.897644 -4.8976364" fill-rule="evenodd"/><path stroke="#000000" stroke-width="1.0" stroke-linejoin="round" stroke-linecap="butt" d="m223.37007 112.12861c0 2.7048874 2.192749 4.8976364 4.897644 4.8976364l68.61418 0c2.7048645 0 4.8976135 2.192749 4.8976135 4.8976364l0 0c0 -2.7048874 2.192749 -4.8976364 4.897644 -4.8976364l68.61417 0l0 0c2.704895 0 4.897644 -2.192749 4.897644 -4.8976364" fill-rule="evenodd"/><path fill="#000000" fill-opacity="0.0" d="m131.36482 -9.9973755l45.196854 0l0 48.472443l-45.196854 0z" fill-rule="evenodd"/><path fill="#000000" d="m153.45857 5.7926254l-3.8125 13.109375q-0.359375 1.234375 -0.359375 1.484375q0 0.125 0.09375 0.21875q0.09375 0.09375 0.203125 0.09375q0.1875 0 0.453125 -0.1875q0.4375 -0.328125 1.046875 -1.25l0.421875 0.21875q-1.640625 2.890625 -3.625 2.890625q-0.703125 0 -1.09375 -0.359375q-0.375 -0.375 -0.375 -0.953125q0 -0.546875 0.3125 -1.578125l0.34375 -1.1875q-1.46875 2.59375 -2.546875 3.4375q-0.8125 0.640625 -1.59375 0.640625q-0.875 0 -1.484375 -0.71875q-0.59375 -0.71875 -0.59375 -2.078125q0 -1.75 0.765625 -3.453125q0.78125 -1.703125 1.796875 -2.828125q1.015625 -1.140625 1.921875 -1.625q0.921875 -0.484375 1.8125 -0.484375q0.46875 0 0.8125 0.1875q0.359375 0.1875 0.828125 0.703125l0.859375 -2.921875q0.3125 -1.078125 0.3125 -1.546875q0 -0.28125 -0.21875 -0.484375q-0.203125 -0.203125 -0.546875 -0.203125q-0.171875 0 -0.40625 0.046875l0.109375 -0.46875l3.859375 -0.703125l0.703125 0zm-5.15625 7.421875q0 -0.71875 -0.28125 -1.046875q-0.28125 -0.328125 -0.65625 -0.328125q-0.375 0 -0.8125 0.390625q-0.828125 0.75 -1.734375 3.015625q-0.90625 2.265625 -0.90625 3.8125q0 0.5625 0.1875 0.84375q0.203125 0.265625 0.453125 0.265625q0.40625 0 0.8125 -0.375q1.0 -0.890625 1.96875 -3.0625q0.96875 -2.171875 0.96875 -3.515625z" fill-rule="nonzero"/><path fill="#000000" d="m158.05232 31.042625l-5.625 0l0 -0.296875q2.203125 -2.03125 3.703125 -3.734375q1.265625 -1.40625 1.59375 -2.15625q0.328125 -0.75 0.328125 -1.5q0 -0.71875 -0.453125 -1.15625q-0.453125 -0.453125 -1.125 -0.453125q-1.078125 0 -1.859375 1.203125l-0.28125 -0.140625q0.40625 -1.15625 1.046875 -1.75q0.90625 -0.828125 2.109375 -0.828125q1.125 0 1.859375 0.703125q0.75 0.6875 0.75 1.59375q0 0.8125 -0.359375 1.59375q-0.359375 0.78125 -1.484375 1.96875q-0.859375 0.90625 -3.484375 3.15625l2.03125 0q0.984375 0 1.375 -0.21875q0.40625 -0.234375 0.75 -0.90625l0.359375 0l-1.234375 2.921875z" fill-rule="nonzero"/><path fill="#000000" fill-opacity="0.0" d="m236.2231 -9.9973755l45.196854 0l0 48.472443l-45.196854 0z" fill-rule="evenodd"/><path fill="#000000" d="m258.31683 5.7926254l-3.8124847 13.109375q-0.359375 1.234375 -0.359375 1.484375q0 0.125 0.09375 0.21875q0.09375 0.09375 0.203125 0.09375q0.1875 0 0.453125 -0.1875q0.4375 -0.328125 1.046875 -1.25l0.42185974 0.21875q-1.6406097 2.890625 -3.6249847 2.890625q-0.703125 0 -1.09375 -0.359375q-0.375 -0.375 -0.375 -0.953125q0 -0.546875 0.3125 -1.578125l0.34375 -1.1875q-1.46875 2.59375 -2.546875 3.4375q-0.8125 0.640625 -1.59375 0.640625q-0.875 0 -1.484375 -0.71875q-0.59375 -0.71875 -0.59375 -2.078125q0 -1.75 0.765625 -3.453125q0.78125 -1.703125 1.796875 -2.828125q1.015625 -1.140625 1.921875 -1.625q0.921875 -0.484375 1.8125 -0.484375q0.46875 0 0.8125 0.1875q0.359375 0.1875 0.828125 0.703125l0.859375 -2.921875q0.3125 -1.078125 0.3125 -1.546875q0 -0.28125 -0.21875 -0.484375q-0.203125 -0.203125 -0.546875 -0.203125q-0.171875 0 -0.40625 0.046875l0.109375 -0.46875l3.8593597 -0.703125l0.703125 0zm-5.1562347 7.421875q0 -0.71875 -0.28125 -1.046875q-0.28125 -0.328125 -0.65625 -0.328125q-0.375 0 -0.8125 0.390625q-0.828125 0.75 -1.734375 3.015625q-0.90625 2.265625 -0.90625 3.8125q0 0.5625 0.1875 0.84375q0.203125 0.265625 0.453125 0.265625q0.40625 0 0.8125 -0.375q1.0 -0.890625 1.96875 -3.0625q0.96875 -2.171875 0.96875 -3.515625z" fill-rule="nonzero"/><path fill="#000000" d="m264.34808 20.230125l-2.59375 8.890625q-0.203125 0.6875 -0.203125 0.875q0 0.1875 0.140625 0.390625q0.15625 0.203125 0.3125 0.265625q0.171875 0.046875 1.015625 0.09375l-0.078125 0.296875l-5.34375 0l0.09375 -0.296875q0.796875 -0.015625 1.109375 -0.125q0.3125 -0.125 0.5 -0.390625q0.203125 -0.265625 0.453125 -1.109375l1.53125 -5.28125q0.359375 -1.203125 0.375 -1.28125q0.046875 -0.203125 0.046875 -0.375q0 -0.359375 -0.21875 -0.5625q-0.21875 -0.203125 -0.609375 -0.203125q-0.203125 0 -0.78125 0.0625l-0.0625 -0.296875l3.984375 -0.953125l0.328125 0z" fill-rule="nonzero"/><path fill="#000000" fill-opacity="0.0" d="m159.45145 112.12861l45.196854 0l0 48.472435l-45.196854 0z" fill-rule="evenodd"/><path fill="#000000" d="m181.5452 127.91861l-3.8125 13.109375q-0.359375 1.234375 -0.359375 1.484375q0 0.125 0.09375 0.21875q0.09375 0.09375 0.203125 0.09375q0.1875 0 0.453125 -0.1875q0.4375 -0.328125 1.046875 -1.25l0.421875 0.21875q-1.640625 2.890625 -3.625 2.890625q-0.703125 0 -1.09375 -0.359375q-0.375 -0.375 -0.375 -0.953125q0 -0.546875 0.3125 -1.578125l0.34375 -1.1875q-1.46875 2.59375 -2.546875 3.4375q-0.8125 0.640625 -1.59375 0.640625q-0.875 0 -1.484375 -0.71875q-0.59375 -0.71875 -0.59375 -2.078125q0 -1.75 0.765625 -3.453125q0.78125 -1.703125 1.796875 -2.828125q1.015625 -1.140625 1.921875 -1.625q0.921875 -0.484375 1.8125 -0.484375q0.46875 0 0.8125 0.1875q0.359375 0.1875 0.828125 0.703125l0.859375 -2.921875q0.3125 -1.078125 0.3125 -1.546875q0 -0.28125 -0.21875 -0.484375q-0.203125 -0.203125 -0.546875 -0.203125q-0.171875 0 -0.40625 0.046875l0.109375 -0.46875l3.859375 -0.703125l0.703125 0zm-5.15625 7.421875q0 -0.71875 -0.28125 -1.046875q-0.28125 -0.328125 -0.65625 -0.328125q-0.375 0 -0.8125 0.390625q-0.828125 0.75 -1.734375 3.015625q-0.90625 2.265625 -0.90625 3.8125q0 0.5625 0.1875 0.84375q0.203125 0.265625 0.453125 0.265625q0.40625 0 0.8125 -0.375q1.0 -0.890625 1.96875 -3.0625q0.96875 -2.171875 0.96875 -3.515625z" fill-rule="nonzero"/><path fill="#000000" d="m184.20145 150.93423l-3.46875 0l0.390625 -1.3125l6.34375 -7.265625l1.015625 0l-2.125 7.265625l1.234375 0l-0.421875 1.3125l-1.1875 0l-0.71875 2.453125l-1.78125 0l0.71875 -2.453125zm0.390625 -1.3125l1.3125 -4.640625l-4.015625 4.640625l2.703125 0z" fill-rule="nonzero"/><path fill="#000000" fill-opacity="0.0" d="m278.83203 112.12861l45.19684 0l0 48.472435l-45.19684 0z" fill-rule="evenodd"/><path fill="#000000" d="m300.92578 127.91861l-3.8125 13.109375q-0.359375 1.234375 -0.359375 1.484375q0 0.125 0.09375 0.21875q0.09375 0.09375 0.203125 0.09375q0.1875 0 0.453125 -0.1875q0.4375 -0.328125 1.046875 -1.25l0.421875 0.21875q-1.640625 2.890625 -3.625 2.890625q-0.703125 0 -1.09375 -0.359375q-0.375 -0.375 -0.375 -0.953125q0 -0.546875 0.3125 -1.578125l0.34375 -1.1875q-1.46875 2.59375 -2.546875 3.4375q-0.8125 0.640625 -1.59375 0.640625q-0.875 0 -1.484375 -0.71875q-0.59375 -0.71875 -0.59375 -2.078125q0 -1.75 0.765625 -3.453125q0.78125 -1.703125 1.796875 -2.828125q1.015625 -1.140625 1.921875 -1.625q0.921875 -0.484375 1.8125 -0.484375q0.46875 0 0.8125 0.1875q0.359375 0.1875 0.828125 0.703125l0.859375 -2.921875q0.3125 -1.078125 0.3125 -1.546875q0 -0.28125 -0.21875 -0.484375q-0.203125 -0.203125 -0.546875 -0.203125q-0.171875 0 -0.40625 0.046875l0.109375 -0.46875l3.859375 -0.703125l0.703125 0zm-5.15625 7.421875q0 -0.71875 -0.28125 -1.046875q-0.28125 -0.328125 -0.65625 -0.328125q-0.375 0 -0.8125 0.390625q-0.828125 0.75 -1.734375 3.015625q-0.90625 2.265625 -0.90625 3.8125q0 0.5625 0.1875 0.84375q0.203125 0.265625 0.453125 0.265625q0.40625 0 0.8125 -0.375q1.0 -0.890625 1.96875 -3.0625q0.96875 -2.171875 0.96875 -3.515625z" fill-rule="nonzero"/><path fill="#000000" d="m301.8789 147.40298l0.09375 -0.328125q1.09375 -0.15625 1.75 -0.46875q0.890625 -0.390625 1.296875 -0.90625q0.40625 -0.53125 0.40625 -1.125q0 -0.515625 -0.375 -0.875q-0.359375 -0.375 -0.90625 -0.375q-0.421875 0 -0.796875 0.234375q-0.359375 0.21875 -0.796875 0.78125l-0.3125 -0.15625q0.65625 -0.984375 1.3125 -1.40625q0.671875 -0.421875 1.484375 -0.421875q1.03125 0 1.671875 0.578125q0.640625 0.578125 0.640625 1.390625q0 0.640625 -0.3125 1.125q-0.3125 0.46875 -0.921875 0.828125q-0.4375 0.25 -1.390625 0.515625q0.859375 0.375 1.21875 0.84375q0.515625 0.703125 0.515625 1.6875q0 1.84375 -1.59375 3.046875q-1.328125 1.015625 -3.09375 1.015625q-0.9375 0 -1.40625 -0.359375q-0.328125 -0.234375 -0.328125 -0.640625q0 -0.359375 0.25 -0.59375q0.25 -0.234375 0.609375 -0.234375q0.1875 0 0.359375 0.078125q0.296875 0.125 0.890625 0.53125q0.59375 0.40625 0.984375 0.40625q0.484375 0 0.859375 -0.5q0.53125 -0.71875 0.53125 -1.8125q0 -0.859375 -0.34375 -1.5q-0.34375 -0.640625 -0.890625 -0.9375q-0.53125 -0.3125 -1.40625 -0.421875z" fill-rule="nonzero"/></g></svg>