<svg version="1.1" viewBox="0.0 0.0 797.5564304461942 552.1548556430446" fill="none" stroke="none" stroke-linecap="square" stroke-miterlimit="10" xmlns:xlink="http://www.w3.org/1999/xlink" xmlns="http://www.w3.org/2000/svg"><clipPath id="p.0"><path d="m0 0l797.55646 0l0 552.15485l-797.55646 0l0 -552.15485z" clip-rule="nonzero"/></clipPath><g clip-path="url(#p.0)"><path fill="#000000" fill-opacity="0.0" d="m0 0l797.55646 0l0 552.15485l-797.55646 0z" fill-rule="evenodd"/><path fill="#000000" fill-opacity="0.0" d="m50.929134 491.958l0 -450.29922" fill-rule="evenodd"/><path stroke="#000000" stroke-width="4.0" stroke-linejoin="round" stroke-linecap="butt" d="m50.929134 491.958l0 -426.29922" fill-rule="evenodd"/><path fill="#000000" stroke="#000000" stroke-width="4.0" stroke-linecap="butt" d="m57.536064 65.65879l-6.60693 -18.15239l-6.60693 18.15239z" fill-rule="evenodd"/><path fill="#000000" fill-opacity="0.0" d="m50.929134 491.958l731.5906 0" fill-rule="evenodd"/><path stroke="#000000" stroke-width="4.0" stroke-linejoin="round" stroke-linecap="butt" d="m50.929134 491.958l707.5906 0" fill-rule="evenodd"/><path fill="#000000" stroke="#000000" stroke-width="4.0" stroke-linecap="butt" d="m758.5197 498.56494l18.152344 -6.6069336l-18.152344 -6.6069336z" fill-rule="evenodd"/><path fill="#cfe2f3" d="m156.26509 424.79266l0 0c0 -7.036194 5.703964 -12.740173 12.740158 -12.740173l0 0c3.3789062 0 6.6194153 1.3422546 9.008652 3.7315063c2.3892365 2.3892517 3.7315063 5.6297607 3.7315063 9.008667l0 0c0 7.036194 -5.703964 12.740143 -12.740158 12.740143l0 0c-7.036194 0 -12.740158 -5.703949 -12.740158 -12.740143z" fill-rule="evenodd"/><path stroke="#000000" stroke-width="2.0" stroke-linejoin="round" stroke-linecap="butt" d="m156.26509 424.79266l0 0c0 -7.036194 5.703964 -12.740173 12.740158 -12.740173l0 0c3.3789062 0 6.6194153 1.3422546 9.008652 3.7315063c2.3892365 2.3892517 3.7315063 5.6297607 3.7315063 9.008667l0 0c0 7.036194 -5.703964 12.740143 -12.740158 12.740143l0 0c-7.036194 0 -12.740158 -5.703949 -12.740158 -12.740143z" fill-rule="evenodd"/><path fill="#cfe2f3" d="m231.29921 266.8084l0 0c0 -7.036194 5.703964 -12.740173 12.740158 -12.740173l0 0c3.3789062 0 6.6194153 1.3422699 9.008652 3.7315063c2.3892517 2.3892517 3.7315216 5.6297607 3.7315216 9.008667l0 0c0 7.036194 -5.7039795 12.740143 -12.740173 12.740143l0 0c-7.036194 0 -12.740158 -5.703949 -12.740158 -12.740143z" fill-rule="evenodd"/><path stroke="#000000" stroke-width="2.0" stroke-linejoin="round" stroke-linecap="butt" d="m231.29921 266.8084l0 0c0 -7.036194 5.703964 -12.740173 12.740158 -12.740173l0 0c3.3789062 0 6.6194153 1.3422699 9.008652 3.7315063c2.3892517 2.3892517 3.7315216 5.6297607 3.7315216 9.008667l0 0c0 7.036194 -5.7039795 12.740143 -12.740173 12.740143l0 0c-7.036194 0 -12.740158 -5.703949 -12.740158 -12.740143z" fill-rule="evenodd"/><path fill="#cfe2f3" d="m413.98688 399.31235l0 0c0 -7.036194 5.703949 -12.740173 12.740143 -12.740173l0 0c3.3789062 0 6.6194153 1.3422546 9.008667 3.7315063c2.3892517 2.3892517 3.7315063 5.6297607 3.7315063 9.008667l0 0c0 7.036194 -5.7039795 12.740143 -12.740173 12.740143l0 0c-7.036194 0 -12.740143 -5.703949 -12.740143 -12.740143z" fill-rule="evenodd"/><path stroke="#000000" stroke-width="2.0" stroke-linejoin="round" stroke-linecap="butt" d="m413.98688 399.31235l0 0c0 -7.036194 5.703949 -12.740173 12.740143 -12.740173l0 0c3.3789062 0 6.6194153 1.3422546 9.008667 3.7315063c2.3892517 2.3892517 3.7315063 5.6297607 3.7315063 9.008667l0 0c0 7.036194 -5.7039795 12.740143 -12.740173 12.740143l0 0c-7.036194 0 -12.740143 -5.703949 -12.740143 -12.740143z" fill-rule="evenodd"/><path fill="#cfe2f3" d="m451.02887 166.07349l0 0c0 -7.036194 5.7039795 -12.740158 12.740173 -12.740158l0 0c3.3788757 0 6.619385 1.3422699 9.008636 3.7315063c2.3892517 2.3892517 3.7315063 5.6297607 3.7315063 9.008652l0 0c0 7.036194 -5.703949 12.740158 -12.740143 12.740158l0 0c-7.036194 0 -12.740173 -5.703964 -12.740173 -12.740158z" fill-rule="evenodd"/><path stroke="#000000" stroke-width="2.0" stroke-linejoin="round" stroke-linecap="butt" d="m451.02887 166.07349l0 0c0 -7.036194 5.7039795 -12.740158 12.740173 -12.740158l0 0c3.3788757 0 6.619385 1.3422699 9.008636 3.7315063c2.3892517 2.3892517 3.7315063 5.6297607 3.7315063 9.008652l0 0c0 7.036194 -5.703949 12.740158 -12.740143 12.740158l0 0c-7.036194 0 -12.740173 -5.703964 -12.740173 -12.740158z" fill-rule="evenodd"/><path fill="#cfe2f3" d="m619.61945 266.8084l0 0c0 -7.036194 5.7039185 -12.740173 12.740112 -12.740173l0 0c3.3789062 0 6.619446 1.3422699 9.008667 3.7315063c2.3892212 2.3892517 3.7315063 5.6297607 3.7315063 9.008667l0 0c0 7.036194 -5.7039795 12.740143 -12.740173 12.740143l0 0c-7.036194 0 -12.740112 -5.703949 -12.740112 -12.740143z" fill-rule="evenodd"/><path stroke="#000000" stroke-width="2.0" stroke-linejoin="round" stroke-linecap="butt" d="m619.61945 266.8084l0 0c0 -7.036194 5.7039185 -12.740173 12.740112 -12.740173l0 0c3.3789062 0 6.619446 1.3422699 9.008667 3.7315063c2.3892212 2.3892517 3.7315063 5.6297607 3.7315063 9.008667l0 0c0 7.036194 -5.7039795 12.740143 -12.740173 12.740143l0 0c-7.036194 0 -12.740112 -5.703949 -12.740112 -12.740143z" fill-rule="evenodd"/><path fill="#000000" fill-opacity="0.0" d="m0 0l50.929134 0l0 67.874016l-50.929134 0z" fill-rule="evenodd"/><path fill="#000000" d="m19.59375 35.696873l-2.234375 -9.640625q-0.5625 -2.5 -1.359375 -3.421875q-0.609375 -0.703125 -2.21875 -1.0l0.21875 -0.71875l12.71875 0l-0.234375 0.71875q-1.859375 0 -2.71875 0.75q-0.84375 0.75 -0.84375 1.796875q0 0.640625 0.359375 2.234375l1.71875 7.84375l4.28125 -5.90625q1.640625 -2.265625 2.046875 -3.1875q0.40625 -0.9375 0.40625 -1.640625q0 -0.703125 -0.53125 -1.21875q-0.515625 -0.53125 -1.6875 -0.671875l0.203125 -0.71875l7.953125 0l0 0.71875q-1.078125 0.125 -1.859375 0.71875q-0.78125 0.578125 -3.046875 3.703125l-7.515625 10.34375l-1.75 6.140625q-0.578125 1.890625 -0.578125 2.203125q0 0.84375 0.640625 1.390625q0.65625 0.546875 2.171875 0.546875l0.75 0l-0.21875 0.71875l-13.546875 0l0.1875 -0.71875q1.484375 0.015625 2.375 -0.40625q0.90625 -0.421875 1.359375 -1.078125q0.3125 -0.46875 0.921875 -2.5l2.03125 -7.0z" fill-rule="nonzero"/><path fill="#000000" fill-opacity="0.0" d="m751.2651 491.958l50.92914 0l0 67.87402l-50.92914 0z" fill-rule="evenodd"/><path fill="#000000" d="m772.2963 527.10803l-4.125 -9.609375q-1.09375 -2.53125 -1.765625 -3.140625q-0.671875 -0.625 -2.109375 -0.765625l0 -0.71875l11.6875 0l-0.203125 0.71875q-1.234375 0.09375 -1.671875 0.484375q-0.421875 0.390625 -0.421875 1.046875q0 0.75 0.6875 2.375l2.34375 5.546875l3.25 -2.984375q2.734375 -2.484375 3.5 -3.71875q0.453125 -0.71875 0.453125 -1.296875q0 -0.53125 -0.484375 -0.953125q-0.46875 -0.4375 -1.53125 -0.5l0.234375 -0.71875l8.65625 0l-0.171875 0.71875q-0.984375 0.171875 -1.796875 0.703125q-1.3125 0.84375 -4.375 3.65625l-7.140625 6.546875l4.015625 9.3125q1.375 3.1875 2.0625 3.875q0.703125 0.671875 2.078125 0.953125l-0.203125 0.71875l-11.734375 0l0.234375 -0.71875q1.234375 -0.03125 1.796875 -0.5q0.5625 -0.484375 0.5625 -1.1875q0 -0.953125 -1.09375 -3.453125l-2.140625 -4.984375l-4.890625 4.546875q-2.328125 2.15625 -2.703125 2.8125q-0.375 0.65625 -0.375 1.234375q0 0.59375 0.546875 1.046875q0.546875 0.4375 1.796875 0.484375l-0.234375 0.71875l-9.1875 0l0.1875 -0.71875q1.046875 -0.203125 1.78125 -0.65625q1.828125 -1.09375 4.484375 -3.546875l8.0 -7.328125z" fill-rule="nonzero"/><path fill="#000000" fill-opacity="0.0" d="m53.262466 433.2021l692.4095 -291.1811" fill-rule="evenodd"/><path stroke="#ff0000" stroke-width="8.0" stroke-linejoin="round" stroke-linecap="butt" d="m53.262466 433.2021l692.4095 -291.1811" fill-rule="evenodd"/><path fill="#000000" fill-opacity="0.0" d="m244.03937 279.54855l0 69.322845" fill-rule="evenodd"/><path stroke="#000000" stroke-width="2.0" stroke-linejoin="round" stroke-linecap="butt" stroke-dasharray="8.0,6.0" d="m244.03937 279.54855l0 69.322845" fill-rule="evenodd"/><path fill="#000000" fill-opacity="0.0" d="m463.76904 178.81364l0 80.40944" fill-rule="evenodd"/><path stroke="#000000" stroke-width="2.0" stroke-linejoin="round" stroke-linecap="butt" stroke-dasharray="8.0,6.0" d="m463.76904 178.81364l0 80.40944" fill-rule="evenodd"/><path fill="#000000" fill-opacity="0.0" d="m426.72702 283.17847l0 98.5827" fill-rule="evenodd"/><path stroke="#000000" stroke-width="2.0" stroke-linejoin="round" stroke-linecap="butt" stroke-dasharray="8.0,6.0" d="m426.72702 283.17847l0 98.5827" fill-rule="evenodd"/><path fill="#000000" fill-opacity="0.0" d="m632.35956 194.40945l0 59.653534" fill-rule="evenodd"/><path stroke="#000000" stroke-width="2.0" stroke-linejoin="round" stroke-linecap="butt" stroke-dasharray="8.0,6.0" d="m632.35956 194.40945l0 59.653534" fill-rule="evenodd"/><path fill="#000000" fill-opacity="0.0" d="m169.00525 389.7034l0 18.834656" fill-rule="evenodd"/><path stroke="#000000" stroke-width="2.0" stroke-linejoin="round" stroke-linecap="butt" stroke-dasharray="8.0,6.0" d="m169.00525 389.7034l0 18.834656" fill-rule="evenodd"/><path fill="#000000" fill-opacity="0.0" d="m256.77954 279.54855l0 0c1.2947388 0 2.5364685 0.51434326 3.4519958 1.4298706c0.91552734 0.91552734 1.4298706 2.157257 1.4298706 3.4520264l0 22.64566c0 2.6961975 2.1856995 4.881897 4.881897 4.881897l0 0c-2.6961975 0 -4.881897 2.1856995 -4.881897 4.881897l0 22.64566c0 2.6961975 -2.1856995 4.881897 -4.8818665 4.881897z" fill-rule="evenodd"/><path fill="#000000" fill-opacity="0.0" d="m256.77954 279.54855l0 0c1.2947388 0 2.5364685 0.51434326 3.4519958 1.4298706c0.91552734 0.91552734 1.4298706 2.157257 1.4298706 3.4520264l0 22.64566c0 2.6961975 2.1856995 4.881897 4.881897 4.881897l0 0c-2.6961975 0 -4.881897 2.1856995 -4.881897 4.881897l0 22.64566c0 2.6961975 -2.1856995 4.881897 -4.8818665 4.881897" fill-rule="evenodd"/><path stroke="#4a86e8" stroke-width="2.0" stroke-linejoin="round" stroke-linecap="butt" d="m256.77954 279.54855l0 0c1.2947388 0 2.5364685 0.51434326 3.4519958 1.4298706c0.91552734 0.91552734 1.4298706 2.157257 1.4298706 3.4520264l0 22.64566c0 2.6961975 2.1856995 4.881897 4.881897 4.881897l0 0c-2.6961975 0 -4.881897 2.1856995 -4.881897 4.881897l0 22.64566c0 2.6961975 -2.1856995 4.881897 -4.8818665 4.881897" fill-rule="evenodd"/><path fill="#000000" fill-opacity="0.0" d="m480.0 178.81364l0 0c1.2947693 0 2.536499 0.51434326 3.4520264 1.4298706c0.91552734 0.9155426 1.4298706 2.1572723 1.4298706 3.4520264l0 30.440948c0 2.6961823 2.1856995 4.8818817 4.881897 4.8818817l0 0c-2.6961975 0 -4.881897 2.1856995 -4.881897 4.881897l0 30.440933c0 2.6962128 -2.1856995 4.8818817 -4.881897 4.8818817z" fill-rule="evenodd"/><path fill="#000000" fill-opacity="0.0" d="m480.0 178.81364l0 0c1.2947693 0 2.536499 0.51434326 3.4520264 1.4298706c0.91552734 0.9155426 1.4298706 2.1572723 1.4298706 3.4520264l0 30.440948c0 2.6961823 2.1856995 4.8818817 4.881897 4.8818817l0 0c-2.6961975 0 -4.881897 2.1856995 -4.881897 4.881897l0 30.440933c0 2.6962128 -2.1856995 4.8818817 -4.881897 4.8818817" fill-rule="evenodd"/><path stroke="#4a86e8" stroke-width="2.0" stroke-linejoin="round" stroke-linecap="butt" d="m480.0 178.81364l0 0c1.2947693 0 2.536499 0.51434326 3.4520264 1.4298706c0.91552734 0.9155426 1.4298706 2.1572723 1.4298706 3.4520264l0 30.440948c0 2.6961823 2.1856995 4.8818817 4.881897 4.8818817l0 0c-2.6961975 0 -4.881897 2.1856995 -4.881897 4.881897l0 30.440933c0 2.6962128 -2.1856995 4.8818817 -4.881897 4.8818817" fill-rule="evenodd"/><path fill="#000000" fill-opacity="0.0" d="m433.4987 277.5013l0 0c1.2947693 0 2.536499 0.51434326 3.4520264 1.4298706c0.91552734 0.91552734 1.4298706 2.157257 1.4298706 3.4520264l0 43.590546c0 2.6961975 2.1856995 4.881897 4.881897 4.881897l0 0c-2.6961975 0 -4.881897 2.1856995 -4.881897 4.8818665l0 43.590576c0 2.6961975 -2.1856995 4.8818665 -4.881897 4.8818665z" fill-rule="evenodd"/><path fill="#000000" fill-opacity="0.0" d="m433.4987 277.5013l0 0c1.2947693 0 2.536499 0.51434326 3.4520264 1.4298706c0.91552734 0.91552734 1.4298706 2.157257 1.4298706 3.4520264l0 43.590546c0 2.6961975 2.1856995 4.881897 4.881897 4.881897l0 0c-2.6961975 0 -4.881897 2.1856995 -4.881897 4.8818665l0 43.590576c0 2.6961975 -2.1856995 4.8818665 -4.881897 4.8818665" fill-rule="evenodd"/><path stroke="#4a86e8" stroke-width="2.0" stroke-linejoin="round" stroke-linecap="butt" d="m433.4987 277.5013l0 0c1.2947693 0 2.536499 0.51434326 3.4520264 1.4298706c0.91552734 0.91552734 1.4298706 2.157257 1.4298706 3.4520264l0 43.590546c0 2.6961975 2.1856995 4.881897 4.881897 4.881897l0 0c-2.6961975 0 -4.881897 2.1856995 -4.881897 4.8818665l0 43.590576c0 2.6961975 -2.1856995 4.8818665 -4.881897 4.8818665" fill-rule="evenodd"/><path fill="#000000" fill-opacity="0.0" d="m650.0 184.7454l0 0c1.2947388 0 2.536499 0.51434326 3.4520264 1.4298706c0.91552734 0.91552734 1.4298706 2.157257 1.4298706 3.4520264l0 24.897629c0 2.6961975 2.185669 4.881897 4.881897 4.881897l0 0c-2.696228 0 -4.881897 2.1856842 -4.881897 4.8818817l0 24.897644c0 2.6961823 -2.18573 4.8818817 -4.881897 4.8818817z" fill-rule="evenodd"/><path fill="#000000" fill-opacity="0.0" d="m650.0 184.7454l0 0c1.2947388 0 2.536499 0.51434326 3.4520264 1.4298706c0.91552734 0.91552734 1.4298706 2.157257 1.4298706 3.4520264l0 24.897629c0 2.6961975 2.185669 4.881897 4.881897 4.881897l0 0c-2.696228 0 -4.881897 2.1856842 -4.881897 4.8818817l0 24.897644c0 2.6961823 -2.18573 4.8818817 -4.881897 4.8818817" fill-rule="evenodd"/><path stroke="#4a86e8" stroke-width="2.0" stroke-linejoin="round" stroke-linecap="butt" d="m650.0 184.7454l0 0c1.2947388 0 2.536499 0.51434326 3.4520264 1.4298706c0.91552734 0.91552734 1.4298706 2.157257 1.4298706 3.4520264l0 24.897629c0 2.6961975 2.185669 4.881897 4.881897 4.881897l0 0c-2.696228 0 -4.881897 2.1856842 -4.881897 4.8818817l0 24.897644c0 2.6961823 -2.18573 4.8818817 -4.881897 4.8818817" fill-rule="evenodd"/><path fill="#000000" fill-opacity="0.0" d="m175.49869 384.20996l0 0c1.294754 0 2.5364838 0.51434326 3.452011 1.4298706c0.9155426 0.91555786 1.4298859 2.1572876 1.4298859 3.4520264l0 4.1574707l0 0c0 2.6961975 2.1856842 4.881897 4.8818817 4.881897l0 0c-2.6961975 0 -4.8818817 2.1856995 -4.8818817 4.881897l0 4.1574707c0 2.6961975 -2.1856995 4.881897 -4.881897 4.881897z" fill-rule="evenodd"/><path fill="#000000" fill-opacity="0.0" d="m175.49869 384.20996l0 0c1.294754 0 2.5364838 0.51434326 3.452011 1.4298706c0.9155426 0.91555786 1.4298859 2.1572876 1.4298859 3.4520264l0 4.1574707l0 0c0 2.6961975 2.1856842 4.881897 4.8818817 4.881897l0 0c-2.6961975 0 -4.8818817 2.1856995 -4.8818817 4.881897l0 4.1574707c0 2.6961975 -2.1856995 4.881897 -4.881897 4.881897" fill-rule="evenodd"/><path stroke="#4a86e8" stroke-width="2.0" stroke-linejoin="round" stroke-linecap="butt" d="m175.49869 384.20996l0 0c1.294754 0 2.5364838 0.51434326 3.452011 1.4298706c0.9155426 0.91555786 1.4298859 2.1572876 1.4298859 3.4520264l0 4.1574707l0 0c0 2.6961975 2.1856842 4.881897 4.8818817 4.881897l0 0c-2.6961975 0 -4.8818817 2.1856995 -4.8818817 4.881897l0 4.1574707c0 2.6961975 -2.1856995 4.881897 -4.881897 4.881897" fill-rule="evenodd"/><path fill="#000000" fill-opacity="0.0" d="m191.7559 365.81628l56.818893 0l0 64.62991l-56.818893 0z" fill-rule="evenodd"/><path fill="#000000" d="m206.58403 403.82816q-0.15625 1.171875 -0.15625 1.9375q0 1.375 0.78125 2.203125q0.796875 0.8125 2.125 0.8125q1.28125 0 2.5625 -0.609375q1.296875 -0.625 2.984375 -2.1875l0.546875 0.5q-2.09375 2.53125 -4.078125 3.609375q-1.984375 1.078125 -4.390625 1.078125q-3.046875 0 -4.21875 -1.453125q-1.171875 -1.46875 -1.171875 -3.375q0 -3.0 1.734375 -5.984375q1.75 -2.984375 4.75 -4.78125q3.0 -1.8125 6.03125 -1.8125q1.53125 0 2.3125 0.734375q0.78125 0.71875 0.78125 1.828125q0 1.328125 -0.765625 2.59375q-1.0625 1.703125 -2.671875 2.765625q-1.59375 1.046875 -3.578125 1.59375q-1.328125 0.359375 -3.578125 0.546875zm0.171875 -0.953125q1.59375 -0.234375 2.484375 -0.640625q0.890625 -0.421875 1.734375 -1.3125q0.84375 -0.90625 1.453125 -2.28125q0.625 -1.375 0.625 -2.578125q0 -0.515625 -0.28125 -0.796875q-0.28125 -0.296875 -0.71875 -0.296875q-0.875 0 -1.96875 1.21875q-2.0 2.21875 -3.328125 6.6875z" fill-rule="nonzero"/><path fill="#000000" d="m228.38641 407.84378l-4.015625 13.828125q-0.3125 1.078125 -0.3125 1.375q0 0.28125 0.21875 0.59375q0.21875 0.3125 0.484375 0.40625q0.265625 0.09375 1.578125 0.15625l-0.140625 0.453125l-8.296875 0l0.140625 -0.453125q1.234375 -0.015625 1.71875 -0.203125q0.484375 -0.1875 0.796875 -0.59375q0.3125 -0.40625 0.703125 -1.734375l2.375 -8.21875q0.546875 -1.859375 0.578125 -1.96875q0.0625 -0.328125 0.0625 -0.609375q0 -0.53125 -0.328125 -0.859375q-0.328125 -0.328125 -0.953125 -0.328125q-0.296875 0 -1.203125 0.109375l-0.09375 -0.453125l6.1875 -1.5l0.5 0z" fill-rule="nonzero"/><path fill="#000000" fill-opacity="0.0" d="m266.5433 265.44095l56.81891 0l0 64.62991l-56.81891 0z" fill-rule="evenodd"/><path fill="#000000" d="m281.37143 303.45282q-0.15625 1.171875 -0.15625 1.9375q0 1.375 0.78125 2.203125q0.796875 0.8125 2.125 0.8125q1.28125 0 2.5625 -0.609375q1.296875 -0.625 2.984375 -2.1875l0.546875 0.5q-2.09375 2.53125 -4.078125 3.609375q-1.984375 1.078125 -4.390625 1.078125q-3.046875 0 -4.21875 -1.453125q-1.171875 -1.46875 -1.171875 -3.375q0 -3.0 1.734375 -5.984375q1.75 -2.984375 4.75 -4.78125q3.0 -1.8125 6.03125 -1.8125q1.53125 0 2.3125 0.734375q0.78125 0.71875 0.78125 1.828125q0 1.328125 -0.765625 2.59375q-1.0625 1.703125 -2.671875 2.765625q-1.59375 1.046875 -3.578125 1.59375q-1.328125 0.359375 -3.578125 0.546875zm0.171875 -0.953125q1.59375 -0.234375 2.484375 -0.640625q0.890625 -0.421875 1.734375 -1.3125q0.84375 -0.90625 1.453125 -2.28125q0.625 -1.375 0.625 -2.578125q0 -0.515625 -0.28125 -0.796875q-0.28125 -0.296875 -0.71875 -0.296875q-0.875 0 -1.96875 1.21875q-2.0 2.21875 -3.328125 6.6875z" fill-rule="nonzero"/><path fill="#000000" d="m300.95508 324.28094l-8.75 0l0 -0.453125q3.421875 -3.15625 5.765625 -5.796875q1.96875 -2.203125 2.46875 -3.359375q0.5 -1.171875 0.5 -2.34375q0 -1.109375 -0.703125 -1.796875q-0.6875 -0.6875 -1.734375 -0.6875q-1.6875 0 -2.890625 1.859375l-0.453125 -0.21875q0.640625 -1.796875 1.640625 -2.71875q1.390625 -1.296875 3.28125 -1.296875q1.75 0 2.890625 1.09375q1.15625 1.078125 1.15625 2.484375q0 1.265625 -0.5625 2.484375q-0.5625 1.21875 -2.3125 3.0625q-1.328125 1.40625 -5.40625 4.890625l3.171875 0q1.515625 0 2.125 -0.34375q0.625 -0.34375 1.15625 -1.390625l0.578125 0l-1.921875 4.53125z" fill-rule="nonzero"/><path fill="#000000" fill-opacity="0.0" d="m450.03412 290.40158l56.81891 0l0 64.62991l-56.81891 0z" fill-rule="evenodd"/><path fill="#000000" d="m464.86224 328.41345q-0.15625 1.171875 -0.15625 1.9375q0 1.375 0.78125 2.203125q0.796875 0.8125 2.125 0.8125q1.28125 0 2.5625 -0.609375q1.296875 -0.625 2.984375 -2.1875l0.546875 0.5q-2.09375 2.53125 -4.078125 3.609375q-1.984375 1.078125 -4.390625 1.078125q-3.046875 0 -4.21875 -1.453125q-1.171875 -1.46875 -1.171875 -3.375q0 -3.0 1.734375 -5.984375q1.75 -2.984375 4.75 -4.78125q3.0 -1.8125 6.03125 -1.8125q1.53125 0 2.3125 0.734375q0.78125 0.71875 0.78125 1.828125q0 1.328125 -0.765625 2.59375q-1.0625 1.703125 -2.671875 2.765625q-1.59375 1.046875 -3.578125 1.59375q-1.328125 0.359375 -3.578125 0.546875zm0.171875 -0.953125q1.59375 -0.234375 2.484375 -0.640625q0.890625 -0.421875 1.734375 -1.3125q0.84375 -0.90625 1.453125 -2.28125q0.625 -1.375 0.625 -2.578125q0 -0.515625 -0.28125 -0.796875q-0.28125 -0.296875 -0.71875 -0.296875q-0.875 0 -1.96875 1.21875q-2.0 2.21875 -3.328125 6.6875z" fill-rule="nonzero"/><path fill="#000000" d="m478.77402 340.28845l0.15625 -0.515625q1.6875 -0.25 2.71875 -0.71875q1.390625 -0.609375 2.015625 -1.421875q0.640625 -0.8125 0.640625 -1.75q0 -0.796875 -0.578125 -1.359375q-0.5625 -0.578125 -1.421875 -0.578125q-0.671875 0 -1.25 0.359375q-0.5625 0.34375 -1.21875 1.21875l-0.5 -0.25q1.03125 -1.53125 2.046875 -2.1875q1.03125 -0.65625 2.3125 -0.65625q1.59375 0 2.59375 0.90625q1.0 0.90625 1.0 2.171875q0 1.0 -0.484375 1.734375q-0.484375 0.734375 -1.4375 1.28125q-0.6875 0.40625 -2.171875 0.8125q1.34375 0.59375 1.890625 1.3125q0.8125 1.09375 0.8125 2.625q0 2.859375 -2.46875 4.734375q-2.078125 1.578125 -4.8125 1.578125q-1.453125 0 -2.203125 -0.546875q-0.515625 -0.375 -0.515625 -1.0q0 -0.5625 0.390625 -0.921875q0.390625 -0.359375 0.96875 -0.359375q0.28125 0 0.546875 0.109375q0.46875 0.203125 1.390625 0.828125q0.921875 0.625 1.53125 0.625q0.75 0 1.328125 -0.765625q0.828125 -1.125 0.828125 -2.828125q0 -1.328125 -0.53125 -2.3125q-0.53125 -1.0 -1.375 -1.484375q-0.828125 -0.484375 -2.203125 -0.640625z" fill-rule="nonzero"/><path fill="#000000" fill-opacity="0.0" d="m493.2546 165.49869l56.81888 0l0 64.62993l-56.81888 0z" fill-rule="evenodd"/><path fill="#000000" d="m508.08273 203.51056q-0.15625 1.171875 -0.15625 1.9375q0 1.375 0.78125 2.203125q0.796875 0.8125 2.125 0.8125q1.2812195 0 2.5624695 -0.609375q1.296875 -0.625 2.984375 -2.1875l0.546875 0.5q-2.09375 2.53125 -4.078125 3.609375q-1.9843445 1.078125 -4.3905945 1.078125q-3.046875 0 -4.21875 -1.453125q-1.171875 -1.46875 -1.171875 -3.375q0 -3.0 1.734375 -5.984375q1.75 -2.984375 4.75 -4.78125q2.9999695 -1.8125 6.0312195 -1.8125q1.53125 0 2.3125 0.734375q0.78125 0.71875 0.78125 1.828125q0 1.328125 -0.765625 2.59375q-1.0625 1.703125 -2.671875 2.765625q-1.59375 1.046875 -3.5780945 1.59375q-1.328125 0.359375 -3.578125 0.546875zm0.171875 -0.953125q1.59375 -0.234375 2.484375 -0.640625q0.890625 -0.421875 1.7343445 -1.3125q0.84375 -0.90625 1.453125 -2.28125q0.625 -1.375 0.625 -2.578125q0 -0.515625 -0.28125 -0.796875q-0.28125 -0.296875 -0.71875 -0.296875q-0.875 0 -1.9687195 1.21875q-2.0 2.21875 -3.328125 6.6875z" fill-rule="nonzero"/><path fill="#000000" d="m524.63513 220.86993l-5.375 0l0.59375 -2.046875l9.859375 -11.296875l1.59375 0l-3.296875 11.296875l1.90625 0l-0.640625 2.046875l-1.859375 0l-1.125 3.8125l-2.75 0l1.09375 -3.8125zm0.625 -2.046875l2.03125 -7.203125l-6.25 7.203125l4.21875 0z" fill-rule="nonzero"/><path fill="#000000" fill-opacity="0.0" d="m665.8793 170.82414l56.81891 0l0 64.62993l-56.81891 0z" fill-rule="evenodd"/><path fill="#000000" d="m680.7074 208.83601q-0.15625 1.171875 -0.15625 1.9375q0 1.375 0.78125 2.203125q0.796875 0.8125 2.125 0.8125q1.28125 0 2.5625 -0.609375q1.296875 -0.625 2.984375 -2.1875l0.546875 0.5q-2.09375 2.53125 -4.078125 3.609375q-1.984375 1.078125 -4.390625 1.078125q-3.046875 0 -4.21875 -1.453125q-1.171875 -1.46875 -1.171875 -3.375q0 -3.0 1.734375 -5.984375q1.75 -2.984375 4.75 -4.78125q3.0 -1.8125 6.03125 -1.8125q1.53125 0 2.3125 0.734375q0.78125 0.71875 0.78125 1.828125q0 1.328125 -0.765625 2.59375q-1.0625 1.703125 -2.671875 2.765625q-1.59375 1.046875 -3.578125 1.59375q-1.328125 0.359375 -3.578125 0.546875zm0.171875 -0.953125q1.59375 -0.234375 2.484375 -0.640625q0.890625 -0.421875 1.734375 -1.3125q0.84375 -0.90625 1.453125 -2.28125q0.625 -1.375 0.625 -2.578125q0 -0.515625 -0.28125 -0.796875q-0.28125 -0.296875 -0.71875 -0.296875q-0.875 0 -1.96875 1.21875q-2.0 2.21875 -3.328125 6.6875z" fill-rule="nonzero"/><path fill="#000000" d="m697.75977 213.19539l6.21875 0l-0.8125 2.84375l-5.765625 0l-0.734375 1.484375q1.75 0.28125 2.890625 0.9375q1.15625 0.640625 1.859375 1.890625q0.703125 1.25 0.703125 2.703125q0 1.75 -0.9375 3.390625q-0.9375 1.640625 -2.625 2.609375q-1.671875 0.96875 -3.53125 0.96875q-1.359375 0 -2.0 -0.5q-0.625 -0.515625 -0.625 -1.15625q0 -0.53125 0.375 -0.90625q0.390625 -0.390625 0.90625 -0.390625q0.4375 0 0.78125 0.140625q0.203125 0.09375 1.234375 0.9375q0.65625 0.53125 1.34375 0.53125q0.921875 0 1.5625 -0.796875q0.84375 -1.046875 0.84375 -2.671875q0 -1.453125 -0.703125 -2.6875q-0.703125 -1.25 -1.921875 -1.890625q-0.921875 -0.5 -2.40625 -0.546875l3.34375 -6.890625z" fill-rule="nonzero"/><path fill="#cfe2f3" d="m155.36163 378.67822l6.615799 -6.6157837l7.027817 7.0278015l7.027817 -7.0278015l6.615799 6.6157837l-7.027817 7.0278015l7.027817 7.027832l-6.615799 6.6157837l-7.027817 -7.0278015l-7.027817 7.0278015l-6.615799 -6.6157837l7.027817 -7.027832z" fill-rule="evenodd"/><path stroke="#000000" stroke-width="1.0" stroke-linejoin="round" stroke-linecap="butt" d="m155.36163 378.67822l6.615799 -6.6157837l7.027817 7.0278015l7.027817 -7.0278015l6.615799 6.6157837l-7.027817 7.0278015l7.027817 7.027832l-6.615799 6.6157837l-7.027817 -7.0278015l-7.027817 7.0278015l-6.615799 -6.6157837l7.027817 -7.027832z" fill-rule="evenodd"/><path fill="#cfe2f3" d="m230.39575 345.67822l6.615799 -6.6157837l7.027817 7.0278015l7.027817 -7.0278015l6.615799 6.6157837l-7.027817 7.0278015l7.027817 7.027832l-6.615799 6.6157837l-7.027817 -7.0278015l-7.027817 7.0278015l-6.615799 -6.6157837l7.027832 -7.027832z" fill-rule="evenodd"/><path stroke="#000000" stroke-width="1.0" stroke-linejoin="round" stroke-linecap="butt" d="m230.39575 345.67822l6.615799 -6.6157837l7.027817 7.0278015l7.027817 -7.0278015l6.615799 6.6157837l-7.027817 7.0278015l7.027817 7.027832l-6.615799 6.6157837l-7.027817 -7.0278015l-7.027817 7.0278015l-6.615799 -6.6157837l7.027832 -7.027832z" fill-rule="evenodd"/><path fill="#cfe2f3" d="m413.08344 269.04962l6.6157837 -6.615814l7.0278015 7.027832l7.027832 -7.027832l6.6157837 6.615814l-7.0278015 7.0278015l7.0278015 7.027832l-6.6157837 6.6157837l-7.027832 -7.027832l-7.0278015 7.027832l-6.6157837 -6.6157837l7.0278015 -7.027832z" fill-rule="evenodd"/><path stroke="#000000" stroke-width="1.0" stroke-linejoin="round" stroke-linecap="butt" d="m413.08344 269.04962l6.6157837 -6.615814l7.0278015 7.027832l7.027832 -7.027832l6.6157837 6.615814l-7.0278015 7.0278015l7.0278015 7.027832l-6.6157837 6.6157837l-7.027832 -7.027832l-7.0278015 7.027832l-6.6157837 -6.6157837l7.0278015 -7.027832z" fill-rule="evenodd"/><path fill="#cfe2f3" d="m450.12543 256.2609l6.6157837 -6.615799l7.027832 7.027817l7.0278015 -7.027817l6.6157837 6.615799l-7.0278015 7.027832l7.0278015 7.0278015l-6.6157837 6.6157837l-7.0278015 -7.0278015l-7.027832 7.0278015l-6.6157837 -6.6157837l7.0278015 -7.0278015z" fill-rule="evenodd"/><path stroke="#000000" stroke-width="1.0" stroke-linejoin="round" stroke-linecap="butt" d="m450.12543 256.2609l6.6157837 -6.615799l7.027832 7.027817l7.0278015 -7.027817l6.6157837 6.615799l-7.0278015 7.027832l7.0278015 7.0278015l-6.6157837 6.6157837l-7.0278015 -7.0278015l-7.027832 7.0278015l-6.6157837 -6.6157837l7.0278015 -7.0278015z" fill-rule="evenodd"/><path fill="#cfe2f3" d="m618.71594 183.6861l6.6158447 -6.615799l7.027771 7.027817l7.027832 -7.027817l6.6157837 6.615799l-7.027771 7.027817l7.027771 7.027817l-6.6157837 6.615799l-7.027832 -7.027832l-7.027771 7.027832l-6.6158447 -6.615799l7.027832 -7.027817z" fill-rule="evenodd"/><path stroke="#000000" stroke-width="1.0" stroke-linejoin="round" stroke-linecap="butt" d="m618.71594 183.6861l6.6158447 -6.615799l7.027771 7.027817l7.027832 -7.027817l6.6157837 6.615799l-7.027771 7.027817l7.027771 7.027817l-6.6157837 6.615799l-7.027832 -7.027832l-7.027771 7.027832l-6.6158447 -6.615799l7.027832 -7.027817z" fill-rule="evenodd"/></g></svg>