<svg version="1.1" viewBox="0.0 0.0 890.7690288713911 409.82152230971127" fill="none" stroke="none" stroke-linecap="square" stroke-miterlimit="10" xmlns:xlink="http://www.w3.org/1999/xlink" xmlns="http://www.w3.org/2000/svg"><clipPath id="p.0"><path d="m0 0l890.76904 0l0 409.82153l-890.76904 0l0 -409.82153z" clip-rule="nonzero"/></clipPath><g clip-path="url(#p.0)"><path fill="#000000" fill-opacity="0.0" d="m0 0l890.76904 0l0 409.82153l-890.76904 0z" fill-rule="evenodd"/><path fill="#000000" fill-opacity="0.0" d="m131.49606 166.75618l0 0c0 -7.5321045 6.1059723 -13.638077 13.638062 -13.638077l54.550644 0l0 0c3.617035 0 7.0859375 1.4368744 9.64357 3.9945068c2.5576324 2.5576324 3.9944916 6.026535 3.9944916 9.64357l0 218.36165c0 7.5321045 -6.1059723 13.638092 -13.638062 13.638092l-54.550644 0c-7.532089 0 -13.638062 -6.1059875 -13.638062 -13.638092z" fill-rule="evenodd"/><path stroke="#000000" stroke-width="3.0" stroke-linejoin="round" stroke-linecap="butt" d="m131.49606 166.75618l0 0c0 -7.5321045 6.1059723 -13.638077 13.638062 -13.638077l54.550644 0l0 0c3.617035 0 7.0859375 1.4368744 9.64357 3.9945068c2.5576324 2.5576324 3.9944916 6.026535 3.9944916 9.64357l0 218.36165c0 7.5321045 -6.1059723 13.638092 -13.638062 13.638092l-54.550644 0c-7.532089 0 -13.638062 -6.1059875 -13.638062 -13.638092z" fill-rule="evenodd"/><path fill="#cfe2f3" d="m104.409294 36.158844l0 0c-1.6680603 -8.76853 3.8085098 -17.448843 14.105789 -22.357561c10.297295 -4.908719 23.609367 -5.1849613 34.287437 -0.7115078l0 0c3.7825012 -5.0983863 10.705582 -8.618471 18.67514 -9.495495c7.9695587 -0.87702465 16.04953 0.99202013 21.795914 5.041785l0 0c3.2221985 -4.6225257 9.549042 -7.7282715 16.735443 -8.215158c7.1864166 -0.4868871 14.215317 1.7139913 18.592499 5.8216496l0 0c5.8213806 -4.8998647 15.0833435 -6.9629116 23.778183 -5.296448c8.694824 1.6664631 15.260895 6.7631245 16.856964 13.08463l0 0c7.1321716 1.3915825 13.073151 4.9291687 16.287903 9.698761c3.2147827 4.7695923 3.388031 10.303305 0.4749756 15.1714l0 0c7.023102 6.5383873 8.665985 15.250706 4.3155518 22.885677c-4.3504333 7.6349716 -14.040619 13.045525 -25.454285 14.21254c-0.080444336 7.165695 -5.574402 13.740845 -14.364258 17.191109c-8.789856 3.450264 -19.503036 3.2368622 -28.010223 -0.55794525l0 0c-3.6235962 8.582161 -13.822845 14.896828 -26.191284 16.215843c-12.368439 1.3190079 -24.688782 -2.594101 -31.638184 -10.048714l0 0c-8.518494 3.674408 -18.740005 4.7328873 -28.358734 2.9366684c-9.618729 -1.7962189 -17.824455 -6.29583 -22.766129 -12.48381l0 0c-8.704842 0.72865295 -17.121231 -2.497406 -21.072128 -8.077087c-3.9508972 -5.579689 -2.5952606 -12.325218 3.3941116 -16.88881l0 0c-7.764946 -3.2691422 -11.727089 -9.756203 -9.820328 -16.078438c1.9067612 -6.3222313 9.250351 -11.046997 18.20137 -11.710514z" fill-rule="evenodd"/><path fill="#000000" fill-opacity="0.0" d="m95.85618 64.28574l0 0c3.6643066 1.542717 7.8974304 2.2425308 12.13102 2.005478m5.5450897 22.960983c1.8206024 -0.15239716 3.605133 -0.47511292 5.307579 -0.95983124m45.81475 10.506569c-1.2804871 -1.3735809 -2.3525848 -2.8413773 -3.1980133 -4.3783646m61.029694 -1.7890244l0 0c0.6606293 -1.5646515 1.0886688 -3.1750183 1.2769623 -4.8042374m41.0959 -11.828323c0.085632324 -7.62899 -5.971985 -14.614166 -15.570969 -17.955196m36.70952 -19.142216c-1.5545349 2.5978127 -3.9277039 4.902298 -6.9334106 6.732765m-9.828033 -31.603607l0 0c0.26489258 1.049056 0.3874817 2.1138792 0.36605835 3.1797094m-41.000504 -10.967574l0 0c-1.4521484 1.2222729 -2.648529 2.5881472 -3.55188 4.055093m-31.776398 -1.662117l0 0c-0.77388 1.1101809 -1.3517456 2.2849426 -1.7203217 3.4972239m-38.751328 0.9565792l0 0c2.2594757 0.94657993 4.3497925 2.0858898 6.2250366 3.3929033m-54.617638 19.676289l0 0c0.22989655 1.2085304 0.5931549 2.4021606 1.0863647 3.5697212" fill-rule="evenodd"/><path stroke="#000000" stroke-width="2.0" stroke-linejoin="round" stroke-linecap="butt" d="m104.409294 36.158844l0 0c-1.6680603 -8.76853 3.8085098 -17.448843 14.105789 -22.357561c10.297295 -4.908719 23.609367 -5.1849613 34.287437 -0.7115078l0 0c3.7825012 -5.0983863 10.705582 -8.618471 18.67514 -9.495495c7.9695587 -0.87702465 16.04953 0.99202013 21.795914 5.041785l0 0c3.2221985 -4.6225257 9.549042 -7.7282715 16.735443 -8.215158c7.1864166 -0.4868871 14.215317 1.7139913 18.592499 5.8216496l0 0c5.8213806 -4.8998647 15.0833435 -6.9629116 23.778183 -5.296448c8.694824 1.6664631 15.260895 6.7631245 16.856964 13.08463l0 0c7.1321716 1.3915825 13.073151 4.9291687 16.287903 9.698761c3.2147827 4.7695923 3.388031 10.303305 0.4749756 15.1714l0 0c7.023102 6.5383873 8.665985 15.250706 4.3155518 22.885677c-4.3504333 7.6349716 -14.040619 13.045525 -25.454285 14.21254c-0.080444336 7.165695 -5.574402 13.740845 -14.364258 17.191109c-8.789856 3.450264 -19.503036 3.2368622 -28.010223 -0.55794525l0 0c-3.6235962 8.582161 -13.822845 14.896828 -26.191284 16.215843c-12.368439 1.3190079 -24.688782 -2.594101 -31.638184 -10.048714l0 0c-8.518494 3.674408 -18.740005 4.7328873 -28.358734 2.9366684c-9.618729 -1.7962189 -17.824455 -6.29583 -22.766129 -12.48381l0 0c-8.704842 0.72865295 -17.121231 -2.497406 -21.072128 -8.077087c-3.9508972 -5.579689 -2.5952606 -12.325218 3.3941116 -16.88881l0 0c-7.764946 -3.2691422 -11.727089 -9.756203 -9.820328 -16.078438c1.9067612 -6.3222313 9.250351 -11.046997 18.20137 -11.710514z" fill-rule="evenodd"/><path stroke="#000000" stroke-width="2.0" stroke-linejoin="round" stroke-linecap="butt" d="m95.85618 64.28574l0 0c3.6643066 1.542717 7.8974304 2.2425308 12.13102 2.005478m5.5450897 22.960983c1.8206024 -0.15239716 3.605133 -0.47511292 5.307579 -0.95983124m45.81475 10.506569c-1.2804871 -1.3735809 -2.3525848 -2.8413773 -3.1980133 -4.3783646m61.029694 -1.7890244l0 0c0.6606293 -1.5646515 1.0886688 -3.1750183 1.2769623 -4.8042374m41.0959 -11.828323c0.085632324 -7.62899 -5.971985 -14.614166 -15.570969 -17.955196m36.70952 -19.142216c-1.5545349 2.5978127 -3.9277039 4.902298 -6.9334106 6.732765m-9.828033 -31.603607l0 0c0.26489258 1.049056 0.3874817 2.1138792 0.36605835 3.1797094m-41.000504 -10.967574l0 0c-1.4521484 1.2222729 -2.648529 2.5881472 -3.55188 4.055093m-31.776398 -1.662117l0 0c-0.77388 1.1101809 -1.3517456 2.2849426 -1.7203217 3.4972239m-38.751328 0.9565792l0 0c2.2594757 0.94657993 4.3497925 2.0858898 6.2250366 3.3929033m-54.617638 19.676289l0 0c0.22989655 1.2085304 0.5931549 2.4021606 1.0863647 3.5697212" fill-rule="evenodd"/><path fill="#000000" d="m147.17001 60.35833q-1.875 0 -3.453125 -0.59375q-1.5625 -0.59375 -2.734375 -1.703125q-1.171875 -1.125 -1.8125 -2.609375q-0.640625 -1.5 -0.640625 -3.28125q0 -1.796875 0.640625 -3.28125q0.640625 -1.5 1.8125 -2.609375q1.1875 -1.125 2.765625 -1.71875q1.59375 -0.59375 3.5 -0.59375q2.109375 0 3.796875 0.703125q1.6875 0.703125 2.84375 2.03125l-2.359375 2.171875q-0.859375 -0.90625 -1.890625 -1.34375q-1.015625 -0.4375 -2.21875 -0.4375q-1.15625 0 -2.109375 0.359375q-0.9375 0.359375 -1.640625 1.046875q-0.6875 0.671875 -1.0625 1.609375q-0.375 0.921875 -0.375 2.0625q0 1.109375 0.375 2.03125q0.375 0.921875 1.0625 1.625q0.703125 0.6875 1.640625 1.046875q0.9375 0.359375 2.0625 0.359375q1.09375 0 2.125 -0.34375q1.03125 -0.359375 2.0 -1.1875l2.09375 2.640625q-1.296875 0.984375 -3.015625 1.5q-1.703125 0.515625 -3.40625 0.515625zm3.0625 -2.484375l0 -5.953125l3.359375 0l0 6.421875l-3.359375 -0.46875zm6.499176 2.21875l0 -12.1875l3.375 0l0 3.4375l-0.46875 -0.984375q0.546875 -1.296875 1.734375 -1.96875q1.203125 -0.671875 2.9375 -0.671875l0 3.265625q-0.234375 -0.015625 -0.421875 -0.03125q-0.171875 -0.015625 -0.375 -0.015625q-1.453125 0 -2.34375 0.828125q-0.890625 0.828125 -0.890625 2.578125l0 5.75l-3.546875 0zm15.373306 0.1875q-1.953125 0 -3.46875 -0.8125q-1.5 -0.828125 -2.375 -2.234375q-0.875 -1.421875 -0.875 -3.234375q0 -1.828125 0.875 -3.25q0.875 -1.421875 2.375 -2.21875q1.515625 -0.8125 3.46875 -0.8125q1.921875 0 3.4375 0.8125q1.515625 0.796875 2.375 2.203125q0.859375 1.40625 0.859375 3.265625q0 1.8125 -0.859375 3.234375q-0.859375 1.40625 -2.375 2.234375q-1.515625 0.8125 -3.4375 0.8125zm0 -2.90625q0.875 0 1.578125 -0.40625q0.703125 -0.40625 1.109375 -1.15625q0.40625 -0.765625 0.40625 -1.8125q0 -1.0625 -0.40625 -1.8125q-0.40625 -0.75 -1.109375 -1.15625q-0.703125 -0.40625 -1.578125 -0.40625q-0.890625 0 -1.59375 0.40625q-0.703125 0.40625 -1.125 1.15625q-0.421875 0.75 -0.421875 1.8125q0 1.046875 0.421875 1.8125q0.421875 0.75 1.125 1.15625q0.703125 0.40625 1.59375 0.40625zm14.183563 2.90625q-1.53125 0 -2.71875 -0.59375q-1.1875 -0.59375 -1.84375 -1.796875q-0.65625 -1.21875 -0.65625 -3.09375l0 -6.890625l3.53125 0l0 6.359375q0 1.53125 0.640625 2.25q0.65625 0.703125 1.828125 0.703125q0.8125 0 1.453125 -0.34375q0.640625 -0.359375 1.0 -1.09375q0.359375 -0.734375 0.359375 -1.84375l0 -6.03125l3.53125 0l0 12.1875l-3.34375 0l0 -3.359375l0.609375 0.984375q-0.609375 1.265625 -1.8125 1.921875q-1.1875 0.640625 -2.578125 0.640625zm17.61168 0q-1.53125 0 -2.6875 -0.671875q-1.15625 -0.6875 -1.8125 -2.078125q-0.640625 -1.40625 -0.640625 -3.53125q0 -2.15625 0.609375 -3.53125q0.625 -1.390625 1.78125 -2.0625q1.15625 -0.6875 2.75 -0.6875q1.734375 0 3.09375 0.78125q1.375 0.78125 2.171875 2.1875q0.8125 1.40625 0.8125 3.3125q0 1.921875 -0.8125 3.328125q-0.796875 1.40625 -2.171875 2.1875q-1.359375 0.765625 -3.09375 0.765625zm-7.203125 4.203125l0 -16.578125l3.375 0l0 2.484375l-0.0625 3.625l0.234375 3.609375l0 6.859375l-3.546875 0zm6.59375 -7.109375q0.890625 0 1.578125 -0.40625q0.6875 -0.40625 1.109375 -1.15625q0.421875 -0.765625 0.421875 -1.8125q0 -1.0625 -0.421875 -1.8125q-0.421875 -0.75 -1.109375 -1.15625q-0.6875 -0.40625 -1.578125 -0.40625q-0.875 0 -1.578125 0.40625q-0.703125 0.40625 -1.109375 1.15625q-0.40625 0.75 -0.40625 1.8125q0 1.046875 0.40625 1.8125q0.40625 0.75 1.109375 1.15625q0.703125 0.40625 1.578125 0.40625zm17.15387 2.71875l0 -14.5l1.59375 1.59375l-4.765625 0l0 -2.953125l6.84375 0l0 15.859375l-3.671875 0z" fill-rule="nonzero"/><path fill="#000000" d="m23.277002 201.20131l0 0c10.614 54.762756 44.66918 97.79033 82.79713 104.611404l-2.4383621 -12.580658l24.343323 18.072632l-17.308159 18.225159l-2.4383545 -12.580658l0 0c-38.127945 -6.8210754 -72.18312 -49.848663 -82.79713 -104.611404z" fill-rule="evenodd"/><path fill="#000000" d="m82.50551 76.68454l0 0c-42.925674 8.312538 -68.49481 65.59068 -58.062874 130.06828l0 0c-7.371702 -32.584778 -5.5678024 -66.11087 4.992317 -92.783875c10.56012 -26.673004 28.956467 -44.16918 50.9121 -48.420883z" fill-rule="evenodd"/><path fill="#000000" fill-opacity="0.0" d="m23.277002 201.20131l0 0c10.614 54.762756 44.66918 97.79033 82.79713 104.611404l-2.4383621 -12.580658l24.343323 18.072632l-17.308159 18.225159l-2.4383545 -12.580658l0 0c-38.127945 -6.8210754 -72.18312 -49.848663 -82.79713 -104.611404l-2.1584473 -11.136475l0 0c-12.855202 -66.32619 12.695932 -127.06021 57.070053 -135.65324l2.158455 11.136475l0 0c-42.925674 8.312538 -68.49481 65.59068 -58.062874 130.06828" fill-rule="evenodd"/><path stroke="#000000" stroke-width="1.0" stroke-linejoin="round" stroke-linecap="butt" d="m23.277002 201.20131l0 0c10.614 54.762756 44.66918 97.79033 82.79713 104.611404l-2.4383621 -12.580658l24.343323 18.072632l-17.308159 18.225159l-2.4383545 -12.580658l0 0c-38.127945 -6.8210754 -72.18312 -49.848663 -82.79713 -104.611404l-2.1584473 -11.136475l0 0c-12.855202 -66.32619 12.695932 -127.06021 57.070053 -135.65324l2.158455 11.136475l0 0c-42.925674 8.312538 -68.49481 65.59068 -58.062874 130.06828" fill-rule="evenodd"/><path fill="#000000" fill-opacity="0.0" d="m136.97638 153.1181l74.80315 0l0 245.63782l-74.80315 0z" fill-rule="evenodd"/><path fill="#000000" d="m161.65306 187.71811l0 -17.0625l1.859375 1.875l-5.59375 0l0 -3.46875l8.046875 0l0 18.65625l-4.3125 0zm10.0117035 0.21875q-1.0625 0 -1.828125 -0.734375q-0.75 -0.734375 -0.75 -1.890625q0 -1.140625 0.75 -1.84375q0.765625 -0.703125 1.828125 -0.703125q1.09375 0 1.84375 0.703125q0.75 0.703125 0.75 1.84375q0 1.15625 -0.75 1.890625q-0.75 0.734375 -1.84375 0.734375zm10.890167 0.09375q-1.953125 0 -3.859375 -0.515625q-1.90625 -0.515625 -3.265625 -1.46875l1.703125 -3.3125q1.0625 0.765625 2.46875 1.21875q1.40625 0.453125 2.84375 0.453125q1.625 0 2.546875 -0.625q0.9375 -0.640625 0.9375 -1.796875q0 -0.71875 -0.375 -1.28125q-0.375 -0.5625 -1.328125 -0.84375q-0.9375 -0.296875 -2.640625 -0.296875l-4.765625 0l0.953125 -10.5l11.390625 0l0 3.46875l-9.84375 0l2.234375 -1.984375l-0.65625 7.5l-2.25 -1.984375l3.953125 0q2.765625 0 4.453125 0.765625q1.703125 0.765625 2.46875 2.078125q0.78125 1.296875 0.78125 2.953125q0 1.640625 -0.828125 3.046875q-0.828125 1.40625 -2.546875 2.265625q-1.71875 0.859375 -4.375 0.859375z" fill-rule="nonzero"/><path fill="#000000" d="m155.74055 235.7181l0 -2.796875l7.203125 -6.796875q0.859375 -0.78125 1.25 -1.390625q0.40625 -0.609375 0.546875 -1.109375q0.140625 -0.515625 0.140625 -0.9375q0 -1.125 -0.765625 -1.71875q-0.75 -0.609375 -2.21875 -0.609375q-1.171875 0 -2.171875 0.453125q-1.0 0.453125 -1.6875 1.421875l-3.140625 -2.03125q1.0625 -1.59375 2.984375 -2.53125q1.921875 -0.9375 4.421875 -0.9375q2.078125 0 3.640625 0.6875q1.5625 0.671875 2.421875 1.90625q0.87498474 1.21875 0.87498474 2.921875q0 0.90625 -0.234375 1.8125q-0.21873474 0.890625 -0.90623474 1.875q-0.671875 0.984375 -1.984375 2.203125l-5.96875 5.625l-0.828125 -1.5625l10.531235 0l0 3.515625l-14.10936 0zm18.60315 0.21875q-1.0625 0 -1.828125 -0.734375q-0.75 -0.734375 -0.75 -1.890625q0 -1.140625 0.75 -1.84375q0.765625 -0.703125 1.828125 -0.703125q1.09375 0 1.84375 0.703125q0.75 0.703125 0.75 1.84375q0 1.15625 -0.75 1.890625q-0.75 0.734375 -1.84375 0.734375zm10.859955 0.09375q-1.953125 0 -3.875 -0.515625q-1.90625 -0.515625 -3.25 -1.46875l1.6875 -3.3125q1.0625 0.765625 2.46875 1.21875q1.421875 0.453125 2.859375 0.453125q1.625 0 2.546875 -0.625q0.9375 -0.640625 0.9375 -1.765625q0 -1.0625 -0.828125 -1.671875q-0.8125 -0.625 -2.65625 -0.625l-1.96875 0l0 -2.84375l5.1875 -5.890625l0.484375 1.546875l-9.78125 0l0 -3.46875l13.0625 0l0 2.796875l-5.171875 5.890625l-2.1875 -1.25l1.25 0q3.4375 0 5.203125 1.546875q1.765625 1.546875 1.765625 3.96875q0 1.578125 -0.828125 2.953125q-0.828125 1.359375 -2.546875 2.21875q-1.703125 0.84375 -4.359375 0.84375z" fill-rule="nonzero"/><path fill="#000000" d="m164.57199 283.71808l0 -17.0625l1.859375 1.875l-5.59375 0l0 -3.46875l8.046875 0l0 18.65625l-4.3125 0zm10.011719 0.21875q-1.0625 0 -1.828125 -0.734375q-0.75 -0.734375 -0.75 -1.890625q0 -1.140625 0.75 -1.84375q0.765625 -0.703125 1.828125 -0.703125q1.09375 0 1.84375 0.703125q0.75 0.703125 0.75 1.84375q0 1.15625 -0.75 1.890625q-0.75 0.734375 -1.84375 0.734375zm6.9947357 -0.21875l0 -17.0625l1.859375 1.875l-5.59375 0l0 -3.46875l8.046875 0l0 18.65625l-4.3125 0z" fill-rule="nonzero"/><path fill="#000000" d="m161.26662 331.71808l0 -17.0625l1.859375 1.875l-5.59375 0l0 -3.46875l8.046875 0l0 18.65625l-4.3125 0zm10.011719 0.21875q-1.0625 0 -1.828125 -0.734375q-0.75 -0.734375 -0.75 -1.890625q0 -1.140625 0.75 -1.84375q0.765625 -0.703125 1.828125 -0.703125q1.09375 0 1.84375 0.703125q0.75 0.703125 0.75 1.84375q0 1.15625 -0.75 1.890625q-0.75 0.734375 -1.84375 0.734375zm12.543488 0.09375q-2.5625 0 -4.453125 -1.0625q-1.875 -1.0625 -2.890625 -3.109375q-1.0 -2.0625 -1.0 -5.078125q0 -3.21875 1.203125 -5.453125q1.21875 -2.25 3.359375 -3.421875q2.140625 -1.171875 4.953125 -1.171875q1.484375 0 2.84375 0.328125q1.359375 0.3125 2.34375 0.953125l-1.59375 3.171875q-0.78125 -0.53125 -1.65625 -0.71875q-0.875 -0.203125 -1.84375 -0.203125q-2.421875 0 -3.84375 1.46875q-1.40625 1.453125 -1.40625 4.328125q0 0.484375 0.015625 1.078125q0.015625 0.578125 0.15625 1.171875l-1.203125 -1.125q0.5 -1.03125 1.296875 -1.734375q0.8125 -0.71875 1.90625 -1.078125q1.109375 -0.359375 2.4375 -0.359375q1.8125 0 3.25 0.71875q1.453125 0.71875 2.3125 2.03125q0.875 1.296875 0.875 3.0625q0 1.890625 -0.953125 3.296875q-0.953125 1.390625 -2.546875 2.15625q-1.578125 0.75 -3.5625 0.75zm-0.25 -3.21875q0.90625 0 1.609375 -0.328125q0.71875 -0.34375 1.109375 -0.96875q0.40625 -0.640625 0.40625 -1.46875q0 -1.28125 -0.875 -2.046875q-0.859375 -0.765625 -2.296875 -0.765625q-0.96875 0 -1.6875 0.375q-0.71875 0.359375 -1.140625 0.984375q-0.40625 0.625 -0.40625 1.453125q0 0.796875 0.390625 1.421875q0.40625 0.625 1.125 0.984375q0.734375 0.359375 1.765625 0.359375z" fill-rule="nonzero"/><path fill="#000000" d="m165.07826 380.03058q-1.953125 0 -3.875 -0.515625q-1.90625 -0.515625 -3.25 -1.46875l1.6875 -3.3125q1.0625 0.765625 2.46875 1.21875q1.421875 0.453125 2.859375 0.453125q1.625 0 2.546875 -0.625q0.9375 -0.640625 0.9375 -1.765625q0 -1.0625 -0.828125 -1.671875q-0.8125 -0.625 -2.65625 -0.625l-1.96875 0l0 -2.84375l5.1875 -5.890625l0.484375 1.546875l-9.78125 0l0 -3.46875l13.062485 0l0 2.796875l-5.1718597 5.890625l-2.1875 -1.25l1.25 0q3.4374847 0 5.2031097 1.546875q1.765625 1.546875 1.765625 3.96875q0 1.578125 -0.828125 2.953125q-0.828125 1.359375 -2.546875 2.21875q-1.7031097 0.84375 -4.3593597 0.84375zm12.171051 -0.09375q-1.0625 0 -1.828125 -0.734375q-0.75 -0.734375 -0.75 -1.890625q0 -1.140625 0.75 -1.84375q0.765625 -0.703125 1.828125 -0.703125q1.09375 0 1.84375 0.703125q0.75 0.703125 0.75 1.84375q0 1.15625 -0.75 1.890625q-0.75 0.734375 -1.84375 0.734375zm6.9947357 -0.21875l0 -17.0625l1.859375 1.875l-5.59375 0l0 -3.46875l8.046875 0l0 18.65625l-4.3125 0z" fill-rule="nonzero"/><path fill="#000000" fill-opacity="0.0" d="m409.16272 197.41995l74.80316 0l0 148.6614l-74.80316 0z" fill-rule="evenodd"/><path fill="#000000" d="m426.42722 228.09807l0 -2.90625l8.796875 -11.828125l4.53125 0l-8.609375 11.828125l-2.109375 -0.609375l14.6875 0l0 3.515625l-17.296875 0zm10.046875 3.921875l0 -3.921875l0.140625 -3.515625l0 -3.484375l4.078125 0l0 10.921875l-4.21875 0zm11.508789 0.21875q-1.0625 0 -1.828125 -0.734375q-0.75 -0.734375 -0.75 -1.890625q0 -1.140625 0.75 -1.84375q0.765625 -0.703125 1.828125 -0.703125q1.09375 0 1.84375 0.703125q0.75 0.703125 0.75 1.84375q0 1.15625 -0.75 1.890625q-0.75 0.734375 -1.84375 0.734375zm10.859955 0.09375q-1.953125 0 -3.875 -0.515625q-1.90625 -0.515625 -3.25 -1.46875l1.6875 -3.3125q1.0625 0.765625 2.46875 1.21875q1.421875 0.453125 2.859375 0.453125q1.625 0 2.546875 -0.625q0.9375 -0.640625 0.9375 -1.765625q0 -1.0625 -0.828125 -1.671875q-0.8125 -0.625 -2.65625 -0.625l-1.96875 0l0 -2.84375l5.1875 -5.890625l0.484375 1.546875l-9.78125 0l0 -3.46875l13.0625 0l0 2.796875l-5.171875 5.890625l-2.1875 -1.25l1.25 0q3.4375 0 5.203125 1.546875q1.765625 1.546875 1.765625 3.96875q0 1.578125 -0.828125 2.953125q-0.828125 1.359375 -2.546875 2.21875q-1.703125 0.84375 -4.359375 0.84375z" fill-rule="nonzero"/><path fill="#000000" d="m427.9269 280.01993l0 -2.796875l7.203125 -6.796875q0.859375 -0.78125 1.25 -1.390625q0.40625 -0.609375 0.546875 -1.109375q0.140625 -0.515625 0.140625 -0.9375q0 -1.125 -0.765625 -1.71875q-0.75 -0.609375 -2.21875 -0.609375q-1.171875 0 -2.171875 0.453125q-1.0 0.453125 -1.6875 1.421875l-3.140625 -2.03125q1.0625 -1.59375 2.984375 -2.53125q1.921875 -0.9375 4.421875 -0.9375q2.078125 0 3.640625 0.6875q1.5625 0.671875 2.421875 1.90625q0.875 1.21875 0.875 2.921875q0 0.90625 -0.234375 1.8125q-0.21875 0.890625 -0.90625 1.875q-0.671875 0.984375 -1.984375 2.203125l-5.96875 5.625l-0.828125 -1.5625l10.53125 0l0 3.515625l-14.109375 0zm18.60315 0.21875q-1.0625 0 -1.828125 -0.734375q-0.75 -0.734375 -0.75 -1.890625q0 -1.140625 0.75 -1.84375q0.765625 -0.703125 1.828125 -0.703125q1.09375 0 1.84375 0.703125q0.75 0.703125 0.75 1.84375q0 1.15625 -0.75 1.890625q-0.75 0.734375 -1.84375 0.734375zm10.859955 0.09375q-1.953125 0 -3.875 -0.515625q-1.90625 -0.515625 -3.25 -1.46875l1.6875 -3.3125q1.0625 0.765625 2.46875 1.21875q1.421875 0.453125 2.859375 0.453125q1.625 0 2.546875 -0.625q0.9375 -0.640625 0.9375 -1.765625q0 -1.0625 -0.828125 -1.671875q-0.8125 -0.625 -2.65625 -0.625l-1.96875 0l0 -2.84375l5.1875 -5.890625l0.484375 1.546875l-9.78125 0l0 -3.46875l13.0625 0l0 2.796875l-5.171875 5.890625l-2.1875 -1.25l1.25 0q3.4375 0 5.203125 1.546875q1.765625 1.546875 1.765625 3.96875q0 1.578125 -0.828125 2.953125q-0.828125 1.359375 -2.546875 2.21875q-1.703125 0.84375 -4.359375 0.84375z" fill-rule="nonzero"/><path fill="#000000" d="m436.75833 328.01993l0 -17.0625l1.859375 1.875l-5.59375 0l0 -3.46875l8.046875 0l0 18.65625l-4.3125 0zm10.011719 0.21875q-1.0625 0 -1.828125 -0.734375q-0.75 -0.734375 -0.75 -1.890625q0 -1.140625 0.75 -1.84375q0.765625 -0.703125 1.828125 -0.703125q1.09375 0 1.84375 0.703125q0.75 0.703125 0.75 1.84375q0 1.15625 -0.75 1.890625q-0.75 0.734375 -1.84375 0.734375zm6.994751 -0.21875l0 -17.0625l1.859375 1.875l-5.59375 0l0 -3.46875l8.046875 0l0 18.65625l-4.3125 0z" fill-rule="nonzero"/><path fill="#000000" fill-opacity="0.0" d="m666.5512 153.11679l74.8031 0l0 197.13388l-74.8031 0z" fill-rule="evenodd"/><path fill="#000000" d="m685.4087 187.7168l0 -2.796875l7.203125 -6.796875q0.859375 -0.78125 1.25 -1.390625q0.40625 -0.609375 0.546875 -1.109375q0.140625 -0.515625 0.140625 -0.9375q0 -1.125 -0.765625 -1.71875q-0.75 -0.609375 -2.21875 -0.609375q-1.171875 0 -2.171875 0.453125q-1.0 0.453125 -1.6875 1.421875l-3.140625 -2.03125q1.0625 -1.59375 2.984375 -2.53125q1.921875 -0.9375 4.421875 -0.9375q2.078125 0 3.640625 0.6875q1.5625 0.671875 2.421875 1.90625q0.875 1.21875 0.875 2.921875q0 0.90625 -0.234375 1.8125q-0.21875 0.890625 -0.90625 1.875q-0.671875 0.984375 -1.984375 2.203125l-5.96875 5.625l-0.828125 -1.5625l10.53125 0l0 3.515625l-14.109375 0zm18.60315 0.21875q-1.0625 0 -1.828125 -0.734375q-0.75 -0.734375 -0.75 -1.890625q0 -1.140625 0.75 -1.84375q0.765625 -0.703125 1.828125 -0.703125q1.09375 0 1.84375 0.703125q0.75 0.703125 0.75 1.84375q0 1.15625 -0.75 1.890625q-0.75 0.734375 -1.84375 0.734375zm10.890198 0.09375q-1.953125 0 -3.859375 -0.515625q-1.90625 -0.515625 -3.265625 -1.46875l1.703125 -3.3125q1.0625 0.765625 2.46875 1.21875q1.40625 0.453125 2.84375 0.453125q1.625 0 2.546875 -0.625q0.9375 -0.640625 0.9375 -1.796875q0 -0.71875 -0.375 -1.28125q-0.375 -0.5625 -1.328125 -0.84375q-0.9375 -0.296875 -2.640625 -0.296875l-4.765625 0l0.953125 -10.5l11.390625 0l0 3.46875l-9.84375 0l2.234375 -1.984375l-0.65625 7.5l-2.25 -1.984375l3.953125 0q2.765625 0 4.453125 0.765625q1.703125 0.765625 2.46875 2.078125q0.78125 1.296875 0.78125 2.953125q0 1.640625 -0.828125 3.046875q-0.828125 1.40625 -2.546875 2.265625q-1.71875 0.859375 -4.375 0.859375z" fill-rule="nonzero"/><path fill="#000000" d="m694.6531 236.02928q-1.953125 0 -3.875 -0.515625q-1.90625 -0.515625 -3.25 -1.46875l1.6875 -3.3125q1.0625 0.765625 2.46875 1.21875q1.421875 0.453125 2.859375 0.453125q1.625 0 2.546875 -0.625q0.9375 -0.640625 0.9375 -1.765625q0 -1.0625 -0.828125 -1.671875q-0.8125 -0.625 -2.65625 -0.625l-1.96875 0l0 -2.84375l5.1875 -5.890625l0.484375 1.546875l-9.78125 0l0 -3.46875l13.0625 0l0 2.796875l-5.171875 5.890625l-2.1875 -1.25l1.25 0q3.4375 0 5.203125 1.546875q1.765625 1.546875 1.765625 3.96875q0 1.578125 -0.828125 2.953125q-0.828125 1.359375 -2.546875 2.21875q-1.703125 0.84375 -4.359375 0.84375zm12.1710205 -0.09375q-1.0625 0 -1.828125 -0.734375q-0.75 -0.734375 -0.75 -1.890625q0 -1.140625 0.75 -1.84375q0.765625 -0.703125 1.828125 -0.703125q1.09375 0 1.84375 0.703125q0.75 0.703125 0.75 1.84375q0 1.15625 -0.75 1.890625q-0.75 0.734375 -1.84375 0.734375zm6.994751 -0.21875l0 -17.0625l1.859375 1.875l-5.59375 0l0 -3.46875l8.046875 0l0 18.65625l-4.3125 0z" fill-rule="nonzero"/><path fill="#000000" d="m694.1468 283.71677l0 -17.0625l1.859375 1.875l-5.59375 0l0 -3.46875l8.046875 0l0 18.65625l-4.3125 0zm10.011719 0.21875q-1.0625 0 -1.828125 -0.734375q-0.75 -0.734375 -0.75 -1.890625q0 -1.140625 0.75 -1.84375q0.765625 -0.703125 1.828125 -0.703125q1.09375 0 1.84375 0.703125q0.75 0.703125 0.75 1.84375q0 1.15625 -0.75 1.890625q-0.75 0.734375 -1.84375 0.734375zm6.994751 -0.21875l0 -17.0625l1.859375 1.875l-5.59375 0l0 -3.46875l8.046875 0l0 18.65625l-4.3125 0z" fill-rule="nonzero"/><path fill="#000000" d="m685.342 331.71677l0 -2.796875l7.203125 -6.796875q0.859375 -0.78125 1.25 -1.390625q0.40625 -0.609375 0.546875 -1.109375q0.140625 -0.515625 0.140625 -0.9375q0 -1.125 -0.765625 -1.71875q-0.75 -0.609375 -2.21875 -0.609375q-1.171875 0 -2.171875 0.453125q-1.0 0.453125 -1.6875 1.421875l-3.140625 -2.03125q1.0625 -1.59375 2.984375 -2.53125q1.921875 -0.9375 4.421875 -0.9375q2.078125 0 3.640625 0.6875q1.5625 0.671875 2.421875 1.90625q0.875 1.21875 0.875 2.921875q0 0.90625 -0.234375 1.8125q-0.21875 0.890625 -0.90625 1.875q-0.671875 0.984375 -1.984375 2.203125l-5.96875 5.625l-0.828125 -1.5625l10.53125 0l0 3.515625l-14.109375 0zm18.60321 0.21875q-1.0625 0 -1.828125 -0.734375q-0.75 -0.734375 -0.75 -1.890625q0 -1.140625 0.75 -1.84375q0.765625 -0.703125 1.828125 -0.703125q1.09375 0 1.84375 0.703125q0.75 0.703125 0.75 1.84375q0 1.15625 -0.75 1.890625q-0.75 0.734375 -1.84375 0.734375zm4.6411743 -0.21875l0 -2.796875l7.203125 -6.796875q0.859375 -0.78125 1.25 -1.390625q0.40625 -0.609375 0.546875 -1.109375q0.140625 -0.515625 0.140625 -0.9375q0 -1.125 -0.765625 -1.71875q-0.75 -0.609375 -2.21875 -0.609375q-1.171875 0 -2.171875 0.453125q-1.0 0.453125 -1.6875 1.421875l-3.140625 -2.03125q1.0625 -1.59375 2.984375 -2.53125q1.921875 -0.9375 4.421875 -0.9375q2.078125 0 3.640625 0.6875q1.5625 0.671875 2.421875 1.90625q0.875 1.21875 0.875 2.921875q0 0.90625 -0.234375 1.8125q-0.21875 0.890625 -0.90625 1.875q-0.671875 0.984375 -1.984375 2.203125l-5.96875 5.625l-0.828125 -1.5625l10.53125 0l0 3.515625l-14.109375 0z" fill-rule="nonzero"/><path fill="#000000" fill-opacity="0.0" d="m405.6509 208.05014l0 0c0 -7.532089 6.1059875 -13.638062 13.638092 -13.638062l54.55063 0l0 0c3.617035 0 7.0859375 1.4368591 9.643555 3.9944916c2.5576477 2.5576324 3.9945068 6.026535 3.9945068 9.64357l0 131.36954c0 7.5321045 -6.1059875 13.638062 -13.638062 13.638062l-54.55063 0c-7.5321045 0 -13.638092 -6.105957 -13.638092 -13.638062z" fill-rule="evenodd"/><path stroke="#000000" stroke-width="3.0" stroke-linejoin="round" stroke-linecap="butt" d="m405.6509 208.05014l0 0c0 -7.532089 6.1059875 -13.638062 13.638092 -13.638062l54.55063 0l0 0c3.617035 0 7.0859375 1.4368591 9.643555 3.9944916c2.5576477 2.5576324 3.9945068 6.026535 3.9945068 9.64357l0 131.36954c0 7.5321045 -6.1059875 13.638062 -13.638062 13.638062l-54.55063 0c-7.5321045 0 -13.638092 -6.105957 -13.638092 -13.638062z" fill-rule="evenodd"/><path fill="#000000" fill-opacity="0.0" d="m663.03937 168.04883l0 0c0 -7.532089 6.105957 -13.638062 13.638062 -13.638062l54.55066 0l0 0c3.6170044 0 7.0859375 1.4368591 9.643555 3.9944916c2.5576172 2.5576324 3.9945068 6.026535 3.9945068 9.64357l0 179.52701c0 7.5321045 -6.105957 13.638062 -13.638062 13.638062l-54.55066 0c-7.5321045 0 -13.638062 -6.105957 -13.638062 -13.638062z" fill-rule="evenodd"/><path stroke="#000000" stroke-width="3.0" stroke-linejoin="round" stroke-linecap="butt" d="m663.03937 168.04883l0 0c0 -7.532089 6.105957 -13.638062 13.638062 -13.638062l54.55066 0l0 0c3.6170044 0 7.0859375 1.4368591 9.643555 3.9944916c2.5576172 2.5576324 3.9945068 6.026535 3.9945068 9.64357l0 179.52701c0 7.5321045 -6.105957 13.638062 -13.638062 13.638062l-54.55066 0c-7.5321045 0 -13.638062 -6.105957 -13.638062 -13.638062z" fill-rule="evenodd"/><path fill="#cfe2f3" d="m361.79904 36.158844l0 0c-1.6680603 -8.76853 3.8085327 -17.448843 14.105804 -22.357561c10.297302 -4.908719 23.609375 -5.1849613 34.287445 -0.7115078l0 0c3.7825012 -5.0983863 10.705566 -8.618471 18.67514 -9.495495c7.9695435 -0.87702465 16.04953 0.99202013 21.795898 5.041785l0 0c3.2221985 -4.6225257 9.549042 -7.7282715 16.735474 -8.215158c7.1864014 -0.4868871 14.2153015 1.7139913 18.592468 5.8216496l0 0c5.8213806 -4.8998647 15.0833435 -6.9629116 23.778198 -5.296448c8.694824 1.6664631 15.260864 6.7631245 16.856995 13.08463l0 0c7.132141 1.3915825 13.07312 4.9291687 16.287903 9.698761c3.2147827 4.7695923 3.3880005 10.303305 0.47491455 15.1714l0 0c7.0231323 6.5383873 8.666016 15.250706 4.3155518 22.885677c-4.350403 7.6349716 -14.040588 13.045525 -25.454285 14.21254c-0.080444336 7.165695 -5.574402 13.740845 -14.364227 17.191109c-8.789856 3.450264 -19.503052 3.2368622 -28.010223 -0.55794525l0 0c-3.6235962 8.582161 -13.822845 14.896828 -26.191284 16.215843c-12.368439 1.3190079 -24.688782 -2.594101 -31.638184 -10.048714l0 0c-8.518494 3.674408 -18.74002 4.7328873 -28.358734 2.9366684c-9.618744 -1.7962189 -17.824463 -6.29583 -22.766144 -12.48381l0 0c-8.704834 0.72865295 -17.121216 -2.497406 -21.072113 -8.077087c-3.9508972 -5.579689 -2.5952759 -12.325218 3.394104 -16.88881l0 0c-7.7649536 -3.2691422 -11.727081 -9.756203 -9.820343 -16.078438c1.9067688 -6.3222313 9.250366 -11.046997 18.201385 -11.710514z" fill-rule="evenodd"/><path fill="#000000" fill-opacity="0.0" d="m353.24594 64.28574l0 0c3.6643066 1.542717 7.8974304 2.2425308 12.131012 2.005478m5.545105 22.960983c1.8205872 -0.15239716 3.605133 -0.47511292 5.3075867 -0.95983124m45.814728 10.506569c-1.2804871 -1.3735809 -2.3525696 -2.8413773 -3.197998 -4.3783646m61.029694 -1.7890244l0 0c0.660614 -1.5646515 1.0886536 -3.1750183 1.276947 -4.8042374m41.095886 -11.828323c0.08569336 -7.62899 -5.971985 -14.614166 -15.570953 -17.955196m36.709503 -19.142216c-1.5545044 2.5978127 -3.9276733 4.902298 -6.9334106 6.732765m-9.828003 -31.603607l0 0c0.26489258 1.049056 0.38745117 2.1138792 0.36602783 3.1797094m-41.00049 -10.967574l0 0c-1.4521484 1.2222729 -2.648529 2.5881472 -3.55188 4.055093m-31.776398 -1.662117l0 0c-0.77386475 1.1101809 -1.3517456 2.2849426 -1.7203064 3.4972239m-38.751343 0.9565792l0 0c2.259491 0.94657993 4.3497925 2.0858898 6.2250366 3.3929033m-54.617645 19.676289l0 0c0.22991943 1.2085304 0.59317017 2.4021606 1.0863953 3.5697212" fill-rule="evenodd"/><path stroke="#000000" stroke-width="2.0" stroke-linejoin="round" stroke-linecap="butt" d="m361.79904 36.158844l0 0c-1.6680603 -8.76853 3.8085327 -17.448843 14.105804 -22.357561c10.297302 -4.908719 23.609375 -5.1849613 34.287445 -0.7115078l0 0c3.7825012 -5.0983863 10.705566 -8.618471 18.67514 -9.495495c7.9695435 -0.87702465 16.04953 0.99202013 21.795898 5.041785l0 0c3.2221985 -4.6225257 9.549042 -7.7282715 16.735474 -8.215158c7.1864014 -0.4868871 14.2153015 1.7139913 18.592468 5.8216496l0 0c5.8213806 -4.8998647 15.0833435 -6.9629116 23.778198 -5.296448c8.694824 1.6664631 15.260864 6.7631245 16.856995 13.08463l0 0c7.132141 1.3915825 13.07312 4.9291687 16.287903 9.698761c3.2147827 4.7695923 3.3880005 10.303305 0.47491455 15.1714l0 0c7.0231323 6.5383873 8.666016 15.250706 4.3155518 22.885677c-4.350403 7.6349716 -14.040588 13.045525 -25.454285 14.21254c-0.080444336 7.165695 -5.574402 13.740845 -14.364227 17.191109c-8.789856 3.450264 -19.503052 3.2368622 -28.010223 -0.55794525l0 0c-3.6235962 8.582161 -13.822845 14.896828 -26.191284 16.215843c-12.368439 1.3190079 -24.688782 -2.594101 -31.638184 -10.048714l0 0c-8.518494 3.674408 -18.74002 4.7328873 -28.358734 2.9366684c-9.618744 -1.7962189 -17.824463 -6.29583 -22.766144 -12.48381l0 0c-8.704834 0.72865295 -17.121216 -2.497406 -21.072113 -8.077087c-3.9508972 -5.579689 -2.5952759 -12.325218 3.394104 -16.88881l0 0c-7.7649536 -3.2691422 -11.727081 -9.756203 -9.820343 -16.078438c1.9067688 -6.3222313 9.250366 -11.046997 18.201385 -11.710514z" fill-rule="evenodd"/><path stroke="#000000" stroke-width="2.0" stroke-linejoin="round" stroke-linecap="butt" d="m353.24594 64.28574l0 0c3.6643066 1.542717 7.8974304 2.2425308 12.131012 2.005478m5.545105 22.960983c1.8205872 -0.15239716 3.605133 -0.47511292 5.3075867 -0.95983124m45.814728 10.506569c-1.2804871 -1.3735809 -2.3525696 -2.8413773 -3.197998 -4.3783646m61.029694 -1.7890244l0 0c0.660614 -1.5646515 1.0886536 -3.1750183 1.276947 -4.8042374m41.095886 -11.828323c0.08569336 -7.62899 -5.971985 -14.614166 -15.570953 -17.955196m36.709503 -19.142216c-1.5545044 2.5978127 -3.9276733 4.902298 -6.9334106 6.732765m-9.828003 -31.603607l0 0c0.26489258 1.049056 0.38745117 2.1138792 0.36602783 3.1797094m-41.00049 -10.967574l0 0c-1.4521484 1.2222729 -2.648529 2.5881472 -3.55188 4.055093m-31.776398 -1.662117l0 0c-0.77386475 1.1101809 -1.3517456 2.2849426 -1.7203064 3.4972239m-38.751343 0.9565792l0 0c2.259491 0.94657993 4.3497925 2.0858898 6.2250366 3.3929033m-54.617645 19.676289l0 0c0.22991943 1.2085304 0.59317017 2.4021606 1.0863953 3.5697212" fill-rule="evenodd"/><path fill="#000000" d="m402.31683 60.35833q-1.875 0 -3.453125 -0.59375q-1.5625 -0.59375 -2.734375 -1.703125q-1.171875 -1.125 -1.8125 -2.609375q-0.640625 -1.5 -0.640625 -3.28125q0 -1.796875 0.640625 -3.28125q0.640625 -1.5 1.8125 -2.609375q1.1875 -1.125 2.765625 -1.71875q1.59375 -0.59375 3.5 -0.59375q2.109375 0 3.796875 0.703125q1.6875 0.703125 2.84375 2.03125l-2.359375 2.171875q-0.859375 -0.90625 -1.890625 -1.34375q-1.015625 -0.4375 -2.21875 -0.4375q-1.15625 0 -2.109375 0.359375q-0.9375 0.359375 -1.640625 1.046875q-0.6875 0.671875 -1.0625 1.609375q-0.375 0.921875 -0.375 2.0625q0 1.109375 0.375 2.03125q0.375 0.921875 1.0625 1.625q0.703125 0.6875 1.640625 1.046875q0.9375 0.359375 2.0625 0.359375q1.09375 0 2.125 -0.34375q1.03125 -0.359375 2.0 -1.1875l2.09375 2.640625q-1.296875 0.984375 -3.015625 1.5q-1.703125 0.515625 -3.40625 0.515625zm3.0625 -2.484375l0 -5.953125l3.359375 0l0 6.421875l-3.359375 -0.46875zm6.499176 2.21875l0 -12.1875l3.375 0l0 3.4375l-0.46875 -0.984375q0.546875 -1.296875 1.734375 -1.96875q1.203125 -0.671875 2.9375 -0.671875l0 3.265625q-0.234375 -0.015625 -0.421875 -0.03125q-0.171875 -0.015625 -0.375 -0.015625q-1.453125 0 -2.34375 0.828125q-0.890625 0.828125 -0.890625 2.578125l0 5.75l-3.546875 0zm15.373291 0.1875q-1.953125 0 -3.46875 -0.8125q-1.5 -0.828125 -2.375 -2.234375q-0.875 -1.421875 -0.875 -3.234375q0 -1.828125 0.875 -3.25q0.875 -1.421875 2.375 -2.21875q1.515625 -0.8125 3.46875 -0.8125q1.921875 0 3.4375 0.8125q1.515625 0.796875 2.375 2.203125q0.859375 1.40625 0.859375 3.265625q0 1.8125 -0.859375 3.234375q-0.859375 1.40625 -2.375 2.234375q-1.515625 0.8125 -3.4375 0.8125zm0 -2.90625q0.875 0 1.578125 -0.40625q0.703125 -0.40625 1.109375 -1.15625q0.40625 -0.765625 0.40625 -1.8125q0 -1.0625 -0.40625 -1.8125q-0.40625 -0.75 -1.109375 -1.15625q-0.703125 -0.40625 -1.578125 -0.40625q-0.890625 0 -1.59375 0.40625q-0.703125 0.40625 -1.125 1.15625q-0.421875 0.75 -0.421875 1.8125q0 1.046875 0.421875 1.8125q0.421875 0.75 1.125 1.15625q0.703125 0.40625 1.59375 0.40625zm14.183563 2.90625q-1.53125 0 -2.71875 -0.59375q-1.1875 -0.59375 -1.84375 -1.796875q-0.65625 -1.21875 -0.65625 -3.09375l0 -6.890625l3.53125 0l0 6.359375q0 1.53125 0.640625 2.25q0.65625 0.703125 1.828125 0.703125q0.8125 0 1.453125 -0.34375q0.640625 -0.359375 1.0 -1.09375q0.359375 -0.734375 0.359375 -1.84375l0 -6.03125l3.53125 0l0 12.1875l-3.34375 0l0 -3.359375l0.609375 0.984375q-0.609375 1.265625 -1.8125 1.921875q-1.1875 0.640625 -2.578125 0.640625zm17.611694 0q-1.53125 0 -2.6875 -0.671875q-1.15625 -0.6875 -1.8125 -2.078125q-0.640625 -1.40625 -0.640625 -3.53125q0 -2.15625 0.609375 -3.53125q0.625 -1.390625 1.78125 -2.0625q1.15625 -0.6875 2.75 -0.6875q1.734375 0 3.09375 0.78125q1.375 0.78125 2.171875 2.1875q0.8125 1.40625 0.8125 3.3125q0 1.921875 -0.8125 3.328125q-0.796875 1.40625 -2.171875 2.1875q-1.359375 0.765625 -3.09375 0.765625zm-7.203125 4.203125l0 -16.578125l3.375 0l0 2.484375l-0.0625 3.625l0.234375 3.609375l0 6.859375l-3.546875 0zm6.59375 -7.109375q0.890625 0 1.578125 -0.40625q0.6875 -0.40625 1.109375 -1.15625q0.421875 -0.765625 0.421875 -1.8125q0 -1.0625 -0.421875 -1.8125q-0.421875 -0.75 -1.109375 -1.15625q-0.6875 -0.40625 -1.578125 -0.40625q-0.875 0 -1.578125 0.40625q-0.703125 0.40625 -1.109375 1.15625q-0.40625 0.75 -0.40625 1.8125q0 1.046875 0.40625 1.8125q0.40625 0.75 1.109375 1.15625q0.703125 0.40625 1.578125 0.40625zm14.575745 2.71875l0 -2.375l6.109375 -5.78125q0.734375 -0.65625 1.0625 -1.171875q0.34375 -0.53125 0.46875 -0.953125q0.125 -0.4375 0.125 -0.796875q0 -0.953125 -0.640625 -1.453125q-0.640625 -0.515625 -1.890625 -0.515625q-1.0 0 -1.859375 0.390625q-0.84375 0.375 -1.421875 1.1875l-2.6875 -1.71875q0.90625 -1.359375 2.53125 -2.140625q1.640625 -0.796875 3.78125 -0.796875q1.765625 0 3.078125 0.578125q1.328125 0.578125 2.0625 1.625q0.75 1.03125 0.75 2.484375q0 0.765625 -0.203125 1.53125q-0.1875 0.75 -0.765625 1.59375q-0.578125 0.84375 -1.6875 1.875l-5.078125 4.78125l-0.703125 -1.328125l8.953125 0l0 2.984375l-11.984375 0z" fill-rule="nonzero"/><path fill="#cfe2f3" d="m619.1875 36.418686l0 0c-1.6680298 -8.76853 3.8085327 -17.448843 14.105774 -22.357561c10.297302 -4.908718 23.609375 -5.1849604 34.287476 -0.71150684l0 0c3.7824707 -5.098387 10.705566 -8.618471 18.67511 -9.495496c7.9695435 -0.8770249 16.04956 0.9920199 21.795898 5.0417843l0 0c3.222229 -4.6225247 9.549072 -7.728271 16.735474 -8.215158c7.1864014 -0.4868871 14.215332 1.7139914 18.592468 5.8216496l0 0c5.821411 -4.8998647 15.083374 -6.9629116 23.778198 -5.296448c8.694824 1.6664633 15.260925 6.7631245 16.856995 13.084631l0 0c7.132141 1.3915825 13.07312 4.9291697 16.287903 9.698762c3.2147827 4.7695923 3.3880005 10.303303 0.4749756 15.171398l0 0c7.0230713 6.5383873 8.665955 15.250706 4.3155518 22.885677c-4.350464 7.6349716 -14.040588 13.045525 -25.454285 14.21254c-0.080444336 7.165695 -5.574402 13.740845 -14.364258 17.191109c-8.789856 3.450264 -19.503052 3.2368622 -28.010254 -0.55794525l0 0c-3.6235962 8.582161 -13.822815 14.896828 -26.191284 16.215843c-12.368408 1.3190079 -24.688782 -2.5940933 -31.638184 -10.048714l0 0c-8.518494 3.674408 -18.73999 4.7328873 -28.358704 2.9366684c-9.618713 -1.7962189 -17.824463 -6.29583 -22.766113 -12.48381l0 0c-8.704895 0.72865295 -17.121277 -2.497406 -21.072144 -8.077087c-3.9509277 -5.579689 -2.5952759 -12.325218 3.394104 -16.88881l0 0c-7.7649536 -3.2691422 -11.727112 -9.756203 -9.8203125 -16.078438c1.9067383 -6.3222313 9.250305 -11.046997 18.201355 -11.71051z" fill-rule="evenodd"/><path fill="#000000" fill-opacity="0.0" d="m610.6344 64.545586l0 0c3.6643066 1.542717 7.8974 2.2425308 12.1310425 2.005478m5.545044 22.960983c1.8206177 -0.15239716 3.6051636 -0.47511292 5.307617 -0.95983124m45.814697 10.506569c-1.2804565 -1.3735809 -2.352539 -2.8413696 -3.197998 -4.3783646m61.029724 -1.7890244l0 0c0.66064453 -1.5646515 1.0886841 -3.1750183 1.2769775 -4.8042374m41.095886 -11.828323c0.085632324 -7.6289825 -5.971985 -14.614162 -15.570984 -17.955193m36.709534 -19.14222c-1.5545654 2.5978127 -3.9277344 4.902298 -6.9334106 6.732769m-9.828064 -31.603611l0 0c0.26489258 1.049056 0.3875122 2.1138783 0.36608887 3.1797085m-41.00055 -10.967573l0 0c-1.4521484 1.2222729 -2.6484985 2.5881467 -3.55188 4.0550923m-31.776367 -1.662117l0 0c-0.77386475 1.1101818 -1.3517456 2.2849436 -1.7203369 3.4972248m-38.75128 0.9565792l0 0c2.2594604 0.94657993 4.3497925 2.0858898 6.2250366 3.3929024m-54.617676 19.676289l0 0c0.22991943 1.2085304 0.59313965 2.4021606 1.0863647 3.5697212" fill-rule="evenodd"/><path stroke="#000000" stroke-width="2.0" stroke-linejoin="round" stroke-linecap="butt" d="m619.1875 36.418686l0 0c-1.6680298 -8.76853 3.8085327 -17.448843 14.105774 -22.357561c10.297302 -4.908718 23.609375 -5.1849604 34.287476 -0.71150684l0 0c3.7824707 -5.098387 10.705566 -8.618471 18.67511 -9.495496c7.9695435 -0.8770249 16.04956 0.9920199 21.795898 5.0417843l0 0c3.222229 -4.6225247 9.549072 -7.728271 16.735474 -8.215158c7.1864014 -0.4868871 14.215332 1.7139914 18.592468 5.8216496l0 0c5.821411 -4.8998647 15.083374 -6.9629116 23.778198 -5.296448c8.694824 1.6664633 15.260925 6.7631245 16.856995 13.084631l0 0c7.132141 1.3915825 13.07312 4.9291697 16.287903 9.698762c3.2147827 4.7695923 3.3880005 10.303303 0.4749756 15.171398l0 0c7.0230713 6.5383873 8.665955 15.250706 4.3155518 22.885677c-4.350464 7.6349716 -14.040588 13.045525 -25.454285 14.21254c-0.080444336 7.165695 -5.574402 13.740845 -14.364258 17.191109c-8.789856 3.450264 -19.503052 3.2368622 -28.010254 -0.55794525l0 0c-3.6235962 8.582161 -13.822815 14.896828 -26.191284 16.215843c-12.368408 1.3190079 -24.688782 -2.5940933 -31.638184 -10.048714l0 0c-8.518494 3.674408 -18.73999 4.7328873 -28.358704 2.9366684c-9.618713 -1.7962189 -17.824463 -6.29583 -22.766113 -12.48381l0 0c-8.704895 0.72865295 -17.121277 -2.497406 -21.072144 -8.077087c-3.9509277 -5.579689 -2.5952759 -12.325218 3.394104 -16.88881l0 0c-7.7649536 -3.2691422 -11.727112 -9.756203 -9.8203125 -16.078438c1.9067383 -6.3222313 9.250305 -11.046997 18.201355 -11.71051z" fill-rule="evenodd"/><path stroke="#000000" stroke-width="2.0" stroke-linejoin="round" stroke-linecap="butt" d="m610.6344 64.545586l0 0c3.6643066 1.542717 7.8974 2.2425308 12.1310425 2.005478m5.545044 22.960983c1.8206177 -0.15239716 3.6051636 -0.47511292 5.307617 -0.95983124m45.814697 10.506569c-1.2804565 -1.3735809 -2.352539 -2.8413696 -3.197998 -4.3783646m61.029724 -1.7890244l0 0c0.66064453 -1.5646515 1.0886841 -3.1750183 1.2769775 -4.8042374m41.095886 -11.828323c0.085632324 -7.6289825 -5.971985 -14.614162 -15.570984 -17.955193m36.709534 -19.14222c-1.5545654 2.5978127 -3.9277344 4.902298 -6.9334106 6.732769m-9.828064 -31.603611l0 0c0.26489258 1.049056 0.3875122 2.1138783 0.36608887 3.1797085m-41.00055 -10.967573l0 0c-1.4521484 1.2222729 -2.6484985 2.5881467 -3.55188 4.0550923m-31.776367 -1.662117l0 0c-0.77386475 1.1101818 -1.3517456 2.2849436 -1.7203369 3.4972248m-38.75128 0.9565792l0 0c2.2594604 0.94657993 4.3497925 2.0858898 6.2250366 3.3929024m-54.617676 19.676289l0 0c0.22991943 1.2085304 0.59313965 2.4021606 1.0863647 3.5697212" fill-rule="evenodd"/><path fill="#000000" d="m659.6826 60.61817q-1.875 0 -3.453125 -0.59375q-1.5625 -0.59375 -2.734375 -1.703125q-1.171875 -1.125 -1.8125 -2.609375q-0.640625 -1.5 -0.640625 -3.28125q0 -1.796875 0.640625 -3.28125q0.640625 -1.5 1.8125 -2.609375q1.1875 -1.125 2.765625 -1.71875q1.59375 -0.59375 3.5 -0.59375q2.109375 0 3.796875 0.703125q1.6875 0.703125 2.84375 2.03125l-2.359375 2.171875q-0.859375 -0.90625 -1.890625 -1.34375q-1.015625 -0.4375 -2.21875 -0.4375q-1.15625 0 -2.109375 0.359375q-0.9375 0.359375 -1.640625 1.046875q-0.6875 0.671875 -1.0625 1.609375q-0.375 0.921875 -0.375 2.0625q0 1.109375 0.375 2.03125q0.375 0.921875 1.0625 1.625q0.703125 0.6875 1.640625 1.046875q0.9375 0.359375 2.0625 0.359375q1.09375 0 2.125 -0.34375q1.03125 -0.359375 2.0 -1.1875l2.09375 2.640625q-1.296875 0.984375 -3.015625 1.5q-1.703125 0.515625 -3.40625 0.515625zm3.0625 -2.484375l0 -5.953125l3.359375 0l0 6.421875l-3.359375 -0.46875zm6.4991455 2.21875l0 -12.1875l3.375 0l0 3.4375l-0.46875 -0.984375q0.546875 -1.296875 1.734375 -1.96875q1.203125 -0.671875 2.9375 -0.671875l0 3.265625q-0.234375 -0.015625 -0.421875 -0.03125q-0.171875 -0.015625 -0.375 -0.015625q-1.453125 0 -2.34375 0.828125q-0.890625 0.828125 -0.890625 2.578125l0 5.75l-3.546875 0zm15.373352 0.1875q-1.953125 0 -3.46875 -0.8125q-1.5 -0.828125 -2.375 -2.234375q-0.875 -1.421875 -0.875 -3.234375q0 -1.828125 0.875 -3.25q0.875 -1.421875 2.375 -2.21875q1.515625 -0.8125 3.46875 -0.8125q1.921875 0 3.4375 0.8125q1.515625 0.796875 2.375 2.203125q0.859375 1.40625 0.859375 3.265625q0 1.8125 -0.859375 3.234375q-0.859375 1.40625 -2.375 2.234375q-1.515625 0.8125 -3.4375 0.8125zm0 -2.90625q0.875 0 1.578125 -0.40625q0.703125 -0.40625 1.109375 -1.15625q0.40625 -0.765625 0.40625 -1.8125q0 -1.0625 -0.40625 -1.8125q-0.40625 -0.75 -1.109375 -1.15625q-0.703125 -0.40625 -1.578125 -0.40625q-0.890625 0 -1.59375 0.40625q-0.703125 0.40625 -1.125 1.15625q-0.421875 0.75 -0.421875 1.8125q0 1.046875 0.421875 1.8125q0.421875 0.75 1.125 1.15625q0.703125 0.40625 1.59375 0.40625zm14.183533 2.90625q-1.53125 0 -2.71875 -0.59375q-1.1875 -0.59375 -1.84375 -1.796875q-0.65625 -1.21875 -0.65625 -3.09375l0 -6.890625l3.53125 0l0 6.359375q0 1.53125 0.640625 2.25q0.65625 0.703125 1.828125 0.703125q0.8125 0 1.453125 -0.34375q0.640625 -0.359375 1.0 -1.09375q0.359375 -0.734375 0.359375 -1.84375l0 -6.03125l3.53125 0l0 12.1875l-3.34375 0l0 -3.359375l0.609375 0.984375q-0.609375 1.265625 -1.8125 1.921875q-1.1875 0.640625 -2.578125 0.640625zm17.611694 0q-1.53125 0 -2.6875 -0.671875q-1.15625 -0.6875 -1.8125 -2.078125q-0.640625 -1.40625 -0.640625 -3.53125q0 -2.15625 0.609375 -3.53125q0.625 -1.390625 1.78125 -2.0625q1.15625 -0.6875 2.75 -0.6875q1.734375 0 3.09375 0.78125q1.375 0.78125 2.171875 2.1875q0.8125 1.40625 0.8125 3.3125q0 1.921875 -0.8125 3.328125q-0.796875 1.40625 -2.171875 2.1875q-1.359375 0.765625 -3.09375 0.765625zm-7.203125 4.203125l0 -16.578125l3.375 0l0 2.484375l-0.0625 3.625l0.234375 3.609375l0 6.859375l-3.546875 0zm6.59375 -7.109375q0.890625 0 1.578125 -0.40625q0.6875 -0.40625 1.109375 -1.15625q0.421875 -0.765625 0.421875 -1.8125q0 -1.0625 -0.421875 -1.8125q-0.421875 -0.75 -1.109375 -1.15625q-0.6875 -0.40625 -1.578125 -0.40625q-0.875 0 -1.578125 0.40625q-0.703125 0.40625 -1.109375 1.15625q-0.40625 0.75 -0.40625 1.8125q0 1.046875 0.40625 1.8125q0.40625 0.75 1.109375 1.15625q0.703125 0.40625 1.578125 0.40625zm19.856995 2.984375q-1.65625 0 -3.296875 -0.4375q-1.625 -0.4375 -2.75 -1.25l1.421875 -2.8125q0.90625 0.65625 2.109375 1.046875q1.203125 0.375 2.421875 0.375q1.375 0 2.171875 -0.53125q0.796875 -0.546875 0.796875 -1.5q0 -0.90625 -0.703125 -1.421875q-0.703125 -0.53125 -2.265625 -0.53125l-1.671875 0l0 -2.421875l4.40625 -5.015625l0.40625 1.328125l-8.3125 0l0 -2.953125l11.109375 0l0 2.375l-4.40625 5.015625l-1.84375 -1.0625l1.0625 0q2.921875 0 4.40625 1.3125q1.5 1.3125 1.5 3.375q0 1.328125 -0.703125 2.5q-0.703125 1.171875 -2.15625 1.890625q-1.4375 0.71875 -3.703125 0.71875z" fill-rule="nonzero"/><path fill="#000000" d="m870.731 200.16309l0 0c-13.274841 58.956696 -49.488647 104.90869 -88.04541 111.721405l2.8137817 -12.496613l-24.93628 17.64502l16.817993 18.410278l2.8137817 -12.496613l0 0c38.5567 -6.812683 74.77057 -52.76468 88.04535 -111.721405z" fill-rule="evenodd"/><path fill="#000000" d="m817.5407 63.980892l0 0c42.75049 9.616329 65.62219 72.0943 51.871826 141.6968l0 0c8.860535 -35.008224 8.599304 -71.11099 -0.72332764 -99.95017c-9.322571 -28.839172 -26.898132 -47.91409 -48.657715 -52.808704z" fill-rule="evenodd"/><path fill="#000000" fill-opacity="0.0" d="m870.731 200.16309l0 0c-13.274841 58.956696 -49.488647 104.90869 -88.04541 111.721405l2.8137817 -12.496613l-24.93628 17.64502l16.817993 18.410278l2.8137817 -12.496613l0 0c38.5567 -6.812683 74.77057 -52.76468 88.04535 -111.721405l2.4907837 -11.062073l0 0c16.07782 -71.40573 -6.6210938 -137.32924 -50.699524 -147.24428l-2.4907837 11.06208l0 0c42.75049 9.616329 65.62219 72.0943 51.871826 141.6968" fill-rule="evenodd"/><path stroke="#000000" stroke-width="1.0" stroke-linejoin="round" stroke-linecap="butt" d="m870.731 200.16309l0 0c-13.274841 58.956696 -49.488647 104.90869 -88.04541 111.721405l2.8137817 -12.496613l-24.93628 17.64502l16.817993 18.410278l2.8137817 -12.496613l0 0c38.5567 -6.812683 74.77057 -52.76468 88.04535 -111.721405l2.4907837 -11.062073l0 0c16.07782 -71.40573 -6.6210938 -137.32924 -50.699524 -147.24428l-2.4907837 11.06208l0 0c42.75049 9.616329 65.62219 72.0943 51.871826 141.6968" fill-rule="evenodd"/><path fill="#000000" d="m433.44882 163.63771l7.2440796 0l0 -46.016846l14.48819 0l0 46.016846l7.24411 0l-14.48819 21.857162z" fill-rule="evenodd"/><path stroke="#000000" stroke-width="1.0" stroke-linejoin="round" stroke-linecap="butt" d="m433.44882 163.63771l7.2440796 0l0 -46.016846l14.48819 0l0 46.016846l7.24411 0l-14.48819 21.857162z" fill-rule="evenodd"/></g></svg>