<svg version="1.1" viewBox="0.0 0.0 762.0787401574803 385.71391076115486" fill="none" stroke="none" stroke-linecap="square" stroke-miterlimit="10" xmlns:xlink="http://www.w3.org/1999/xlink" xmlns="http://www.w3.org/2000/svg"><clipPath id="p.0"><path d="m0 0l762.07874 0l0 385.7139l-762.07874 0l0 -385.7139z" clip-rule="nonzero"/></clipPath><g clip-path="url(#p.0)"><path fill="#000000" fill-opacity="0.0" d="m0 0l762.07874 0l0 385.7139l-762.07874 0z" fill-rule="evenodd"/><path fill="#000000" fill-opacity="0.0" d="m110.24147 193.10017l0 0c0 -11.941772 9.68071 -21.622482 21.622482 -21.622482l86.48732 0l0 0c5.7346344 0 11.2344055 2.2780762 15.289398 6.333069c4.055008 4.055008 6.333084 9.554764 6.333084 15.289413l0 162.45583c0 11.941772 -9.68071 21.622467 -21.622482 21.622467l-86.48732 0c-11.941772 0 -21.622482 -9.680695 -21.622482 -21.622467z" fill-rule="evenodd"/><path stroke="#000000" stroke-width="3.0" stroke-linejoin="round" stroke-linecap="butt" d="m110.24147 193.10017l0 0c0 -11.941772 9.68071 -21.622482 21.622482 -21.622482l86.48732 0l0 0c5.7346344 0 11.2344055 2.2780762 15.289398 6.333069c4.055008 4.055008 6.333084 9.554764 6.333084 15.289413l0 162.45583c0 11.941772 -9.68071 21.622467 -21.622482 21.622467l-86.48732 0c-11.941772 0 -21.622482 -9.680695 -21.622482 -21.622467z" fill-rule="evenodd"/><path fill="#cfe2f3" d="m108.50378 36.158844l0 0c-1.6680527 -8.76853 3.8085098 -17.448843 14.105797 -22.357561c10.297287 -4.908719 23.60936 -5.1849613 34.28743 -0.7115078l0 0c3.7825012 -5.0983863 10.705582 -8.618471 18.67514 -9.495495c7.9695587 -0.87702465 16.049545 0.99202013 21.795914 5.041785l0 0c3.2221985 -4.6225257 9.549057 -7.7282715 16.735458 -8.215158c7.1864014 -0.4868871 14.2153015 1.7139913 18.592484 5.8216496l0 0c5.8213806 -4.8998647 15.0833435 -6.9629116 23.778183 -5.296448c8.694855 1.6664631 15.260895 6.7631245 16.856964 13.08463l0 0c7.132202 1.3915825 13.073151 4.9291687 16.287933 9.698761c3.2147522 4.7695923 3.3880005 10.303305 0.47494507 15.1714l0 0c7.0231323 6.5383873 8.666016 15.250706 4.3155518 22.885677c-4.3504333 7.6349716 -14.040588 13.045525 -25.454285 14.21254c-0.080444336 7.165695 -5.574402 13.740845 -14.364258 17.191109c-8.789841 3.450264 -19.503021 3.2368622 -28.010208 -0.55794525l0 0c-3.6236115 8.582161 -13.822861 14.896828 -26.1913 16.215843c-12.368439 1.3190079 -24.688766 -2.594101 -31.638168 -10.048714l0 0c-8.518509 3.674408 -18.740005 4.7328873 -28.35875 2.9366684c-9.618729 -1.7962189 -17.824448 -6.29583 -22.76612 -12.48381l0 0c-8.704849 0.72865295 -17.121231 -2.497406 -21.072128 -8.077087c-3.9508972 -5.579689 -2.5952606 -12.325218 3.3941116 -16.88881l0 0c-7.764946 -3.2691422 -11.727097 -9.756203 -9.820335 -16.078438c1.9067612 -6.3222313 9.250351 -11.046997 18.201378 -11.710514z" fill-rule="evenodd"/><path fill="#000000" fill-opacity="0.0" d="m99.95067 64.28574l0 0c3.664299 1.542717 7.8974304 2.2425308 12.13102 2.005478m5.5450897 22.960983c1.8206024 -0.15239716 3.605133 -0.47511292 5.307579 -0.95983124m45.814743 10.506569c-1.2804871 -1.3735809 -2.3525848 -2.8413773 -3.1980133 -4.3783646m61.029694 -1.7890244l0 0c0.66064453 -1.5646515 1.0886688 -3.1750183 1.2769623 -4.8042374m41.0959 -11.828323c0.08566284 -7.62899 -5.971985 -14.614166 -15.570969 -17.955196m36.70952 -19.142216c-1.5545349 2.5978127 -3.9276733 4.902298 -6.9334106 6.732765m-9.828003 -31.603607l0 0c0.26486206 1.049056 0.38745117 2.1138792 0.36602783 3.1797094m-41.000504 -10.967574l0 0c-1.4521484 1.2222729 -2.648529 2.5881472 -3.55188 4.055093m-31.776398 -1.662117l0 0c-0.77386475 1.1101809 -1.3517456 2.2849426 -1.7203064 3.4972239m-38.751328 0.9565792l0 0c2.2594604 0.94657993 4.349777 2.0858898 6.2250366 3.3929033m-54.617653 19.676289l0 0c0.22990417 1.2085304 0.59316254 2.4021606 1.0863724 3.5697212" fill-rule="evenodd"/><path stroke="#000000" stroke-width="2.0" stroke-linejoin="round" stroke-linecap="butt" d="m108.50378 36.158844l0 0c-1.6680527 -8.76853 3.8085098 -17.448843 14.105797 -22.357561c10.297287 -4.908719 23.60936 -5.1849613 34.28743 -0.7115078l0 0c3.7825012 -5.0983863 10.705582 -8.618471 18.67514 -9.495495c7.9695587 -0.87702465 16.049545 0.99202013 21.795914 5.041785l0 0c3.2221985 -4.6225257 9.549057 -7.7282715 16.735458 -8.215158c7.1864014 -0.4868871 14.2153015 1.7139913 18.592484 5.8216496l0 0c5.8213806 -4.8998647 15.0833435 -6.9629116 23.778183 -5.296448c8.694855 1.6664631 15.260895 6.7631245 16.856964 13.08463l0 0c7.132202 1.3915825 13.073151 4.9291687 16.287933 9.698761c3.2147522 4.7695923 3.3880005 10.303305 0.47494507 15.1714l0 0c7.0231323 6.5383873 8.666016 15.250706 4.3155518 22.885677c-4.3504333 7.6349716 -14.040588 13.045525 -25.454285 14.21254c-0.080444336 7.165695 -5.574402 13.740845 -14.364258 17.191109c-8.789841 3.450264 -19.503021 3.2368622 -28.010208 -0.55794525l0 0c-3.6236115 8.582161 -13.822861 14.896828 -26.1913 16.215843c-12.368439 1.3190079 -24.688766 -2.594101 -31.638168 -10.048714l0 0c-8.518509 3.674408 -18.740005 4.7328873 -28.35875 2.9366684c-9.618729 -1.7962189 -17.824448 -6.29583 -22.76612 -12.48381l0 0c-8.704849 0.72865295 -17.121231 -2.497406 -21.072128 -8.077087c-3.9508972 -5.579689 -2.5952606 -12.325218 3.3941116 -16.88881l0 0c-7.764946 -3.2691422 -11.727097 -9.756203 -9.820335 -16.078438c1.9067612 -6.3222313 9.250351 -11.046997 18.201378 -11.710514z" fill-rule="evenodd"/><path stroke="#000000" stroke-width="2.0" stroke-linejoin="round" stroke-linecap="butt" d="m99.95067 64.28574l0 0c3.664299 1.542717 7.8974304 2.2425308 12.13102 2.005478m5.5450897 22.960983c1.8206024 -0.15239716 3.605133 -0.47511292 5.307579 -0.95983124m45.814743 10.506569c-1.2804871 -1.3735809 -2.3525848 -2.8413773 -3.1980133 -4.3783646m61.029694 -1.7890244l0 0c0.66064453 -1.5646515 1.0886688 -3.1750183 1.2769623 -4.8042374m41.0959 -11.828323c0.08566284 -7.62899 -5.971985 -14.614166 -15.570969 -17.955196m36.70952 -19.142216c-1.5545349 2.5978127 -3.9276733 4.902298 -6.9334106 6.732765m-9.828003 -31.603607l0 0c0.26486206 1.049056 0.38745117 2.1138792 0.36602783 3.1797094m-41.000504 -10.967574l0 0c-1.4521484 1.2222729 -2.648529 2.5881472 -3.55188 4.055093m-31.776398 -1.662117l0 0c-0.77386475 1.1101809 -1.3517456 2.2849426 -1.7203064 3.4972239m-38.751328 0.9565792l0 0c2.2594604 0.94657993 4.349777 2.0858898 6.2250366 3.3929033m-54.617653 19.676289l0 0c0.22990417 1.2085304 0.59316254 2.4021606 1.0863724 3.5697212" fill-rule="evenodd"/><path fill="#000000" d="m151.26451 60.35833q-1.875 0 -3.453125 -0.59375q-1.5625 -0.59375 -2.734375 -1.703125q-1.171875 -1.125 -1.8125 -2.609375q-0.640625 -1.5 -0.640625 -3.28125q0 -1.796875 0.640625 -3.28125q0.640625 -1.5 1.8125 -2.609375q1.1875 -1.125 2.765625 -1.71875q1.59375 -0.59375 3.5 -0.59375q2.109375 0 3.796875 0.703125q1.6875 0.703125 2.84375 2.03125l-2.359375 2.171875q-0.859375 -0.90625 -1.890625 -1.34375q-1.015625 -0.4375 -2.21875 -0.4375q-1.15625 0 -2.109375 0.359375q-0.9375 0.359375 -1.640625 1.046875q-0.6875 0.671875 -1.0625 1.609375q-0.375 0.921875 -0.375 2.0625q0 1.109375 0.375 2.03125q0.375 0.921875 1.0625 1.625q0.703125 0.6875 1.640625 1.046875q0.9375 0.359375 2.0625 0.359375q1.09375 0 2.125 -0.34375q1.03125 -0.359375 2.0 -1.1875l2.09375 2.640625q-1.296875 0.984375 -3.015625 1.5q-1.703125 0.515625 -3.40625 0.515625zm3.0625 -2.484375l0 -5.953125l3.359375 0l0 6.421875l-3.359375 -0.46875zm6.499176 2.21875l0 -12.1875l3.375 0l0 3.4375l-0.46875 -0.984375q0.546875 -1.296875 1.734375 -1.96875q1.203125 -0.671875 2.9375 -0.671875l0 3.265625q-0.234375 -0.015625 -0.421875 -0.03125q-0.171875 -0.015625 -0.375 -0.015625q-1.453125 0 -2.34375 0.828125q-0.890625 0.828125 -0.890625 2.578125l0 5.75l-3.546875 0zm15.373306 0.1875q-1.953125 0 -3.46875 -0.8125q-1.5 -0.828125 -2.375 -2.234375q-0.875 -1.421875 -0.875 -3.234375q0 -1.828125 0.875 -3.25q0.875 -1.421875 2.375 -2.21875q1.515625 -0.8125 3.46875 -0.8125q1.921875 0 3.4375 0.8125q1.515625 0.796875 2.375 2.203125q0.859375 1.40625 0.859375 3.265625q0 1.8125 -0.859375 3.234375q-0.859375 1.40625 -2.375 2.234375q-1.515625 0.8125 -3.4375 0.8125zm0 -2.90625q0.875 0 1.578125 -0.40625q0.703125 -0.40625 1.109375 -1.15625q0.40625 -0.765625 0.40625 -1.8125q0 -1.0625 -0.40625 -1.8125q-0.40625 -0.75 -1.109375 -1.15625q-0.703125 -0.40625 -1.578125 -0.40625q-0.890625 0 -1.59375 0.40625q-0.703125 0.40625 -1.125 1.15625q-0.421875 0.75 -0.421875 1.8125q0 1.046875 0.421875 1.8125q0.421875 0.75 1.125 1.15625q0.703125 0.40625 1.59375 0.40625zm14.183563 2.90625q-1.53125 0 -2.71875 -0.59375q-1.1875 -0.59375 -1.84375 -1.796875q-0.65625 -1.21875 -0.65625 -3.09375l0 -6.890625l3.53125 0l0 6.359375q0 1.53125 0.640625 2.25q0.65625 0.703125 1.828125 0.703125q0.8125 0 1.453125 -0.34375q0.640625 -0.359375 1.0 -1.09375q0.359375 -0.734375 0.359375 -1.84375l0 -6.03125l3.53125 0l0 12.1875l-3.34375 0l0 -3.359375l0.609375 0.984375q-0.609375 1.265625 -1.8125 1.921875q-1.1875 0.640625 -2.578125 0.640625zm17.61168 0q-1.53125 0 -2.6875 -0.671875q-1.15625 -0.6875 -1.8125 -2.078125q-0.640625 -1.40625 -0.640625 -3.53125q0 -2.15625 0.609375 -3.53125q0.625 -1.390625 1.78125 -2.0625q1.15625 -0.6875 2.75 -0.6875q1.734375 0 3.09375 0.78125q1.375 0.78125 2.171875 2.1875q0.8125 1.40625 0.8125 3.3125q0 1.921875 -0.8125 3.328125q-0.796875 1.40625 -2.171875 2.1875q-1.359375 0.765625 -3.09375 0.765625zm-7.203125 4.203125l0 -16.578125l3.375 0l0 2.484375l-0.0625 3.625l0.234375 3.609375l0 6.859375l-3.546875 0zm6.59375 -7.109375q0.890625 0 1.578125 -0.40625q0.6875 -0.40625 1.109375 -1.15625q0.421875 -0.765625 0.421875 -1.8125q0 -1.0625 -0.421875 -1.8125q-0.421875 -0.75 -1.109375 -1.15625q-0.6875 -0.40625 -1.578125 -0.40625q-0.875 0 -1.578125 0.40625q-0.703125 0.40625 -1.109375 1.15625q-0.40625 0.75 -0.40625 1.8125q0 1.046875 0.40625 1.8125q0.40625 0.75 1.109375 1.15625q0.703125 0.40625 1.578125 0.40625zm17.15387 2.71875l0 -14.5l1.59375 1.59375l-4.765625 0l0 -2.953125l6.84375 0l0 15.859375l-3.671875 0z" fill-rule="nonzero"/><path fill="#cfe2f3" d="m479.74786 36.158844l0 0c-1.6680603 -8.76853 3.8085327 -17.448843 14.105804 -22.357561c10.297272 -4.908719 23.609344 -5.1849613 34.287445 -0.7115078l0 0c3.7824707 -5.0983863 10.705566 -8.618471 18.67511 -9.495495c7.9695435 -0.87702465 16.04956 0.99202013 21.795898 5.041785l0 0c3.222229 -4.6225257 9.549072 -7.7282715 16.735474 -8.215158c7.1864014 -0.4868871 14.215332 1.7139913 18.59253 5.8216496l0 0c5.82135 -4.8998647 15.083313 -6.9629116 23.778137 -5.296448c8.694885 1.6664631 15.260925 6.7631245 16.856995 13.08463l0 0c7.132202 1.3915825 13.07312 4.9291687 16.287903 9.698761c3.2147827 4.7695923 3.3880005 10.303305 0.4749756 15.1714l0 0c7.0231323 6.5383873 8.666016 15.250706 4.3155518 22.885677c-4.350464 7.6349716 -14.040588 13.045525 -25.454285 14.21254c-0.080444336 7.165695 -5.574402 13.740845 -14.364258 17.191109c-8.789856 3.450264 -19.503052 3.2368622 -28.010254 -0.55794525l0 0c-3.6235962 8.582161 -13.822815 14.896828 -26.191284 16.215843c-12.368408 1.3190079 -24.688782 -2.594101 -31.638184 -10.048714l0 0c-8.518494 3.674408 -18.73999 4.7328873 -28.358704 2.9366684c-9.618744 -1.7962189 -17.824463 -6.29583 -22.766144 -12.48381l0 0c-8.704834 0.72865295 -17.121216 -2.497406 -21.072113 -8.077087c-3.9508972 -5.579689 -2.5952759 -12.325218 3.394104 -16.88881l0 0c-7.7649536 -3.2691422 -11.727081 -9.756203 -9.820343 -16.078438c1.9067688 -6.3222313 9.250366 -11.046997 18.201385 -11.710514z" fill-rule="evenodd"/><path fill="#000000" fill-opacity="0.0" d="m471.19476 64.28574l0 0c3.6643066 1.542717 7.8974304 2.2425308 12.131012 2.005478m5.545105 22.960983c1.8205872 -0.15239716 3.605133 -0.47511292 5.307556 -0.95983124m45.81479 10.506569c-1.2805176 -1.3735809 -2.3526 -2.8413773 -3.198059 -4.3783646m61.029724 -1.7890244l0 0c0.66064453 -1.5646515 1.0886841 -3.1750183 1.2769775 -4.8042374m41.095886 -11.828323c0.085632324 -7.62899 -5.971985 -14.614166 -15.570984 -17.955196m36.709534 -19.142216c-1.5545654 2.5978127 -3.9276733 4.902298 -6.9334106 6.732765m-9.828003 -31.603607l0 0c0.26483154 1.049056 0.38745117 2.1138792 0.36602783 3.1797094m-41.00055 -10.967574l0 0c-1.4520874 1.2222729 -2.6484985 2.5881472 -3.5518188 4.055093m-31.776428 -1.662117l0 0c-0.77386475 1.1101809 -1.3517456 2.2849426 -1.7203369 3.4972239m-38.75128 0.9565792l0 0c2.2594604 0.94657993 4.3497925 2.0858898 6.2250366 3.3929033m-54.617676 19.676289l0 0c0.22991943 1.2085304 0.59317017 2.4021606 1.0863647 3.5697212" fill-rule="evenodd"/><path stroke="#000000" stroke-width="2.0" stroke-linejoin="round" stroke-linecap="butt" d="m479.74786 36.158844l0 0c-1.6680603 -8.76853 3.8085327 -17.448843 14.105804 -22.357561c10.297272 -4.908719 23.609344 -5.1849613 34.287445 -0.7115078l0 0c3.7824707 -5.0983863 10.705566 -8.618471 18.67511 -9.495495c7.9695435 -0.87702465 16.04956 0.99202013 21.795898 5.041785l0 0c3.222229 -4.6225257 9.549072 -7.7282715 16.735474 -8.215158c7.1864014 -0.4868871 14.215332 1.7139913 18.59253 5.8216496l0 0c5.82135 -4.8998647 15.083313 -6.9629116 23.778137 -5.296448c8.694885 1.6664631 15.260925 6.7631245 16.856995 13.08463l0 0c7.132202 1.3915825 13.07312 4.9291687 16.287903 9.698761c3.2147827 4.7695923 3.3880005 10.303305 0.4749756 15.1714l0 0c7.0231323 6.5383873 8.666016 15.250706 4.3155518 22.885677c-4.350464 7.6349716 -14.040588 13.045525 -25.454285 14.21254c-0.080444336 7.165695 -5.574402 13.740845 -14.364258 17.191109c-8.789856 3.450264 -19.503052 3.2368622 -28.010254 -0.55794525l0 0c-3.6235962 8.582161 -13.822815 14.896828 -26.191284 16.215843c-12.368408 1.3190079 -24.688782 -2.594101 -31.638184 -10.048714l0 0c-8.518494 3.674408 -18.73999 4.7328873 -28.358704 2.9366684c-9.618744 -1.7962189 -17.824463 -6.29583 -22.766144 -12.48381l0 0c-8.704834 0.72865295 -17.121216 -2.497406 -21.072113 -8.077087c-3.9508972 -5.579689 -2.5952759 -12.325218 3.394104 -16.88881l0 0c-7.7649536 -3.2691422 -11.727081 -9.756203 -9.820343 -16.078438c1.9067688 -6.3222313 9.250366 -11.046997 18.201385 -11.710514z" fill-rule="evenodd"/><path stroke="#000000" stroke-width="2.0" stroke-linejoin="round" stroke-linecap="butt" d="m471.19476 64.28574l0 0c3.6643066 1.542717 7.8974304 2.2425308 12.131012 2.005478m5.545105 22.960983c1.8205872 -0.15239716 3.605133 -0.47511292 5.307556 -0.95983124m45.81479 10.506569c-1.2805176 -1.3735809 -2.3526 -2.8413773 -3.198059 -4.3783646m61.029724 -1.7890244l0 0c0.66064453 -1.5646515 1.0886841 -3.1750183 1.2769775 -4.8042374m41.095886 -11.828323c0.085632324 -7.62899 -5.971985 -14.614166 -15.570984 -17.955196m36.709534 -19.142216c-1.5545654 2.5978127 -3.9276733 4.902298 -6.9334106 6.732765m-9.828003 -31.603607l0 0c0.26483154 1.049056 0.38745117 2.1138792 0.36602783 3.1797094m-41.00055 -10.967574l0 0c-1.4520874 1.2222729 -2.6484985 2.5881472 -3.5518188 4.055093m-31.776428 -1.662117l0 0c-0.77386475 1.1101809 -1.3517456 2.2849426 -1.7203369 3.4972239m-38.75128 0.9565792l0 0c2.2594604 0.94657993 4.3497925 2.0858898 6.2250366 3.3929033m-54.617676 19.676289l0 0c0.22991943 1.2085304 0.59317017 2.4021606 1.0863647 3.5697212" fill-rule="evenodd"/><path fill="#000000" d="m519.6426 60.35833q-1.875 0 -3.453125 -0.59375q-1.5625 -0.59375 -2.734375 -1.703125q-1.171875 -1.125 -1.8125 -2.609375q-0.640625 -1.5 -0.640625 -3.28125q0 -1.796875 0.640625 -3.28125q0.640625 -1.5 1.8125 -2.609375q1.1875 -1.125 2.765625 -1.71875q1.59375 -0.59375 3.5 -0.59375q2.109375 0 3.796875 0.703125q1.6875 0.703125 2.84375 2.03125l-2.359375 2.171875q-0.859375 -0.90625 -1.890625 -1.34375q-1.015625 -0.4375 -2.21875 -0.4375q-1.15625 0 -2.109375 0.359375q-0.9375 0.359375 -1.640625 1.046875q-0.6875 0.671875 -1.0625 1.609375q-0.375 0.921875 -0.375 2.0625q0 1.109375 0.375 2.03125q0.375 0.921875 1.0625 1.625q0.703125 0.6875 1.640625 1.046875q0.9375 0.359375 2.0625 0.359375q1.09375 0 2.125 -0.34375q1.03125 -0.359375 2.0 -1.1875l2.09375 2.640625q-1.296875 0.984375 -3.015625 1.5q-1.703125 0.515625 -3.40625 0.515625zm3.0625 -2.484375l0 -5.953125l3.359375 0l0 6.421875l-3.359375 -0.46875zm6.4992065 2.21875l0 -12.1875l3.375 0l0 3.4375l-0.46875 -0.984375q0.546875 -1.296875 1.734375 -1.96875q1.203125 -0.671875 2.9375 -0.671875l0 3.265625q-0.234375 -0.015625 -0.421875 -0.03125q-0.171875 -0.015625 -0.375 -0.015625q-1.453125 0 -2.34375 0.828125q-0.890625 0.828125 -0.890625 2.578125l0 5.75l-3.546875 0zm15.373291 0.1875q-1.953125 0 -3.46875 -0.8125q-1.5 -0.828125 -2.375 -2.234375q-0.875 -1.421875 -0.875 -3.234375q0 -1.828125 0.875 -3.25q0.875 -1.421875 2.375 -2.21875q1.515625 -0.8125 3.46875 -0.8125q1.921875 0 3.4375 0.8125q1.515625 0.796875 2.375 2.203125q0.859375 1.40625 0.859375 3.265625q0 1.8125 -0.859375 3.234375q-0.859375 1.40625 -2.375 2.234375q-1.515625 0.8125 -3.4375 0.8125zm0 -2.90625q0.875 0 1.578125 -0.40625q0.703125 -0.40625 1.109375 -1.15625q0.40625 -0.765625 0.40625 -1.8125q0 -1.0625 -0.40625 -1.8125q-0.40625 -0.75 -1.109375 -1.15625q-0.703125 -0.40625 -1.578125 -0.40625q-0.890625 0 -1.59375 0.40625q-0.703125 0.40625 -1.125 1.15625q-0.421875 0.75 -0.421875 1.8125q0 1.046875 0.421875 1.8125q0.421875 0.75 1.125 1.15625q0.703125 0.40625 1.59375 0.40625zm14.183533 2.90625q-1.53125 0 -2.71875 -0.59375q-1.1875 -0.59375 -1.84375 -1.796875q-0.65625 -1.21875 -0.65625 -3.09375l0 -6.890625l3.53125 0l0 6.359375q0 1.53125 0.640625 2.25q0.65625 0.703125 1.828125 0.703125q0.8125 0 1.453125 -0.34375q0.640625 -0.359375 1.0 -1.09375q0.359375 -0.734375 0.359375 -1.84375l0 -6.03125l3.53125 0l0 12.1875l-3.34375 0l0 -3.359375l0.609375 0.984375q-0.609375 1.265625 -1.8125 1.921875q-1.1875 0.640625 -2.578125 0.640625zm17.611694 0q-1.53125 0 -2.6875 -0.671875q-1.15625 -0.6875 -1.8125 -2.078125q-0.640625 -1.40625 -0.640625 -3.53125q0 -2.15625 0.609375 -3.53125q0.625 -1.390625 1.78125 -2.0625q1.15625 -0.6875 2.75 -0.6875q1.734375 0 3.09375 0.78125q1.375 0.78125 2.171875 2.1875q0.8125 1.40625 0.8125 3.3125q0 1.921875 -0.8125 3.328125q-0.796875 1.40625 -2.171875 2.1875q-1.359375 0.765625 -3.09375 0.765625zm-7.203125 4.203125l0 -16.578125l3.375 0l0 2.484375l-0.0625 3.625l0.234375 3.609375l0 6.859375l-3.546875 0zm6.59375 -7.109375q0.890625 0 1.578125 -0.40625q0.6875 -0.40625 1.109375 -1.15625q0.421875 -0.765625 0.421875 -1.8125q0 -1.0625 -0.421875 -1.8125q-0.421875 -0.75 -1.109375 -1.15625q-0.6875 -0.40625 -1.578125 -0.40625q-0.875 0 -1.578125 0.40625q-0.703125 0.40625 -1.109375 1.15625q-0.40625 0.75 -0.40625 1.8125q0 1.046875 0.40625 1.8125q0.40625 0.75 1.109375 1.15625q0.703125 0.40625 1.578125 0.40625z" fill-rule="nonzero"/><path fill="#000000" d="m593.5579 57.63958l0.765625 -4.359375l6.546875 -5.375l4.59375 0l-6.8125 5.6875l-1.96875 1.453125l-3.125 2.59375zm-3.53125 2.453125l3.34375 -16.8125l3.53125 0l-3.34375 16.8125l-3.53125 0zm9.171875 0l-3.125 -5.125l2.46875 -2.6875l4.75 7.8125l-4.09375 0z" fill-rule="nonzero"/><path fill="#000000" fill-opacity="0.0" d="m121.931755 176.7559l81.826775 0l0 58.173233l-81.826775 0z" fill-rule="evenodd"/><path fill="#000000" d="m129.33801 216.4759l12.0625 -13.0625l-0.515625 2.984375l-6.625 -12.328125l5.53125 0l4.609375 8.84375l-2.265625 -0.0625l7.9375 -8.78125l5.890625 0l-11.328125 12.328125l0.15625 -2.953125l7.09375 13.03125l-5.59375 0l-4.859375 -9.34375l2.328125 0.09375l-8.21875 9.25l-6.203125 0z" fill-rule="nonzero"/><path fill="#000000" fill-opacity="0.0" d="m146.47507 193.12073l81.82677 0l0 51.716537l-81.82677 0z" fill-rule="evenodd"/><path fill="#000000" d="m165.95944 227.72073l-3.65625 0l0 -13.78125q-2.0 1.875 -4.71875 2.765625l0 -3.3125q1.4375 -0.46875 3.109375 -1.78125q1.671875 -1.3125 2.296875 -3.046875l2.96875 0l0 19.15625zm6.168686 -3.65625l3.65625 0l0 2.609375q0 1.59375 -0.28125 2.5q-0.265625 0.921875 -1.03125 1.65625q-0.765625 0.734375 -1.9375 1.140625l-0.71875 -1.5q1.109375 -0.375 1.578125 -1.015625q0.46875 -0.625 0.5 -1.734375l-1.765625 0l0 -3.65625zm23.46817 3.65625l-3.65625 0l0 -13.78125q-2.0 1.875 -4.71875 2.765625l0 -3.3125q1.4375 -0.46875 3.109375 -1.78125q1.671875 -1.3125 2.296875 -3.046875l2.96875 0l0 19.15625z" fill-rule="nonzero"/><path fill="#000000" fill-opacity="0.0" d="m121.93044 302.72177l81.826775 0l0 58.17325l-81.826775 0z" fill-rule="evenodd"/><path fill="#000000" d="m129.3367 342.44177l12.0625 -13.0625l-0.515625 2.984375l-6.625 -12.328125l5.53125 0l4.609375 8.84375l-2.265625 -0.0625l7.9375 -8.78125l5.890625 0l-11.328125 12.328125l0.15625 -2.953125l7.09375 13.03125l-5.59375 0l-4.859375 -9.34375l2.328125 0.09375l-8.21875 9.25l-6.203125 0z" fill-rule="nonzero"/><path fill="#000000" fill-opacity="0.0" d="m146.47621 319.0866l153.70079 0l0 51.716553l-153.70079 0z" fill-rule="evenodd"/><path fill="#000000" d="m159.49184 339.8585l3.53125 0l-0.359375 1.796875q1.328125 -1.140625 2.46875 -1.625q1.15625 -0.484375 2.4375 -0.484375q1.703125 0 2.6875 0.96875q0.984375 0.96875 0.984375 2.59375q0 0.71875 -0.4375 2.75l-1.625 7.828125l-3.734375 0l1.640625 -7.84375q0.359375 -1.765625 0.359375 -2.09375q0 -0.71875 -0.421875 -1.125q-0.421875 -0.421875 -1.171875 -0.421875q-0.828125 0 -1.828125 0.703125q-1.0 0.6875 -1.578125 1.8125q-0.40625 0.8125 -0.921875 3.296875l-1.1875 5.671875l-3.734375 0l2.890625 -13.828125z" fill-rule="nonzero"/><path fill="#000000" d="m188.39896 350.03036l3.65625 0l0 2.609375q0 1.59375 -0.28125 2.5q-0.265625 0.921875 -1.03125 1.65625q-0.765625 0.734375 -1.9375 1.140625l-0.71875 -1.5q1.109375 -0.375 1.578125 -1.015625q0.46875 -0.625 0.5 -1.734375l-1.765625 0l0 -3.65625zm23.46817 3.65625l-3.65625 0l0 -13.78125q-2.0 1.875 -4.71875 2.765625l0 -3.3125q1.4375 -0.46875 3.109375 -1.78125q1.671875 -1.3125 2.296875 -3.046875l2.96875 0l0 19.15625z" fill-rule="nonzero"/><path fill="#000000" fill-opacity="0.0" d="m165.58792 331.3176l35.05513 0l0 42.015747l-35.05513 0z" fill-rule="evenodd"/><path fill="#000000" d="m177.49417 358.23758l0 -12.125l1.0625 1.09375l-3.8125 0l0 -2.03125l5.171875 0l0 13.0625l-2.421875 0z" fill-rule="nonzero"/><path fill="#000000" fill-opacity="0.0" d="m210.58005 256.4344l0 35.055115l-54.929123 0l0 -35.055115z" fill-rule="evenodd"/><path fill="#000000" d="m173.18568 269.27814q0 -1.171875 0.796875 -2.015625q0.8125 -0.828125 2.078125 -0.828125q1.265625 0 2.03125 0.828125q0.78125 0.84375 0.78125 2.015625q0 1.203125 -0.78125 2.015625q-0.765625 0.828125 -2.03125 0.828125q-1.265625 0 -2.078125 -0.828125q-0.796875 -0.8125 -0.796875 -2.015625zm0 7.828125q0 -1.171875 0.796875 -2.015625q0.8125 -0.828125 2.078125 -0.828125q1.265625 0 2.03125 0.828125q0.78125 0.84375 0.78125 2.015625q0 1.203125 -0.78125 2.015625q-0.765625 0.828125 -2.03125 0.828125q-1.265625 0 -2.078125 -0.828125q-0.796875 -0.8125 -0.796875 -2.015625zm0 7.859375q0 -1.171875 0.796875 -2.015625q0.8125 -0.828125 2.078125 -0.828125q1.265625 0 2.03125 0.828125q0.78125 0.84375 0.78125 2.015625q0 1.203125 -0.78125 2.015625q-0.765625 0.828125 -2.03125 0.828125q-1.265625 0 -2.078125 -0.828125q-0.796875 -0.8125 -0.796875 -2.015625z" fill-rule="nonzero"/><path fill="#000000" fill-opacity="0.0" d="m517.54596 192.73534l0 0c0 -11.941757 9.680664 -21.622482 21.622437 -21.622482l86.487366 0l0 0c5.734619 0 11.234375 2.2780762 15.289368 6.333084c4.0549927 4.055008 6.333069 9.554764 6.333069 15.289398l0 162.45583c0 11.941772 -9.680725 21.622498 -21.622437 21.622498l-86.487366 0c-11.941772 0 -21.622437 -9.680725 -21.622437 -21.622498z" fill-rule="evenodd"/><path stroke="#000000" stroke-width="3.0" stroke-linejoin="round" stroke-linecap="butt" d="m517.54596 192.73534l0 0c0 -11.941757 9.680664 -21.622482 21.622437 -21.622482l86.487366 0l0 0c5.734619 0 11.234375 2.2780762 15.289368 6.333084c4.0549927 4.055008 6.333069 9.554764 6.333069 15.289398l0 162.45583c0 11.941772 -9.680725 21.622498 -21.622437 21.622498l-86.487366 0c-11.941772 0 -21.622437 -9.680725 -21.622437 -21.622498z" fill-rule="evenodd"/><path fill="#000000" fill-opacity="0.0" d="m529.2362 176.39108l81.82678 0l0 58.173218l-81.82678 0z" fill-rule="evenodd"/><path fill="#000000" d="m536.64246 216.11108l12.0625 -13.0625l-0.515625 2.984375l-6.625 -12.328125l5.53125 0l4.609375 8.84375l-2.265625 -0.0625l7.9375 -8.78125l5.890625 0l-11.328125 12.328125l0.15625 -2.953125l7.09375 13.03125l-5.59375 0l-4.859375 -9.34375l2.328125 0.09375l-8.21875 9.25l-6.203125 0z" fill-rule="nonzero"/><path fill="#000000" fill-opacity="0.0" d="m553.77954 192.7559l81.82678 0l0 51.716537l-81.82678 0z" fill-rule="evenodd"/><path fill="#000000" d="m573.2639 227.35591l-3.65625 0l0 -13.78125q-2.0 1.875 -4.71875 2.765625l0 -3.3125q1.4375 -0.46875 3.109375 -1.78125q1.671875 -1.3125 2.296875 -3.046875l2.96875 0l0 19.15625zm6.168701 -3.65625l3.65625 0l0 2.609375q0 1.59375 -0.28125 2.5q-0.265625 0.921875 -1.03125 1.65625q-0.765625 0.734375 -1.9375 1.140625l-0.71875 -1.5q1.109375 -0.375 1.578125 -1.015625q0.46875 -0.625 0.5 -1.734375l-1.765625 0l0 -3.65625zm23.46814 3.65625l-3.65625 0l0 -13.78125q-2.0 1.875 -4.71875 2.765625l0 -3.3125q1.4375 -0.46875 3.109375 -1.78125q1.671875 -1.3125 2.296875 -3.046875l2.96875 0l0 19.15625z" fill-rule="nonzero"/><path fill="#000000" fill-opacity="0.0" d="m529.2349 302.35696l81.82678 0l0 58.173218l-81.82678 0z" fill-rule="evenodd"/><path fill="#000000" d="m536.6412 342.07697l12.0625 -13.0625l-0.515625 2.984375l-6.625 -12.328125l5.53125 0l4.609375 8.84375l-2.265625 -0.0625l7.9375 -8.78125l5.890625 0l-11.328125 12.328125l0.15625 -2.953125l7.09375 13.03125l-5.59375 0l-4.859375 -9.34375l2.328125 0.09375l-8.21875 9.25l-6.203125 0z" fill-rule="nonzero"/><path fill="#000000" fill-opacity="0.0" d="m553.7807 318.72177l153.70074 0l0 51.716553l-153.70074 0z" fill-rule="evenodd"/><path fill="#000000" d="m566.7963 339.49365l3.53125 0l-0.359375 1.796875q1.328125 -1.140625 2.46875 -1.625q1.15625 -0.484375 2.4375 -0.484375q1.703125 0 2.6875 0.96875q0.984375 0.96875 0.984375 2.59375q0 0.71875 -0.4375 2.75l-1.625 7.828125l-3.734375 0l1.640625 -7.84375q0.359375 -1.765625 0.359375 -2.09375q0 -0.71875 -0.421875 -1.125q-0.421875 -0.421875 -1.171875 -0.421875q-0.828125 0 -1.828125 0.703125q-1.0 0.6875 -1.578125 1.8125q-0.40625 0.8125 -0.921875 3.296875l-1.1875 5.671875l-3.734375 0l2.890625 -13.828125z" fill-rule="nonzero"/><path fill="#000000" d="m595.7034 349.66553l3.65625 0l0 2.609375q0 1.59375 -0.28125 2.5q-0.265625 0.921875 -1.03125 1.65625q-0.765625 0.734375 -1.9375 1.140625l-0.71875 -1.5q1.109375 -0.375 1.578125 -1.015625q0.46875 -0.625 0.5 -1.734375l-1.765625 0l0 -3.65625zm23.46814 3.65625l-3.65625 0l0 -13.78125q-2.0 1.875 -4.71875 2.765625l0 -3.3125q1.4375 -0.46875 3.109375 -1.78125q1.671875 -1.3125 2.296875 -3.046875l2.96875 0l0 19.15625z" fill-rule="nonzero"/><path fill="#000000" fill-opacity="0.0" d="m572.8924 330.95276l35.055115 0l0 42.015747l-35.055115 0z" fill-rule="evenodd"/><path fill="#000000" d="m584.86115 355.57587l0.5 -2.875l5.984375 -4.796875l3.171875 0l-5.59375 4.515625l-1.25 0.921875l-2.8125 2.234375zm-2.421875 2.296875l2.75 -13.84375l2.34375 0l-2.765625 13.84375l-2.328125 0zm7.609375 0l-2.78125 -4.5l1.609375 -1.78125l3.875 6.28125l-2.703125 0z" fill-rule="nonzero"/><path fill="#000000" fill-opacity="0.0" d="m617.8845 256.06955l0 35.055115l-54.92914 0l0 -35.055115z" fill-rule="evenodd"/><path fill="#000000" d="m580.4901 268.9133q0 -1.171875 0.796875 -2.015625q0.8125 -0.828125 2.078125 -0.828125q1.265625 0 2.03125 0.828125q0.78125 0.84375 0.78125 2.015625q0 1.203125 -0.78125 2.015625q-0.765625 0.828125 -2.03125 0.828125q-1.265625 0 -2.078125 -0.828125q-0.796875 -0.8125 -0.796875 -2.015625zm0 7.828125q0 -1.171875 0.796875 -2.015625q0.8125 -0.828125 2.078125 -0.828125q1.265625 0 2.03125 0.828125q0.78125 0.84375 0.78125 2.015625q0 1.203125 -0.78125 2.015625q-0.765625 0.828125 -2.03125 0.828125q-1.265625 0 -2.078125 -0.828125q-0.796875 -0.8125 -0.796875 -2.015625zm0 7.859375q0 -1.171875 0.796875 -2.015625q0.8125 -0.828125 2.078125 -0.828125q1.265625 0 2.03125 0.828125q0.78125 0.84375 0.78125 2.015625q0 1.203125 -0.78125 2.015625q-0.765625 0.828125 -2.03125 0.828125q-1.265625 0 -2.078125 -0.828125q-0.796875 -0.8125 -0.796875 -2.015625z" fill-rule="nonzero"/><path fill="#000000" fill-opacity="0.0" d="m362.32547 10.522309l54.92914 0l0 67.874016l-54.92914 0z" fill-rule="evenodd"/><path fill="#000000" d="m376.55984 58.234806q-1.59375 0 -2.734375 -1.09375q-1.140625 -1.09375 -1.140625 -2.8125q0 -1.71875 1.140625 -2.78125q1.140625 -1.0625 2.734375 -1.0625q1.640625 0 2.765625 1.0625q1.125 1.0625 1.125 2.78125q0 1.71875 -1.125 2.8125q-1.125 1.09375 -2.765625 1.09375zm10.6875 0q-1.59375 0 -2.734375 -1.09375q-1.140625 -1.09375 -1.140625 -2.8125q0 -1.71875 1.140625 -2.78125q1.140625 -1.0625 2.734375 -1.0625q1.640625 0 2.765625 1.0625q1.125 1.0625 1.125 2.78125q0 1.71875 -1.125 2.8125q-1.125 1.09375 -2.765625 1.09375zm10.71875 0q-1.59375 0 -2.734375 -1.09375q-1.140625 -1.09375 -1.140625 -2.8125q0 -1.71875 1.140625 -2.78125q1.140625 -1.0625 2.734375 -1.0625q1.640625 0 2.765625 1.0625q1.125 1.0625 1.125 2.78125q0 1.71875 -1.125 2.8125q-1.125 1.09375 -2.765625 1.09375z" fill-rule="nonzero"/><path fill="#000000" d="m8.0 192.8307l0 0c0 55.783203 25.24205 104.50169 61.37008 118.447464l0 -12.812836l20.456696 22.368408l-20.456696 14.599304l0 -12.812866l0 0c-36.12803 -13.945801 -61.37008 -62.664276 -61.37008 -118.447464z" fill-rule="evenodd"/><path fill="#000000" d="m89.826775 81.8407l0 0c-43.716797 0 -79.712204 51.374146 -81.7388 116.66101l0 0c-1.0365548 -33.392593 7.1124916 -65.96478 22.5526 -90.144005c15.440109 -24.179222 36.826164 -37.859016 59.186203 -37.859016z" fill-rule="evenodd"/><path fill="#000000" fill-opacity="0.0" d="m8.0 192.8307l0 0c0 55.783203 25.24205 104.50169 61.37008 118.447464l0 -12.812836l20.456696 22.368408l-20.456696 14.599304l0 -12.812866l0 0c-36.12803 -13.945801 -61.37008 -62.664276 -61.37008 -118.447464l0 -11.3420105l0 0c0 -67.5621 36.635094 -122.332016 81.826775 -122.332016l0 11.3420105l0 0c-43.716797 0 -79.712204 51.374146 -81.7388 116.66101" fill-rule="evenodd"/><path stroke="#000000" stroke-width="1.0" stroke-linejoin="round" stroke-linecap="butt" d="m8.0 192.8307l0 0c0 55.783203 25.24205 104.50169 61.37008 118.447464l0 -12.812836l20.456696 22.368408l-20.456696 14.599304l0 -12.812866l0 0c-36.12803 -13.945801 -61.37008 -62.664276 -61.37008 -118.447464l0 -11.3420105l0 0c0 -67.5621 36.635094 -122.332016 81.826775 -122.332016l0 11.3420105l0 0c-43.716797 0 -79.712204 51.374146 -81.7388 116.66101" fill-rule="evenodd"/><path fill="#000000" d="m754.5381 167.93045l0 0c0 55.783188 -25.242065 104.50168 -61.370117 118.44748l0 -12.812866l-20.456665 22.368408l20.456665 14.599304l0 -12.812836l0 0c36.12805 -13.945801 61.370117 -62.66429 61.370117 -118.44748z" fill-rule="evenodd"/><path fill="#000000" d="m672.7113 56.940434l0 0c43.716797 0 79.71216 51.37414 81.73877 116.661026l0 0c1.03656 -33.392593 -7.112488 -65.96479 -22.552612 -90.14402c-15.440063 -24.179218 -36.82611 -37.85901 -59.186157 -37.85901z" fill-rule="evenodd"/><path fill="#000000" fill-opacity="0.0" d="m754.5381 167.93045l0 0c0 55.783188 -25.242065 104.50168 -61.370117 118.44748l0 -12.812866l-20.456665 22.368408l20.456665 14.599304l0 -12.812836l0 0c36.12805 -13.945801 61.370117 -62.66429 61.370117 -118.44748l0 -11.3420105l0 0c0 -67.56211 -36.63513 -122.33202 -81.82678 -122.33202l0 11.342007l0 0c43.716797 0 79.71216 51.37414 81.73877 116.661026" fill-rule="evenodd"/><path stroke="#000000" stroke-width="1.0" stroke-linejoin="round" stroke-linecap="butt" d="m754.5381 167.93045l0 0c0 55.783188 -25.242065 104.50168 -61.370117 118.44748l0 -12.812866l-20.456665 22.368408l20.456665 14.599304l0 -12.812836l0 0c36.12805 -13.945801 61.370117 -62.66429 61.370117 -118.44748l0 -11.3420105l0 0c0 -67.56211 -36.63513 -122.33202 -81.82678 -122.33202l0 11.342007l0 0c43.716797 0 79.71216 51.37414 81.73877 116.661026" fill-rule="evenodd"/><path fill="#000000" fill-opacity="0.0" d="m374.0 234.5643l54.92914 0l0 67.87402l-54.92914 0z" fill-rule="evenodd"/><path fill="#000000" d="m388.23438 282.2768q-1.59375 0 -2.734375 -1.09375q-1.140625 -1.09375 -1.140625 -2.8125q0 -1.71875 1.140625 -2.78125q1.140625 -1.0625 2.734375 -1.0625q1.640625 0 2.765625 1.0625q1.125 1.0625 1.125 2.78125q0 1.71875 -1.125 2.8125q-1.125 1.09375 -2.765625 1.09375zm10.6875 0q-1.59375 0 -2.734375 -1.09375q-1.140625 -1.09375 -1.140625 -2.8125q0 -1.71875 1.140625 -2.78125q1.140625 -1.0625 2.734375 -1.0625q1.640625 0 2.765625 1.0625q1.125 1.0625 1.125 2.78125q0 1.71875 -1.125 2.8125q-1.125 1.09375 -2.765625 1.09375zm10.71875 0q-1.59375 0 -2.734375 -1.09375q-1.140625 -1.09375 -1.140625 -2.8125q0 -1.71875 1.140625 -2.78125q1.140625 -1.0625 2.734375 -1.0625q1.640625 0 2.765625 1.0625q1.125 1.0625 1.125 2.78125q0 1.71875 -1.125 2.8125q-1.125 1.09375 -2.765625 1.09375z" fill-rule="nonzero"/></g></svg>