<svg version="1.1" viewBox="0.0 0.0 421.2230971128609 121.94750656167979" fill="none" stroke="none" stroke-linecap="square" stroke-miterlimit="10" xmlns:xlink="http://www.w3.org/1999/xlink" xmlns="http://www.w3.org/2000/svg"><clipPath id="p.0"><path d="m0 0l421.22308 0l0 121.94751l-421.22308 0l0 -121.94751z" clip-rule="nonzero"/></clipPath><g clip-path="url(#p.0)"><path fill="#000000" fill-opacity="0.0" d="m0 0l421.22308 0l0 121.94751l-421.22308 0z" fill-rule="evenodd"/><path fill="#000000" fill-opacity="0.0" d="m0 89.068245l424.12598 0" fill-rule="evenodd"/><path stroke="#000000" stroke-width="3.0" stroke-linejoin="round" stroke-linecap="butt" d="m10.28126 89.068245l403.56348 0" fill-rule="evenodd"/><path fill="#000000" stroke="#000000" stroke-width="3.0" stroke-linecap="butt" d="m10.28126 89.068245l3.3737507 -3.3737564l-9.269304 3.3737564l9.269304 3.3737488z" fill-rule="evenodd"/><path fill="#000000" stroke="#000000" stroke-width="3.0" stroke-linecap="butt" d="m413.84473 89.068245l-3.3737488 3.3737488l9.269287 -3.3737488l-9.269287 -3.3737564z" fill-rule="evenodd"/><path fill="#9fc5e8" d="m56.939632 71.27559l0 0c0 -7.7580757 6.2891655 -14.047241 14.047245 -14.047241l0 0c3.725563 0 7.2985306 1.4799728 9.932899 4.1143417c2.634369 2.634369 4.1143417 6.207344 4.1143417 9.932899l0 0c0 7.7580795 -6.2891617 14.047249 -14.047241 14.047249l0 0c-7.7580795 0 -14.047245 -6.2891693 -14.047245 -14.047249z" fill-rule="evenodd"/><path stroke="#a4c2f4" stroke-width="1.0" stroke-linejoin="round" stroke-linecap="butt" d="m56.939632 71.27559l0 0c0 -7.7580757 6.2891655 -14.047241 14.047245 -14.047241l0 0c3.725563 0 7.2985306 1.4799728 9.932899 4.1143417c2.634369 2.634369 4.1143417 6.207344 4.1143417 9.932899l0 0c0 7.7580795 -6.2891617 14.047249 -14.047241 14.047249l0 0c-7.7580795 0 -14.047245 -6.2891693 -14.047245 -14.047249z" fill-rule="evenodd"/><path fill="#9fc5e8" d="m56.939632 43.181103l0 0c0 -7.7580795 6.2891655 -14.047245 14.047245 -14.047245l0 0c3.725563 0 7.2985306 1.4799747 9.932899 4.1143417c2.634369 2.634369 4.1143417 6.2073402 4.1143417 9.932903l0 0c0 7.7580795 -6.2891617 14.047245 -14.047241 14.047245l0 0c-7.7580795 0 -14.047245 -6.2891655 -14.047245 -14.047245z" fill-rule="evenodd"/><path stroke="#a4c2f4" stroke-width="1.0" stroke-linejoin="round" stroke-linecap="butt" d="m56.939632 43.181103l0 0c0 -7.7580795 6.2891655 -14.047245 14.047245 -14.047245l0 0c3.725563 0 7.2985306 1.4799747 9.932899 4.1143417c2.634369 2.634369 4.1143417 6.2073402 4.1143417 9.932903l0 0c0 7.7580795 -6.2891617 14.047245 -14.047241 14.047245l0 0c-7.7580795 0 -14.047245 -6.2891655 -14.047245 -14.047245z" fill-rule="evenodd"/><path fill="#9fc5e8" d="m56.939632 15.086615l0 0c0 -7.758079 6.2891655 -14.047245 14.047245 -14.047245l0 0c3.725563 0 7.2985306 1.4799733 9.932899 4.1143427c2.634369 2.6343694 4.1143417 6.2073407 4.1143417 9.932901l0 0c0 7.7580776 -6.2891617 14.047243 -14.047241 14.047243l0 0c-7.7580795 0 -14.047245 -6.2891655 -14.047245 -14.047243z" fill-rule="evenodd"/><path stroke="#a4c2f4" stroke-width="1.0" stroke-linejoin="round" stroke-linecap="butt" d="m56.939632 15.086615l0 0c0 -7.758079 6.2891655 -14.047245 14.047245 -14.047245l0 0c3.725563 0 7.2985306 1.4799733 9.932899 4.1143427c2.634369 2.6343694 4.1143417 6.2073407 4.1143417 9.932901l0 0c0 7.7580776 -6.2891617 14.047243 -14.047241 14.047243l0 0c-7.7580795 0 -14.047245 -6.2891655 -14.047245 -14.047243z" fill-rule="evenodd"/><path fill="#9fc5e8" d="m113.37008 71.27559l0 0c0 -7.7580757 6.2891617 -14.047241 14.047241 -14.047241l0 0c3.725563 0 7.2985306 1.4799728 9.932899 4.1143417c2.634369 2.634369 4.1143494 6.207344 4.1143494 9.932899l0 0c0 7.7580795 -6.2891693 14.047249 -14.047249 14.047249l0 0c-7.7580795 0 -14.047241 -6.2891693 -14.047241 -14.047249z" fill-rule="evenodd"/><path stroke="#a4c2f4" stroke-width="1.0" stroke-linejoin="round" stroke-linecap="butt" d="m113.37008 71.27559l0 0c0 -7.7580757 6.2891617 -14.047241 14.047241 -14.047241l0 0c3.725563 0 7.2985306 1.4799728 9.932899 4.1143417c2.634369 2.634369 4.1143494 6.207344 4.1143494 9.932899l0 0c0 7.7580795 -6.2891693 14.047249 -14.047249 14.047249l0 0c-7.7580795 0 -14.047241 -6.2891693 -14.047241 -14.047249z" fill-rule="evenodd"/><path fill="#9fc5e8" d="m169.80052 71.27559l0 0c0 -7.7580757 6.2891693 -14.047241 14.047241 -14.047241l0 0c3.7255707 0 7.298538 1.4799728 9.932907 4.1143417c2.634369 2.634369 4.1143494 6.207344 4.1143494 9.932899l0 0c0 7.7580795 -6.2891693 14.047249 -14.047256 14.047249l0 0c-7.758072 0 -14.047241 -6.2891693 -14.047241 -14.047249z" fill-rule="evenodd"/><path stroke="#a4c2f4" stroke-width="1.0" stroke-linejoin="round" stroke-linecap="butt" d="m169.80052 71.27559l0 0c0 -7.7580757 6.2891693 -14.047241 14.047241 -14.047241l0 0c3.7255707 0 7.298538 1.4799728 9.932907 4.1143417c2.634369 2.634369 4.1143494 6.207344 4.1143494 9.932899l0 0c0 7.7580795 -6.2891693 14.047249 -14.047256 14.047249l0 0c-7.758072 0 -14.047241 -6.2891693 -14.047241 -14.047249z" fill-rule="evenodd"/><path fill="#9fc5e8" d="m169.80052 43.181103l0 0c0 -7.7580795 6.2891693 -14.047245 14.047241 -14.047245l0 0c3.7255707 0 7.298538 1.4799747 9.932907 4.1143417c2.634369 2.634369 4.1143494 6.2073402 4.1143494 9.932903l0 0c0 7.7580795 -6.2891693 14.047245 -14.047256 14.047245l0 0c-7.758072 0 -14.047241 -6.2891655 -14.047241 -14.047245z" fill-rule="evenodd"/><path stroke="#a4c2f4" stroke-width="1.0" stroke-linejoin="round" stroke-linecap="butt" d="m169.80052 43.181103l0 0c0 -7.7580795 6.2891693 -14.047245 14.047241 -14.047245l0 0c3.7255707 0 7.298538 1.4799747 9.932907 4.1143417c2.634369 2.634369 4.1143494 6.2073402 4.1143494 9.932903l0 0c0 7.7580795 -6.2891693 14.047245 -14.047256 14.047245l0 0c-7.758072 0 -14.047241 -6.2891655 -14.047241 -14.047245z" fill-rule="evenodd"/><path fill="#9fc5e8" d="m226.23097 71.27559l0 0c0 -7.7580757 6.2891693 -14.047241 14.047241 -14.047241l0 0c3.7255554 0 7.298538 1.4799728 9.932907 4.1143417c2.634369 2.634369 4.114334 6.207344 4.114334 9.932899l0 0c0 7.7580795 -6.289154 14.047249 -14.047241 14.047249l0 0c-7.758072 0 -14.047241 -6.2891693 -14.047241 -14.047249z" fill-rule="evenodd"/><path stroke="#a4c2f4" stroke-width="1.0" stroke-linejoin="round" stroke-linecap="butt" d="m226.23097 71.27559l0 0c0 -7.7580757 6.2891693 -14.047241 14.047241 -14.047241l0 0c3.7255554 0 7.298538 1.4799728 9.932907 4.1143417c2.634369 2.634369 4.114334 6.207344 4.114334 9.932899l0 0c0 7.7580795 -6.289154 14.047249 -14.047241 14.047249l0 0c-7.758072 0 -14.047241 -6.2891693 -14.047241 -14.047249z" fill-rule="evenodd"/><path fill="#9fc5e8" d="m282.6614 71.27559l0 0c0 -7.7580757 6.2891846 -14.047241 14.047241 -14.047241l0 0c3.725586 0 7.2985535 1.4799728 9.932922 4.1143417c2.634369 2.634369 4.1143494 6.207344 4.1143494 9.932899l0 0c0 7.7580795 -6.2891846 14.047249 -14.047272 14.047249l0 0c-7.7580566 0 -14.047241 -6.2891693 -14.047241 -14.047249z" fill-rule="evenodd"/><path stroke="#a4c2f4" stroke-width="1.0" stroke-linejoin="round" stroke-linecap="butt" d="m282.6614 71.27559l0 0c0 -7.7580757 6.2891846 -14.047241 14.047241 -14.047241l0 0c3.725586 0 7.2985535 1.4799728 9.932922 4.1143417c2.634369 2.634369 4.1143494 6.207344 4.1143494 9.932899l0 0c0 7.7580795 -6.2891846 14.047249 -14.047272 14.047249l0 0c-7.7580566 0 -14.047241 -6.2891693 -14.047241 -14.047249z" fill-rule="evenodd"/><path fill="#9fc5e8" d="m282.6614 43.181103l0 0c0 -7.7580795 6.2891846 -14.047245 14.047241 -14.047245l0 0c3.725586 0 7.2985535 1.4799747 9.932922 4.1143417c2.634369 2.634369 4.1143494 6.2073402 4.1143494 9.932903l0 0c0 7.7580795 -6.2891846 14.047245 -14.047272 14.047245l0 0c-7.7580566 0 -14.047241 -6.2891655 -14.047241 -14.047245z" fill-rule="evenodd"/><path stroke="#a4c2f4" stroke-width="1.0" stroke-linejoin="round" stroke-linecap="butt" d="m282.6614 43.181103l0 0c0 -7.7580795 6.2891846 -14.047245 14.047241 -14.047245l0 0c3.725586 0 7.2985535 1.4799747 9.932922 4.1143417c2.634369 2.634369 4.1143494 6.2073402 4.1143494 9.932903l0 0c0 7.7580795 -6.2891846 14.047245 -14.047272 14.047245l0 0c-7.7580566 0 -14.047241 -6.2891655 -14.047241 -14.047245z" fill-rule="evenodd"/><path fill="#9fc5e8" d="m282.6614 15.086615l0 0c0 -7.758079 6.2891846 -14.047245 14.047241 -14.047245l0 0c3.725586 0 7.2985535 1.4799733 9.932922 4.1143427c2.634369 2.6343694 4.1143494 6.2073407 4.1143494 9.932901l0 0c0 7.7580776 -6.2891846 14.047243 -14.047272 14.047243l0 0c-7.7580566 0 -14.047241 -6.2891655 -14.047241 -14.047243z" fill-rule="evenodd"/><path stroke="#a4c2f4" stroke-width="1.0" stroke-linejoin="round" stroke-linecap="butt" d="m282.6614 15.086615l0 0c0 -7.758079 6.2891846 -14.047245 14.047241 -14.047245l0 0c3.725586 0 7.2985535 1.4799733 9.932922 4.1143427c2.634369 2.6343694 4.1143494 6.2073407 4.1143494 9.932901l0 0c0 7.7580776 -6.2891846 14.047243 -14.047272 14.047243l0 0c-7.7580566 0 -14.047241 -6.2891655 -14.047241 -14.047243z" fill-rule="evenodd"/><path fill="#9fc5e8" d="m339.09186 71.27559l0 0c0 -7.7580757 6.2891846 -14.047241 14.047241 -14.047241l0 0c3.7255554 0 7.2985535 1.4799728 9.932922 4.1143417c2.634369 2.634369 4.114319 6.207344 4.114319 9.932899l0 0c0 7.7580795 -6.289154 14.047249 -14.047241 14.047249l0 0c-7.7580566 0 -14.047241 -6.2891693 -14.047241 -14.047249z" fill-rule="evenodd"/><path stroke="#a4c2f4" stroke-width="1.0" stroke-linejoin="round" stroke-linecap="butt" d="m339.09186 71.27559l0 0c0 -7.7580757 6.2891846 -14.047241 14.047241 -14.047241l0 0c3.7255554 0 7.2985535 1.4799728 9.932922 4.1143417c2.634369 2.634369 4.114319 6.207344 4.114319 9.932899l0 0c0 7.7580795 -6.289154 14.047249 -14.047241 14.047249l0 0c-7.7580566 0 -14.047241 -6.2891693 -14.047241 -14.047249z" fill-rule="evenodd"/><path fill="#9fc5e8" d="m339.09186 43.181103l0 0c0 -7.7580795 6.2891846 -14.047245 14.047241 -14.047245l0 0c3.7255554 0 7.2985535 1.4799747 9.932922 4.1143417c2.634369 2.634369 4.114319 6.2073402 4.114319 9.932903l0 0c0 7.7580795 -6.289154 14.047245 -14.047241 14.047245l0 0c-7.7580566 0 -14.047241 -6.2891655 -14.047241 -14.047245z" fill-rule="evenodd"/><path stroke="#a4c2f4" stroke-width="1.0" stroke-linejoin="round" stroke-linecap="butt" d="m339.09186 43.181103l0 0c0 -7.7580795 6.2891846 -14.047245 14.047241 -14.047245l0 0c3.7255554 0 7.2985535 1.4799747 9.932922 4.1143417c2.634369 2.634369 4.114319 6.2073402 4.114319 9.932903l0 0c0 7.7580795 -6.289154 14.047245 -14.047241 14.047245l0 0c-7.7580566 0 -14.047241 -6.2891655 -14.047241 -14.047245z" fill-rule="evenodd"/><path fill="#0000ff" d="m189.12862 120.908134l8.897629 -28.094482l8.897644 28.094482z" fill-rule="evenodd"/><path stroke="#0000ff" stroke-width="1.0" stroke-linejoin="round" stroke-linecap="butt" d="m189.12862 120.908134l8.897629 -28.094482l8.897644 28.094482z" fill-rule="evenodd"/></g></svg>