<svg version="1.1" viewBox="0.0 0.0 844.4304461942257 329.7979002624672" fill="none" stroke="none" stroke-linecap="square" stroke-miterlimit="10" xmlns:xlink="http://www.w3.org/1999/xlink" xmlns="http://www.w3.org/2000/svg"><clipPath id="p.0"><path d="m0 0l844.4304 0l0 329.7979l-844.4304 0l0 -329.7979z" clip-rule="nonzero"/></clipPath><g clip-path="url(#p.0)"><path fill="#000000" fill-opacity="0.0" d="m0 0l844.4304 0l0 329.7979l-844.4304 0z" fill-rule="evenodd"/><path fill="#cfe2f3" d="m180.91077 104.561676l306.83463 0l0 141.35434l-306.83463 0z" fill-rule="evenodd"/><path stroke="#000000" stroke-width="2.0" stroke-linejoin="round" stroke-linecap="butt" d="m180.91077 104.561676l306.83463 0l0 141.35434l-306.83463 0z" fill-rule="evenodd"/><path fill="#000000" fill-opacity="0.0" d="m487.7454 175.23885l218.67715 0" fill-rule="evenodd"/><path stroke="#000000" stroke-width="3.0" stroke-linejoin="round" stroke-linecap="butt" d="m487.7454 175.23885l218.67715 0" fill-rule="evenodd"/><path fill="#000000" fill-opacity="0.0" d="m66.144356 175.23885l114.77166 0" fill-rule="evenodd"/><path stroke="#000000" stroke-width="3.0" stroke-linejoin="round" stroke-linecap="butt" d="m66.144356 175.23885l114.77166 0" fill-rule="evenodd"/><path fill="#000000" fill-opacity="0.0" d="m706.42255 154.70341l0 41.07086" fill-rule="evenodd"/><path stroke="#000000" stroke-width="3.0" stroke-linejoin="round" stroke-linecap="butt" d="m706.42255 154.70341l0 41.07086" fill-rule="evenodd"/><path fill="#000000" fill-opacity="0.0" d="m66.144356 154.70341l0 41.07086" fill-rule="evenodd"/><path stroke="#000000" stroke-width="3.0" stroke-linejoin="round" stroke-linecap="butt" d="m66.144356 154.70341l0 41.07086" fill-rule="evenodd"/><path fill="#000000" fill-opacity="0.0" d="m388.68765 104.561676l0 141.35434" fill-rule="evenodd"/><path stroke="#000000" stroke-width="8.0" stroke-linejoin="round" stroke-linecap="butt" d="m388.68765 104.561676l0 141.35434" fill-rule="evenodd"/><path fill="#cfe2f3" d="m740.22833 175.23885l0 0c0 -4.896637 3.9695435 -8.86615 8.86615 -8.86615l0 0c2.3514404 0 4.6065674 0.93411255 6.269287 2.5968475c1.6627808 1.6627197 2.5968628 3.917862 2.5968628 6.2693024l0 0c0 4.896637 -3.9694824 8.866135 -8.86615 8.866135l0 0c-4.8966064 0 -8.86615 -3.9694977 -8.86615 -8.866135z" fill-rule="evenodd"/><path stroke="#000000" stroke-width="3.0" stroke-linejoin="round" stroke-linecap="butt" d="m740.22833 175.23885l0 0c0 -4.896637 3.9695435 -8.86615 8.86615 -8.86615l0 0c2.3514404 0 4.6065674 0.93411255 6.269287 2.5968475c1.6627808 1.6627197 2.5968628 3.917862 2.5968628 6.2693024l0 0c0 4.896637 -3.9694824 8.866135 -8.86615 8.866135l0 0c-4.8966064 0 -8.86615 -3.9694977 -8.86615 -8.866135z" fill-rule="evenodd"/><path fill="#cfe2f3" d="m769.42084 175.23885l0 0c0 -4.896637 3.9695435 -8.86615 8.86615 -8.86615l0 0c2.3514404 0 4.6065674 0.93411255 6.269348 2.5968475c1.6627197 1.6627197 2.5968018 3.917862 2.5968018 6.2693024l0 0c0 4.896637 -3.9694824 8.866135 -8.86615 8.866135l0 0c-4.8966064 0 -8.86615 -3.9694977 -8.86615 -8.866135z" fill-rule="evenodd"/><path stroke="#000000" stroke-width="3.0" stroke-linejoin="round" stroke-linecap="butt" d="m769.42084 175.23885l0 0c0 -4.896637 3.9695435 -8.86615 8.86615 -8.86615l0 0c2.3514404 0 4.6065674 0.93411255 6.269348 2.5968475c1.6627197 1.6627197 2.5968018 3.917862 2.5968018 6.2693024l0 0c0 4.896637 -3.9694824 8.866135 -8.86615 8.866135l0 0c-4.8966064 0 -8.86615 -3.9694977 -8.86615 -8.866135z" fill-rule="evenodd"/><path fill="#cfe2f3" d="m787.15393 175.23885l0 0c0 -4.896637 3.9695435 -8.86615 8.86615 -8.86615l0 0c2.3514404 0 4.6065674 0.93411255 6.269287 2.5968475c1.6627808 1.6627197 2.5968628 3.917862 2.5968628 6.2693024l0 0c0 4.896637 -3.9694824 8.866135 -8.86615 8.866135l0 0c-4.8966064 0 -8.86615 -3.9694977 -8.86615 -8.866135z" fill-rule="evenodd"/><path stroke="#000000" stroke-width="3.0" stroke-linejoin="round" stroke-linecap="butt" d="m787.15393 175.23885l0 0c0 -4.896637 3.9695435 -8.86615 8.86615 -8.86615l0 0c2.3514404 0 4.6065674 0.93411255 6.269287 2.5968475c1.6627808 1.6627197 2.5968628 3.917862 2.5968628 6.2693024l0 0c0 4.896637 -3.9694824 8.866135 -8.86615 8.866135l0 0c-4.8966064 0 -8.86615 -3.9694977 -8.86615 -8.866135z" fill-rule="evenodd"/><path fill="#cfe2f3" d="m798.61334 175.23885l0 0c0 -4.896637 3.9695435 -8.86615 8.86615 -8.86615l0 0c2.3514404 0 4.6066284 0.93411255 6.269348 2.5968475c1.6627197 1.6627197 2.5968018 3.917862 2.5968018 6.2693024l0 0c0 4.896637 -3.9694824 8.866135 -8.86615 8.866135l0 0c-4.8966064 0 -8.86615 -3.9694977 -8.86615 -8.866135z" fill-rule="evenodd"/><path stroke="#000000" stroke-width="3.0" stroke-linejoin="round" stroke-linecap="butt" d="m798.61334 175.23885l0 0c0 -4.896637 3.9695435 -8.86615 8.86615 -8.86615l0 0c2.3514404 0 4.6066284 0.93411255 6.269348 2.5968475c1.6627197 1.6627197 2.5968018 3.917862 2.5968018 6.2693024l0 0c0 4.896637 -3.9694824 8.866135 -8.86615 8.866135l0 0c-4.8966064 0 -8.86615 -3.9694977 -8.86615 -8.866135z" fill-rule="evenodd"/><path fill="#000000" fill-opacity="0.0" d="m318.62466 268.85565l140.126 0l0 63.02362l-140.126 0z" fill-rule="evenodd"/><path fill="#000000" d="m337.18716 296.11877l-2.25 7.5625q2.265625 -3.484375 3.3125 -4.703125q1.515625 -1.765625 2.515625 -2.3125q1.0 -0.546875 2.0 -0.546875q1.140625 0 1.640625 0.6875q0.515625 0.6875 0.515625 1.515625q0 0.859375 -0.46875 2.53125l-0.796875 2.828125q2.28125 -3.515625 3.28125 -4.671875q1.546875 -1.796875 2.703125 -2.4375q0.78125 -0.453125 1.6875 -0.453125q0.921875 0 1.546875 0.625q0.625 0.625 0.625 1.625q0 1.125 -0.53125 2.921875l-1.953125 6.546875q-0.4375 1.46875 -0.4375 1.890625q0 0.140625 0.109375 0.265625q0.125 0.125 0.265625 0.125q0.1875 0 0.328125 -0.125q0.640625 -0.515625 1.34375 -1.5q0.15625 -0.203125 0.46875 -0.65625l0.59375 0.390625q-1.203125 2.265625 -2.65625 3.328125q-1.453125 1.046875 -2.6875 1.046875q-1.0625 0 -1.71875 -0.578125q-0.640625 -0.59375 -0.640625 -1.390625q0 -0.75 0.4375 -2.28125l1.984375 -6.859375q0.40625 -1.421875 0.40625 -1.765625q0 -0.125 -0.125 -0.234375q-0.125 -0.125 -0.25 -0.125q-0.234375 0 -0.453125 0.109375q-0.34375 0.171875 -1.03125 0.921875q-0.6875 0.734375 -2.0 2.640625q-1.296875 1.90625 -1.796875 2.984375q-0.5 1.0625 -1.0 2.765625l-1.0625 3.625l-4.453125 0l3.296875 -11.484375q0.25 -0.921875 0.25 -1.28125q0 -0.125 -0.109375 -0.21875q-0.109375 -0.109375 -0.234375 -0.109375q-0.65625 0 -2.0625 1.703125q-2.140625 2.640625 -3.890625 6.34375l-1.4375 5.046875l-4.46875 0l3.296875 -11.296875q0.5 -1.671875 0.5 -2.375q0 -0.28125 -0.140625 -0.484375q-0.140625 -0.203125 -0.46875 -0.3125q-0.3125 -0.125 -1.203125 -0.125l0.171875 -0.671875l6.0 -1.03125l1.046875 0zm24.064453 9.703125q-0.15625 1.140625 -0.15625 1.875q0 1.328125 0.765625 2.125q0.765625 0.78125 2.046875 0.78125q1.234375 0 2.46875 -0.59375q1.234375 -0.59375 2.875 -2.09375l0.53125 0.46875q-2.03125 2.453125 -3.953125 3.5q-1.90625 1.03125 -4.21875 1.03125q-2.9375 0 -4.0625 -1.40625q-1.125 -1.421875 -1.125 -3.265625q0 -2.875 1.671875 -5.75q1.6875 -2.890625 4.578125 -4.625q2.890625 -1.75 5.796875 -1.75q1.484375 0 2.234375 0.703125q0.765625 0.703125 0.765625 1.78125q0 1.28125 -0.75 2.484375q-1.015625 1.65625 -2.5625 2.671875q-1.546875 1.015625 -3.453125 1.53125q-1.296875 0.359375 -3.453125 0.53125zm0.15625 -0.90625q1.546875 -0.234375 2.390625 -0.625q0.859375 -0.40625 1.671875 -1.265625q0.828125 -0.875 1.421875 -2.203125q0.59375 -1.328125 0.59375 -2.484375q0 -0.5 -0.265625 -0.78125q-0.265625 -0.28125 -0.6875 -0.28125q-0.84375 0 -1.90625 1.1875q-1.9375 2.140625 -3.21875 6.453125zm29.83789 -16.875l-5.71875 19.65625q-0.546875 1.859375 -0.546875 2.234375q0 0.203125 0.140625 0.34375q0.140625 0.140625 0.296875 0.140625q0.296875 0 0.6875 -0.296875q0.65625 -0.5 1.578125 -1.875l0.640625 0.34375q-2.484375 4.328125 -5.453125 4.328125q-1.046875 0 -1.625 -0.546875q-0.5625 -0.5625 -0.5625 -1.4375q0 -0.8125 0.453125 -2.34375l0.53125 -1.796875q-2.203125 3.890625 -3.828125 5.171875q-1.21875 0.953125 -2.390625 0.953125q-1.3125 0 -2.21875 -1.078125q-0.90625 -1.078125 -0.90625 -3.125q0 -2.625 1.15625 -5.171875q1.171875 -2.546875 2.6875 -4.25q1.515625 -1.71875 2.890625 -2.4375q1.390625 -0.734375 2.71875 -0.734375q0.6875 0 1.21875 0.28125q0.546875 0.28125 1.234375 1.0625l1.296875 -4.390625q0.46875 -1.609375 0.46875 -2.3125q0 -0.421875 -0.3125 -0.71875q-0.3125 -0.296875 -0.84375 -0.296875q-0.25 0 -0.609375 0.046875l0.171875 -0.6875l5.78125 -1.0625l1.0625 0zm-7.734375 11.140625q0 -1.078125 -0.421875 -1.5625q-0.421875 -0.5 -0.984375 -0.5q-0.5625 0 -1.21875 0.578125q-1.25 1.125 -2.609375 4.53125q-1.359375 3.40625 -1.359375 5.71875q0 0.84375 0.296875 1.25q0.296875 0.40625 0.671875 0.40625q0.609375 0 1.21875 -0.5625q1.5 -1.34375 2.953125 -4.59375q1.453125 -3.265625 1.453125 -5.265625zm14.1875 -11.140625q1.078125 0 1.828125 0.75q0.75 0.75 0.75 1.828125q0 1.078125 -0.765625 1.828125q-0.75 0.75 -1.8125 0.75q-1.0625 0 -1.828125 -0.75q-0.75 -0.75 -0.75 -1.828125q0 -1.078125 0.75 -1.828125q0.75 -0.75 1.828125 -0.75zm1.078125 8.078125l-3.59375 12.5q-0.296875 1.078125 -0.296875 1.40625q0 0.1875 0.15625 0.359375q0.15625 0.171875 0.328125 0.171875q0.296875 0 0.59375 -0.265625q0.796875 -0.65625 1.90625 -2.359375l0.59375 0.359375q-2.65625 4.625 -5.640625 4.625q-1.140625 0 -1.828125 -0.640625q-0.671875 -0.65625 -0.671875 -1.640625q0 -0.640625 0.296875 -1.640625l2.453125 -8.40625q0.34375 -1.21875 0.34375 -1.828125q0 -0.390625 -0.34375 -0.6875q-0.328125 -0.296875 -0.90625 -0.296875q-0.265625 0 -0.625 0.015625l0.21875 -0.703125l5.96875 -0.96875l1.046875 0zm18.080078 0.25l-3.421875 11.6875l-0.34375 1.421875q-0.046875 0.265625 -0.046875 0.390625q0 0.203125 0.140625 0.375q0.15625 0.15625 0.3125 0.15625q0.359375 0 1.015625 -0.5625q0.265625 -0.234375 1.265625 -1.625l0.609375 0.3125q-1.234375 2.296875 -2.65625 3.34375q-1.421875 1.046875 -3.046875 1.046875q-1.0 0 -1.53125 -0.515625q-0.53125 -0.53125 -0.53125 -1.328125q0 -0.671875 0.5625 -2.546875l0.421875 -1.421875q-2.03125 3.5 -3.921875 4.953125q-1.078125 0.859375 -2.3125 0.859375q-1.625 0 -2.34375 -1.328125q-0.71875 -1.328125 -0.71875 -3.0q0 -2.484375 1.515625 -5.6875q1.515625 -3.21875 3.96875 -5.15625q2.015625 -1.625 3.796875 -1.625q0.984375 0 1.578125 0.578125q0.609375 0.5625 0.890625 2.078125l0.625 -2.15625l4.171875 -0.25zm-5.625 3.34375q0 -1.4375 -0.4375 -2.0625q-0.328125 -0.4375 -0.875 -0.4375q-0.53125 0 -1.125 0.53125q-1.171875 1.078125 -2.53125 4.421875q-1.359375 3.328125 -1.359375 5.75q0 0.9375 0.296875 1.34375q0.3125 0.40625 0.6875 0.40625q0.78125 0 1.59375 -0.90625q1.15625 -1.296875 2.09375 -3.1875q1.65625 -3.296875 1.65625 -5.859375zm15.984375 -3.59375l-2.171875 7.546875q2.203125 -3.3125 3.28125 -4.515625q1.609375 -1.765625 2.765625 -2.390625q1.15625 -0.640625 2.171875 -0.640625q0.921875 0 1.5625 0.6875q0.65625 0.671875 0.65625 1.75q0 0.984375 -0.421875 2.390625l-2.25 7.515625q-0.28125 0.984375 -0.28125 1.28125q0 0.171875 0.125 0.3125q0.140625 0.140625 0.28125 0.140625q0.171875 0 0.375 -0.140625q0.609375 -0.5 1.25 -1.4375q0.15625 -0.25 0.5 -0.734375l0.671875 0.40625q-2.578125 4.34375 -5.4375 4.34375q-1.078125 0 -1.703125 -0.5625q-0.609375 -0.578125 -0.609375 -1.421875q0 -0.734375 0.421875 -2.1875l2.1875 -7.515625q0.234375 -0.734375 0.234375 -1.078125q0 -0.203125 -0.15625 -0.34375q-0.15625 -0.15625 -0.375 -0.15625q-0.65625 0 -1.609375 0.921875q-2.421875 2.3125 -4.703125 6.90625l-1.4375 5.21875l-4.484375 0l3.296875 -11.28125q0.46875 -1.671875 0.46875 -2.375q0 -0.296875 -0.140625 -0.5q-0.140625 -0.203125 -0.453125 -0.3125q-0.3125 -0.125 -1.203125 -0.125l0.203125 -0.671875l5.921875 -1.03125l1.0625 0z" fill-rule="nonzero"/><path fill="#000000" fill-opacity="0.0" d="m110.845146 -2.0839896l140.12598 0l0 106.64567l-140.12598 0z" fill-rule="evenodd"/><path fill="#000000" d="m160.32416 27.726007l-2.0625 8.125002q-1.4375 5.75 -2.8125 8.328125q-1.359375 2.59375 -3.203125 3.828125q-1.84375 1.234375 -4.203125 1.234375q-1.5 0 -2.203125 -0.578125q-0.703125 -0.5625 -0.703125 -1.328125q0 -0.71875 0.578125 -1.25q0.578125 -0.53125 1.53125 -0.53125q0.796875 0 1.21875 0.40625q0.421875 0.40625 0.421875 1.015625q0 0.5625 -0.265625 0.828125q-0.265625 0.28125 -0.265625 0.375l0.078125 0.125q0.109375 0.078125 0.25 0.078125q0.53125 0 0.90625 -0.328125q0.921875 -0.828125 1.390625 -2.0q0.3125 -0.8125 1.203125 -4.28125l3.59375 -14.046877l-2.453125 0l0.578125 -2.046875q1.328125 0.015625 1.921875 -0.328125q0.59375 -0.359375 1.265625 -1.59375q1.9375 -3.5625 4.078125 -5.109375q2.140625 -1.546875 4.78125 -1.546875q1.6875 0 2.453125 0.65625q0.765625 0.640625 0.765625 1.671875q0 0.921875 -0.515625 1.453125q-0.5 0.53125 -1.265625 0.53125q-0.703125 0 -1.15625 -0.4375q-0.453125 -0.4375 -0.453125 -1.046875q0 -0.4375 0.28125 -0.921875q0.296875 -0.5 0.296875 -0.6875q0 -0.1875 -0.140625 -0.3125q-0.125 -0.125 -0.328125 -0.125q-1.046875 0 -2.140625 1.28125q-1.78125 2.0625 -2.875 6.515625l2.546875 0l-0.609375 2.046875l-2.484375 0zm10.660156 -10.625q1.078125 0 1.828125 0.75q0.75 0.75 0.75 1.828125q0 1.078125 -0.765625 1.828125q-0.75 0.75 -1.8125 0.75q-1.0625 0 -1.828125 -0.75q-0.75 -0.75 -0.75 -1.828125q0 -1.078125 0.75 -1.828125q0.75 -0.75 1.828125 -0.75zm1.078125 8.078125l-3.59375 12.500002q-0.296875 1.078125 -0.296875 1.40625q0 0.1875 0.15625 0.359375q0.15625 0.171875 0.328125 0.171875q0.296875 0 0.59375 -0.265625q0.796875 -0.65625 1.90625 -2.359375l0.59375 0.359375q-2.65625 4.625 -5.640625 4.625q-1.140625 0 -1.828125 -0.640625q-0.671875 -0.65625 -0.671875 -1.640625q0 -0.640625 0.296875 -1.640625l2.453125 -8.406252q0.34375 -1.21875 0.34375 -1.828125q0 -0.390625 -0.34375 -0.6875q-0.328125 -0.296875 -0.90625 -0.296875q-0.265625 0 -0.625 0.015625l0.21875 -0.703125l5.96875 -0.96875l1.046875 0zm9.361313 0l-2.65625 9.875002q3.265625 -7.218752 4.921875 -8.890627q0.96875 -0.984375 2.03125 -0.984375q0.75 0 1.203125 0.546875q0.453125 0.53125 0.453125 1.515625q0 1.703125 -0.828125 2.859375q-0.53125 0.734375 -1.171875 0.734375q-0.703125 0 -1.0625 -0.640625q-0.34375 -0.65625 -0.484375 -0.765625q-0.140625 -0.125 -0.296875 -0.125q-0.1875 0 -0.375 0.109375q-0.390625 0.21875 -1.015625 1.03125q-0.625 0.8125 -1.546875 2.734377q-0.90625 1.921875 -1.421875 3.25q-0.5 1.3125 -1.40625 5.046875l-4.2656097 0l2.9062347 -11.656252q0.3125 -1.296875 0.3125 -1.71875q0 -0.484375 -0.171875 -0.734375q-0.15625 -0.265625 -0.453125 -0.390625q-0.28125 -0.125 -1.203125 -0.125l0.15625 -0.515625l5.3125 -1.15625l1.0625 0zm18.86914 0l-0.765625 5.4375l-0.65625 0q-0.140625 -2.109375 -1.296875 -3.328125q-1.140625 -1.21875 -2.46875 -1.21875q-0.796875 0 -1.328125 0.484375q-0.53125 0.46875 -0.53125 1.140625q0 0.5625 0.21875 1.0625q0.234375 0.484375 1.03125 1.328125q2.78125 2.984377 3.375 4.109377q0.59375 1.125 0.59375 2.40625q0 1.390625 -0.703125 2.640625q-0.703125 1.234375 -2.109375 1.984375q-1.390625 0.75 -2.890625 0.75q-1.03125 0 -2.515625 -0.40625q-0.984375 -0.28125 -1.484375 -0.28125q-0.4375 0 -0.6875 0.140625q-0.234375 0.125 -0.53125 0.546875l-0.65625 0l0.859375 -5.859375l0.5625 0q0.609375 2.125 1.140625 3.03125q0.546875 0.90625 1.4375 1.4375q0.90625 0.53125 1.734375 0.53125q0.96875 0 1.59375 -0.59375q0.640625 -0.609375 0.640625 -1.453125q0 -0.828125 -0.421875 -1.59375q-0.40625 -0.78125 -1.90625 -2.421875q-2.0625 -2.234375 -2.703125 -3.437502q-0.453125 -0.875 -0.453125 -2.0q0 -1.90625 1.375 -3.171875q1.375 -1.265625 3.875 -1.265625q1.09375 0 2.671875 0.390625q0.796875 0.1875 1.265625 0.1875q0.6875 0 1.109375 -0.578125l0.625 0zm10.931641 -4.28125l-1.40625 4.78125l2.3125 0l-0.625 2.015625l-2.265625 0l-2.9375 10.187502q-0.28125 0.953125 -0.28125 1.453125q0 0.21875 0.15625 0.390625q0.171875 0.171875 0.359375 0.171875q0.296875 0 0.609375 -0.25q0.8125 -0.609375 1.890625 -2.140625l0.609375 0.375q-1.203125 2.109375 -2.671875 3.109375q-1.453125 0.984375 -2.859375 0.984375q-1.203125 0 -1.859375 -0.609375q-0.65625 -0.609375 -0.65625 -1.546875q0 -1.015625 0.453125 -2.609375l2.78125 -9.515627l-2.390625 0l0.34375 -1.296875q2.25 -0.828125 3.796875 -1.9375q1.546875 -1.109375 3.734375 -3.5625l0.90625 0z" fill-rule="nonzero"/><path fill="#000000" d="m140.30658 68.87913l-5.1875 17.765625q-0.53125 1.828125 -0.640625 2.296875q-0.15625 0.78125 -0.15625 1.3125q0 0.546875 0.4375 0.890625q0.59375 0.46875 1.828125 0.578125l-0.1875 0.65625l-9.296883 0l0.171875 -0.65625q1.0468826 -0.15625 1.5468826 -0.484375q0.5 -0.328125 0.875 -1.09375q0.390625 -0.75 0.890625 -2.578125l2.328125 -7.96875q-1.96875 3.375 -3.65625 4.625q-1.2968826 0.953125 -2.5781326 0.953125q-1.28125 0 -2.0625 -0.953125q-1.03125 -1.265625 -1.03125 -3.4375q0 -2.265625 1.046875 -4.75q1.046875 -2.484375 2.75 -4.390625q1.7187576 -1.90625 3.4687576 -2.8125q0.875 -0.453125 1.984375 -0.453125q1.078125 0 1.75 0.640625q0.6875 0.625 0.953125 2.0625l0.671875 -2.203125l4.09375 0zm-7.03125 0.625q-0.640625 0 -1.28125 0.578125q-1.171875 1.046875 -2.359375 4.09375q-1.4375 3.765625 -1.4375 5.921875q0 0.921875 0.375 1.4375q0.28125 0.359375 0.734375 0.359375q0.609375 0 1.21875 -0.5625q1.484375 -1.3125 2.890625 -4.390625q1.421875 -3.078125 1.421875 -5.0q0 -1.203125 -0.484375 -1.8125q-0.484375 -0.625 -1.078125 -0.625zm17.1875 -1.125l-3.40625 11.953125q-0.25 0.828125 -0.25 1.140625q0 0.15625 0.125 0.25q0.140625 0.140625 0.328125 0.140625q0.8125 0 2.171875 -1.4375q1.921875 -2.09375 4.0625 -6.015625l1.59375 -5.375l4.453125 -0.15625l-3.375 11.59375q-0.421875 1.484375 -0.421875 1.6875q0 0.140625 0.125 0.296875q0.125 0.140625 0.265625 0.140625q0.25 0 0.484375 -0.203125q0.625 -0.515625 1.671875 -2.0625l0.59375 0.421875q-2.4375 4.421875 -5.375 4.421875q-1.09375 0 -1.71875 -0.546875q-0.625 -0.5625 -0.625 -1.46875q0 -0.953125 0.4375 -2.40625l0.859375 -2.96875q-2.28125 3.328125 -3.3125 4.484375q-1.59375 1.734375 -2.671875 2.328125q-1.078125 0.578125 -2.0625 0.578125q-0.9375 0 -1.609375 -0.6875q-0.671875 -0.6875 -0.671875 -1.75q0 -0.890625 0.4375 -2.40625l1.984375 -7.03125q0.5 -1.71875 0.5 -2.3125q0 -0.265625 -0.140625 -0.46875q-0.140625 -0.203125 -0.46875 -0.3125q-0.328125 -0.125 -1.203125 -0.125l0.171875 -0.671875l6.0 -1.03125l1.046875 0zm27.70897 0.25l-3.4218597 11.6875l-0.34375 1.421875q-0.046875 0.265625 -0.046875 0.390625q0 0.203125 0.140625 0.375q0.15625 0.15625 0.3125 0.15625q0.35935974 0 1.0156097 -0.5625q0.265625 -0.234375 1.265625 -1.625l0.609375 0.3125q-1.234375 2.296875 -2.65625 3.34375q-1.4218597 1.046875 -3.0468597 1.046875q-1.0 0 -1.53125 -0.515625q-0.53125 -0.53125 -0.53125 -1.328125q0 -0.671875 0.5625 -2.546875l0.421875 -1.421875q-2.03125 3.5 -3.921875 4.953125q-1.078125 0.859375 -2.3125 0.859375q-1.625 0 -2.34375 -1.328125q-0.71875 -1.328125 -0.71875 -3.0q0 -2.484375 1.515625 -5.6875q1.515625 -3.21875 3.96875 -5.15625q2.015625 -1.625 3.796875 -1.625q0.984375 0 1.578125 0.578125q0.609375 0.5625 0.890625 2.078125l0.625 -2.15625l4.1718597 -0.25zm-5.6249847 3.34375q0 -1.4375 -0.4375 -2.0625q-0.328125 -0.4375 -0.875 -0.4375q-0.53125 0 -1.125 0.53125q-1.171875 1.078125 -2.53125 4.421875q-1.359375 3.328125 -1.359375 5.75q0 0.9375 0.296875 1.34375q0.3125 0.40625 0.6875 0.40625q0.78125 0 1.59375 -0.90625q1.15625 -1.296875 2.09375 -3.1875q1.65625 -3.296875 1.65625 -5.859375zm14.906235 -3.59375l-2.65625 9.875q3.265625 -7.21875 4.921875 -8.890625q0.96875 -0.984375 2.03125 -0.984375q0.75 0 1.203125 0.546875q0.453125 0.53125 0.453125 1.515625q0 1.703125 -0.828125 2.859375q-0.53125 0.734375 -1.171875 0.734375q-0.703125 0 -1.0625 -0.640625q-0.34375 -0.65625 -0.484375 -0.765625q-0.140625 -0.125 -0.296875 -0.125q-0.1875 0 -0.375 0.109375q-0.390625 0.21875 -1.015625 1.03125q-0.625 0.8125 -1.546875 2.734375q-0.90625 1.921875 -1.421875 3.25q-0.5 1.3125 -1.40625 5.046875l-4.265625 0l2.90625 -11.65625q0.3125 -1.296875 0.3125 -1.71875q0 -0.484375 -0.171875 -0.734375q-0.15625 -0.265625 -0.453125 -0.390625q-0.28125 -0.125 -1.203125 -0.125l0.15625 -0.515625l5.3125 -1.15625l1.0625 0zm15.791016 -4.28125l-1.40625 4.78125l2.3125 0l-0.625 2.015625l-2.265625 0l-2.9375 10.1875q-0.28125 0.953125 -0.28125 1.453125q0 0.21875 0.15625 0.390625q0.171875 0.171875 0.359375 0.171875q0.296875 0 0.609375 -0.25q0.8125 -0.609375 1.890625 -2.140625l0.609375 0.375q-1.203125 2.109375 -2.671875 3.109375q-1.453125 0.984375 -2.859375 0.984375q-1.203125 0 -1.859375 -0.609375q-0.65625 -0.609375 -0.65625 -1.546875q0 -1.015625 0.453125 -2.609375l2.78125 -9.515625l-2.390625 0l0.34375 -1.296875q2.25 -0.828125 3.796875 -1.9375q1.546875 -1.109375 3.734375 -3.5625l0.90625 0zm7.783203 -3.7968712q1.078125 0 1.828125 0.75q0.75 0.75 0.75 1.828125q0 1.078125 -0.765625 1.8281212q-0.75 0.75 -1.8125 0.75q-1.0625 0 -1.828125 -0.75q-0.75 -0.7499962 -0.75 -1.8281212q0 -1.078125 0.75 -1.828125q0.75 -0.75 1.828125 -0.75zm1.078125 8.078121l-3.59375 12.5q-0.296875 1.078125 -0.296875 1.40625q0 0.1875 0.15625 0.359375q0.15625 0.171875 0.328125 0.171875q0.296875 0 0.59375 -0.265625q0.796875 -0.65625 1.90625 -2.359375l0.59375 0.359375q-2.65625 4.625 -5.640625 4.625q-1.140625 0 -1.828125 -0.640625q-0.671875 -0.65625 -0.671875 -1.640625q0 -0.640625 0.296875 -1.640625l2.453125 -8.40625q0.34375 -1.21875 0.34375 -1.828125q0 -0.390625 -0.34375 -0.6875q-0.328125 -0.296875 -0.90625 -0.296875q-0.265625 0 -0.625 0.015625l0.21875 -0.703125l5.96875 -0.96875l1.046875 0zm12.220703 -8.078121l-5.8125 19.781246q-0.515625 1.765625 -0.515625 2.203125q0 0.234375 0.140625 0.390625q0.15625 0.15625 0.328125 0.15625q0.328125 0 0.609375 -0.25q0.84375 -0.6875 1.875 -2.3125l0.6875 0.3125q-1.671875 2.671875 -3.28125 3.8125q-1.109375 0.78125 -2.359375 0.78125q-1.15625 0 -1.84375 -0.625q-0.6875 -0.625 -0.6875 -1.515625q0 -0.640625 0.421875 -2.09375l4.75 -16.203125q0.375 -1.3281212 0.375 -1.7656212q0 -0.421875 -0.359375 -0.671875q-0.5 -0.359375 -1.5 -0.296875l0.1875 -0.671875l5.9375 -1.03125l1.046875 0zm4.236328 17.781246q-0.15625 1.140625 -0.15625 1.875q0 1.328125 0.765625 2.125q0.765625 0.78125 2.046875 0.78125q1.234375 0 2.46875 -0.59375q1.234375 -0.59375 2.875 -2.09375l0.53125 0.46875q-2.03125 2.453125 -3.953125 3.5q-1.90625 1.03125 -4.21875 1.03125q-2.9375 0 -4.0625 -1.40625q-1.125 -1.421875 -1.125 -3.265625q0 -2.875 1.671875 -5.75q1.6875 -2.890625 4.578125 -4.625q2.890625 -1.75 5.796875 -1.75q1.484375 0 2.234375 0.703125q0.765625 0.703125 0.765625 1.78125q0 1.28125 -0.75 2.484375q-1.015625 1.65625 -2.5625 2.671875q-1.546875 1.015625 -3.453125 1.53125q-1.296875 0.359375 -3.453125 0.53125zm0.15625 -0.90625q1.546875 -0.234375 2.390625 -0.625q0.859375 -0.40625 1.671875 -1.265625q0.828125 -0.875 1.421875 -2.203125q0.59375 -1.328125 0.59375 -2.484375q0 -0.5 -0.265625 -0.78125q-0.265625 -0.28125 -0.6875 -0.28125q-0.84375 0 -1.90625 1.1875q-1.9375 2.140625 -3.21875 6.453125z" fill-rule="nonzero"/><path fill="#000000" fill-opacity="0.0" d="m425.23358 -2.0839896l140.12598 0l0 106.64567l-140.12598 0z" fill-rule="evenodd"/><path fill="#000000" d="m469.59152 20.897882l-1.40625 4.78125l2.3125 0l-0.625 2.015625l-2.265625 0l-2.9375 10.187502q-0.28125 0.953125 -0.28125 1.453125q0 0.21875 0.15625 0.390625q0.171875 0.171875 0.359375 0.171875q0.296875 0 0.609375 -0.25q0.8125 -0.609375 1.890625 -2.140625l0.609375 0.375q-1.203125 2.109375 -2.671875 3.109375q-1.453125 0.984375 -2.859375 0.984375q-1.203125 0 -1.859375 -0.609375q-0.65625 -0.609375 -0.65625 -1.546875q0 -1.015625 0.453125 -2.609375l2.78125 -9.515627l-2.390625 0l0.34375 -1.296875q2.25 -0.828125 3.796875 -1.9375q1.546875 -1.109375 3.734375 -3.5625l0.90625 0zm11.517578 -3.796875l-4.5625 15.828127q2.375 -3.500002 3.4375 -4.718752q1.609375 -1.78125 2.75 -2.40625q1.15625 -0.625 2.203125 -0.625q0.90625 0 1.546875 0.6875q0.640625 0.671875 0.640625 1.796875q0 0.9375 -0.421875 2.375l-2.234375 7.484377q-0.296875 0.984375 -0.296875 1.3125q0 0.15625 0.125 0.296875q0.125 0.125 0.28125 0.125q0.203125 0 0.421875 -0.171875q0.5625 -0.4375 1.1875 -1.40625q0.15625 -0.25 0.515625 -0.734375l0.6875 0.375q-1.515625 2.5 -2.875 3.4375q-1.34375 0.9375 -2.5625 0.9375q-1.09375 0 -1.703125 -0.5625q-0.609375 -0.578125 -0.609375 -1.421875q0 -0.765625 0.421875 -2.1875l2.171875 -7.484377q0.21875 -0.78125 0.21875 -1.125q0 -0.203125 -0.15625 -0.34375q-0.140625 -0.15625 -0.34375 -0.15625q-0.625 0 -1.734375 1.0625q-2.28125 2.15625 -4.578125 6.781252l-1.5625 5.21875l-4.359375 0l5.765625 -19.859377q0.359375 -1.265625 0.359375 -1.8125q0 -0.4375 -0.359375 -0.6875q-0.453125 -0.328125 -1.40625 -0.28125l0.125 -0.703125l5.859375 -1.03125l1.046875 0zm16.287079 0q1.078125 0 1.828125 0.75q0.75 0.75 0.75 1.828125q0 1.078125 -0.765625 1.828125q-0.75 0.75 -1.8125 0.75q-1.0625 0 -1.828125 -0.75q-0.75 -0.75 -0.75 -1.828125q0 -1.078125 0.75 -1.828125q0.75 -0.75 1.828125 -0.75zm1.078125 8.078125l-3.59375 12.500002q-0.296875 1.078125 -0.296875 1.40625q0 0.1875 0.15625 0.359375q0.15625 0.171875 0.328125 0.171875q0.296875 0 0.59375 -0.265625q0.796875 -0.65625 1.90625 -2.359375l0.59375 0.359375q-2.65625 4.625 -5.640625 4.625q-1.140625 0 -1.828125 -0.640625q-0.671875 -0.65625 -0.671875 -1.640625q0 -0.640625 0.296875 -1.640625l2.453125 -8.406252q0.34375 -1.21875 0.34375 -1.828125q0 -0.390625 -0.34375 -0.6875q-0.328125 -0.296875 -0.90625 -0.296875q-0.265625 0 -0.625 0.015625l0.21875 -0.703125l5.96875 -0.96875l1.046875 0zm9.361328 0l-2.65625 9.875002q3.265625 -7.218752 4.921875 -8.890627q0.96875 -0.984375 2.03125 -0.984375q0.75 0 1.203125 0.546875q0.453125 0.53125 0.453125 1.515625q0 1.703125 -0.828125 2.859375q-0.53125 0.734375 -1.171875 0.734375q-0.703125 0 -1.0625 -0.640625q-0.34375 -0.65625 -0.484375 -0.765625q-0.140625 -0.125 -0.296875 -0.125q-0.1875 0 -0.375 0.109375q-0.390625 0.21875 -1.015625 1.03125q-0.625 0.8125 -1.546875 2.734377q-0.90625 1.921875 -1.421875 3.25q-0.5 1.3125 -1.40625 5.046875l-4.265625 0l2.90625 -11.656252q0.3125 -1.296875 0.3125 -1.71875q0 -0.484375 -0.171875 -0.734375q-0.15625 -0.265625 -0.453125 -0.390625q-0.28125 -0.125 -1.203125 -0.125l0.15625 -0.515625l5.3125 -1.15625l1.0625 0zm25.11914 -8.078125l-5.71875 19.656252q-0.546875 1.859375 -0.546875 2.234375q0 0.203125 0.140625 0.34375q0.140625 0.140625 0.296875 0.140625q0.296875 0 0.6875 -0.296875q0.65625 -0.5 1.578125 -1.875l0.640625 0.34375q-2.484375 4.328125 -5.453125 4.328125q-1.046875 0 -1.625 -0.546875q-0.5625 -0.5625 -0.5625 -1.4375q0 -0.8125 0.453125 -2.34375l0.53125 -1.796875q-2.203125 3.890625 -3.828125 5.171875q-1.21875 0.953125 -2.390625 0.953125q-1.3125 0 -2.21875 -1.078125q-0.90625 -1.078125 -0.90625 -3.125q0 -2.625 1.15625 -5.171875q1.171875 -2.546877 2.6875 -4.250002q1.515625 -1.71875 2.890625 -2.4375q1.390625 -0.734375 2.71875 -0.734375q0.6875 0 1.21875 0.28125q0.546875 0.28125 1.234375 1.0625l1.296875 -4.390625q0.46875 -1.609375 0.46875 -2.3125q0 -0.421875 -0.3125 -0.71875q-0.3125 -0.296875 -0.84375 -0.296875q-0.25 0 -0.609375 0.046875l0.171875 -0.6875l5.78125 -1.0625l1.0625 0zm-7.734375 11.140625q0 -1.078125 -0.421875 -1.5625q-0.421875 -0.5 -0.984375 -0.5q-0.5625 0 -1.21875 0.578125q-1.25 1.125 -2.609375 4.53125q-1.359375 3.406252 -1.359375 5.718752q0 0.84375 0.296875 1.25q0.296875 0.40625 0.671875 0.40625q0.609375 0 1.21875 -0.5625q1.5 -1.34375 2.953125 -4.59375q1.453125 -3.265627 1.453125 -5.265627z" fill-rule="nonzero"/><path fill="#000000" d="m454.69504 68.87913l-5.1875 17.765625q-0.53125 1.828125 -0.640625 2.296875q-0.15625 0.78125 -0.15625 1.3125q0 0.546875 0.4375 0.890625q0.59375 0.46875 1.828125 0.578125l-0.1875 0.65625l-9.296875 0l0.171875 -0.65625q1.046875 -0.15625 1.546875 -0.484375q0.5 -0.328125 0.875 -1.09375q0.390625 -0.75 0.890625 -2.578125l2.328125 -7.96875q-1.96875 3.375 -3.65625 4.625q-1.296875 0.953125 -2.578125 0.953125q-1.28125 0 -2.0625 -0.953125q-1.03125 -1.265625 -1.03125 -3.4375q0 -2.265625 1.046875 -4.75q1.046875 -2.484375 2.75 -4.390625q1.71875 -1.90625 3.46875 -2.8125q0.875 -0.453125 1.984375 -0.453125q1.078125 0 1.75 0.640625q0.6875 0.625 0.953125 2.0625l0.671875 -2.203125l4.09375 0zm-7.03125 0.625q-0.640625 0 -1.28125 0.578125q-1.171875 1.046875 -2.359375 4.09375q-1.4375 3.765625 -1.4375 5.921875q0 0.921875 0.375 1.4375q0.28125 0.359375 0.734375 0.359375q0.609375 0 1.21875 -0.5625q1.484375 -1.3125 2.890625 -4.390625q1.421875 -3.078125 1.421875 -5.0q0 -1.203125 -0.484375 -1.8125q-0.484375 -0.625 -1.078125 -0.625zm17.1875 -1.125l-3.40625 11.953125q-0.25 0.828125 -0.25 1.140625q0 0.15625 0.125 0.25q0.140625 0.140625 0.328125 0.140625q0.8125 0 2.171875 -1.4375q1.921875 -2.09375 4.0625 -6.015625l1.59375 -5.375l4.453125 -0.15625l-3.375 11.59375q-0.421875 1.484375 -0.421875 1.6875q0 0.140625 0.125 0.296875q0.125 0.140625 0.265625 0.140625q0.25 0 0.484375 -0.203125q0.625 -0.515625 1.671875 -2.0625l0.59375 0.421875q-2.4375 4.421875 -5.375 4.421875q-1.09375 0 -1.71875 -0.546875q-0.625 -0.5625 -0.625 -1.46875q0 -0.953125 0.4375 -2.40625l0.859375 -2.96875q-2.28125 3.328125 -3.3125 4.484375q-1.59375 1.734375 -2.671875 2.328125q-1.078125 0.578125 -2.0625 0.578125q-0.9375 0 -1.609375 -0.6875q-0.671875 -0.6875 -0.671875 -1.75q0 -0.890625 0.4375 -2.40625l1.984375 -7.03125q0.5 -1.71875 0.5 -2.3125q0 -0.265625 -0.140625 -0.46875q-0.140625 -0.203125 -0.46875 -0.3125q-0.328125 -0.125 -1.203125 -0.125l0.171875 -0.671875l6.0 -1.03125l1.046875 0zm27.708954 0.25l-3.4218445 11.6875l-0.34375 1.421875q-0.046875 0.265625 -0.046875 0.390625q0 0.203125 0.140625 0.375q0.15625 0.15625 0.3125 0.15625q0.35934448 0 1.0155945 -0.5625q0.265625 -0.234375 1.265625 -1.625l0.609375 0.3125q-1.234375 2.296875 -2.65625 3.34375q-1.4218445 1.046875 -3.0468445 1.046875q-1.0 0 -1.53125 -0.515625q-0.53125 -0.53125 -0.53125 -1.328125q0 -0.671875 0.5625 -2.546875l0.421875 -1.421875q-2.03125 3.5 -3.921875 4.953125q-1.078125 0.859375 -2.3125 0.859375q-1.625 0 -2.34375 -1.328125q-0.71875 -1.328125 -0.71875 -3.0q0 -2.484375 1.515625 -5.6875q1.515625 -3.21875 3.96875 -5.15625q2.015625 -1.625 3.796875 -1.625q0.984375 0 1.578125 0.578125q0.609375 0.5625 0.890625 2.078125l0.625 -2.15625l4.1718445 -0.25zm-5.6249695 3.34375q0 -1.4375 -0.4375 -2.0625q-0.328125 -0.4375 -0.875 -0.4375q-0.53125 0 -1.125 0.53125q-1.171875 1.078125 -2.53125 4.421875q-1.359375 3.328125 -1.359375 5.75q0 0.9375 0.296875 1.34375q0.3125 0.40625 0.6875 0.40625q0.78125 0 1.59375 -0.90625q1.15625 -1.296875 2.09375 -3.1875q1.65625 -3.296875 1.65625 -5.859375zm14.9062195 -3.59375l-2.65625 9.875q3.265625 -7.21875 4.921875 -8.890625q0.96875 -0.984375 2.03125 -0.984375q0.75 0 1.203125 0.546875q0.453125 0.53125 0.453125 1.515625q0 1.703125 -0.828125 2.859375q-0.53125 0.734375 -1.171875 0.734375q-0.703125 0 -1.0625 -0.640625q-0.34375 -0.65625 -0.484375 -0.765625q-0.140625 -0.125 -0.296875 -0.125q-0.1875 0 -0.375 0.109375q-0.390625 0.21875 -1.015625 1.03125q-0.625 0.8125 -1.546875 2.734375q-0.90625 1.921875 -1.421875 3.25q-0.5 1.3125 -1.40625 5.046875l-4.265625 0l2.90625 -11.65625q0.3125 -1.296875 0.3125 -1.71875q0 -0.484375 -0.171875 -0.734375q-0.15625 -0.265625 -0.453125 -0.390625q-0.28125 -0.125 -1.203125 -0.125l0.15625 -0.515625l5.3125 -1.15625l1.0625 0zm15.791016 -4.28125l-1.40625 4.78125l2.3125 0l-0.625 2.015625l-2.265625 0l-2.9375 10.1875q-0.28125 0.953125 -0.28125 1.453125q0 0.21875 0.15625 0.390625q0.171875 0.171875 0.359375 0.171875q0.296875 0 0.609375 -0.25q0.8125 -0.609375 1.890625 -2.140625l0.609375 0.375q-1.203125 2.109375 -2.671875 3.109375q-1.453125 0.984375 -2.859375 0.984375q-1.203125 0 -1.859375 -0.609375q-0.65625 -0.609375 -0.65625 -1.546875q0 -1.015625 0.453125 -2.609375l2.78125 -9.515625l-2.390625 0l0.34375 -1.296875q2.25 -0.828125 3.796875 -1.9375q1.546875 -1.109375 3.734375 -3.5625l0.90625 0zm7.783203 -3.7968712q1.078125 0 1.828125 0.75q0.75 0.75 0.75 1.828125q0 1.078125 -0.765625 1.8281212q-0.75 0.75 -1.8125 0.75q-1.0625 0 -1.828125 -0.75q-0.75 -0.7499962 -0.75 -1.8281212q0 -1.078125 0.75 -1.828125q0.75 -0.75 1.828125 -0.75zm1.078125 8.078121l-3.59375 12.5q-0.296875 1.078125 -0.296875 1.40625q0 0.1875 0.15625 0.359375q0.15625 0.171875 0.328125 0.171875q0.296875 0 0.59375 -0.265625q0.796875 -0.65625 1.90625 -2.359375l0.59375 0.359375q-2.65625 4.625 -5.640625 4.625q-1.140625 0 -1.828125 -0.640625q-0.671875 -0.65625 -0.671875 -1.640625q0 -0.640625 0.296875 -1.640625l2.453125 -8.40625q0.34375 -1.21875 0.34375 -1.828125q0 -0.390625 -0.34375 -0.6875q-0.328125 -0.296875 -0.90625 -0.296875q-0.265625 0 -0.625 0.015625l0.21875 -0.703125l5.96875 -0.96875l1.046875 0zm12.220703 -8.078121l-5.8125 19.781246q-0.515625 1.765625 -0.515625 2.203125q0 0.234375 0.140625 0.390625q0.15625 0.15625 0.328125 0.15625q0.328125 0 0.609375 -0.25q0.84375 -0.6875 1.875 -2.3125l0.6875 0.3125q-1.671875 2.671875 -3.28125 3.8125q-1.109375 0.78125 -2.359375 0.78125q-1.15625 0 -1.84375 -0.625q-0.6875 -0.625 -0.6875 -1.515625q0 -0.640625 0.421875 -2.09375l4.75 -16.203125q0.375 -1.3281212 0.375 -1.7656212q0 -0.421875 -0.359375 -0.671875q-0.5 -0.359375 -1.5 -0.296875l0.1875 -0.671875l5.9375 -1.03125l1.046875 0zm4.236328 17.781246q-0.15625 1.140625 -0.15625 1.875q0 1.328125 0.765625 2.125q0.765625 0.78125 2.046875 0.78125q1.234375 0 2.46875 -0.59375q1.234375 -0.59375 2.875 -2.09375l0.53125 0.46875q-2.03125 2.453125 -3.953125 3.5q-1.90625 1.03125 -4.21875 1.03125q-2.9375 0 -4.0625 -1.40625q-1.125 -1.421875 -1.125 -3.265625q0 -2.875 1.671875 -5.75q1.6875 -2.890625 4.578125 -4.625q2.890625 -1.75 5.796875 -1.75q1.484375 0 2.234375 0.703125q0.765625 0.703125 0.765625 1.78125q0 1.28125 -0.75 2.484375q-1.015625 1.65625 -2.5625 2.671875q-1.546875 1.015625 -3.453125 1.53125q-1.296875 0.359375 -3.453125 0.53125zm0.15625 -0.90625q1.546875 -0.234375 2.390625 -0.625q0.859375 -0.40625 1.671875 -1.265625q0.828125 -0.875 1.421875 -2.203125q0.59375 -1.328125 0.59375 -2.484375q0 -0.5 -0.265625 -0.78125q-0.265625 -0.28125 -0.6875 -0.28125q-0.84375 0 -1.90625 1.1875q-1.9375 2.140625 -3.21875 6.453125z" fill-rule="nonzero"/><path fill="#000000" fill-opacity="0.0" d="m-3.9186351 195.77428l140.12599 0l0 106.645676l-140.12599 0z" fill-rule="evenodd"/><path fill="#000000" d="m36.534004 214.95927l-5.812498 19.78125q-0.515625 1.765625 -0.515625 2.203125q0 0.234375 0.140625 0.390625q0.15625 0.15625 0.328125 0.15625q0.328125 0 0.609375 -0.25q0.8437481 -0.6875 1.8749981 -2.3125l0.6875 0.3125q-1.671875 2.671875 -3.281248 3.8125q-1.109375 0.78125 -2.359375 0.78125q-1.15625 0 -1.84375 -0.625q-0.6875 -0.625 -0.6875 -1.515625q0 -0.640625 0.421875 -2.09375l4.75 -16.203125q0.375 -1.328125 0.375 -1.765625q0 -0.421875 -0.359375 -0.671875q-0.5 -0.359375 -1.5 -0.296875l0.1875 -0.671875l5.937498 -1.03125l1.046875 0zm10.439453 8.078125q1.390625 0 2.609375 0.640625q1.21875 0.640625 1.84375 1.78125q0.625 1.140625 0.625 2.53125q0 2.859375 -1.59375 5.703125q-1.578125 2.84375 -4.1875 4.5q-2.59375 1.640625 -5.234375 1.640625q-2.390625 0 -3.703125 -1.421875q-1.3125 -1.4375 -1.3125 -3.484375q0 -2.453125 0.96875 -4.578125q0.984375 -2.140625 2.484375 -3.734375q1.515625 -1.59375 3.453125 -2.578125q1.953125 -1.0 4.046875 -1.0zm-0.71875 0.9375q-0.9375 0 -1.546875 0.546875q-1.234375 1.09375 -2.78125 5.171875q-1.546875 4.0625 -1.546875 7.34375q0 0.796875 0.484375 1.328125q0.5 0.53125 1.171875 0.53125q0.6875 0 1.21875 -0.421875q0.765625 -0.640625 1.890625 -2.84375q1.125 -2.203125 1.84375 -4.859375q0.71875 -2.671875 0.71875 -4.890625q0 -0.90625 -0.4375 -1.40625q-0.4375 -0.5 -1.015625 -0.5zm22.375 -0.9375l1.296875 12.34375q2.65625 -2.625 3.46875 -4.140625q0.8125 -1.515625 0.8125 -2.546875q0 -0.375 -0.1875 -0.765625q-0.171875 -0.390625 -0.703125 -1.078125q-0.515625 -0.6875 -0.59375 -0.859375q-0.125 -0.328125 -0.125 -0.8125q0 -0.890625 0.609375 -1.515625q0.625 -0.625 1.5625 -0.625q0.921875 0 1.46875 0.640625q0.78125 0.90625 0.78125 2.109375q0 1.9375 -1.875 5.109375q-1.859375 3.15625 -8.5 8.9375l-0.703125 0l-1.09375 -10.796875l-7.59375 10.796875l-0.75 0q0.265625 -4.890625 0.265625 -9.15625q0 -2.765625 -0.296875 -4.0q-0.1875 -0.71875 -0.640625 -1.078125q-0.4375 -0.375 -0.96875 -0.375q-0.28125 0 -0.71875 0.0625l0 -0.65625l6.046871 -1.59375q0.5 1.375 0.671875 2.578125q0.296875 1.875 0.296875 4.34375q0 0.890625 -0.0625 2.671875l6.796879 -9.59375l0.734375 0zm14.152344 9.703125q-0.15625 1.140625 -0.15625 1.875q0 1.328125 0.765625 2.125q0.765625 0.78125 2.046875 0.78125q1.234375 0 2.46875 -0.59375q1.234375 -0.59375 2.875 -2.09375l0.53125 0.46875q-2.03125 2.453125 -3.953125 3.5q-1.90625 1.03125 -4.21875 1.03125q-2.9375 0 -4.0625 -1.40625q-1.125 -1.421875 -1.125 -3.265625q0 -2.875 1.671875 -5.75q1.6875 -2.890625 4.578125 -4.625q2.890625 -1.75 5.796875 -1.75q1.484375 0 2.234375 0.703125q0.765625 0.703125 0.765625 1.78125q0 1.28125 -0.75 2.484375q-1.015625 1.65625 -2.5625 2.671875q-1.546875 1.015625 -3.453125 1.53125q-1.296875 0.359375 -3.453125 0.53125zm0.15625 -0.90625q1.546875 -0.234375 2.390625 -0.625q0.859375 -0.40625 1.671875 -1.265625q0.828125 -0.875 1.421875 -2.203125q0.59375 -1.328125 0.59375 -2.484375q0 -0.5 -0.265625 -0.78125q-0.265625 -0.28125 -0.6875 -0.28125q-0.84375 0 -1.90625 1.1875q-1.9375 2.140625 -3.21875 6.453125zm18.728516 -8.796875l-2.65625 9.875q3.265625 -7.21875 4.921875 -8.890625q0.96875 -0.984375 2.03125 -0.984375q0.75 0 1.203125 0.546875q0.453125 0.53125 0.453125 1.515625q0 1.703125 -0.828125 2.859375q-0.53125 0.734375 -1.171875 0.734375q-0.703125 0 -1.0625 -0.640625q-0.34375 -0.65625 -0.484375 -0.765625q-0.140625 -0.125 -0.296875 -0.125q-0.1875 0 -0.375 0.109375q-0.390625 0.21875 -1.015625 1.03125q-0.625 0.8125 -1.546875 2.734375q-0.90625 1.921875 -1.421875 3.25q-0.5 1.3125 -1.40625 5.046875l-4.265625 0l2.90625 -11.65625q0.3125 -1.296875 0.3125 -1.71875q0 -0.484375 -0.171875 -0.734375q-0.15625 -0.265625 -0.453125 -0.390625q-0.28125 -0.125 -1.203125 -0.125l0.15625 -0.515625l5.3125 -1.15625l1.0625 0z" fill-rule="nonzero"/><path fill="#000000" d="m23.612131 266.2374l1.296875 12.34375q2.65625 -2.625 3.46875 -4.140625q0.8125 -1.515625 0.8125 -2.546875q0 -0.375 -0.1875 -0.765625q-0.171875 -0.390625 -0.703125 -1.078125q-0.515625 -0.6875 -0.59375 -0.859375q-0.125 -0.328125 -0.125 -0.8125q0 -0.890625 0.609375 -1.515625q0.625 -0.625 1.5625 -0.625q0.921875 0 1.46875 0.640625q0.7812481 0.90625 0.7812481 2.109375q0 1.9375 -1.8749981 5.109375q-1.859375 3.15625 -8.5 8.9375l-0.703125 0l-1.09375 -10.796875l-7.593751 10.796875l-0.75 0q0.265625 -4.890625 0.265625 -9.15625q0 -2.765625 -0.296875 -4.0q-0.1875 -0.71875 -0.640625 -1.078125q-0.4375 -0.375 -0.96875 -0.375q-0.28125 0 -0.71875 0.0625l0 -0.65625l6.046875 -1.59375q0.5 1.375 0.671875 2.578125q0.29687595 1.875 0.29687595 4.34375q0 0.890625 -0.0625 2.671875l6.796875 -9.59375l0.734375 0zm20.355467 -8.078125l-4.5625 15.828125q2.375 -3.5 3.4375 -4.71875q1.609375 -1.78125 2.75 -2.40625q1.15625 -0.625 2.203125 -0.625q0.90625 0 1.546875 0.6875q0.640625 0.671875 0.640625 1.796875q0 0.9375 -0.421875 2.375l-2.234375 7.484375q-0.296875 0.984375 -0.296875 1.3125q0 0.15625 0.125 0.296875q0.125 0.125 0.28125 0.125q0.203125 0 0.421875 -0.171875q0.5625 -0.4375 1.1875 -1.40625q0.15625 -0.25 0.515625 -0.734375l0.6875 0.375q-1.515625 2.5 -2.875 3.4375q-1.34375 0.9375 -2.5625 0.9375q-1.09375 0 -1.703125 -0.5625q-0.609375 -0.578125 -0.609375 -1.421875q0 -0.765625 0.421875 -2.1875l2.171875 -7.484375q0.21875 -0.78125 0.21875 -1.125q0 -0.203125 -0.15625 -0.34375q-0.140625 -0.15625 -0.34375 -0.15625q-0.625 0 -1.734375 1.0625q-2.28125 2.15625 -4.578125 6.78125l-1.5625 5.21875l-4.359375 0l5.765625 -19.859375q0.359375 -1.265625 0.359375 -1.8125q0 -0.4375 -0.359375 -0.6875q-0.453125 -0.328125 -1.40625 -0.28125l0.125 -0.703125l5.859375 -1.03125l1.046875 0zm16.287106 0q1.078125 0 1.828125 0.75q0.75 0.75 0.75 1.828125q0 1.078125 -0.765625 1.828125q-0.75 0.75 -1.8125 0.75q-1.0624962 0 -1.8281212 -0.75q-0.75 -0.75 -0.75 -1.828125q0 -1.078125 0.75 -1.828125q0.75 -0.75 1.8281212 -0.75zm1.078125 8.078125l-3.5937462 12.5q-0.296875 1.078125 -0.296875 1.40625q0 0.1875 0.15625 0.359375q0.15625 0.171875 0.328125 0.171875q0.296875 0 0.59375 -0.265625q0.796875 -0.65625 1.9062462 -2.359375l0.59375 0.359375q-2.6562462 4.625 -5.640621 4.625q-1.140625 0 -1.828125 -0.640625q-0.671875 -0.65625 -0.671875 -1.640625q0 -0.640625 0.296875 -1.640625l2.453125 -8.40625q0.34375 -1.21875 0.34375 -1.828125q0 -0.390625 -0.34375 -0.6875q-0.328125 -0.296875 -0.90625 -0.296875q-0.265625 0 -0.625 0.015625l0.21875 -0.703125l5.968746 -0.96875l1.046875 0zm14.220707 0l-0.765625 5.4375l-0.65625 0q-0.140625 -2.109375 -1.296875 -3.328125q-1.140625 -1.21875 -2.46875 -1.21875q-0.796875 0 -1.328125 0.484375q-0.53125 0.46875 -0.53125 1.140625q0 0.5625 0.21875 1.0625q0.234375 0.484375 1.03125 1.328125q2.78125 2.984375 3.375 4.109375q0.59375 1.125 0.59375 2.40625q0 1.390625 -0.703125 2.640625q-0.703125 1.234375 -2.109375 1.984375q-1.390625 0.75 -2.890625 0.75q-1.03125 0 -2.515625 -0.40625q-0.984375 -0.28125 -1.484375 -0.28125q-0.4375038 0 -0.6875038 0.140625q-0.234375 0.125 -0.53125 0.546875l-0.65625 0l0.859375 -5.859375l0.5625 0q0.6093788 2.125 1.1406288 3.03125q0.546875 0.90625 1.4375 1.4375q0.90625 0.53125 1.734375 0.53125q0.96875 0 1.59375 -0.59375q0.640625 -0.609375 0.640625 -1.453125q0 -0.828125 -0.421875 -1.59375q-0.40625 -0.78125 -1.90625 -2.421875q-2.0625 -2.234375 -2.703125 -3.4375q-0.453125 -0.875 -0.453125 -2.0q0 -1.90625 1.375 -3.171875q1.375 -1.265625 3.875 -1.265625q1.09375 0 2.671875 0.390625q0.796875 0.1875 1.265625 0.1875q0.6875 0 1.109375 -0.578125l0.625 0zm12.337891 -8.078125l-4.84375 16.625l4.03125 -3.734375l1.328125 -1.1875q0.578125 -0.59375 0.8125 -1.015625q0.140625 -0.265625 0.140625 -0.5q0 -0.375 -0.359375 -0.609375q-0.34375 -0.25 -1.703125 -0.34375l0.203125 -0.65625l7.140625 0l-0.171875 0.65625q-1.265625 0.296875 -2.046875 0.6875q-0.625 0.296875 -1.515625 0.984375q-1.34375 1.046875 -1.921875 1.609375l-0.765625 0.71875l1.0625 4.84375q0.625 2.8125 0.921875 3.25q0.1875 0.265625 0.453125 0.265625q0.609375 0 1.453125 -1.4375q0.125 -0.1875 0.34375 -0.546875l0.640625 0.40625q-1.3125 2.453125 -2.96875 3.75q-1.109375 0.859375 -2.0 0.859375q-0.890625 0 -1.5 -0.640625q-0.59375 -0.640625 -1.1875 -3.375l-0.875 -3.984375l-1.9375 1.71875l-1.765625 6.03125l-4.46875 0l5.828125 -19.84375q0.375 -1.265625 0.375 -1.703125q0 -0.40625 -0.1875 -0.65625q-0.171875 -0.265625 -0.484375 -0.390625q-0.296875 -0.125 -1.21875 -0.125l0.15625 -0.640625l5.984375 -1.015625l1.046875 0zm11.90625 17.78125q-0.15625 1.140625 -0.15625 1.875q0 1.328125 0.765625 2.125q0.765625 0.78125 2.046875 0.78125q1.234375 0 2.46875 -0.59375q1.234375 -0.59375 2.875 -2.09375l0.53125 0.46875q-2.03125 2.453125 -3.953125 3.5q-1.90625 1.03125 -4.21875 1.03125q-2.9375 0 -4.0625 -1.40625q-1.125 -1.421875 -1.125 -3.265625q0 -2.875 1.671875 -5.75q1.6875 -2.890625 4.578125 -4.625q2.890625 -1.75 5.796875 -1.75q1.484375 0 2.234375 0.703125q0.765625 0.703125 0.765625 1.78125q0 1.28125 -0.75 2.484375q-1.015625 1.65625 -2.5625 2.671875q-1.546875 1.015625 -3.453125 1.53125q-1.296875 0.359375 -3.453125 0.53125zm0.15625 -0.90625q1.546875 -0.234375 2.390625 -0.625q0.859375 -0.40625 1.671875 -1.265625q0.828125 -0.875 1.421875 -2.203125q0.59375 -1.328125 0.59375 -2.484375q0 -0.5 -0.265625 -0.78125q-0.265625 -0.28125 -0.6875 -0.28125q-0.84375 0 -1.90625 1.1875q-1.9375 2.140625 -3.21875 6.453125zm18.728516 -8.796875l-2.65625 9.875q3.265625 -7.21875 4.921875 -8.890625q0.96875 -0.984375 2.03125 -0.984375q0.75 0 1.203125 0.546875q0.453125 0.53125 0.453125 1.515625q0 1.703125 -0.828125 2.859375q-0.53125 0.734375 -1.171875 0.734375q-0.703125 0 -1.0625 -0.640625q-0.34375 -0.65625 -0.484375 -0.765625q-0.140625 -0.125 -0.296875 -0.125q-0.1875 0 -0.375 0.109375q-0.390625 0.21875 -1.015625 1.03125q-0.625 0.8125 -1.546875 2.734375q-0.90625 1.921875 -1.421875 3.25q-0.5 1.3125 -1.40625 5.046875l-4.265625 0l2.90625 -11.65625q0.3125 -1.296875 0.3125 -1.71875q0 -0.484375 -0.171875 -0.734375q-0.15625 -0.265625 -0.453125 -0.390625q-0.28125 -0.125 -1.203125 -0.125l0.15625 -0.515625l5.3125 -1.15625l1.0625 0z" fill-rule="nonzero"/><path fill="#000000" fill-opacity="0.0" d="m636.35956 195.77428l140.12598 0l0 106.645676l-140.12598 0z" fill-rule="evenodd"/><path fill="#000000" d="m672.98016 223.0374l-3.40625 11.953125q-0.25 0.828125 -0.25 1.140625q0 0.15625 0.125 0.25q0.140625 0.140625 0.328125 0.140625q0.8125 0 2.171875 -1.4375q1.921875 -2.09375 4.0625 -6.015625l1.59375 -5.375l4.453125 -0.15625l-3.375 11.59375q-0.421875 1.484375 -0.421875 1.6875q0 0.140625 0.125 0.296875q0.125 0.140625 0.265625 0.140625q0.25 0 0.484375 -0.203125q0.625 -0.515625 1.671875 -2.0625l0.59375 0.421875q-2.4375 4.421875 -5.375 4.421875q-1.09375 0 -1.71875 -0.546875q-0.625 -0.5625 -0.625 -1.46875q0 -0.953125 0.4375 -2.40625l0.859375 -2.96875q-2.28125 3.328125 -3.3125 4.484375q-1.59375 1.734375 -2.671875 2.328125q-1.078125 0.578125 -2.0625 0.578125q-0.9375 0 -1.609375 -0.6875q-0.671875 -0.6875 -0.671875 -1.75q0 -0.890625 0.4375 -2.40625l1.984375 -7.03125q0.5 -1.71875 0.5 -2.3125q0 -0.265625 -0.140625 -0.46875q-0.140625 -0.203125 -0.46875 -0.3125q-0.328125 -0.125 -1.203125 -0.125l0.171875 -0.671875l6.0 -1.03125l1.046875 0zm12.646484 0.984375l5.8125 -0.984375l1.046875 0l-0.78125 2.859375q1.84375 -1.6875 3.015625 -2.265625q1.1875 -0.59375 2.34375 -0.59375q1.65625 0 2.546875 1.28125q0.890625 1.265625 0.890625 3.109375q0 5.046875 -3.484375 8.953125q-3.09375 3.453125 -6.75 3.453125q-0.65625 0 -1.125 -0.125q-0.453125 -0.125 -1.265625 -0.546875l-0.921875 3.15625q-0.484375 1.734375 -0.484375 2.625q0 0.5625 0.375 0.890625q0.390625 0.328125 1.8125 0.546875l-0.15625 0.65625l-9.453125 0l0.171875 -0.65625q1.125 -0.03125 1.875 -0.71875q0.75 -0.6875 1.390625 -2.953125l4.296875 -14.78125q0.46875 -1.65625 0.46875 -2.34375q0 -0.296875 -0.140625 -0.5q-0.140625 -0.203125 -0.421875 -0.28125q-0.28125 -0.09375 -1.265625 -0.09375l0.203125 -0.6875zm2.734375 13.5q0.53125 0.859375 0.953125 1.15625q0.421875 0.28125 0.984375 0.28125q0.5625 0 1.09375 -0.296875q0.53125 -0.3125 1.328125 -1.234375q0.796875 -0.9375 1.515625 -2.390625q0.734375 -1.46875 1.171875 -3.3125q0.4375 -1.859375 0.4375 -3.546875q0 -1.359375 -0.484375 -1.96875q-0.484375 -0.625 -1.15625 -0.625q-0.625 0 -1.171875 0.3125q-0.78125 0.46875 -1.859375 1.71875l-2.8125 9.90625zm15.265625 -13.5l5.8125 -0.984375l1.046875 0l-0.78125 2.859375q1.84375 -1.6875 3.015625 -2.265625q1.1875 -0.59375 2.34375 -0.59375q1.65625 0 2.546875 1.28125q0.890625 1.265625 0.890625 3.109375q0 5.046875 -3.484375 8.953125q-3.09375 3.453125 -6.75 3.453125q-0.65625 0 -1.125 -0.125q-0.453125 -0.125 -1.265625 -0.546875l-0.921875 3.15625q-0.484375 1.734375 -0.484375 2.625q0 0.5625 0.375 0.890625q0.390625 0.328125 1.8125 0.546875l-0.15625 0.65625l-9.453125 0l0.171875 -0.65625q1.125 -0.03125 1.875 -0.71875q0.75 -0.6875 1.390625 -2.953125l4.296875 -14.78125q0.46875 -1.65625 0.46875 -2.34375q0 -0.296875 -0.140625 -0.5q-0.140625 -0.203125 -0.421875 -0.28125q-0.28125 -0.09375 -1.265625 -0.09375l0.203125 -0.6875zm2.734375 13.5q0.53125 0.859375 0.953125 1.15625q0.421875 0.28125 0.984375 0.28125q0.5625 0 1.09375 -0.296875q0.53125 -0.3125 1.328125 -1.234375q0.796875 -0.9375 1.515625 -2.390625q0.734375 -1.46875 1.171875 -3.3125q0.4375 -1.859375 0.4375 -3.546875q0 -1.359375 -0.484375 -1.96875q-0.484375 -0.625 -1.15625 -0.625q-0.625 0 -1.171875 0.3125q-0.78125 0.46875 -1.859375 1.71875l-2.8125 9.90625zm18.703125 -4.78125q-0.15625 1.140625 -0.15625 1.875q0 1.328125 0.765625 2.125q0.765625 0.78125 2.046875 0.78125q1.234375 0 2.46875 -0.59375q1.234375 -0.59375 2.875 -2.09375l0.53125 0.46875q-2.03125 2.453125 -3.953125 3.5q-1.90625 1.03125 -4.21875 1.03125q-2.9375 0 -4.0625 -1.40625q-1.125 -1.421875 -1.125 -3.265625q0 -2.875 1.671875 -5.75q1.6875 -2.890625 4.578125 -4.625q2.890625 -1.75 5.796875 -1.75q1.484375 0 2.234375 0.703125q0.765625 0.703125 0.765625 1.78125q0 1.28125 -0.75 2.484375q-1.015625 1.65625 -2.5625 2.671875q-1.546875 1.015625 -3.453125 1.53125q-1.296875 0.359375 -3.453125 0.53125zm0.15625 -0.90625q1.546875 -0.234375 2.390625 -0.625q0.859375 -0.40625 1.671875 -1.265625q0.828125 -0.875 1.421875 -2.203125q0.59375 -1.328125 0.59375 -2.484375q0 -0.5 -0.265625 -0.78125q-0.265625 -0.28125 -0.6875 -0.28125q-0.84375 0 -1.90625 1.1875q-1.9375 2.140625 -3.21875 6.453125zm18.728516 -8.796875l-2.65625 9.875q3.265625 -7.21875 4.921875 -8.890625q0.96875 -0.984375 2.03125 -0.984375q0.75 0 1.203125 0.546875q0.453125 0.53125 0.453125 1.515625q0 1.703125 -0.828125 2.859375q-0.53125 0.734375 -1.171875 0.734375q-0.703125 0 -1.0625 -0.640625q-0.34375 -0.65625 -0.484375 -0.765625q-0.140625 -0.125 -0.296875 -0.125q-0.1875 0 -0.375 0.109375q-0.390625 0.21875 -1.015625 1.03125q-0.625 0.8125 -1.546875 2.734375q-0.90625 1.921875 -1.421875 3.25q-0.5 1.3125 -1.40625 5.046875l-4.265625 0l2.90625 -11.65625q0.3125 -1.296875 0.3125 -1.71875q0 -0.484375 -0.171875 -0.734375q-0.15625 -0.265625 -0.453125 -0.390625q-0.28125 -0.125 -1.203125 -0.125l0.15625 -0.515625l5.3125 -1.15625l1.0625 0z" fill-rule="nonzero"/><path fill="#000000" d="m663.8903 266.2374l1.296875 12.34375q2.65625 -2.625 3.46875 -4.140625q0.8125 -1.515625 0.8125 -2.546875q0 -0.375 -0.1875 -0.765625q-0.171875 -0.390625 -0.703125 -1.078125q-0.515625 -0.6875 -0.59375 -0.859375q-0.125 -0.328125 -0.125 -0.8125q0 -0.890625 0.609375 -1.515625q0.625 -0.625 1.5625 -0.625q0.921875 0 1.46875 0.640625q0.78125 0.90625 0.78125 2.109375q0 1.9375 -1.875 5.109375q-1.859375 3.15625 -8.5 8.9375l-0.703125 0l-1.09375 -10.796875l-7.59375 10.796875l-0.75 0q0.265625 -4.890625 0.265625 -9.15625q0 -2.765625 -0.296875 -4.0q-0.1875 -0.71875 -0.640625 -1.078125q-0.4375 -0.375 -0.96875 -0.375q-0.28125 0 -0.71875 0.0625l0 -0.65625l6.046875 -1.59375q0.5 1.375 0.671875 2.578125q0.296875 1.875 0.296875 4.34375q0 0.890625 -0.0625 2.671875l6.796875 -9.59375l0.734375 0zm20.355469 -8.078125l-4.5625 15.828125q2.375 -3.5 3.4375 -4.71875q1.609375 -1.78125 2.75 -2.40625q1.15625 -0.625 2.203125 -0.625q0.90625 0 1.546875 0.6875q0.640625 0.671875 0.640625 1.796875q0 0.9375 -0.421875 2.375l-2.234375 7.484375q-0.296875 0.984375 -0.296875 1.3125q0 0.15625 0.125 0.296875q0.125 0.125 0.28125 0.125q0.203125 0 0.421875 -0.171875q0.5625 -0.4375 1.1875 -1.40625q0.15625 -0.25 0.515625 -0.734375l0.6875 0.375q-1.515625 2.5 -2.875 3.4375q-1.34375 0.9375 -2.5625 0.9375q-1.09375 0 -1.703125 -0.5625q-0.609375 -0.578125 -0.609375 -1.421875q0 -0.765625 0.421875 -2.1875l2.171875 -7.484375q0.21875 -0.78125 0.21875 -1.125q0 -0.203125 -0.15625 -0.34375q-0.140625 -0.15625 -0.34375 -0.15625q-0.625 0 -1.734375 1.0625q-2.28125 2.15625 -4.578125 6.78125l-1.5625 5.21875l-4.359375 0l5.765625 -19.859375q0.359375 -1.265625 0.359375 -1.8125q0 -0.4375 -0.359375 -0.6875q-0.453125 -0.328125 -1.40625 -0.28125l0.125 -0.703125l5.859375 -1.03125l1.046875 0zm16.28711 0q1.078125 0 1.828125 0.75q0.75 0.75 0.75 1.828125q0 1.078125 -0.765625 1.828125q-0.75 0.75 -1.8125 0.75q-1.0625 0 -1.828125 -0.75q-0.75 -0.75 -0.75 -1.828125q0 -1.078125 0.75 -1.828125q0.75 -0.75 1.828125 -0.75zm1.078125 8.078125l-3.59375 12.5q-0.296875 1.078125 -0.296875 1.40625q0 0.1875 0.15625 0.359375q0.15625 0.171875 0.328125 0.171875q0.296875 0 0.59375 -0.265625q0.796875 -0.65625 1.90625 -2.359375l0.59375 0.359375q-2.65625 4.625 -5.640625 4.625q-1.140625 0 -1.828125 -0.640625q-0.671875 -0.65625 -0.671875 -1.640625q0 -0.640625 0.296875 -1.640625l2.453125 -8.40625q0.34375 -1.21875 0.34375 -1.828125q0 -0.390625 -0.34375 -0.6875q-0.328125 -0.296875 -0.90625 -0.296875q-0.265625 0 -0.625 0.015625l0.21875 -0.703125l5.96875 -0.96875l1.046875 0zm14.220703 0l-0.765625 5.4375l-0.65625 0q-0.140625 -2.109375 -1.296875 -3.328125q-1.140625 -1.21875 -2.46875 -1.21875q-0.796875 0 -1.328125 0.484375q-0.53125 0.46875 -0.53125 1.140625q0 0.5625 0.21875 1.0625q0.234375 0.484375 1.03125 1.328125q2.78125 2.984375 3.375 4.109375q0.59375 1.125 0.59375 2.40625q0 1.390625 -0.703125 2.640625q-0.703125 1.234375 -2.109375 1.984375q-1.390625 0.75 -2.890625 0.75q-1.03125 0 -2.515625 -0.40625q-0.984375 -0.28125 -1.484375 -0.28125q-0.4375 0 -0.6875 0.140625q-0.234375 0.125 -0.53125 0.546875l-0.65625 0l0.859375 -5.859375l0.5625 0q0.609375 2.125 1.140625 3.03125q0.546875 0.90625 1.4375 1.4375q0.90625 0.53125 1.734375 0.53125q0.96875 0 1.59375 -0.59375q0.640625 -0.609375 0.640625 -1.453125q0 -0.828125 -0.421875 -1.59375q-0.40625 -0.78125 -1.90625 -2.421875q-2.0625 -2.234375 -2.703125 -3.4375q-0.453125 -0.875 -0.453125 -2.0q0 -1.90625 1.375 -3.171875q1.375 -1.265625 3.875 -1.265625q1.09375 0 2.671875 0.390625q0.796875 0.1875 1.265625 0.1875q0.6875 0 1.109375 -0.578125l0.625 0zm12.337891 -8.078125l-4.84375 16.625l4.03125 -3.734375l1.328125 -1.1875q0.578125 -0.59375 0.8125 -1.015625q0.140625 -0.265625 0.140625 -0.5q0 -0.375 -0.359375 -0.609375q-0.34375 -0.25 -1.703125 -0.34375l0.203125 -0.65625l7.140625 0l-0.171875 0.65625q-1.265625 0.296875 -2.046875 0.6875q-0.625 0.296875 -1.515625 0.984375q-1.34375 1.046875 -1.921875 1.609375l-0.765625 0.71875l1.0625 4.84375q0.625 2.8125 0.921875 3.25q0.1875 0.265625 0.453125 0.265625q0.609375 0 1.453125 -1.4375q0.125 -0.1875 0.34375 -0.546875l0.640625 0.40625q-1.3125 2.453125 -2.96875 3.75q-1.109375 0.859375 -2.0 0.859375q-0.890625 0 -1.5 -0.640625q-0.59375 -0.640625 -1.1875 -3.375l-0.875 -3.984375l-1.9375 1.71875l-1.765625 6.03125l-4.46875 0l5.828125 -19.84375q0.375 -1.265625 0.375 -1.703125q0 -0.40625 -0.1875 -0.65625q-0.171875 -0.265625 -0.484375 -0.390625q-0.296875 -0.125 -1.21875 -0.125l0.15625 -0.640625l5.984375 -1.015625l1.046875 0zm11.90625 17.78125q-0.15625 1.140625 -0.15625 1.875q0 1.328125 0.765625 2.125q0.765625 0.78125 2.046875 0.78125q1.234375 0 2.46875 -0.59375q1.234375 -0.59375 2.875 -2.09375l0.53125 0.46875q-2.03125 2.453125 -3.953125 3.5q-1.90625 1.03125 -4.21875 1.03125q-2.9375 0 -4.0625 -1.40625q-1.125 -1.421875 -1.125 -3.265625q0 -2.875 1.671875 -5.75q1.6875 -2.890625 4.578125 -4.625q2.890625 -1.75 5.796875 -1.75q1.484375 0 2.234375 0.703125q0.765625 0.703125 0.765625 1.78125q0 1.28125 -0.75 2.484375q-1.015625 1.65625 -2.5625 2.671875q-1.546875 1.015625 -3.453125 1.53125q-1.296875 0.359375 -3.453125 0.53125zm0.15625 -0.90625q1.546875 -0.234375 2.390625 -0.625q0.859375 -0.40625 1.671875 -1.265625q0.828125 -0.875 1.421875 -2.203125q0.59375 -1.328125 0.59375 -2.484375q0 -0.5 -0.265625 -0.78125q-0.265625 -0.28125 -0.6875 -0.28125q-0.84375 0 -1.90625 1.1875q-1.9375 2.140625 -3.21875 6.453125zm18.728516 -8.796875l-2.65625 9.875q3.265625 -7.21875 4.921875 -8.890625q0.96875 -0.984375 2.03125 -0.984375q0.75 0 1.203125 0.546875q0.453125 0.53125 0.453125 1.515625q0 1.703125 -0.828125 2.859375q-0.53125 0.734375 -1.171875 0.734375q-0.703125 0 -1.0625 -0.640625q-0.34375 -0.65625 -0.484375 -0.765625q-0.140625 -0.125 -0.296875 -0.125q-0.1875 0 -0.375 0.109375q-0.390625 0.21875 -1.015625 1.03125q-0.625 0.8125 -1.546875 2.734375q-0.90625 1.921875 -1.421875 3.25q-0.5 1.3125 -1.40625 5.046875l-4.265625 0l2.90625 -11.65625q0.3125 -1.296875 0.3125 -1.71875q0 -0.484375 -0.171875 -0.734375q-0.15625 -0.265625 -0.453125 -0.390625q-0.28125 -0.125 -1.203125 -0.125l0.15625 -0.515625l5.3125 -1.15625l1.0625 0z" fill-rule="nonzero"/><path fill="#000000" fill-opacity="0.0" d="m733.8924 149.2546c0 -3.1136627 2.524109 -5.637802 5.6378174 -5.637802l34.937317 0c3.1137085 0 5.6378174 -2.5241241 5.6378174 -5.637787l0 0c0 3.1136627 2.524109 5.637787 5.6378174 5.637787l31.298828 0l0 0c3.1136475 0 5.6378174 2.5241394 5.6378174 5.637802z" fill-rule="evenodd"/><path fill="#000000" fill-opacity="0.0" d="m733.8924 149.2546c0 -3.1136627 2.524109 -5.637802 5.6378174 -5.637802l34.937317 0c3.1137085 0 5.6378174 -2.5241241 5.6378174 -5.637787l0 0c0 3.1136627 2.524109 5.637787 5.6378174 5.637787l31.298828 0l0 0c3.1136475 0 5.6378174 2.5241394 5.6378174 5.637802" fill-rule="evenodd"/><path stroke="#000000" stroke-width="2.0" stroke-linejoin="round" stroke-linecap="butt" d="m733.8924 149.2546c0 -3.1136627 2.524109 -5.637802 5.6378174 -5.637802l34.937317 0c3.1137085 0 5.6378174 -2.5241241 5.6378174 -5.637787l0 0c0 3.1136627 2.524109 5.637787 5.6378174 5.637787l31.298828 0l0 0c3.1136475 0 5.6378174 2.5241394 5.6378174 5.637802" fill-rule="evenodd"/><path fill="#000000" fill-opacity="0.0" d="m708.2231 74.95538l140.12598 0l0 63.02362l-140.12598 0z" fill-rule="evenodd"/><path fill="#000000" d="m734.1015 102.218506q1.390625 0 2.609375 0.640625q1.21875 0.640625 1.84375 1.78125q0.625 1.140625 0.625 2.53125q0 2.859375 -1.59375 5.703125q-1.578125 2.84375 -4.1875 4.5q-2.59375 1.640625 -5.234375 1.640625q-2.390625 0 -3.703125 -1.421875q-1.3125 -1.4375 -1.3125 -3.484375q0 -2.453125 0.96875 -4.578125q0.984375 -2.140625 2.484375 -3.734375q1.515625 -1.59375 3.453125 -2.578125q1.953125 -1.0 4.046875 -1.0zm-0.71875 0.9375q-0.9375 0 -1.546875 0.546875q-1.234375 1.09375 -2.78125 5.171875q-1.546875 4.0625 -1.546875 7.34375q0 0.796875 0.484375 1.328125q0.5 0.53125 1.171875 0.53125q0.6875 0 1.21875 -0.421875q0.765625 -0.640625 1.890625 -2.84375q1.125 -2.203125 1.84375 -4.859375q0.71875 -2.671875 0.71875 -4.890625q0 -0.90625 -0.4375 -1.40625q-0.4375 -0.5 -1.015625 -0.5zm16.453125 -0.9375l-3.40625 11.953125q-0.25 0.828125 -0.25 1.140625q0 0.15625 0.125 0.25q0.140625 0.140625 0.328125 0.140625q0.8125 0 2.171875 -1.4375q1.921875 -2.09375 4.0625 -6.015625l1.59375 -5.375l4.453125 -0.15625l-3.375 11.59375q-0.421875 1.484375 -0.421875 1.6875q0 0.140625 0.125 0.296875q0.125 0.140625 0.265625 0.140625q0.25 0 0.484375 -0.203125q0.625 -0.515625 1.671875 -2.0625l0.59375 0.421875q-2.4375 4.421875 -5.375 4.421875q-1.09375 0 -1.71875 -0.546875q-0.625 -0.5625 -0.625 -1.46875q0 -0.953125 0.4375 -2.40625l0.859375 -2.96875q-2.28125 3.328125 -3.3125 4.484375q-1.59375 1.734375 -2.671875 2.328125q-1.078125 0.578125 -2.0625 0.578125q-0.9375 0 -1.609375 -0.6875q-0.671875 -0.6875 -0.671875 -1.75q0 -0.890625 0.4375 -2.40625l1.984375 -7.03125q0.5 -1.71875 0.5 -2.3125q0 -0.265625 -0.140625 -0.46875q-0.140625 -0.203125 -0.46875 -0.3125q-0.328125 -0.125 -1.203125 -0.125l0.171875 -0.671875l6.0 -1.03125l1.046875 0zm20.771484 -4.28125l-1.40625 4.78125l2.3125 0l-0.625 2.015625l-2.265625 0l-2.9375 10.1875q-0.28125 0.953125 -0.28125 1.453125q0 0.21875 0.15625 0.390625q0.171875 0.171875 0.359375 0.171875q0.296875 0 0.609375 -0.25q0.8125 -0.609375 1.890625 -2.140625l0.609375 0.375q-1.203125 2.109375 -2.671875 3.109375q-1.453125 0.984375 -2.859375 0.984375q-1.203125 0 -1.859375 -0.609375q-0.65625 -0.609375 -0.65625 -1.546875q0 -1.015625 0.453125 -2.609375l2.78125 -9.515625l-2.390625 0l0.34375 -1.296875q2.25 -0.828125 3.796875 -1.9375q1.546875 -1.109375 3.734375 -3.5625l0.90625 0zm11.080078 -3.796875l-5.8125 19.78125q-0.515625 1.765625 -0.515625 2.203125q0 0.234375 0.140625 0.390625q0.15625 0.15625 0.328125 0.15625q0.328125 0 0.609375 -0.25q0.84375 -0.6875 1.875 -2.3125l0.6875 0.3125q-1.671875 2.671875 -3.28125 3.8125q-1.109375 0.78125 -2.359375 0.78125q-1.15625 0 -1.84375 -0.625q-0.6875 -0.625 -0.6875 -1.515625q0 -0.640625 0.421875 -2.09375l4.75 -16.203125q0.375 -1.328125 0.375 -1.765625q0 -0.421875 -0.359375 -0.671875q-0.5 -0.359375 -1.5 -0.296875l0.1875 -0.671875l5.9375 -1.03125l1.046875 0zm6.705078 0q1.078125 0 1.828125 0.75q0.75 0.75 0.75 1.828125q0 1.078125 -0.765625 1.828125q-0.75 0.75 -1.8125 0.75q-1.0625 0 -1.828125 -0.75q-0.75 -0.75 -0.75 -1.828125q0 -1.078125 0.75 -1.828125q0.75 -0.75 1.828125 -0.75zm1.078125 8.078125l-3.59375 12.5q-0.296875 1.078125 -0.296875 1.40625q0 0.1875 0.15625 0.359375q0.15625 0.171875 0.328125 0.171875q0.296875 0 0.59375 -0.265625q0.796875 -0.65625 1.90625 -2.359375l0.59375 0.359375q-2.65625 4.625 -5.640625 4.625q-1.140625 0 -1.828125 -0.640625q-0.671875 -0.65625 -0.671875 -1.640625q0 -0.640625 0.296875 -1.640625l2.453125 -8.40625q0.34375 -1.21875 0.34375 -1.828125q0 -0.390625 -0.34375 -0.6875q-0.328125 -0.296875 -0.90625 -0.296875q-0.265625 0 -0.625 0.015625l0.21875 -0.703125l5.96875 -0.96875l1.046875 0zm6.455078 9.703125q-0.15625 1.140625 -0.15625 1.875q0 1.328125 0.765625 2.125q0.765625 0.78125 2.046875 0.78125q1.234375 0 2.46875 -0.59375q1.234375 -0.59375 2.875 -2.09375l0.53125 0.46875q-2.03125 2.453125 -3.953125 3.5q-1.90625 1.03125 -4.21875 1.03125q-2.9375 0 -4.0625 -1.40625q-1.125 -1.421875 -1.125 -3.265625q0 -2.875 1.671875 -5.75q1.6875 -2.890625 4.578125 -4.625q2.890625 -1.75 5.796875 -1.75q1.484375 0 2.234375 0.703125q0.765625 0.703125 0.765625 1.78125q0 1.28125 -0.75 2.484375q-1.015625 1.65625 -2.5625 2.671875q-1.546875 1.015625 -3.453125 1.53125q-1.296875 0.359375 -3.453125 0.53125zm0.15625 -0.90625q1.546875 -0.234375 2.390625 -0.625q0.859375 -0.40625 1.671875 -1.265625q0.828125 -0.875 1.421875 -2.203125q0.59375 -1.328125 0.59375 -2.484375q0 -0.5 -0.265625 -0.78125q-0.265625 -0.28125 -0.6875 -0.28125q-0.84375 0 -1.90625 1.1875q-1.9375 2.140625 -3.21875 6.453125zm18.728516 -8.796875l-2.65625 9.875q3.265625 -7.21875 4.921875 -8.890625q0.96875 -0.984375 2.03125 -0.984375q0.75 0 1.203125 0.546875q0.453125 0.53125 0.453125 1.515625q0 1.703125 -0.828125 2.859375q-0.53125 0.734375 -1.171875 0.734375q-0.703125 0 -1.0625 -0.640625q-0.34375 -0.65625 -0.484375 -0.765625q-0.140625 -0.125 -0.296875 -0.125q-0.1875 0 -0.375 0.109375q-0.390625 0.21875 -1.015625 1.03125q-0.625 0.8125 -1.546875 2.734375q-0.90625 1.921875 -1.421875 3.25q-0.5 1.3125 -1.40625 5.046875l-4.265625 0l2.90625 -11.65625q0.3125 -1.296875 0.3125 -1.71875q0 -0.484375 -0.171875 -0.734375q-0.15625 -0.265625 -0.453125 -0.390625q-0.28125 -0.125 -1.203125 -0.125l0.15625 -0.515625l5.3125 -1.15625l1.0625 0zm18.86914 0l-0.765625 5.4375l-0.65625 0q-0.140625 -2.109375 -1.296875 -3.328125q-1.140625 -1.21875 -2.46875 -1.21875q-0.796875 0 -1.328125 0.484375q-0.53125 0.46875 -0.53125 1.140625q0 0.5625 0.21875 1.0625q0.234375 0.484375 1.03125 1.328125q2.78125 2.984375 3.375 4.109375q0.59375 1.125 0.59375 2.40625q0 1.390625 -0.703125 2.640625q-0.703125 1.234375 -2.109375 1.984375q-1.390625 0.75 -2.890625 0.75q-1.03125 0 -2.515625 -0.40625q-0.984375 -0.28125 -1.484375 -0.28125q-0.4375 0 -0.6875 0.140625q-0.234375 0.125 -0.53125 0.546875l-0.65625 0l0.859375 -5.859375l0.5625 0q0.609375 2.125 1.140625 3.03125q0.546875 0.90625 1.4375 1.4375q0.90625 0.53125 1.734375 0.53125q0.96875 0 1.59375 -0.59375q0.640625 -0.609375 0.640625 -1.453125q0 -0.828125 -0.421875 -1.59375q-0.40625 -0.78125 -1.90625 -2.421875q-2.0625 -2.234375 -2.703125 -3.4375q-0.453125 -0.875 -0.453125 -2.0q0 -1.90625 1.375 -3.171875q1.375 -1.265625 3.875 -1.265625q1.09375 0 2.671875 0.390625q0.796875 0.1875 1.265625 0.1875q0.6875 0 1.109375 -0.578125l0.625 0z" fill-rule="nonzero"/></g></svg>