<svg version="1.1" viewBox="0.0 0.0 797.5564304461942 552.1548556430446" fill="none" stroke="none" stroke-linecap="square" stroke-miterlimit="10" xmlns:xlink="http://www.w3.org/1999/xlink" xmlns="http://www.w3.org/2000/svg"><clipPath id="p.0"><path d="m0 0l797.55646 0l0 552.15485l-797.55646 0l0 -552.15485z" clip-rule="nonzero"/></clipPath><g clip-path="url(#p.0)"><path fill="#000000" fill-opacity="0.0" d="m0 0l797.55646 0l0 552.15485l-797.55646 0z" fill-rule="evenodd"/><path fill="#000000" fill-opacity="0.0" d="m50.929134 491.958l0 -450.29922" fill-rule="evenodd"/><path stroke="#000000" stroke-width="4.0" stroke-linejoin="round" stroke-linecap="butt" d="m50.929134 491.958l0 -426.29922" fill-rule="evenodd"/><path fill="#000000" stroke="#000000" stroke-width="4.0" stroke-linecap="butt" d="m57.536064 65.65879l-6.60693 -18.15239l-6.60693 18.15239z" fill-rule="evenodd"/><path fill="#000000" fill-opacity="0.0" d="m50.929134 491.958l731.5906 0" fill-rule="evenodd"/><path stroke="#000000" stroke-width="4.0" stroke-linejoin="round" stroke-linecap="butt" d="m50.929134 491.958l707.5906 0" fill-rule="evenodd"/><path fill="#000000" stroke="#000000" stroke-width="4.0" stroke-linecap="butt" d="m758.5197 498.56494l18.152344 -6.6069336l-18.152344 -6.6069336z" fill-rule="evenodd"/><path fill="#cfe2f3" d="m156.26509 424.79266l0 0c0 -7.036194 5.703964 -12.740173 12.740158 -12.740173l0 0c3.3789062 0 6.6194153 1.3422546 9.008652 3.7315063c2.3892365 2.3892517 3.7315063 5.6297607 3.7315063 9.008667l0 0c0 7.036194 -5.703964 12.740143 -12.740158 12.740143l0 0c-7.036194 0 -12.740158 -5.703949 -12.740158 -12.740143z" fill-rule="evenodd"/><path stroke="#000000" stroke-width="2.0" stroke-linejoin="round" stroke-linecap="butt" d="m156.26509 424.79266l0 0c0 -7.036194 5.703964 -12.740173 12.740158 -12.740173l0 0c3.3789062 0 6.6194153 1.3422546 9.008652 3.7315063c2.3892365 2.3892517 3.7315063 5.6297607 3.7315063 9.008667l0 0c0 7.036194 -5.703964 12.740143 -12.740158 12.740143l0 0c-7.036194 0 -12.740158 -5.703949 -12.740158 -12.740143z" fill-rule="evenodd"/><path fill="#cfe2f3" d="m231.29921 266.8084l0 0c0 -7.036194 5.703964 -12.740173 12.740158 -12.740173l0 0c3.3789062 0 6.6194153 1.3422699 9.008652 3.7315063c2.3892517 2.3892517 3.7315216 5.6297607 3.7315216 9.008667l0 0c0 7.036194 -5.7039795 12.740143 -12.740173 12.740143l0 0c-7.036194 0 -12.740158 -5.703949 -12.740158 -12.740143z" fill-rule="evenodd"/><path stroke="#000000" stroke-width="2.0" stroke-linejoin="round" stroke-linecap="butt" d="m231.29921 266.8084l0 0c0 -7.036194 5.703964 -12.740173 12.740158 -12.740173l0 0c3.3789062 0 6.6194153 1.3422699 9.008652 3.7315063c2.3892517 2.3892517 3.7315216 5.6297607 3.7315216 9.008667l0 0c0 7.036194 -5.7039795 12.740143 -12.740173 12.740143l0 0c-7.036194 0 -12.740158 -5.703949 -12.740158 -12.740143z" fill-rule="evenodd"/><path fill="#cfe2f3" d="m413.98688 399.31235l0 0c0 -7.036194 5.703949 -12.740173 12.740143 -12.740173l0 0c3.3789062 0 6.6194153 1.3422546 9.008667 3.7315063c2.3892517 2.3892517 3.7315063 5.6297607 3.7315063 9.008667l0 0c0 7.036194 -5.7039795 12.740143 -12.740173 12.740143l0 0c-7.036194 0 -12.740143 -5.703949 -12.740143 -12.740143z" fill-rule="evenodd"/><path stroke="#000000" stroke-width="2.0" stroke-linejoin="round" stroke-linecap="butt" d="m413.98688 399.31235l0 0c0 -7.036194 5.703949 -12.740173 12.740143 -12.740173l0 0c3.3789062 0 6.6194153 1.3422546 9.008667 3.7315063c2.3892517 2.3892517 3.7315063 5.6297607 3.7315063 9.008667l0 0c0 7.036194 -5.7039795 12.740143 -12.740173 12.740143l0 0c-7.036194 0 -12.740143 -5.703949 -12.740143 -12.740143z" fill-rule="evenodd"/><path fill="#cfe2f3" d="m451.02887 166.07349l0 0c0 -7.036194 5.7039795 -12.740158 12.740173 -12.740158l0 0c3.3788757 0 6.619385 1.3422699 9.008636 3.7315063c2.3892517 2.3892517 3.7315063 5.6297607 3.7315063 9.008652l0 0c0 7.036194 -5.703949 12.740158 -12.740143 12.740158l0 0c-7.036194 0 -12.740173 -5.703964 -12.740173 -12.740158z" fill-rule="evenodd"/><path stroke="#000000" stroke-width="2.0" stroke-linejoin="round" stroke-linecap="butt" d="m451.02887 166.07349l0 0c0 -7.036194 5.7039795 -12.740158 12.740173 -12.740158l0 0c3.3788757 0 6.619385 1.3422699 9.008636 3.7315063c2.3892517 2.3892517 3.7315063 5.6297607 3.7315063 9.008652l0 0c0 7.036194 -5.703949 12.740158 -12.740143 12.740158l0 0c-7.036194 0 -12.740173 -5.703964 -12.740173 -12.740158z" fill-rule="evenodd"/><path fill="#cfe2f3" d="m619.61945 266.8084l0 0c0 -7.036194 5.7039185 -12.740173 12.740112 -12.740173l0 0c3.3789062 0 6.619446 1.3422699 9.008667 3.7315063c2.3892212 2.3892517 3.7315063 5.6297607 3.7315063 9.008667l0 0c0 7.036194 -5.7039795 12.740143 -12.740173 12.740143l0 0c-7.036194 0 -12.740112 -5.703949 -12.740112 -12.740143z" fill-rule="evenodd"/><path stroke="#000000" stroke-width="2.0" stroke-linejoin="round" stroke-linecap="butt" d="m619.61945 266.8084l0 0c0 -7.036194 5.7039185 -12.740173 12.740112 -12.740173l0 0c3.3789062 0 6.619446 1.3422699 9.008667 3.7315063c2.3892212 2.3892517 3.7315063 5.6297607 3.7315063 9.008667l0 0c0 7.036194 -5.7039795 12.740143 -12.740173 12.740143l0 0c-7.036194 0 -12.740112 -5.703949 -12.740112 -12.740143z" fill-rule="evenodd"/><path fill="#000000" fill-opacity="0.0" d="m0 0l50.929134 0l0 67.874016l-50.929134 0z" fill-rule="evenodd"/><path fill="#000000" d="m19.59375 35.696873l-2.234375 -9.640625q-0.5625 -2.5 -1.359375 -3.421875q-0.609375 -0.703125 -2.21875 -1.0l0.21875 -0.71875l12.71875 0l-0.234375 0.71875q-1.859375 0 -2.71875 0.75q-0.84375 0.75 -0.84375 1.796875q0 0.640625 0.359375 2.234375l1.71875 7.84375l4.28125 -5.90625q1.640625 -2.265625 2.046875 -3.1875q0.40625 -0.9375 0.40625 -1.640625q0 -0.703125 -0.53125 -1.21875q-0.515625 -0.53125 -1.6875 -0.671875l0.203125 -0.71875l7.953125 0l0 0.71875q-1.078125 0.125 -1.859375 0.71875q-0.78125 0.578125 -3.046875 3.703125l-7.515625 10.34375l-1.75 6.140625q-0.578125 1.890625 -0.578125 2.203125q0 0.84375 0.640625 1.390625q0.65625 0.546875 2.171875 0.546875l0.75 0l-0.21875 0.71875l-13.546875 0l0.1875 -0.71875q1.484375 0.015625 2.375 -0.40625q0.90625 -0.421875 1.359375 -1.078125q0.3125 -0.46875 0.921875 -2.5l2.03125 -7.0z" fill-rule="nonzero"/><path fill="#000000" fill-opacity="0.0" d="m751.2651 491.958l50.92914 0l0 67.87402l-50.92914 0z" fill-rule="evenodd"/><path fill="#000000" d="m772.2963 527.10803l-4.125 -9.609375q-1.09375 -2.53125 -1.765625 -3.140625q-0.671875 -0.625 -2.109375 -0.765625l0 -0.71875l11.6875 0l-0.203125 0.71875q-1.234375 0.09375 -1.671875 0.484375q-0.421875 0.390625 -0.421875 1.046875q0 0.75 0.6875 2.375l2.34375 5.546875l3.25 -2.984375q2.734375 -2.484375 3.5 -3.71875q0.453125 -0.71875 0.453125 -1.296875q0 -0.53125 -0.484375 -0.953125q-0.46875 -0.4375 -1.53125 -0.5l0.234375 -0.71875l8.65625 0l-0.171875 0.71875q-0.984375 0.171875 -1.796875 0.703125q-1.3125 0.84375 -4.375 3.65625l-7.140625 6.546875l4.015625 9.3125q1.375 3.1875 2.0625 3.875q0.703125 0.671875 2.078125 0.953125l-0.203125 0.71875l-11.734375 0l0.234375 -0.71875q1.234375 -0.03125 1.796875 -0.5q0.5625 -0.484375 0.5625 -1.1875q0 -0.953125 -1.09375 -3.453125l-2.140625 -4.984375l-4.890625 4.546875q-2.328125 2.15625 -2.703125 2.8125q-0.375 0.65625 -0.375 1.234375q0 0.59375 0.546875 1.046875q0.546875 0.4375 1.796875 0.484375l-0.234375 0.71875l-9.1875 0l0.1875 -0.71875q1.046875 -0.203125 1.78125 -0.65625q1.828125 -1.09375 4.484375 -3.546875l8.0 -7.328125z" fill-rule="nonzero"/></g></svg>