<?xml version="1.0" encoding="UTF-8"?>
<svg id="Layer_1" data-name="Layer 1" xmlns="http://www.w3.org/2000/svg" viewBox="0 0 804.43 387.91">
  <defs>
    <style>
      .cls-1, .cls-2, .cls-3, .cls-4, .cls-5 {
        fill: none;
      }

      .cls-1, .cls-2, .cls-4, .cls-5 {
        stroke: #000;
      }

      .cls-1, .cls-3 {
        stroke-linecap: round;
      }

      .cls-1, .cls-3, .cls-5 {
        stroke-linejoin: round;
      }

      .cls-6, .cls-7 {
        font-family: TimesNewRomanPS-BoldItalicMT, 'Times New Roman';
        font-style: italic;
      }

      .cls-2 {
        stroke-width: 3px;
      }

      .cls-2, .cls-4 {
        stroke-miterlimit: 10;
      }

      .cls-8 {
        fill: #79b7ed;
      }

      .cls-3 {
        stroke: red;
        stroke-width: 5px;
      }

      .cls-7, .cls-9 {
        font-size: 40px;
        font-weight: 700;
      }

      .cls-4, .cls-5 {
        stroke-width: 2px;
      }

      .cls-10 {
        font-family: TimesNewRomanPS-BoldMT, 'Times New Roman';
      }
    </style>
  </defs>
  <path class="cls-8" d="m315.34,182.38v158.4H81.51v-2c4.67-.83,9.33-1.67,14-2.5,22.26-3.94,43.56-10.88,64-20.5,29.89-14.07,55.7-34.03,79.36-56.64,18.4-17.58,36.47-35.53,53.74-54.27,7.18-7.79,14.68-15.29,22.46-22.49h.27Z"/>
  <g>
    <path class="cls-3" d="m315.2,182.13c-7.78,7.2-15.28,14.7-22.46,22.49-17.27,18.74-35.34,36.69-53.73,54.27-23.67,22.61-49.48,42.58-79.36,56.64-20.44,9.62-41.74,16.56-64,20.51-4.67.83-9.33,1.67-14,2.5"/>
    <path class="cls-3" d="m315.48,181.88c-.09.08-.18.17-.27.25"/>
    <path class="cls-3" d="m729.65,338.53c-17.17-2.35-34.09-6.08-50.45-11.65-18.83-6.42-36.79-14.91-53.58-25.8-16.32-10.58-31.61-22.42-46.01-35.51-21.13-19.2-41-39.69-60.81-60.19-16.62-17.21-33.69-33.8-52.7-48.3-14.05-10.71-29.39-19.08-46.96-22.53-14.03-2.76-27.64-.93-41.01,3.94-15.27,5.55-28.48,14.53-40.93,24.61-7.45,6.02-14.7,12.28-21.73,18.78"/>
  </g>
  <g>
    <line class="cls-1" x1="315.2" y1="340.53" x2="758.17" y2="340.53"/>
    <path d="m754.58,340.53l-4.38-7.21.25-.16,11.75,4.67c4.09.9,8.19,1.8,12.28,2.7-4.09.9-8.19,1.8-12.28,2.7l-11.75,4.67-.25-.12,4.38-7.25Z"/>
  </g>
  <line class="cls-1" x1="81.65" y1="340.53" x2="315.2" y2="340.53"/>
  <line class="cls-1" x1="26.03" y1="340.53" x2="81.65" y2="340.53"/>
  <g>
    <line class="cls-1" x1="26.03" y1="338.53" x2="26.03" y2="64.59"/>
    <path d="m26.03,68.18l-7.21,4.38-.16-.25,4.67-11.75c.9-4.09,1.8-8.19,2.7-12.28.9,4.09,1.8,8.19,2.7,12.28l4.67,11.75-.12.25-7.25-4.38Z"/>
  </g>
  <text class="cls-7" transform="translate(784.11 349.82)"><tspan x="0" y="0">x</tspan></text>
  <text class="cls-9" transform="translate(0 33.24)"><tspan class="cls-6" x="0" y="0">φ</tspan><tspan class="cls-10" x="23.4" y="0">(</tspan><tspan class="cls-6" x="36.72" y="0">x</tspan><tspan class="cls-10" x="56.72" y="0">)</tspan></text>
  <line class="cls-5" x1="81.65" y1="338.53" x2="81.65" y2="340.53"/>
  <line class="cls-4" x1="406.47" y1="331.7" x2="406.47" y2="349.82"/>
  <text class="cls-7" transform="translate(384.76 375.65)"><tspan x="0" y="0">mu</tspan></text>
  <text class="cls-7" transform="translate(308.07 375.13)"><tspan x="0" y="0">t</tspan></text>
  <text class="cls-7" transform="translate(406.47 72.95)"><tspan x="0" y="0">sigma</tspan></text>
  <g>
    <line class="cls-2" x1="424.82" y1="107.17" x2="504.22" y2="107.17"/>
    <path d="m428.85,107.17l4.93-8.11-.28-.18-13.22,5.25c-4.61,1.01-9.21,2.03-13.82,3.04,4.61,1.01,9.21,2.03,13.82,3.04l13.22,5.25.28-.14-4.93-8.15Z"/>
    <path d="m500.18,107.17l-4.93-8.11.28-.18,13.22,5.25c4.61,1.01,9.21,2.03,13.82,3.04-4.61,1.01-9.21,2.03-13.82,3.04l-13.22,5.25-.28-.14,4.93-8.15Z"/>
  </g>
</svg>