<svg version="1.1" viewBox="0.0 0.0 609.8766404199475 543.6614173228346" fill="none" stroke="none" stroke-linecap="square" stroke-miterlimit="10" xmlns:xlink="http://www.w3.org/1999/xlink" xmlns="http://www.w3.org/2000/svg"><clipPath id="p.0"><path d="m0 0l609.87665 0l0 543.66144l-609.87665 0l0 -543.66144z" clip-rule="nonzero"/></clipPath><g clip-path="url(#p.0)"><path fill="#000000" fill-opacity="0.0" d="m0 0l609.87665 0l0 543.66144l-609.87665 0z" fill-rule="evenodd"/><path fill="#000000" fill-opacity="0.0" d="m54.685986 98.98328l0 0c-4.8840523 -24.003471 11.151257 -47.765453 41.30154 -61.202858c30.150291 -13.437408 69.127846 -14.193609 100.393074 -1.9477196l0 0c11.0750885 -13.956615 31.345749 -23.592695 54.680496 -25.993511c23.334747 -2.4008179 46.992798 2.7156115 63.818085 13.801667l0 0c9.43457 -12.653963 27.959473 -21.15581 49.00116 -22.488642c21.041687 -1.3328326 41.622192 4.6919775 54.438507 15.936515l0 0c17.044922 -13.413169 44.163788 -19.06067 69.62213 -14.498799c25.458374 4.5618715 44.683655 18.513763 49.356995 35.81861l0 0c20.882874 3.8093948 38.277893 13.493389 47.690735 26.549942c9.412781 13.056557 9.920044 28.20485 1.390686 41.53105l0 0c20.563538 17.898552 25.373901 41.748154 12.635864 62.64856c-12.738037 20.90039 -41.110718 35.711563 -74.529785 38.90622c-0.23553467 19.615768 -16.321777 37.614975 -42.05832 47.05992c-25.736511 9.444931 -57.104553 8.860764 -82.01346 -1.5273438l0 0c-10.609863 23.49327 -40.473114 40.779404 -76.68768 44.390152c-36.2146 3.6107483 -72.288345 -7.101227 -92.63608 -27.507904l0 0c-24.942062 10.058502 -54.870453 12.956055 -83.03395 8.039001c-28.163483 -4.9170837 -52.189713 -17.234558 -66.65885 -34.17389l0 0c-25.487656 1.9946442 -50.13069 -6.836548 -61.698864 -22.110703c-11.568172 -15.274139 -7.5988913 -33.739746 9.937904 -46.23239l0 0c-22.735647 -8.949127 -34.336746 -26.707169 -28.753777 -44.014023c5.582969 -17.306831 27.084883 -30.24067 53.29334 -32.057022z" fill-rule="evenodd"/><path fill="#000000" fill-opacity="0.0" d="m29.642609 175.97945l0 0c10.729019 4.2231293 23.123554 6.1388397 35.519432 5.489914m16.235947 62.854706c5.330681 -0.4171753 10.555763 -1.3005981 15.540497 -2.6274872m134.14487 28.761276c-3.7492676 -3.7601318 -6.888336 -7.778137 -9.363724 -11.985596m178.69395 -4.897354l0 0c1.9343567 -4.283188 3.187622 -8.691498 3.7389526 -13.151413m120.328125 -32.379517c0.25079346 -20.884018 -17.48587 -40.005646 -45.591522 -49.15158m107.48483 -52.400993c-4.5516357 7.1114044 -11.500183 13.41983 -20.300842 18.430664m-28.776306 -86.51352l0 0c0.7755127 2.871746 1.1344604 5.7866516 1.0717773 8.704315m-120.04886 -30.02326l0 0c-4.2518616 3.3459187 -7.754822 7.08494 -10.399841 11.100641m-93.0408 -4.5499744l0 0c-2.2658691 3.039074 -3.9578857 6.2549324 -5.0370483 9.5735m-113.46327 2.6185951l0 0c6.6157074 2.5912209 12.73613 5.7100334 18.226822 9.287926m-159.9196 53.86299l0 0c0.6731491 3.3083038 1.7367554 6.5758133 3.18087 9.771957" fill-rule="evenodd"/><path stroke="#000000" stroke-width="4.0" stroke-linejoin="round" stroke-linecap="butt" d="m54.685986 98.98328l0 0c-4.8840523 -24.003471 11.151257 -47.765453 41.30154 -61.202858c30.150291 -13.437408 69.127846 -14.193609 100.393074 -1.9477196l0 0c11.0750885 -13.956615 31.345749 -23.592695 54.680496 -25.993511c23.334747 -2.4008179 46.992798 2.7156115 63.818085 13.801667l0 0c9.43457 -12.653963 27.959473 -21.15581 49.00116 -22.488642c21.041687 -1.3328326 41.622192 4.6919775 54.438507 15.936515l0 0c17.044922 -13.413169 44.163788 -19.06067 69.62213 -14.498799c25.458374 4.5618715 44.683655 18.513763 49.356995 35.81861l0 0c20.882874 3.8093948 38.277893 13.493389 47.690735 26.549942c9.412781 13.056557 9.920044 28.20485 1.390686 41.53105l0 0c20.563538 17.898552 25.373901 41.748154 12.635864 62.64856c-12.738037 20.90039 -41.110718 35.711563 -74.529785 38.90622c-0.23553467 19.615768 -16.321777 37.614975 -42.05832 47.05992c-25.736511 9.444931 -57.104553 8.860764 -82.01346 -1.5273438l0 0c-10.609863 23.49327 -40.473114 40.779404 -76.68768 44.390152c-36.2146 3.6107483 -72.288345 -7.101227 -92.63608 -27.507904l0 0c-24.942062 10.058502 -54.870453 12.956055 -83.03395 8.039001c-28.163483 -4.9170837 -52.189713 -17.234558 -66.65885 -34.17389l0 0c-25.487656 1.9946442 -50.13069 -6.836548 -61.698864 -22.110703c-11.568172 -15.274139 -7.5988913 -33.739746 9.937904 -46.23239l0 0c-22.735647 -8.949127 -34.336746 -26.707169 -28.753777 -44.014023c5.582969 -17.306831 27.084883 -30.24067 53.29334 -32.057022z" fill-rule="evenodd"/><path stroke="#000000" stroke-width="4.0" stroke-linejoin="round" stroke-linecap="butt" d="m29.642609 175.97945l0 0c10.729019 4.2231293 23.123554 6.1388397 35.519432 5.489914m16.235947 62.854706c5.330681 -0.4171753 10.555763 -1.3005981 15.540497 -2.6274872m134.14487 28.761276c-3.7492676 -3.7601318 -6.888336 -7.778137 -9.363724 -11.985596m178.69395 -4.897354l0 0c1.9343567 -4.283188 3.187622 -8.691498 3.7389526 -13.151413m120.328125 -32.379517c0.25079346 -20.884018 -17.48587 -40.005646 -45.591522 -49.15158m107.48483 -52.400993c-4.5516357 7.1114044 -11.500183 13.41983 -20.300842 18.430664m-28.776306 -86.51352l0 0c0.7755127 2.871746 1.1344604 5.7866516 1.0717773 8.704315m-120.04886 -30.02326l0 0c-4.2518616 3.3459187 -7.754822 7.08494 -10.399841 11.100641m-93.0408 -4.5499744l0 0c-2.2658691 3.039074 -3.9578857 6.2549324 -5.0370483 9.5735m-113.46327 2.6185951l0 0c6.6157074 2.5912209 12.73613 5.7100334 18.226822 9.287926m-159.9196 53.86299l0 0c0.6731491 3.3083038 1.7367554 6.5758133 3.18087 9.771957" fill-rule="evenodd"/><path fill="#000000" d="m123.97312 100.21606l0 9.546875q0 2.796875 0.34375 3.53125q0.34375 0.71875 1.21875 1.15625q0.875 0.421875 3.2031326 0.421875l0 0.9375l-17.484383 0l0 -0.9375q2.375 0 3.21875 -0.4375q0.859375 -0.453125 1.203125 -1.15625q0.34375 -0.71875 0.34375 -3.515625l0 -22.34375q0 -2.796875 -0.34375 -3.515625q-0.34375 -0.71875 -1.203125 -1.140625q-0.859375 -0.4375 -3.21875 -0.4375l0 -0.953125l15.0 0q7.4062576 0 10.625008 2.640625q3.234375 2.640625 3.234375 6.609375q0 3.34375 -2.078125 5.734375q-2.078125 2.390625 -5.734375 3.25q-2.46875 0.609375 -8.328133 0.609375zm0 -16.859375l0 14.875q0.828125 0.0625 1.265625 0.0625q3.0937576 0 4.7656326 -1.84375q1.6875 -1.84375 1.6875 -5.703125q0 -3.828125 -1.6875 -5.609375q-1.671875 -1.78125 -5.0000076 -1.78125l-1.03125 0zm37.79493 -2.453125q8.234375 -0.3125 13.375 4.796875q5.140625 5.09375 5.140625 12.765625q0 6.546875 -3.828125 11.53125q-5.078125 6.59375 -14.34375 6.59375q-9.296875 0 -14.375 -6.296875q-4.015625 -4.96875 -4.015625 -11.796875q0 -7.671875 5.21875 -12.78125q5.21875 -5.125 12.828125 -4.8125zm0.3125 1.625q-4.71875 0 -7.1875 4.8125q-2.0 3.96875 -2.0 11.375q0 8.8125 3.09375 13.03125q2.15625 2.9375 6.046875 2.9375q2.609375 0 4.359375 -1.265625q2.234375 -1.625 3.46875 -5.1875q1.25 -3.5625 1.25 -9.3125q0 -6.828125 -1.265625 -10.21875q-1.265625 -3.390625 -3.234375 -4.78125q-1.96875 -1.390625 -4.53125 -1.390625zm34.103516 17.6875l0 9.546875q0 2.796875 0.34375 3.53125q0.34375 0.71875 1.21875 1.15625q0.875 0.421875 3.203125 0.421875l0 0.9375l-17.484375 0l0 -0.9375q2.375 0 3.21875 -0.4375q0.859375 -0.453125 1.203125 -1.15625q0.34375 -0.71875 0.34375 -3.515625l0 -22.34375q0 -2.796875 -0.34375 -3.515625q-0.34375 -0.71875 -1.203125 -1.140625q-0.859375 -0.4375 -3.21875 -0.4375l0 -0.953125l15.0 0q7.40625 0 10.625 2.640625q3.234375 2.640625 3.234375 6.609375q0 3.34375 -2.078125 5.734375q-2.078125 2.390625 -5.734375 3.25q-2.46875 0.609375 -8.328125 0.609375zm0 -16.859375l0 14.875q0.828125 0.0625 1.265625 0.0625q3.09375 0 4.765625 -1.84375q1.6875 -1.84375 1.6875 -5.703125q0 -3.828125 -1.6875 -5.609375q-1.671875 -1.78125 -5.0 -1.78125l-1.03125 0zm18.935547 -1.984375l17.78125 0l0 0.953125l-0.890625 0q-2.015625 0 -2.765625 0.421875q-0.75 0.40625 -1.0625 1.140625q-0.3125 0.734375 -0.3125 3.6875l0 16.859375q0 4.625 0.6875 6.125q0.703125 1.484375 2.296875 2.484375q1.609375 0.984375 4.046875 0.984375q2.796875 0 4.765625 -1.25q1.96875 -1.265625 2.9375 -3.46875q0.984375 -2.203125 0.984375 -7.6875l0 -14.046875q0 -2.3125 -0.484375 -3.296875q-0.484375 -1.0 -1.21875 -1.375q-1.140625 -0.578125 -3.234375 -0.578125l0 -0.953125l11.921875 0l0 0.953125l-0.71875 0q-1.453125 0 -2.421875 0.578125q-0.953125 0.578125 -1.390625 1.75q-0.328125 0.8125 -0.328125 2.921875l0 13.078125q0 6.0625 -0.796875 8.765625q-0.796875 2.6875 -3.90625 4.953125q-3.09375 2.25 -8.453125 2.25q-4.46875 0 -6.90625 -1.1875q-3.3125 -1.625 -4.6875 -4.15625q-1.375 -2.546875 -1.375 -6.84375l0 -16.859375q0 -2.96875 -0.328125 -3.6875q-0.328125 -0.734375 -1.140625 -1.15625q-0.8125 -0.4375 -3.0 -0.40625l0 -0.953125zm69.162094 22.34375l-1.296875 12.09375l-30.562485 0l0 -0.9375l1.140625 0q1.5 0 2.40625 -0.53125q0.67185974 -0.359375 1.0156097 -1.21875q0.28125 -0.609375 0.28125 -3.203125l0 -22.65625q0 -2.640625 -0.28125 -3.296875q-0.28125 -0.65625 -1.1249847 -1.140625q-0.84375 -0.5 -2.296875 -0.5l-1.140625 0l0 -0.953125l18.35936 0l0 0.953125l-1.5 0q-1.5 0 -2.421875 0.53125q-0.65625 0.34375 -1.03125 1.21875q-0.28125 0.609375 -0.28125 3.1875l0 21.9375q0 2.640625 0.296875 3.375q0.3125 0.71875 1.203125 1.078125q0.625 0.21875 3.0625 0.21875l2.875 0q2.75 0 4.578125 -0.953125q1.828125 -0.96875 3.15625 -3.046875q1.328125 -2.09375 2.53125 -6.15625l1.03125 0zm23.496094 2.296875l-12.171875 0l-1.4375 3.34375q-0.71875 1.671875 -0.71875 2.765625q0 1.453125 1.171875 2.140625q0.6875 0.40625 3.375 0.609375l0 0.9375l-11.453125 0l0 -0.9375q1.859375 -0.28125 3.046875 -1.53125q1.1875 -1.265625 2.953125 -5.203125l12.3125 -27.46875l0.484375 0l12.40625 28.234375q1.78125 4.015625 2.921875 5.046875q0.859375 0.796875 2.4375 0.921875l0 0.9375l-16.65625 0l0 -0.9375l0.6875 0q2.0 0 2.8125 -0.5625q0.5625 -0.40625 0.5625 -1.171875q0 -0.453125 -0.15625 -0.9375q-0.046875 -0.21875 -0.75 -1.90625l-1.828125 -4.28125zm-0.875 -1.890625l-5.125 -11.84375l-5.28125 11.84375l10.40625 0zm45.740234 -22.75l0 9.328125l-0.921875 0q-0.8125 -3.234375 -1.8125 -4.640625q-0.984375 -1.40625 -2.703125 -2.25q-0.96875 -0.453125 -3.375 -0.453125l-2.5625 0l0 26.5625q0 2.640625 0.28125 3.296875q0.296875 0.65625 1.140625 1.15625q0.859375 0.5 2.328125 0.5l1.140625 0l0 0.9375l-18.03125 0l0 -0.9375l1.15625 0q1.484375 0 2.40625 -0.53125q0.65625 -0.359375 1.046875 -1.21875q0.265625 -0.609375 0.265625 -3.203125l0 -26.5625l-2.484375 0q-3.46875 0 -5.046875 1.46875q-2.21875 2.0625 -2.796875 5.875l-0.96875 0l0 -9.328125l30.9375 0zm20.917969 33.5l0 0.9375l-18.0 0l0 -0.9375l1.140625 0q1.5 0 2.40625 -0.53125q0.65625 -0.359375 1.015625 -1.21875q0.28125 -0.609375 0.28125 -3.203125l0 -22.65625q0 -2.640625 -0.28125 -3.296875q-0.28125 -0.65625 -1.140625 -1.140625q-0.84375 -0.5 -2.28125 -0.5l-1.140625 0l0 -0.953125l18.0 0l0 0.953125l-1.140625 0q-1.5 0 -2.421875 0.53125q-0.65625 0.34375 -1.03125 1.21875q-0.28125 0.609375 -0.28125 3.1875l0 22.65625q0 2.640625 0.28125 3.296875q0.296875 0.65625 1.140625 1.15625q0.859375 0.5 2.3125 0.5l1.140625 0zm21.267578 -33.96875q8.234375 -0.3125 13.375 4.796875q5.140625 5.09375 5.140625 12.765625q0 6.546875 -3.828125 11.53125q-5.078125 6.59375 -14.34375 6.59375q-9.296875 0 -14.375 -6.296875q-4.015625 -4.96875 -4.015625 -11.796875q0 -7.671875 5.21875 -12.78125q5.21875 -5.125 12.828125 -4.8125zm0.3125 1.625q-4.71875 0 -7.1875 4.8125q-2.0 3.96875 -2.0 11.375q0 8.8125 3.09375 13.03125q2.15625 2.9375 6.046875 2.9375q2.609375 0 4.359375 -1.265625q2.234375 -1.625 3.46875 -5.1875q1.25 -3.5625 1.25 -9.3125q0 -6.828125 -1.265625 -10.21875q-1.265625 -3.390625 -3.234375 -4.78125q-1.96875 -1.390625 -4.53125 -1.390625zm33.009766 -1.15625l16.984375 21.359375l0 -14.796875q0 -3.109375 -0.890625 -4.1875q-1.21875 -1.484375 -4.09375 -1.421875l0 -0.953125l11.375 0l0 0.953125q-2.171875 0.265625 -2.921875 0.71875q-0.75 0.4375 -1.171875 1.453125q-0.421875 1.0 -0.421875 3.4375l0 28.65625l-0.859375 0l-23.28125 -28.65625l0 21.875q0 2.984375 1.359375 4.03125q1.359375 1.03125 3.109375 1.03125l0.8125 0l0 0.9375l-12.21875 0l0 -0.9375q2.84375 -0.03125 3.953125 -1.171875q1.125 -1.140625 1.125 -3.890625l0 -24.296875l-0.734375 -0.90625q-1.09375 -1.375 -1.9375 -1.796875q-0.828125 -0.4375 -2.40625 -0.484375l0 -0.953125l12.21875 0z" fill-rule="nonzero"/><path fill="#000000" d="m189.13673 138.44855l0 0.84375q-1.90625 1.234375 -2.796875 2.421875q-1.234375 1.640625 -1.9375 4.203125q-0.875 3.1875 -0.875 8.921875q0 5.390625 0.796875 8.390625q0.796875 2.984375 2.15625 4.8125q0.953125 1.28125 2.65625 2.25l0 0.90625q-4.40625 -1.46875 -7.453125 -6.015625q-3.046875 -4.546875 -3.046875 -10.453125q0 -5.84375 3.03125 -10.328125q3.046875 -4.5 7.46875 -5.953125zm12.618057 8.4375l5.75 0l0 2.0l-3.265625 0q0.890625 0.90625 1.234375 1.625q0.4375 0.984375 0.4375 2.0625q0 1.828125 -1.015625 3.171875q-1.0 1.328125 -2.75 2.09375q-1.734375 0.75 -3.078125 0.75q-0.109375 0 -2.1875 -0.09375q-0.828125 0 -1.390625 0.546875q-0.546875 0.53125 -0.546875 1.28125q0 0.65625 0.5 1.078125q0.5 0.421875 1.640625 0.421875l3.140625 -0.046875q3.828125 0 5.28125 0.84375q2.046875 1.15625 2.046875 3.59375q0 1.546875 -0.953125 2.8125q-0.9375 1.265625 -2.484375 1.859375q-2.359375 0.90625 -5.421875 0.90625q-2.296875 0 -4.1875 -0.453125q-1.890625 -0.453125 -2.71875 -1.25q-0.8125 -0.78125 -0.8125 -1.65625q0 -0.84375 0.625 -1.515625q0.625 -0.65625 2.34375 -1.109375q-2.375 -1.171875 -2.375 -3.25q0 -1.25 0.96875 -2.4375q0.96875 -1.1875 3.0625 -2.0625q-2.4375 -0.890625 -3.53125 -2.34375q-1.09375 -1.46875 -1.09375 -3.375q0 -2.5 2.03125 -4.328125q2.046875 -1.828125 5.25 -1.828125q1.703125 0 3.5 0.703125zm-3.140625 0.421875q-1.0625 0 -1.796875 1.0625q-0.71875 1.0625 -0.71875 4.421875q0 2.71875 0.71875 3.734375q0.71875 1.0 1.703125 1.0q1.09375 0 1.8125 -1.0q0.734375 -1.0 0.734375 -3.890625q0 -3.265625 -0.8125 -4.453125q-0.59375 -0.875 -1.640625 -0.875zm-1.078125 18.9375q-1.859375 0 -2.46875 0.3125q-1.03125 0.5625 -1.03125 1.53125q0 0.921875 1.0625 1.671875q1.078125 0.765625 4.0625 0.765625q2.53125 0 3.96875 -0.671875q1.453125 -0.671875 1.453125 -1.890625q0 -0.46875 -0.265625 -0.765625q-0.5 -0.546875 -1.5 -0.75q-0.984375 -0.203125 -5.28125 -0.203125zm19.992188 -20.0625q2.21875 0 4.125 1.15625q1.921875 1.140625 2.90625 3.25q1.0 2.109375 1.0 4.625q0 3.625 -1.828125 6.078125q-2.234375 2.953125 -6.15625 2.953125q-3.84375 0 -5.921875 -2.703125q-2.078125 -2.703125 -2.078125 -6.25q0 -3.671875 2.125 -6.390625q2.125 -2.71875 5.828125 -2.71875zm0.078125 1.28125q-0.9375 0 -1.609375 0.703125q-0.65625 0.703125 -0.875 2.78125q-0.203125 2.0625 -0.203125 5.75q0 1.953125 0.25 3.640625q0.203125 1.296875 0.859375 1.96875q0.65625 0.671875 1.5 0.671875q0.8125 0 1.359375 -0.453125q0.71875 -0.625 0.953125 -1.734375q0.359375 -1.734375 0.359375 -7.0q0 -3.09375 -0.34375 -4.25q-0.34375 -1.15625 -1.015625 -1.6875q-0.46875 -0.390625 -1.234375 -0.390625zm18.242188 16.78125l-5.75 -13.21875q-1.03125 -2.390625 -1.625 -3.03125q-0.40625 -0.46875 -1.234375 -0.640625l0 -0.671875l9.0625 0l0 0.671875q-0.859375 0 -1.171875 0.3125q-0.4375 0.40625 -0.4375 0.953125q0 0.671875 0.8125 2.53125l2.796875 6.40625l2.25 -5.53125q0.96875 -2.375 0.96875 -3.359375q0 -0.5625 -0.421875 -0.90625q-0.40625 -0.359375 -1.4375 -0.40625l0 -0.671875l5.578125 0l0 0.671875q-0.8125 0.109375 -1.328125 0.609375q-0.5 0.484375 -1.515625 2.890625l-5.6875 13.390625l-0.859375 0zm25.398438 -9.640625l-9.34375 0q0.15625 3.390625 1.796875 5.359375q1.265625 1.5 3.03125 1.5q1.09375 0 1.984375 -0.609375q0.890625 -0.609375 1.921875 -2.1875l0.609375 0.390625q-1.375 2.828125 -3.0625 4.015625q-1.671875 1.171875 -3.875 1.171875q-3.796875 0 -5.75 -2.921875q-1.5625 -2.34375 -1.5625 -5.828125q0 -4.265625 2.296875 -6.78125q2.3125 -2.53125 5.421875 -2.53125q2.578125 0 4.484375 2.125q1.90625 2.109375 2.046875 6.296875zm-4.484375 -1.234375q0 -2.921875 -0.3125 -4.015625q-0.3125 -1.09375 -1.0 -1.671875q-0.375 -0.328125 -1.015625 -0.328125q-0.953125 0 -1.546875 0.9375q-1.078125 1.625 -1.078125 4.453125l0 0.625l4.953125 0zm13.692993 -6.6875l0 3.875q1.703125 -2.65625 2.96875 -3.515625q1.28125 -0.859375 2.46875 -0.859375q1.015625 0 1.625 0.625q0.609375 0.625 0.609375 1.78125q0 1.21875 -0.59375 1.890625q-0.59375 0.671875 -1.421875 0.671875q-0.96875 0 -1.6875 -0.609375q-0.703125 -0.625 -0.828125 -0.703125q-0.1875 -0.109375 -0.421875 -0.109375q-0.53125 0 -1.0 0.40625q-0.75 0.609375 -1.140625 1.765625q-0.578125 1.765625 -0.578125 3.90625l0 3.90625l0.015625 1.03125q0 1.03125 0.125 1.328125q0.21875 0.484375 0.640625 0.71875q0.4375 0.234375 1.46875 0.28125l0 0.65625l-9.21875 0l0 -0.65625q1.125 -0.09375 1.515625 -0.609375q0.390625 -0.515625 0.390625 -2.75l0 -9.421875q0 -1.453125 -0.15625 -1.859375q-0.171875 -0.5 -0.53125 -0.734375q-0.34375 -0.25 -1.21875 -0.34375l0 -0.671875l6.96875 0zm16.458649 0l0 2.203125q1.3125 -1.421875 2.515625 -2.0625q1.203125 -0.640625 2.59375 -0.640625q1.65625 0 2.75 0.921875q1.09375 0.90625 1.453125 2.28125q0.296875 1.03125 0.296875 3.984375l0 6.640625q0 1.96875 0.34375 2.453125q0.359375 0.484375 1.5 0.609375l0 0.65625l-8.625 0l0 -0.65625q0.96875 -0.125 1.390625 -0.796875q0.28125 -0.453125 0.28125 -2.265625l0 -7.578125q0 -2.09375 -0.171875 -2.640625q-0.15625 -0.546875 -0.546875 -0.84375q-0.390625 -0.3125 -0.859375 -0.3125q-1.578125 0 -2.921875 2.25l0 9.125q0 1.921875 0.359375 2.4375q0.359375 0.5 1.3125 0.625l0 0.65625l-8.609375 0l0 -0.65625q1.0625 -0.109375 1.53125 -0.6875q0.296875 -0.40625 0.296875 -2.375l0 -9.625q0 -1.9375 -0.359375 -2.40625q-0.34375 -0.46875 -1.46875 -0.625l0 -0.671875l6.9375 0zm28.228882 7.921875l-9.34375 0q0.15625 3.390625 1.796875 5.359375q1.265625 1.5 3.03125 1.5q1.09375 0 1.984375 -0.609375q0.890625 -0.609375 1.921875 -2.1875l0.609375 0.390625q-1.375 2.828125 -3.0625 4.015625q-1.671875 1.171875 -3.875 1.171875q-3.796875 0 -5.75 -2.921875q-1.5625 -2.34375 -1.5625 -5.828125q0 -4.265625 2.296875 -6.78125q2.3125 -2.53125 5.421875 -2.53125q2.578125 0 4.484375 2.125q1.90625 2.109375 2.046875 6.296875zm-4.484375 -1.234375q0 -2.921875 -0.3125 -4.015625q-0.3125 -1.09375 -1.0 -1.671875q-0.375 -0.328125 -1.015625 -0.328125q-0.953125 0 -1.546875 0.9375q-1.078125 1.625 -1.078125 4.453125l0 0.625l4.953125 0zm23.192993 -14.359375l0 19.609375q0 2.0 0.109375 2.359375q0.140625 0.59375 0.546875 0.890625q0.421875 0.296875 1.4375 0.359375l0 0.609375l-7.203125 1.40625l0 -2.703125q-1.296875 1.5625 -2.3125 2.140625q-1.0 0.5625 -2.28125 0.5625q-3.265625 0 -5.15625 -2.921875q-1.53125 -2.375 -1.53125 -5.8125q0 -2.75 0.9375 -4.921875q0.953125 -2.1875 2.609375 -3.296875q1.65625 -1.109375 3.546875 -1.109375q1.21875 0 2.15625 0.46875q0.953125 0.46875 2.03125 1.65625l0 -5.140625q0 -1.953125 -0.15625 -2.34375q-0.21875 -0.53125 -0.65625 -0.78125q-0.4375 -0.265625 -1.640625 -0.265625l0 -0.765625l7.5625 0zm-5.109375 11.5625q-1.34375 -2.59375 -3.296875 -2.59375q-0.671875 0 -1.109375 0.359375q-0.671875 0.578125 -1.109375 2.0q-0.421875 1.421875 -0.421875 4.34375q0 3.234375 0.46875 4.78125q0.484375 1.546875 1.296875 2.25q0.421875 0.34375 1.15625 0.34375q1.59375 0 3.015625 -2.515625l0 -8.96875zm25.232819 -11.5625l0 9.390625q2.140625 -2.21875 4.703125 -2.21875q1.75 0 3.296875 1.03125q1.546875 1.015625 2.421875 2.921875q0.875 1.890625 0.875 4.375q0 2.78125 -1.109375 5.0625q-1.109375 2.28125 -2.96875 3.484375q-1.859375 1.1875 -4.25 1.1875q-1.390625 0 -2.46875 -0.4375q-1.0625 -0.4375 -2.109375 -1.421875l-2.828125 1.828125l-0.609375 0l0 -21.65625q0 -1.484375 -0.140625 -1.828125q-0.171875 -0.515625 -0.5625 -0.75q-0.390625 -0.25 -1.328125 -0.296875l0 -0.671875l7.078125 0zm0 11.015625l0 7.578125q0 2.3125 0.109375 2.953125q0.171875 1.078125 0.859375 1.75q0.703125 0.65625 1.78125 0.65625q0.921875 0 1.59375 -0.53125q0.671875 -0.53125 1.109375 -2.09375q0.453125 -1.5625 0.453125 -5.65625q0 -3.90625 -0.984375 -5.375q-0.71875 -1.046875 -1.921875 -1.046875q-1.5625 0 -3.0 1.765625zm21.978882 14.390625l-5.5 -12.625q-1.25 -2.859375 -1.84375 -3.515625q-0.59375 -0.65625 -1.421875 -0.921875l0 -0.671875l9.0625 0l0 0.671875q-0.90625 0.046875 -1.265625 0.359375q-0.359375 0.296875 -0.359375 0.734375q0 0.703125 0.90625 2.734375l2.921875 6.671875l1.984375 -5.15625q1.078125 -2.75 1.078125 -3.828125q0 -0.671875 -0.453125 -1.0625q-0.4375 -0.40625 -1.578125 -0.453125l0 -0.671875l5.703125 0l0 0.671875q-0.828125 0.09375 -1.359375 0.65625q-0.53125 0.546875 -1.765625 3.78125l-4.875 12.625q-1.84375 4.75 -2.734375 5.84375q-1.25 1.53125 -3.15625 1.53125q-1.5 0 -2.453125 -0.875q-0.9375 -0.859375 -0.9375 -2.078125q0 -1.0625 0.640625 -1.765625q0.65625 -0.6875 1.609375 -0.6875q0.90625 0 1.453125 0.578125q0.5625 0.59375 0.59375 1.8125q0.015625 0.6875 0.15625 0.890625q0.140625 0.203125 0.421875 0.203125q0.4375 0 0.921875 -0.53125q0.734375 -0.765625 1.71875 -3.5l0.53125 -1.421875z" fill-rule="nonzero"/><path fill="#000000" d="m101.00785 206.99542l0 6.34375q0 1.3125 0.203125 1.78125q0.21875 0.484375 0.65625 0.703125q0.4375 0.21875 1.703125 0.21875l0 0.671875l-9.71875 0l0 -0.671875q1.140625 -0.046875 1.6875 -0.640625q0.359375 -0.421875 0.359375 -2.171875l0 -17.984375q0 -1.8125 -0.421875 -2.3125q-0.421875 -0.5 -1.625 -0.578125l0 -0.671875l7.15625 0l0 2.25q0.890625 -1.3125 1.8125 -1.90625q1.34375 -0.84375 2.90625 -0.84375q1.875 0 3.40625 1.1875q1.546875 1.171875 2.34375 3.265625q0.8125 2.078125 0.8125 4.484375q0 2.59375 -0.828125 4.734375q-0.828125 2.140625 -2.40625 3.265625q-1.578125 1.125 -3.515625 1.125q-1.40625 0 -2.625 -0.625q-0.90625 -0.46875 -1.90625 -1.625zm0 -1.84375q1.5625 2.234375 3.34375 2.234375q0.984375 0 1.625 -1.046875q0.953125 -1.53125 0.953125 -5.828125q0 -4.40625 -1.046875 -6.03125q-0.6875 -1.078125 -1.859375 -1.078125q-1.828125 0 -3.015625 2.65625l0 9.09375zm22.197632 -13.96875q2.21875 0 4.125 1.15625q1.9218826 1.140625 2.9062576 3.25q1.0 2.109375 1.0 4.625q0 3.625 -1.828125 6.078125q-2.2343826 2.953125 -6.1562576 2.953125q-3.84375 0 -5.921875 -2.703125q-2.078125 -2.703125 -2.078125 -6.25q0 -3.671875 2.125 -6.390625q2.125 -2.71875 5.828125 -2.71875zm0.078125 1.28125q-0.9375 0 -1.609375 0.703125q-0.65625 0.703125 -0.875 2.78125q-0.203125 2.0625 -0.203125 5.75q0 1.953125 0.25 3.640625q0.203125 1.296875 0.859375 1.96875q0.65625 0.671875 1.5 0.671875q0.8125 0 1.359375 -0.453125q0.71875 -0.625 0.953125 -1.734375q0.359375 -1.734375 0.359375 -7.0q0 -3.09375 -0.34375 -4.25q-0.34375 -1.15625 -1.015625 -1.6875q-0.46875 -0.390625 -1.234375 -0.390625zm17.148445 14.53125l0 6.34375q0 1.3125 0.203125 1.78125q0.21875 0.484375 0.65625 0.703125q0.4375 0.21875 1.703125 0.21875l0 0.671875l-9.71875 0l0 -0.671875q1.140625 -0.046875 1.6875 -0.640625q0.359375 -0.421875 0.359375 -2.171875l0 -17.984375q0 -1.8125 -0.421875 -2.3125q-0.421875 -0.5 -1.625 -0.578125l0 -0.671875l7.15625 0l0 2.25q0.890625 -1.3125 1.8125 -1.90625q1.34375 -0.84375 2.90625 -0.84375q1.875 0 3.40625 1.1875q1.546875 1.171875 2.34375 3.265625q0.8125 2.078125 0.8125 4.484375q0 2.59375 -0.828125 4.734375q-0.828125 2.140625 -2.40625 3.265625q-1.578125 1.125 -3.515625 1.125q-1.40625 0 -2.625 -0.625q-0.90625 -0.46875 -1.90625 -1.625zm0 -1.84375q1.5625 2.234375 3.34375 2.234375q0.984375 0 1.625 -1.046875q0.953125 -1.53125 0.953125 -5.828125q0 -4.40625 -1.046875 -6.03125q-0.6875 -1.078125 -1.859375 -1.078125q-1.828125 0 -3.015625 2.65625l0 9.09375zm30.619507 -13.46875l0 13.34375q0 1.953125 0.359375 2.4375q0.375 0.484375 1.484375 0.609375l0 0.65625l-6.953125 0l0 -2.28125q-1.21875 1.46875 -2.4375 2.140625q-1.21875 0.65625 -2.734375 0.65625q-1.4375 0 -2.5625 -0.875q-1.125 -0.890625 -1.515625 -2.078125q-0.375 -1.1875 -0.375 -4.140625l0 -6.765625q0 -1.9375 -0.359375 -2.40625q-0.34375 -0.46875 -1.484375 -0.625l0 -0.671875l6.953125 0l0 11.65625q0 1.8125 0.171875 2.34375q0.171875 0.53125 0.546875 0.8125q0.375 0.265625 0.859375 0.265625q0.65625 0 1.1875 -0.34375q0.734375 -0.46875 1.75 -1.921875l0 -9.109375q0 -1.9375 -0.359375 -2.40625q-0.34375 -0.46875 -1.484375 -0.625l0 -0.671875l6.953125 0zm10.963257 -7.671875l0 21.1875q0 1.796875 0.421875 2.296875q0.421875 0.5 1.640625 0.578125l0 0.65625l-9.203125 0l0 -0.65625q1.125 -0.03125 1.671875 -0.65625q0.375 -0.421875 0.375 -2.21875l0 -17.640625q0 -1.796875 -0.421875 -2.296875q-0.421875 -0.5 -1.625 -0.578125l0 -0.671875l7.140625 0zm13.105331 22.203125q-3.109375 2.75 -5.59375 2.75q-1.453125 0 -2.421875 -0.953125q-0.96875 -0.953125 -0.96875 -2.390625q0 -1.953125 1.671875 -3.515625q1.6875 -1.5625 7.3125 -4.140625l0 -1.71875q0 -1.9375 -0.203125 -2.4375q-0.203125 -0.5 -0.796875 -0.875q-0.578125 -0.375 -1.3125 -0.375q-1.1875 0 -1.953125 0.53125q-0.46875 0.328125 -0.46875 0.765625q0 0.390625 0.515625 0.953125q0.6875 0.78125 0.6875 1.515625q0 0.890625 -0.671875 1.515625q-0.65625 0.625 -1.734375 0.625q-1.140625 0 -1.921875 -0.6875q-0.78125 -0.6875 -0.78125 -1.625q0 -1.3125 1.03125 -2.5q1.046875 -1.203125 2.90625 -1.828125q1.859375 -0.640625 3.875 -0.640625q2.421875 0 3.828125 1.03125q1.421875 1.015625 1.84375 2.21875q0.25 0.765625 0.25 3.53125l0 6.609375q0 1.171875 0.09375 1.46875q0.09375 0.296875 0.265625 0.453125q0.1875 0.140625 0.421875 0.140625q0.46875 0 0.96875 -0.671875l0.546875 0.4375q-0.90625 1.34375 -1.890625 1.953125q-0.96875 0.609375 -2.21875 0.609375q-1.453125 0 -2.28125 -0.671875q-0.8125 -0.6875 -1.0 -2.078125zm0 -1.328125l0 -5.703125q-2.203125 1.296875 -3.28125 2.765625q-0.703125 0.984375 -0.703125 1.984375q0 0.84375 0.59375 1.484375q0.46875 0.484375 1.28125 0.484375q0.90625 0 2.109375 -1.015625zm16.023438 -19.4375l0 6.234375l4.046875 0l0 1.8125l-4.046875 0l0 10.515625q0 1.46875 0.140625 1.90625q0.140625 0.421875 0.484375 0.6875q0.34375 0.265625 0.640625 0.265625q1.1875 0 2.234375 -1.796875l0.546875 0.390625q-1.46875 3.5 -4.796875 3.5q-1.609375 0 -2.734375 -0.890625q-1.125 -0.90625 -1.4375 -2.015625q-0.171875 -0.625 -0.171875 -3.359375l0 -9.203125l-2.234375 0l0 -0.640625q2.296875 -1.625 3.90625 -3.40625q1.625 -1.78125 2.828125 -4.0l0.59375 0zm9.774307 -2.015625q1.1875 0 2.0 0.828125q0.828125 0.828125 0.828125 2.0q0 1.15625 -0.828125 1.984375q-0.828125 0.8125 -2.0 0.8125q-1.171875 0 -2.0 -0.8125q-0.8125 -0.828125 -0.8125 -1.984375q0 -1.171875 0.8125 -2.0q0.828125 -0.828125 2.0 -0.828125zm2.546875 8.25l0 13.515625q0 1.796875 0.421875 2.296875q0.421875 0.5 1.640625 0.578125l0 0.65625l-9.203125 0l0 -0.65625q1.125 -0.03125 1.671875 -0.65625q0.375 -0.421875 0.375 -2.21875l0 -9.953125q0 -1.8125 -0.421875 -2.3125q-0.421875 -0.5 -1.625 -0.578125l0 -0.671875l7.140625 0zm11.761581 -0.5q2.21875 0 4.125 1.15625q1.921875 1.140625 2.90625 3.25q1.0 2.109375 1.0 4.625q0 3.625 -1.828125 6.078125q-2.234375 2.953125 -6.15625 2.953125q-3.84375 0 -5.921875 -2.703125q-2.078125 -2.703125 -2.078125 -6.25q0 -3.671875 2.125 -6.390625q2.125 -2.71875 5.828125 -2.71875zm0.078125 1.28125q-0.9375 0 -1.609375 0.703125q-0.65625 0.703125 -0.875 2.78125q-0.203125 2.0625 -0.203125 5.75q0 1.953125 0.25 3.640625q0.203125 1.296875 0.859375 1.96875q0.65625 0.671875 1.5 0.671875q0.8125 0 1.359375 -0.453125q0.71875 -0.625 0.953125 -1.734375q0.359375 -1.734375 0.359375 -7.0q0 -3.09375 -0.34375 -4.25q-0.34375 -1.15625 -1.015625 -1.6875q-0.46875 -0.390625 -1.234375 -0.390625zm17.507812 -0.78125l0 2.203125q1.3125 -1.421875 2.515625 -2.0625q1.203125 -0.640625 2.59375 -0.640625q1.65625 0 2.75 0.921875q1.09375 0.90625 1.453125 2.28125q0.296875 1.03125 0.296875 3.984375l0 6.640625q0 1.96875 0.34375 2.453125q0.359375 0.484375 1.5 0.609375l0 0.65625l-8.625 0l0 -0.65625q0.96875 -0.125 1.390625 -0.796875q0.28125 -0.453125 0.28125 -2.265625l0 -7.578125q0 -2.09375 -0.171875 -2.640625q-0.15625 -0.546875 -0.546875 -0.84375q-0.390625 -0.3125 -0.859375 -0.3125q-1.578125 0 -2.921875 2.25l0 9.125q0 1.921875 0.359375 2.4375q0.359375 0.5 1.3125 0.625l0 0.65625l-8.609375 0l0 -0.65625q1.0625 -0.109375 1.53125 -0.6875q0.296875 -0.40625 0.296875 -2.375l0 -9.625q0 -1.9375 -0.359375 -2.40625q-0.34375 -0.46875 -1.46875 -0.625l0 -0.671875l6.9375 0zm29.732788 15.3125l0 6.34375q0 1.3125 0.203125 1.78125q0.21875 0.484375 0.65625 0.703125q0.4375 0.21875 1.703125 0.21875l0 0.671875l-9.71875 0l0 -0.671875q1.140625 -0.046875 1.6875 -0.640625q0.359375 -0.421875 0.359375 -2.171875l0 -17.984375q0 -1.8125 -0.421875 -2.3125q-0.421875 -0.5 -1.625 -0.578125l0 -0.671875l7.15625 0l0 2.25q0.890625 -1.3125 1.8125 -1.90625q1.34375 -0.84375 2.90625 -0.84375q1.875 0 3.40625 1.1875q1.546875 1.171875 2.34375 3.265625q0.8125 2.078125 0.8125 4.484375q0 2.59375 -0.828125 4.734375q-0.828125 2.140625 -2.40625 3.265625q-1.578125 1.125 -3.515625 1.125q-1.40625 0 -2.625 -0.625q-0.90625 -0.46875 -1.90625 -1.625zm0 -1.84375q1.5625 2.234375 3.34375 2.234375q0.984375 0 1.625 -1.046875q0.953125 -1.53125 0.953125 -5.828125q0 -4.40625 -1.046875 -6.03125q-0.6875 -1.078125 -1.859375 -1.078125q-1.828125 0 -3.015625 2.65625l0 9.09375zm23.557007 1.0625q-3.109375 2.75 -5.59375 2.75q-1.453125 0 -2.421875 -0.953125q-0.96875 -0.953125 -0.96875 -2.390625q0 -1.953125 1.671875 -3.515625q1.6875 -1.5625 7.3125 -4.140625l0 -1.71875q0 -1.9375 -0.203125 -2.4375q-0.203125 -0.5 -0.796875 -0.875q-0.578125 -0.375 -1.3125 -0.375q-1.1875 0 -1.953125 0.53125q-0.46875 0.328125 -0.46875 0.765625q0 0.390625 0.515625 0.953125q0.6875 0.78125 0.6875 1.515625q0 0.890625 -0.671875 1.515625q-0.65625 0.625 -1.734375 0.625q-1.140625 0 -1.921875 -0.6875q-0.78125 -0.6875 -0.78125 -1.625q0 -1.3125 1.03125 -2.5q1.046875 -1.203125 2.90625 -1.828125q1.859375 -0.640625 3.875 -0.640625q2.421875 0 3.828125 1.03125q1.421875 1.015625 1.84375 2.21875q0.25 0.765625 0.25 3.53125l0 6.609375q0 1.171875 0.09375 1.46875q0.09375 0.296875 0.265625 0.453125q0.1875 0.140625 0.421875 0.140625q0.46875 0 0.96875 -0.671875l0.546875 0.4375q-0.90625 1.34375 -1.890625 1.953125q-0.96875 0.609375 -2.21875 0.609375q-1.453125 0 -2.28125 -0.671875q-0.8125 -0.6875 -1.0 -2.078125zm0 -1.328125l0 -5.703125q-2.203125 1.296875 -3.28125 2.765625q-0.703125 0.984375 -0.703125 1.984375q0 0.84375 0.59375 1.484375q0.46875 0.484375 1.28125 0.484375q0.90625 0 2.109375 -1.015625zm16.335938 -13.203125l0 3.875q1.703125 -2.65625 2.96875 -3.515625q1.28125 -0.859375 2.46875 -0.859375q1.015625 0 1.625 0.625q0.609375 0.625 0.609375 1.78125q0 1.21875 -0.59375 1.890625q-0.59375 0.671875 -1.421875 0.671875q-0.96875 0 -1.6875 -0.609375q-0.703125 -0.625 -0.828125 -0.703125q-0.1875 -0.109375 -0.421875 -0.109375q-0.53125 0 -1.0 0.40625q-0.75 0.609375 -1.140625 1.765625q-0.578125 1.765625 -0.578125 3.90625l0 3.90625l0.015625 1.03125q0 1.03125 0.125 1.328125q0.21875 0.484375 0.640625 0.71875q0.4375 0.234375 1.46875 0.28125l0 0.65625l-9.21875 0l0 -0.65625q1.125 -0.09375 1.515625 -0.609375q0.390625 -0.515625 0.390625 -2.75l0 -9.421875q0 -1.453125 -0.15625 -1.859375q-0.171875 -0.5 -0.53125 -0.734375q-0.34375 -0.25 -1.21875 -0.34375l0 -0.671875l6.96875 0zm18.896118 14.53125q-3.109375 2.75 -5.59375 2.75q-1.453125 0 -2.421875 -0.953125q-0.96875 -0.953125 -0.96875 -2.390625q0 -1.953125 1.671875 -3.515625q1.6875 -1.5625 7.3125 -4.140625l0 -1.71875q0 -1.9375 -0.203125 -2.4375q-0.203125 -0.5 -0.796875 -0.875q-0.578125 -0.375 -1.3125 -0.375q-1.1875 0 -1.953125 0.53125q-0.46875 0.328125 -0.46875 0.765625q0 0.390625 0.515625 0.953125q0.6875 0.78125 0.6875 1.515625q0 0.890625 -0.671875 1.515625q-0.65625 0.625 -1.734375 0.625q-1.140625 0 -1.921875 -0.6875q-0.78125 -0.6875 -0.78125 -1.625q0 -1.3125 1.03125 -2.5q1.046875 -1.203125 2.90625 -1.828125q1.859375 -0.640625 3.875 -0.640625q2.421875 0 3.828125 1.03125q1.421875 1.015625 1.84375 2.21875q0.25 0.765625 0.25 3.53125l0 6.609375q0 1.171875 0.09375 1.46875q0.09375 0.296875 0.265625 0.453125q0.1875 0.140625 0.421875 0.140625q0.46875 0 0.96875 -0.671875l0.546875 0.4375q-0.90625 1.34375 -1.890625 1.953125q-0.96875 0.609375 -2.21875 0.609375q-1.453125 0 -2.28125 -0.671875q-0.8125 -0.6875 -1.0 -2.078125zm0 -1.328125l0 -5.703125q-2.203125 1.296875 -3.28125 2.765625q-0.703125 0.984375 -0.703125 1.984375q0 0.84375 0.59375 1.484375q0.46875 0.484375 1.28125 0.484375q0.90625 0 2.109375 -1.015625zm16.335938 -13.203125l0 2.25q1.40625 -1.53125 2.59375 -2.140625q1.203125 -0.609375 2.625 -0.609375q1.640625 0 2.75 0.765625q1.109375 0.765625 1.71875 2.328125q1.453125 -1.640625 2.78125 -2.359375q1.34375 -0.734375 2.8125 -0.734375q1.765625 0 2.8125 0.8125q1.046875 0.796875 1.453125 2.046875q0.40625 1.25 0.40625 3.984375l0 6.984375q0 1.96875 0.359375 2.453125q0.359375 0.46875 1.484375 0.609375l0 0.65625l-8.796875 0l0 -0.65625q1.03125 -0.09375 1.53125 -0.796875q0.328125 -0.5 0.328125 -2.265625l0 -7.328125q0 -2.28125 -0.1875 -2.890625q-0.1875 -0.625 -0.578125 -0.921875q-0.390625 -0.3125 -0.921875 -0.3125q-0.78125 0 -1.578125 0.578125q-0.796875 0.578125 -1.625 1.71875l0 9.15625q0 1.84375 0.3125 2.3125q0.421875 0.671875 1.609375 0.75l0 0.65625l-8.828125 0l0 -0.65625q0.71875 -0.03125 1.125 -0.34375q0.40625 -0.328125 0.546875 -0.765625q0.140625 -0.453125 0.140625 -1.953125l0 -7.328125q0 -2.3125 -0.1875 -2.890625q-0.1875 -0.59375 -0.625 -0.921875q-0.421875 -0.328125 -0.90625 -0.328125q-0.734375 0 -1.328125 0.390625q-0.859375 0.5625 -1.828125 1.921875l0 9.15625q0 1.8125 0.359375 2.390625q0.359375 0.5625 1.484375 0.671875l0 0.65625l-8.78125 0l0 -0.65625q1.0625 -0.109375 1.53125 -0.6875q0.296875 -0.40625 0.296875 -2.375l0 -9.625q0 -1.9375 -0.359375 -2.40625q-0.34375 -0.46875 -1.46875 -0.625l0 -0.671875l6.9375 0zm38.45398 7.921875l-9.34375 0q0.15625 3.390625 1.796875 5.359375q1.265625 1.5 3.03125 1.5q1.09375 0 1.984375 -0.609375q0.890625 -0.609375 1.921875 -2.1875l0.609375 0.390625q-1.375 2.828125 -3.0625 4.015625q-1.671875 1.171875 -3.875 1.171875q-3.796875 0 -5.75 -2.921875q-1.5625 -2.34375 -1.5625 -5.828125q0 -4.265625 2.296875 -6.78125q2.3125 -2.53125 5.421875 -2.53125q2.578125 0 4.484375 2.125q1.90625 2.109375 2.046875 6.296875zm-4.484375 -1.234375q0 -2.921875 -0.3125 -4.015625q-0.3125 -1.09375 -1.0 -1.671875q-0.375 -0.328125 -1.015625 -0.328125q-0.953125 0 -1.546875 0.9375q-1.078125 1.625 -1.078125 4.453125l0 0.625l4.953125 0zm13.380493 -12.921875l0 6.234375l4.046875 0l0 1.8125l-4.046875 0l0 10.515625q0 1.46875 0.140625 1.90625q0.140625 0.421875 0.484375 0.6875q0.34375 0.265625 0.640625 0.265625q1.1875 0 2.234375 -1.796875l0.546875 0.390625q-1.46875 3.5 -4.796875 3.5q-1.609375 0 -2.734375 -0.890625q-1.125 -0.90625 -1.4375 -2.015625q-0.171875 -0.625 -0.171875 -3.359375l0 -9.203125l-2.234375 0l0 -0.640625q2.296875 -1.625 3.90625 -3.40625q1.625 -1.78125 2.828125 -4.0l0.59375 0zm20.102417 14.15625l-9.34375 0q0.15625 3.390625 1.796875 5.359375q1.265625 1.5 3.03125 1.5q1.09375 0 1.984375 -0.609375q0.890625 -0.609375 1.921875 -2.1875l0.609375 0.390625q-1.375 2.828125 -3.0625 4.015625q-1.671875 1.171875 -3.875 1.171875q-3.796875 0 -5.75 -2.921875q-1.5625 -2.34375 -1.5625 -5.828125q0 -4.265625 2.296875 -6.78125q2.3125 -2.53125 5.421875 -2.53125q2.578125 0 4.484375 2.125q1.90625 2.109375 2.046875 6.296875zm-4.484375 -1.234375q0 -2.921875 -0.3125 -4.015625q-0.3125 -1.09375 -1.0 -1.671875q-0.375 -0.328125 -1.015625 -0.328125q-0.953125 0 -1.546875 0.9375q-1.078125 1.625 -1.078125 4.453125l0 0.625l4.953125 0zm13.692993 -6.6875l0 3.875q1.703125 -2.65625 2.96875 -3.515625q1.28125 -0.859375 2.46875 -0.859375q1.015625 0 1.625 0.625q0.609375 0.625 0.609375 1.78125q0 1.21875 -0.59375 1.890625q-0.59375 0.671875 -1.421875 0.671875q-0.96875 0 -1.6875 -0.609375q-0.703125 -0.625 -0.828125 -0.703125q-0.1875 -0.109375 -0.421875 -0.109375q-0.53125 0 -1.0 0.40625q-0.75 0.609375 -1.140625 1.765625q-0.578125 1.765625 -0.578125 3.90625l0 3.90625l0.015625 1.03125q0 1.03125 0.125 1.328125q0.21875 0.484375 0.640625 0.71875q0.4375 0.234375 1.46875 0.28125l0 0.65625l-9.21875 0l0 -0.65625q1.125 -0.09375 1.515625 -0.609375q0.390625 -0.515625 0.390625 -2.75l0 -9.421875q0 -1.453125 -0.15625 -1.859375q-0.171875 -0.5 -0.53125 -0.734375q-0.34375 -0.25 -1.21875 -0.34375l0 -0.671875l6.96875 0zm20.271118 -0.46875l0.265625 5.8125l-0.609375 0q-1.109375 -2.59375 -2.3125 -3.53125q-1.1875 -0.953125 -2.375 -0.953125q-0.75 0 -1.28125 0.5q-0.53125 0.5 -0.53125 1.15625q0 0.5 0.375 0.953125q0.578125 0.75 3.25 2.5625q2.6875 1.8125 3.53125 3.078125q0.859375 1.265625 0.859375 2.828125q0 1.421875 -0.71875 2.796875q-0.703125 1.359375 -2.0 2.09375q-1.296875 0.734375 -2.859375 0.734375q-1.234375 0 -3.265625 -0.765625q-0.546875 -0.203125 -0.75 -0.203125q-0.609375 0 -1.0 0.90625l-0.609375 0l-0.28125 -6.125l0.609375 0q0.828125 2.40625 2.25 3.609375q1.4375 1.203125 2.71875 1.203125q0.875 0 1.421875 -0.53125q0.5625 -0.546875 0.5625 -1.3125q0 -0.875 -0.546875 -1.5q-0.546875 -0.640625 -2.453125 -1.9375q-2.78125 -1.9375 -3.609375 -2.953125q-1.203125 -1.5 -1.203125 -3.296875q0 -1.96875 1.359375 -3.5625q1.359375 -1.59375 3.9375 -1.59375q1.375 0 2.671875 0.671875q0.5 0.265625 0.8125 0.265625q0.328125 0 0.515625 -0.125q0.203125 -0.140625 0.640625 -0.78125l0.625 0zm2.9484863 24.984375l0 -0.828125q1.890625 -1.265625 2.796875 -2.453125q1.21875 -1.640625 1.921875 -4.1875q0.875 -3.203125 0.875 -8.9375q0 -5.390625 -0.796875 -8.359375q-0.78125 -2.984375 -2.15625 -4.828125q-0.9375 -1.28125 -2.640625 -2.25l0 -0.90625q4.390625 1.484375 7.4375 6.03125q3.0625 4.546875 3.0625 10.453125q0 5.8125 -3.0625 10.296875q-3.046875 4.5 -7.4375 5.96875z" fill-rule="nonzero"/><path fill="#000000" fill-opacity="0.0" d="m140.81364 472.61154l0 0c0 -36.85956 72.558075 -66.74014 162.063 -66.74014l0 0c89.50491 0 162.06299 29.880585 162.06299 66.74014l0 0c0 36.85959 -72.558075 66.74014 -162.06299 66.74014l0 0c-89.50493 0 -162.063 -29.880554 -162.063 -66.74014z" fill-rule="evenodd"/><path stroke="#000000" stroke-width="4.0" stroke-linejoin="round" stroke-linecap="butt" d="m140.81364 472.61154l0 0c0 -36.85956 72.558075 -66.74014 162.063 -66.74014l0 0c89.50491 0 162.06299 29.880585 162.06299 66.74014l0 0c0 36.85959 -72.558075 66.74014 -162.06299 66.74014l0 0c-89.50493 0 -162.063 -29.880554 -162.063 -66.74014z" fill-rule="evenodd"/><path fill="#000000" d="m238.33366 437.9178l0.203125 8.828125l-0.796875 0q-0.5625 -3.3125 -2.78125 -5.328125q-2.21875 -2.03125 -4.796875 -2.03125q-1.984375 0 -3.15625 1.0625q-1.15625 1.0625 -1.15625 2.453125q0 0.875 0.40625 1.5625q0.5625 0.921875 1.8125 1.8125q0.921875 0.640625 4.25 2.28125q4.640625 2.296875 6.265625 4.328125q1.59375 2.03125 1.59375 4.640625q0 3.328125 -2.59375 5.71875q-2.578125 2.390625 -6.5625 2.390625q-1.25 0 -2.359375 -0.25q-1.109375 -0.25 -2.796875 -0.96875q-0.9375 -0.390625 -1.546875 -0.390625q-0.5 0 -1.078125 0.390625q-0.5625 0.390625 -0.90625 1.203125l-0.71875 0l0 -10.0l0.71875 0q0.859375 4.21875 3.3125 6.4375q2.453125 2.203125 5.28125 2.203125q2.1875 0 3.484375 -1.1875q1.296875 -1.1875 1.296875 -2.765625q0 -0.9375 -0.5 -1.8125q-0.5 -0.890625 -1.515625 -1.671875q-1.015625 -0.796875 -3.59375 -2.0625q-3.609375 -1.78125 -5.1875 -3.03125q-1.578125 -1.25 -2.4375 -2.796875q-0.84375 -1.546875 -0.84375 -3.390625q0 -3.171875 2.3125 -5.390625q2.328125 -2.234375 5.875 -2.234375q1.28125 0 2.5 0.3125q0.90625 0.234375 2.21875 0.875q1.328125 0.625 1.859375 0.625q0.5 0 0.796875 -0.3125q0.296875 -0.3125 0.546875 -1.5l0.59375 0zm20.089859 19.546875l-9.35939 0l-1.109375 2.578125q-0.546875 1.296875 -0.546875 2.140625q0 1.109375 0.90625 1.640625q0.515625 0.3125 2.59375 0.46875l0 0.71875l-8.8125 0l0 -0.71875q1.421875 -0.21875 2.34375 -1.1875q0.921875 -0.96875 2.265625 -4.0l9.468765 -21.125l0.375 0l9.546875 21.71875q1.375 3.078125 2.25 3.890625q0.671875 0.59375 1.875 0.703125l0 0.71875l-12.8125 0l0 -0.71875l0.53125 0q1.546875 0 2.171875 -0.4375q0.421875 -0.3125 0.421875 -0.890625q0 -0.359375 -0.109375 -0.734375q-0.046875 -0.171875 -0.59375 -1.453125l-1.40625 -3.3125zm-0.65625 -1.4375l-3.9531403 -9.125l-4.0625 9.125l8.01564 0zm31.964844 -0.046875l7.1875 -17.453125l10.78125 0l0 0.71875l-0.859375 0q-1.171875 0 -1.875 0.40625q-0.484375 0.28125 -0.78125 0.921875q-0.21875 0.46875 -0.21875 2.4375l0 17.46875q0 2.03125 0.21875 2.546875q0.21875 0.5 0.875 0.890625q0.671875 0.375 1.78125 0.375l0.859375 0l0 0.71875l-13.828125 0l0 -0.71875l0.859375 0q1.171875 0 1.875 -0.421875q0.484375 -0.265625 0.78125 -0.9375q0.21875 -0.46875 0.21875 -2.453125l0 -19.625l-10.15625 24.15625l-0.46875 0l-10.3125 -23.984375l0 18.65625q0 1.953125 0.09375 2.390625q0.25 0.984375 1.09375 1.609375q0.859375 0.609375 2.671875 0.609375l0 0.71875l-9.0625 0l0 -0.71875l0.28125 0q0.875 0.015625 1.640625 -0.28125q0.765625 -0.3125 1.15625 -0.8125q0.390625 -0.515625 0.59375 -1.4375q0.046875 -0.203125 0.046875 -1.984375l0 -16.765625q0 -2.0 -0.21875 -2.5q-0.21875 -0.5 -0.890625 -0.875q-0.65625 -0.390625 -1.765625 -0.390625l-0.84375 0l0 -0.71875l10.828125 0l7.4375 17.453125zm29.488281 -2.96875l0 7.34375q0 2.15625 0.265625 2.71875q0.265625 0.546875 0.9375 0.890625q0.671875 0.328125 2.46875 0.328125l0 0.71875l-13.453125 0l0 -0.71875q1.84375 0 2.484375 -0.34375q0.65625 -0.34375 0.921875 -0.890625q0.265625 -0.546875 0.265625 -2.703125l0 -17.1875q0 -2.140625 -0.265625 -2.6875q-0.265625 -0.5625 -0.9375 -0.890625q-0.65625 -0.34375 -2.46875 -0.34375l0 -0.71875l11.546875 0q5.703125 0 8.171875 2.03125q2.484375 2.03125 2.484375 5.078125q0 2.578125 -1.609375 4.421875q-1.59375 1.828125 -4.40625 2.484375q-1.890625 0.46875 -6.40625 0.46875zm0 -12.96875l0 11.453125q0.65625 0.03125 0.984375 0.03125q2.375 0 3.65625 -1.40625q1.296875 -1.421875 1.296875 -4.390625q0 -2.953125 -1.296875 -4.3125q-1.28125 -1.375 -3.828125 -1.375l-0.8125 0zm38.88672 15.671875l-0.984375 9.296875l-23.515625 0l0 -0.71875l0.875 0q1.15625 0 1.859375 -0.421875q0.5 -0.265625 0.78125 -0.9375q0.203125 -0.46875 0.203125 -2.453125l0 -17.421875q0 -2.03125 -0.21875 -2.53125q-0.203125 -0.515625 -0.859375 -0.890625q-0.65625 -0.390625 -1.765625 -0.390625l-0.875 0l0 -0.71875l14.109375 0l0 0.71875l-1.140625 0q-1.15625 0 -1.859375 0.40625q-0.515625 0.28125 -0.796875 0.9375q-0.21875 0.46875 -0.21875 2.46875l0 16.875q0 2.03125 0.234375 2.59375q0.234375 0.546875 0.921875 0.828125q0.484375 0.171875 2.359375 0.171875l2.203125 0q2.109375 0 3.515625 -0.734375q1.40625 -0.75 2.421875 -2.34375q1.03125 -1.609375 1.953125 -4.734375l0.796875 0zm12.3359375 -15.671875l0 10.78125l0.515625 0q2.53125 0 3.65625 -1.578125q1.140625 -1.578125 1.453125 -4.671875l0.734375 0l0 13.875l-0.734375 0q-0.234375 -2.265625 -1.0 -3.703125q-0.75 -1.453125 -1.75 -1.953125q-0.984375 -0.5 -2.875 -0.5l0 7.46875q0 2.1875 0.171875 2.671875q0.1875 0.484375 0.6875 0.796875q0.515625 0.3125 1.65625 0.3125l1.578125 0q3.71875 0 5.953125 -1.71875q2.234375 -1.71875 3.203125 -5.234375l0.734375 0l-1.203125 8.421875l-22.890625 0l0 -0.71875l0.890625 0q1.140625 0 1.84375 -0.421875q0.515625 -0.265625 0.78125 -0.9375q0.21875 -0.46875 0.21875 -2.453125l0 -17.421875q0 -1.796875 -0.09375 -2.203125q-0.203125 -0.6875 -0.71875 -1.0625q-0.75 -0.546875 -2.03125 -0.546875l-0.890625 0l0 -0.71875l22.171875 0l0 7.828125l-0.734375 0q-0.578125 -2.875 -1.609375 -4.125q-1.015625 -1.25 -2.890625 -1.828125q-1.09375 -0.359375 -4.09375 -0.359375l-2.734375 0z" fill-rule="nonzero"/><path fill="#000000" d="m210.34386 479.89093l0 0.421875q-0.953125 0.625 -1.40625 1.21875q-0.609375 0.8125 -0.953125 2.09375q-0.4375 1.59375 -0.4375 4.453125q0 2.703125 0.390625 4.203125q0.390625 1.484375 1.078125 2.40625q0.46875 0.640625 1.328125 1.125l0 0.453125q-2.203125 -0.734375 -3.734375 -3.015625q-1.515625 -2.265625 -1.515625 -5.21875q0 -2.921875 1.515625 -5.15625q1.53125 -2.25 3.734375 -2.984375zm4.572052 5.015625l0 5.90625q0 0.859375 0.1875 1.078125q0.296875 0.34375 1.078125 0.3125l0 0.328125l-5.03125 0l0 -0.328125q0.578125 -0.015625 0.8125 -0.125q0.25 -0.125 0.34375 -0.34375q0.09375 -0.21875 0.09375 -0.921875l0 -5.90625l-1.25 0l0 -0.890625l1.25 0l0 -0.625l-0.015625 -0.4375q0 -1.3125 0.953125 -2.1875q0.96875 -0.875 2.609375 -0.875q1.125 0 1.65625 0.421875q0.546875 0.421875 0.546875 0.9375q0 0.40625 -0.34375 0.703125q-0.328125 0.296875 -0.875 0.296875q-0.484375 0 -0.765625 -0.234375q-0.265625 -0.25 -0.265625 -0.546875q0 -0.09375 0.046875 -0.34375q0.03125 -0.15625 0.03125 -0.296875q0 -0.1875 -0.109375 -0.28125q-0.140625 -0.125 -0.34375 -0.125q-0.265625 0 -0.453125 0.21875q-0.171875 0.21875 -0.171875 0.6875l0.015625 1.609375l0 1.078125l1.265625 0l0 0.890625l-1.265625 0zm6.009552 -0.890625l0 1.921875q0.859375 -1.3125 1.484375 -1.734375q0.640625 -0.4375 1.234375 -0.4375q0.515625 0 0.8125 0.3125q0.3125 0.3125 0.3125 0.890625q0 0.609375 -0.296875 0.953125q-0.296875 0.328125 -0.71875 0.328125q-0.484375 0 -0.84375 -0.3125q-0.34375 -0.3125 -0.40625 -0.34375q-0.09375 -0.0625 -0.21875 -0.0625q-0.265625 0 -0.5 0.203125q-0.375 0.3125 -0.5625 0.890625q-0.296875 0.875 -0.296875 1.9375l0 1.96875l0.015625 0.5q0 0.53125 0.0625 0.671875q0.109375 0.25 0.3125 0.359375q0.21875 0.109375 0.734375 0.140625l0 0.328125l-4.59375 0l0 -0.328125q0.546875 -0.046875 0.734375 -0.296875q0.203125 -0.265625 0.203125 -1.375l0 -4.71875q0 -0.71875 -0.0625 -0.921875q-0.09375 -0.25 -0.265625 -0.375q-0.171875 -0.125 -0.609375 -0.171875l0 -0.328125l3.46875 0zm8.427673 -0.25q1.109375 0 2.0625 0.578125q0.96875 0.5625 1.453125 1.625q0.5 1.046875 0.5 2.3125q0 1.8125 -0.90625 3.03125q-1.125 1.46875 -3.078125 1.46875q-1.921875 0 -2.96875 -1.34375q-1.03125 -1.34375 -1.03125 -3.125q0 -1.828125 1.0625 -3.1875q1.0625 -1.359375 2.90625 -1.359375zm0.046875 0.640625q-0.46875 0 -0.8125 0.359375q-0.328125 0.34375 -0.4375 1.375q-0.09375 1.03125 -0.09375 2.875q0 0.96875 0.125 1.828125q0.109375 0.640625 0.4375 0.984375q0.328125 0.328125 0.734375 0.328125q0.421875 0 0.6875 -0.21875q0.359375 -0.3125 0.46875 -0.875q0.1875 -0.859375 0.1875 -3.5q0 -1.546875 -0.171875 -2.125q-0.171875 -0.578125 -0.515625 -0.84375q-0.234375 -0.1875 -0.609375 -0.1875zm8.796875 -0.390625l0 1.125q0.703125 -0.765625 1.296875 -1.0625q0.609375 -0.3125 1.3125 -0.3125q0.828125 0 1.375 0.390625q0.5625 0.375 0.859375 1.15625q0.734375 -0.828125 1.390625 -1.1875q0.671875 -0.359375 1.40625 -0.359375q0.890625 0 1.40625 0.40625q0.53125 0.390625 0.734375 1.015625q0.203125 0.625 0.203125 2.0l0 3.484375q0 0.984375 0.171875 1.21875q0.1875 0.234375 0.75 0.3125l0 0.328125l-4.40625 0l0 -0.328125q0.515625 -0.046875 0.765625 -0.40625q0.171875 -0.234375 0.171875 -1.125l0 -3.65625q0 -1.140625 -0.09375 -1.453125q-0.09375 -0.3125 -0.296875 -0.453125q-0.1875 -0.15625 -0.453125 -0.15625q-0.390625 0 -0.796875 0.296875q-0.390625 0.28125 -0.8125 0.84375l0 4.578125q0 0.921875 0.15625 1.15625q0.21875 0.34375 0.8125 0.375l0 0.328125l-4.421875 0l0 -0.328125q0.359375 -0.015625 0.5625 -0.171875q0.203125 -0.171875 0.265625 -0.390625q0.078125 -0.21875 0.078125 -0.96875l0 -3.65625q0 -1.15625 -0.09375 -1.453125q-0.09375 -0.296875 -0.3125 -0.453125q-0.203125 -0.171875 -0.453125 -0.171875q-0.359375 0 -0.65625 0.203125q-0.4375 0.28125 -0.921875 0.953125l0 4.578125q0 0.90625 0.171875 1.203125q0.1875 0.28125 0.75 0.328125l0 0.328125l-4.390625 0l0 -0.328125q0.546875 -0.046875 0.765625 -0.34375q0.15625 -0.203125 0.15625 -1.1875l0 -4.8125q0 -0.96875 -0.1875 -1.203125q-0.171875 -0.234375 -0.734375 -0.3125l0 -0.328125l3.46875 0zm25.126724 8.765625l-2.34375 -6.25l-2.28125 6.25l-0.46875 0l-2.2656097 -6.171875q-0.515625 -1.40625 -0.875 -1.84375q-0.21875 -0.28125 -0.6875 -0.421875l0 -0.328125l4.2968597 0l0 0.328125q-0.4375 0 -0.609375 0.140625q-0.15625 0.125 -0.15625 0.28125q0 0.15625 0.296875 0.9375l1.25 3.328125l1.203125 -3.328125l-0.09375 -0.21875q-0.28125 -0.6875 -0.484375 -0.875q-0.203125 -0.1875 -0.625 -0.265625l0 -0.328125l4.359375 0l0 0.328125q-0.515625 0.03125 -0.65625 0.15625q-0.125 0.109375 -0.125 0.3125q0 0.203125 0.265625 0.890625l1.203125 3.328125l1.09375 -3.0625q0.234375 -0.65625 0.234375 -0.890625q0 -0.359375 -0.171875 -0.515625q-0.171875 -0.171875 -0.671875 -0.21875l0 -0.328125l2.515625 0l0 0.328125q-0.421875 0.0625 -0.671875 0.3125q-0.234375 0.234375 -0.625 1.359375l-2.390625 6.765625l-0.515625 0zm8.504211 -12.609375l0 4.9375q0.703125 -0.734375 1.28125 -1.03125q0.578125 -0.3125 1.21875 -0.3125q0.796875 0 1.359375 0.453125q0.578125 0.453125 0.765625 1.078125q0.1875 0.609375 0.1875 2.0625l0 3.328125q0 0.96875 0.171875 1.21875q0.1875 0.234375 0.75 0.296875l0 0.328125l-4.328125 0l0 -0.328125q0.453125 -0.0625 0.6875 -0.359375q0.171875 -0.234375 0.171875 -1.15625l0 -3.796875q0 -1.0625 -0.09375 -1.328125q-0.078125 -0.265625 -0.28125 -0.421875q-0.1875 -0.15625 -0.4375 -0.15625q-0.359375 0 -0.703125 0.25q-0.34375 0.25 -0.75 0.890625l0 4.5625q0 0.90625 0.140625 1.140625q0.171875 0.296875 0.703125 0.375l0 0.328125l-4.3125 0l0 -0.328125q0.53125 -0.046875 0.765625 -0.34375q0.15625 -0.203125 0.15625 -1.171875l0 -8.65625q0 -0.96875 -0.1875 -1.203125q-0.171875 -0.234375 -0.734375 -0.3125l0 -0.34375l3.46875 0zm8.938202 -0.28125q0.59375 0 1.0 0.421875q0.421875 0.40625 0.421875 0.984375q0 0.578125 -0.421875 1.0q-0.40625 0.40625 -1.0 0.40625q-0.578125 0 -0.984375 -0.40625q-0.40625 -0.421875 -0.40625 -1.0q0 -0.578125 0.40625 -0.984375q0.40625 -0.421875 0.984375 -0.421875zm1.28125 4.125l0 6.75q0 0.90625 0.203125 1.15625q0.21875 0.25 0.828125 0.28125l0 0.328125l-4.609375 0l0 -0.328125q0.578125 -0.015625 0.84375 -0.328125q0.1875 -0.203125 0.1875 -1.109375l0 -4.96875q0 -0.90625 -0.21875 -1.15625q-0.203125 -0.25 -0.8125 -0.296875l0 -0.328125l3.578125 0zm8.808319 6.3125l0.28125 0.21875q-0.59375 1.140625 -1.5 1.6875q-0.890625 0.546875 -1.90625 0.546875q-1.703125 0 -2.734375 -1.28125q-1.015625 -1.28125 -1.015625 -3.09375q0 -1.734375 0.9375 -3.046875q1.125 -1.59375 3.09375 -1.59375q1.3125 0 2.09375 0.671875q0.78125 0.65625 0.78125 1.46875q0 0.515625 -0.3125 0.828125q-0.3125 0.3125 -0.828125 0.3125q-0.53125 0 -0.890625 -0.34375q-0.34375 -0.359375 -0.4375 -1.28125q-0.046875 -0.5625 -0.265625 -0.796875q-0.203125 -0.234375 -0.484375 -0.234375q-0.4375 0 -0.75 0.46875q-0.46875 0.703125 -0.46875 2.15625q0 1.203125 0.375 2.296875q0.390625 1.09375 1.046875 1.640625q0.5 0.390625 1.1875 0.390625q0.453125 0 0.84375 -0.203125q0.40625 -0.21875 0.953125 -0.8125zm4.8117676 -10.15625l0 4.9375q0.703125 -0.734375 1.28125 -1.03125q0.578125 -0.3125 1.21875 -0.3125q0.796875 0 1.359375 0.453125q0.578125 0.453125 0.765625 1.078125q0.1875 0.609375 0.1875 2.0625l0 3.328125q0 0.96875 0.171875 1.21875q0.1875 0.234375 0.75 0.296875l0 0.328125l-4.328125 0l0 -0.328125q0.453125 -0.0625 0.6875 -0.359375q0.171875 -0.234375 0.171875 -1.15625l0 -3.796875q0 -1.0625 -0.09375 -1.328125q-0.078125 -0.265625 -0.28125 -0.421875q-0.1875 -0.15625 -0.4375 -0.15625q-0.359375 0 -0.703125 0.25q-0.34375 0.25 -0.75 0.890625l0 4.5625q0 0.90625 0.140625 1.140625q0.171875 0.296875 0.703125 0.375l0 0.328125l-4.3125 0l0 -0.328125q0.53125 -0.046875 0.765625 -0.34375q0.15625 -0.203125 0.15625 -1.171875l0 -8.65625q0 -0.96875 -0.1875 -1.203125q-0.171875 -0.234375 -0.734375 -0.3125l0 -0.34375l3.46875 0zm20.008545 12.609375l-2.34375 -6.25l-2.28125 6.25l-0.46875 0l-2.265625 -6.171875q-0.515625 -1.40625 -0.875 -1.84375q-0.21875 -0.28125 -0.6875 -0.421875l0 -0.328125l4.296875 0l0 0.328125q-0.4375 0 -0.609375 0.140625q-0.15625 0.125 -0.15625 0.28125q0 0.15625 0.296875 0.9375l1.25 3.328125l1.203125 -3.328125l-0.09375 -0.21875q-0.28125 -0.6875 -0.484375 -0.875q-0.203125 -0.1875 -0.625 -0.265625l0 -0.328125l4.359375 0l0 0.328125q-0.515625 0.03125 -0.65625 0.15625q-0.125 0.109375 -0.125 0.3125q0 0.203125 0.265625 0.890625l1.203125 3.328125l1.09375 -3.0625q0.234375 -0.65625 0.234375 -0.890625q0 -0.359375 -0.171875 -0.515625q-0.171875 -0.171875 -0.671875 -0.21875l0 -0.328125l2.515625 0l0 0.328125q-0.421875 0.0625 -0.671875 0.3125q-0.234375 0.234375 -0.625 1.359375l-2.390625 6.765625l-0.515625 0zm12.238556 -4.8125l-4.671875 0q0.078125 1.6875 0.90625 2.671875q0.625 0.765625 1.5 0.765625q0.546875 0 0.984375 -0.296875q0.453125 -0.3125 0.96875 -1.109375l0.3125 0.203125q-0.6875 1.40625 -1.53125 2.0q-0.84375 0.578125 -1.9375 0.578125q-1.890625 0 -2.875 -1.453125q-0.78125 -1.171875 -0.78125 -2.921875q0 -2.125 1.15625 -3.375q1.15625 -1.265625 2.703125 -1.265625q1.28125 0 2.234375 1.0625q0.953125 1.046875 1.03125 3.140625zm-2.234375 -0.609375q0 -1.46875 -0.171875 -2.015625q-0.15625 -0.546875 -0.484375 -0.828125q-0.203125 -0.171875 -0.515625 -0.171875q-0.46875 0 -0.78125 0.46875q-0.53125 0.8125 -0.53125 2.21875l0 0.328125l2.484375 0zm14.913361 2.96875l0.28125 0.21875q-0.59375 1.140625 -1.5 1.6875q-0.890625 0.546875 -1.90625 0.546875q-1.703125 0 -2.734375 -1.28125q-1.015625 -1.28125 -1.015625 -3.09375q0 -1.734375 0.9375 -3.046875q1.125 -1.59375 3.09375 -1.59375q1.3125 0 2.09375 0.671875q0.78125 0.65625 0.78125 1.46875q0 0.515625 -0.3125 0.828125q-0.3125 0.3125 -0.828125 0.3125q-0.53125 0 -0.890625 -0.34375q-0.34375 -0.359375 -0.4375 -1.28125q-0.046875 -0.5625 -0.265625 -0.796875q-0.203125 -0.234375 -0.484375 -0.234375q-0.4375 0 -0.75 0.46875q-0.46875 0.703125 -0.46875 2.15625q0 1.203125 0.375 2.296875q0.390625 1.09375 1.046875 1.640625q0.5 0.390625 1.1875 0.390625q0.453125 0 0.84375 -0.203125q0.40625 -0.21875 0.953125 -0.8125zm5.3430176 -6.5625q1.109375 0 2.0625 0.578125q0.96875 0.5625 1.453125 1.625q0.5 1.046875 0.5 2.3125q0 1.8125 -0.90625 3.03125q-1.125 1.46875 -3.078125 1.46875q-1.921875 0 -2.96875 -1.34375q-1.03125 -1.34375 -1.03125 -3.125q0 -1.828125 1.0625 -3.1875q1.0625 -1.359375 2.90625 -1.359375zm0.046875 0.640625q-0.46875 0 -0.8125 0.359375q-0.328125 0.34375 -0.4375 1.375q-0.09375 1.03125 -0.09375 2.875q0 0.96875 0.125 1.828125q0.109375 0.640625 0.4375 0.984375q0.328125 0.328125 0.734375 0.328125q0.421875 0 0.6875 -0.21875q0.359375 -0.3125 0.46875 -0.875q0.1875 -0.859375 0.1875 -3.5q0 -1.546875 -0.171875 -2.125q-0.171875 -0.578125 -0.515625 -0.84375q-0.234375 -0.1875 -0.609375 -0.1875zm8.796875 -0.390625l0 1.125q0.703125 -0.765625 1.296875 -1.0625q0.609375 -0.3125 1.3125 -0.3125q0.828125 0 1.375 0.390625q0.5625 0.375 0.859375 1.15625q0.734375 -0.828125 1.390625 -1.1875q0.671875 -0.359375 1.40625 -0.359375q0.890625 0 1.40625 0.40625q0.53125 0.390625 0.734375 1.015625q0.203125 0.625 0.203125 2.0l0 3.484375q0 0.984375 0.171875 1.21875q0.1875 0.234375 0.75 0.3125l0 0.328125l-4.40625 0l0 -0.328125q0.515625 -0.046875 0.765625 -0.40625q0.171875 -0.234375 0.171875 -1.125l0 -3.65625q0 -1.140625 -0.09375 -1.453125q-0.09375 -0.3125 -0.296875 -0.453125q-0.1875 -0.15625 -0.453125 -0.15625q-0.390625 0 -0.796875 0.296875q-0.390625 0.28125 -0.8125 0.84375l0 4.578125q0 0.921875 0.15625 1.15625q0.21875 0.34375 0.8125 0.375l0 0.328125l-4.421875 0l0 -0.328125q0.359375 -0.015625 0.5625 -0.171875q0.203125 -0.171875 0.265625 -0.390625q0.078125 -0.21875 0.078125 -0.96875l0 -3.65625q0 -1.15625 -0.09375 -1.453125q-0.09375 -0.296875 -0.3125 -0.453125q-0.203125 -0.171875 -0.453125 -0.171875q-0.359375 0 -0.65625 0.203125q-0.4375 0.28125 -0.921875 0.953125l0 4.578125q0 0.90625 0.171875 1.203125q0.1875 0.28125 0.75 0.328125l0 0.328125l-4.390625 0l0 -0.328125q0.546875 -0.046875 0.765625 -0.34375q0.15625 -0.203125 0.15625 -1.1875l0 -4.8125q0 -0.96875 -0.1875 -1.203125q-0.171875 -0.234375 -0.734375 -0.3125l0 -0.328125l3.46875 0zm15.306427 7.65625l0 3.171875q0 0.640625 0.109375 0.875q0.109375 0.25 0.328125 0.359375q0.21875 0.109375 0.84375 0.109375l0 0.328125l-4.84375 0l0 -0.328125q0.5625 -0.015625 0.828125 -0.328125q0.1875 -0.203125 0.1875 -1.078125l0 -8.984375q0 -0.90625 -0.21875 -1.15625q-0.203125 -0.25 -0.796875 -0.296875l0 -0.328125l3.5625 0l0 1.125q0.453125 -0.65625 0.921875 -0.953125q0.65625 -0.421875 1.4375 -0.421875q0.9375 0 1.703125 0.59375q0.78125 0.578125 1.171875 1.625q0.40625 1.046875 0.40625 2.25q0 1.296875 -0.421875 2.375q-0.40625 1.0625 -1.203125 1.625q-0.78125 0.546875 -1.75 0.546875q-0.6875 0 -1.3125 -0.296875q-0.453125 -0.25 -0.953125 -0.8125zm0 -0.921875q0.78125 1.109375 1.6875 1.109375q0.484375 0 0.796875 -0.515625q0.484375 -0.765625 0.484375 -2.921875q0 -2.203125 -0.515625 -3.015625q-0.359375 -0.53125 -0.9375 -0.53125q-0.921875 0 -1.515625 1.328125l0 4.546875zm15.313232 -6.734375l0 6.671875q0 0.96875 0.171875 1.21875q0.1875 0.234375 0.75 0.296875l0 0.328125l-3.484375 0l0 -1.140625q-0.609375 0.734375 -1.21875 1.0625q-0.609375 0.328125 -1.359375 0.328125q-0.71875 0 -1.28125 -0.4375q-0.5625 -0.4375 -0.75 -1.03125q-0.1875 -0.59375 -0.1875 -2.0625l0 -3.390625q0 -0.96875 -0.1875 -1.203125q-0.171875 -0.234375 -0.734375 -0.3125l0 -0.328125l3.46875 0l0 5.8125q0 0.921875 0.078125 1.1875q0.09375 0.265625 0.28125 0.40625q0.1875 0.125 0.4375 0.125q0.328125 0 0.578125 -0.171875q0.375 -0.234375 0.875 -0.953125l0 -4.5625q0 -0.96875 -0.171875 -1.203125q-0.171875 -0.234375 -0.734375 -0.3125l0 -0.328125l3.46875 0zm5.531952 -3.125l0 3.125l2.015625 0l0 0.90625l-2.015625 0l0 5.25q0 0.734375 0.0625 0.953125q0.0625 0.21875 0.234375 0.359375q0.171875 0.125 0.328125 0.125q0.59375 0 1.109375 -0.90625l0.28125 0.203125q-0.734375 1.75 -2.390625 1.75q-0.8125 0 -1.375 -0.453125q-0.5625 -0.453125 -0.71875 -1.015625q-0.09375 -0.3125 -0.09375 -1.671875l0 -4.59375l-1.109375 0l0 -0.328125q1.15625 -0.8125 1.953125 -1.703125q0.8125 -0.890625 1.40625 -2.0l0.3125 0zm10.040802 7.078125l-4.671875 0q0.078125 1.6875 0.90625 2.671875q0.625 0.765625 1.5 0.765625q0.546875 0 0.984375 -0.296875q0.453125 -0.3125 0.96875 -1.109375l0.3125 0.203125q-0.6875 1.40625 -1.53125 2.0q-0.84375 0.578125 -1.9375 0.578125q-1.890625 0 -2.875 -1.453125q-0.78125 -1.171875 -0.78125 -2.921875q0 -2.125 1.15625 -3.375q1.15625 -1.265625 2.703125 -1.265625q1.28125 0 2.234375 1.0625q0.953125 1.046875 1.03125 3.140625zm-2.234375 -0.609375q0 -1.46875 -0.171875 -2.015625q-0.15625 -0.546875 -0.484375 -0.828125q-0.203125 -0.171875 -0.515625 -0.171875q-0.46875 0 -0.78125 0.46875q-0.53125 0.8125 -0.53125 2.21875l0 0.328125l2.484375 0z" fill-rule="nonzero"/><path fill="#000000" d="m241.27246 505.78156l0.140625 2.90625l-0.3125 0q-0.5625 -1.296875 -1.15625 -1.765625q-0.59375 -0.484375 -1.1875 -0.484375q-0.375 0 -0.640625 0.25q-0.265625 0.25 -0.265625 0.578125q0 0.25 0.1875 0.484375q0.28125 0.375 1.625 1.28125q1.34375 0.90625 1.765625 1.546875q0.421875 0.625 0.421875 1.40625q0 0.703125 -0.359375 1.390625q-0.34375 0.6875 -1.0 1.046875q-0.640625 0.359375 -1.421875 0.359375q-0.609375 0 -1.640625 -0.375q-0.265625 -0.109375 -0.375 -0.109375q-0.296875 0 -0.5 0.46875l-0.296875 0l-0.140625 -3.0625l0.3125 0q0.40625 1.203125 1.109375 1.8125q0.71875 0.59375 1.359375 0.59375q0.4375 0 0.71875 -0.265625q0.28125 -0.28125 0.28125 -0.65625q0 -0.4375 -0.28125 -0.75q-0.265625 -0.328125 -1.21875 -0.96875q-1.390625 -0.96875 -1.796875 -1.484375q-0.609375 -0.75 -0.609375 -1.640625q0 -0.984375 0.671875 -1.78125q0.6875 -0.796875 1.96875 -0.796875q0.703125 0 1.34375 0.328125q0.25 0.140625 0.40625 0.140625q0.15625 0 0.25 -0.0625q0.109375 -0.078125 0.328125 -0.390625l0.3125 0zm6.572769 7.5q-1.5625 1.375 -2.796875 1.375q-0.734375 0 -1.21875 -0.484375q-0.46875 -0.484375 -0.46875 -1.203125q0 -0.96875 0.828125 -1.75q0.84375 -0.78125 3.65625 -2.078125l0 -0.84375q0 -0.96875 -0.109375 -1.21875q-0.09375 -0.25 -0.390625 -0.4375q-0.296875 -0.1875 -0.65625 -0.1875q-0.59375 0 -0.96875 0.265625q-0.25 0.15625 -0.25 0.375q0 0.203125 0.265625 0.484375q0.34375 0.390625 0.34375 0.75q0 0.453125 -0.34375 0.765625q-0.328125 0.3125 -0.859375 0.3125q-0.578125 0 -0.96875 -0.34375q-0.375 -0.359375 -0.375 -0.8125q0 -0.65625 0.515625 -1.25q0.515625 -0.609375 1.4375 -0.921875q0.9375 -0.3125 1.9375 -0.3125q1.21875 0 1.921875 0.515625q0.703125 0.5 0.921875 1.109375q0.125 0.375 0.125 1.75l0 3.3125q0 0.578125 0.046875 0.734375q0.046875 0.15625 0.125 0.234375q0.09375 0.0625 0.21875 0.0625q0.234375 0 0.484375 -0.34375l0.265625 0.21875q-0.453125 0.6875 -0.9375 1.0q-0.484375 0.296875 -1.109375 0.296875q-0.734375 0 -1.140625 -0.34375q-0.40625 -0.34375 -0.5 -1.03125zm0 -0.671875l0 -2.84375q-1.09375 0.640625 -1.640625 1.375q-0.359375 0.5 -0.359375 1.0q0 0.40625 0.3125 0.734375q0.21875 0.25 0.625 0.25q0.46875 0 1.0625 -0.515625zm8.156265 -6.59375l0 1.125q0.703125 -0.765625 1.296875 -1.0625q0.609375 -0.3125 1.3125 -0.3125q0.828125 0 1.375 0.390625q0.5625 0.375 0.859375 1.15625q0.734375 -0.828125 1.390625 -1.1875q0.671875 -0.359375 1.40625 -0.359375q0.890625 0 1.40625 0.40625q0.53125 0.390625 0.734375 1.015625q0.203125 0.625 0.203125 2.0l0 3.484375q0 0.984375 0.171875 1.21875q0.1875 0.234375 0.75 0.3125l0 0.328125l-4.40625 0l0 -0.328125q0.515625 -0.046875 0.765625 -0.40625q0.171875 -0.234375 0.171875 -1.125l0 -3.65625q0 -1.140625 -0.09375 -1.453125q-0.09375 -0.3125 -0.296875 -0.453125q-0.1875 -0.15625 -0.453125 -0.15625q-0.390625 0 -0.796875 0.296875q-0.390625 0.28125 -0.8125 0.84375l0 4.578125q0 0.921875 0.15625 1.15625q0.21875 0.34375 0.8125 0.375l0 0.328125l-4.421875 0l0 -0.328125q0.359375 -0.015625 0.5625 -0.171875q0.203125 -0.171875 0.265625 -0.390625q0.078125 -0.21875 0.078125 -0.96875l0 -3.65625q0 -1.15625 -0.09375 -1.453125q-0.09375 -0.296875 -0.3125 -0.453125q-0.203125 -0.171875 -0.453125 -0.171875q-0.359375 0 -0.65625 0.203125q-0.4375 0.28125 -0.921875 0.953125l0 4.578125q0 0.90625 0.171875 1.203125q0.1875 0.28125 0.75 0.328125l0 0.328125l-4.3906403 0l0 -0.328125q0.546875 -0.046875 0.765625 -0.34375q0.15625 -0.203125 0.15625 -1.1875l0 -4.8125q0 -0.96875 -0.1875 -1.203125q-0.171875 -0.234375 -0.734375 -0.3125l0 -0.328125l3.4687653 0zm15.306427 7.65625l0 3.171875q0 0.640625 0.109375 0.875q0.109375 0.25 0.328125 0.359375q0.21875 0.109375 0.84375 0.109375l0 0.328125l-4.84375 0l0 -0.328125q0.5625 -0.015625 0.828125 -0.328125q0.1875 -0.203125 0.1875 -1.078125l0 -8.984375q0 -0.90625 -0.21875 -1.15625q-0.203125 -0.25 -0.796875 -0.296875l0 -0.328125l3.5625 0l0 1.125q0.453125 -0.65625 0.921875 -0.953125q0.65625 -0.421875 1.4375 -0.421875q0.9375 0 1.703125 0.59375q0.78125 0.578125 1.171875 1.625q0.40625 1.046875 0.40625 2.25q0 1.296875 -0.421875 2.375q-0.40625 1.0625 -1.203125 1.625q-0.78125 0.546875 -1.75 0.546875q-0.6875 0 -1.3125 -0.296875q-0.453125 -0.25 -0.953125 -0.8125zm0 -0.921875q0.78125 1.109375 1.6875 1.109375q0.484375 0 0.796875 -0.515625q0.484375 -0.765625 0.484375 -2.921875q0 -2.203125 -0.515625 -3.015625q-0.359375 -0.53125 -0.9375 -0.53125q-0.921875 0 -1.515625 1.328125l0 4.546875zm10.422577 -10.578125l0 10.59375q0 0.90625 0.203125 1.15625q0.203125 0.25 0.8125 0.28125l0 0.328125l-4.59375 0l0 -0.328125q0.5625 -0.015625 0.84375 -0.328125q0.171875 -0.203125 0.171875 -1.109375l0 -8.8125q0 -0.90625 -0.203125 -1.15625q-0.203125 -0.25 -0.8125 -0.28125l0 -0.34375l3.578125 0zm9.058319 7.796875l-4.671875 0q0.078125 1.6875 0.90625 2.671875q0.625 0.765625 1.5 0.765625q0.546875 0 0.984375 -0.296875q0.453125 -0.3125 0.96875 -1.109375l0.3125 0.203125q-0.6875 1.40625 -1.53125 2.0q-0.84375 0.578125 -1.9375 0.578125q-1.890625 0 -2.875 -1.453125q-0.78125 -1.171875 -0.78125 -2.921875q0 -2.125 1.15625 -3.375q1.15625 -1.265625 2.703125 -1.265625q1.28125 0 2.234375 1.0625q0.953125 1.046875 1.03125 3.140625zm-2.234375 -0.609375q0 -1.46875 -0.171875 -2.015625q-0.15625 -0.546875 -0.484375 -0.828125q-0.203125 -0.171875 -0.515625 -0.171875q-0.46875 0 -0.78125 0.46875q-0.53125 0.8125 -0.53125 2.21875l0 0.328125l2.484375 0zm13.35083 -3.578125l0.140625 2.90625l-0.3125 0q-0.5625 -1.296875 -1.15625 -1.765625q-0.59375 -0.484375 -1.1875 -0.484375q-0.375 0 -0.640625 0.25q-0.265625 0.25 -0.265625 0.578125q0 0.25 0.1875 0.484375q0.28125 0.375 1.625 1.28125q1.34375 0.90625 1.765625 1.546875q0.421875 0.625 0.421875 1.40625q0 0.703125 -0.359375 1.390625q-0.34375 0.6875 -1.0 1.046875q-0.640625 0.359375 -1.421875 0.359375q-0.609375 0 -1.640625 -0.375q-0.265625 -0.109375 -0.375 -0.109375q-0.296875 0 -0.5 0.46875l-0.296875 0l-0.140625 -3.0625l0.3125 0q0.40625 1.203125 1.109375 1.8125q0.71875 0.59375 1.359375 0.59375q0.4375 0 0.71875 -0.265625q0.28125 -0.28125 0.28125 -0.65625q0 -0.4375 -0.28125 -0.75q-0.265625 -0.328125 -1.21875 -0.96875q-1.390625 -0.96875 -1.796875 -1.484375q-0.609375 -0.75 -0.609375 -1.640625q0 -0.984375 0.671875 -1.78125q0.6875 -0.796875 1.96875 -0.796875q0.703125 0 1.34375 0.328125q0.25 0.140625 0.40625 0.140625q0.15625 0 0.25 -0.0625q0.109375 -0.078125 0.328125 -0.390625l0.3125 0zm5.2602844 -2.890625l0 3.125l2.015625 0l0 0.90625l-2.015625 0l0 5.25q0 0.734375 0.0625 0.953125q0.0625 0.21875 0.234375 0.359375q0.171875 0.125 0.328125 0.125q0.59375 0 1.109375 -0.90625l0.28125 0.203125q-0.734375 1.75 -2.390625 1.75q-0.8125 0 -1.375 -0.453125q-0.5625 -0.453125 -0.71875 -1.015625q-0.09375 -0.3125 -0.09375 -1.671875l0 -4.59375l-1.109375 0l0 -0.328125q1.15625 -0.8125 1.953125 -1.703125q0.8125 -0.890625 1.40625 -2.0l0.3125 0zm7.525177 10.390625q-1.5625 1.375 -2.796875 1.375q-0.734375 0 -1.21875 -0.484375q-0.46875 -0.484375 -0.46875 -1.203125q0 -0.96875 0.828125 -1.75q0.84375 -0.78125 3.65625 -2.078125l0 -0.84375q0 -0.96875 -0.109375 -1.21875q-0.09375 -0.25 -0.390625 -0.4375q-0.296875 -0.1875 -0.65625 -0.1875q-0.59375 0 -0.96875 0.265625q-0.25 0.15625 -0.25 0.375q0 0.203125 0.265625 0.484375q0.34375 0.390625 0.34375 0.75q0 0.453125 -0.34375 0.765625q-0.328125 0.3125 -0.859375 0.3125q-0.578125 0 -0.96875 -0.34375q-0.375 -0.359375 -0.375 -0.8125q0 -0.65625 0.515625 -1.25q0.515625 -0.609375 1.4375 -0.921875q0.9375 -0.3125 1.9375 -0.3125q1.21875 0 1.921875 0.515625q0.703125 0.5 0.921875 1.109375q0.125 0.375 0.125 1.75l0 3.3125q0 0.578125 0.046875 0.734375q0.046875 0.15625 0.125 0.234375q0.09375 0.0625 0.21875 0.0625q0.234375 0 0.484375 -0.34375l0.265625 0.21875q-0.453125 0.6875 -0.9375 1.0q-0.484375 0.296875 -1.109375 0.296875q-0.734375 0 -1.140625 -0.34375q-0.40625 -0.34375 -0.5 -1.03125zm0 -0.671875l0 -2.84375q-1.09375 0.640625 -1.640625 1.375q-0.359375 0.5 -0.359375 1.0q0 0.40625 0.3125 0.734375q0.21875 0.25 0.625 0.25q0.46875 0 1.0625 -0.515625zm8.015625 -9.71875l0 3.125l2.015625 0l0 0.90625l-2.015625 0l0 5.25q0 0.734375 0.0625 0.953125q0.0625 0.21875 0.234375 0.359375q0.171875 0.125 0.328125 0.125q0.59375 0 1.109375 -0.90625l0.28125 0.203125q-0.734375 1.75 -2.390625 1.75q-0.8125 0 -1.375 -0.453125q-0.5625 -0.453125 -0.71875 -1.015625q-0.09375 -0.3125 -0.09375 -1.671875l0 -4.59375l-1.109375 0l0 -0.328125q1.15625 -0.8125 1.953125 -1.703125q0.8125 -0.890625 1.40625 -2.0l0.3125 0zm4.868927 -1.0q0.59375 0 1.0 0.421875q0.421875 0.40625 0.421875 0.984375q0 0.578125 -0.421875 1.0q-0.40625 0.40625 -1.0 0.40625q-0.578125 0 -0.984375 -0.40625q-0.40625 -0.421875 -0.40625 -1.0q0 -0.578125 0.40625 -0.984375q0.40625 -0.421875 0.984375 -0.421875zm1.28125 4.125l0 6.75q0 0.90625 0.203125 1.15625q0.21875 0.25 0.828125 0.28125l0 0.328125l-4.609375 0l0 -0.328125q0.578125 -0.015625 0.84375 -0.328125q0.1875 -0.203125 0.1875 -1.109375l0 -4.96875q0 -0.90625 -0.21875 -1.15625q-0.203125 -0.25 -0.8125 -0.296875l0 -0.328125l3.578125 0zm7.2457886 -0.234375l0.140625 2.90625l-0.3125 0q-0.5625 -1.296875 -1.15625 -1.765625q-0.59375 -0.484375 -1.1875 -0.484375q-0.375 0 -0.640625 0.25q-0.265625 0.25 -0.265625 0.578125q0 0.25 0.1875 0.484375q0.28125 0.375 1.625 1.28125q1.34375 0.90625 1.765625 1.546875q0.421875 0.625 0.421875 1.40625q0 0.703125 -0.359375 1.390625q-0.34375 0.6875 -1.0 1.046875q-0.640625 0.359375 -1.421875 0.359375q-0.609375 0 -1.640625 -0.375q-0.265625 -0.109375 -0.375 -0.109375q-0.296875 0 -0.5 0.46875l-0.296875 0l-0.140625 -3.0625l0.3125 0q0.40625 1.203125 1.109375 1.8125q0.71875 0.59375 1.359375 0.59375q0.4375 0 0.71875 -0.265625q0.28125 -0.28125 0.28125 -0.65625q0 -0.4375 -0.28125 -0.75q-0.265625 -0.328125 -1.21875 -0.96875q-1.390625 -0.96875 -1.796875 -1.484375q-0.609375 -0.75 -0.609375 -1.640625q0 -0.984375 0.671875 -1.78125q0.6875 -0.796875 1.96875 -0.796875q0.703125 0 1.34375 0.328125q0.25 0.140625 0.40625 0.140625q0.15625 0 0.25 -0.0625q0.109375 -0.078125 0.328125 -0.390625l0.3125 0zm5.2602844 -2.890625l0 3.125l2.015625 0l0 0.90625l-2.015625 0l0 5.25q0 0.734375 0.0625 0.953125q0.0625 0.21875 0.234375 0.359375q0.171875 0.125 0.328125 0.125q0.59375 0 1.109375 -0.90625l0.28125 0.203125q-0.734375 1.75 -2.390625 1.75q-0.8125 0 -1.375 -0.453125q-0.5625 -0.453125 -0.71875 -1.015625q-0.09375 -0.3125 -0.09375 -1.671875l0 -4.59375l-1.109375 0l0 -0.328125q1.15625 -0.8125 1.953125 -1.703125q0.8125 -0.890625 1.40625 -2.0l0.3125 0zm4.868927 -1.0q0.59375 0 1.0 0.421875q0.421875 0.40625 0.421875 0.984375q0 0.578125 -0.421875 1.0q-0.40625 0.40625 -1.0 0.40625q-0.578125 0 -0.984375 -0.40625q-0.40625 -0.421875 -0.40625 -1.0q0 -0.578125 0.40625 -0.984375q0.40625 -0.421875 0.984375 -0.421875zm1.28125 4.125l0 6.75q0 0.90625 0.203125 1.15625q0.21875 0.25 0.828125 0.28125l0 0.328125l-4.609375 0l0 -0.328125q0.578125 -0.015625 0.84375 -0.328125q0.1875 -0.203125 0.1875 -1.109375l0 -4.96875q0 -0.90625 -0.21875 -1.15625q-0.203125 -0.25 -0.8125 -0.296875l0 -0.328125l3.578125 0zm8.808289 6.3125l0.28125 0.21875q-0.59375 1.140625 -1.5 1.6875q-0.890625 0.546875 -1.90625 0.546875q-1.703125 0 -2.734375 -1.28125q-1.015625 -1.28125 -1.015625 -3.09375q0 -1.734375 0.9375 -3.046875q1.125 -1.59375 3.09375 -1.59375q1.3125 0 2.09375 0.671875q0.78125 0.65625 0.78125 1.46875q0 0.515625 -0.3125 0.828125q-0.3125 0.3125 -0.828125 0.3125q-0.53125 0 -0.890625 -0.34375q-0.34375 -0.359375 -0.4375 -1.28125q-0.046875 -0.5625 -0.265625 -0.796875q-0.203125 -0.234375 -0.484375 -0.234375q-0.4375 0 -0.75 0.46875q-0.46875 0.703125 -0.46875 2.15625q0 1.203125 0.375 2.296875q0.390625 1.09375 1.046875 1.640625q0.5 0.390625 1.1875 0.390625q0.453125 0 0.84375 -0.203125q0.40625 -0.21875 0.953125 -0.8125zm6.718048 -6.546875l0.140625 2.90625l-0.3125 0q-0.5625 -1.296875 -1.15625 -1.765625q-0.59375 -0.484375 -1.1875 -0.484375q-0.375 0 -0.640625 0.25q-0.265625 0.25 -0.265625 0.578125q0 0.25 0.1875 0.484375q0.28125 0.375 1.625 1.28125q1.34375 0.90625 1.765625 1.546875q0.421875 0.625 0.421875 1.40625q0 0.703125 -0.359375 1.390625q-0.34375 0.6875 -1.0 1.046875q-0.640625 0.359375 -1.421875 0.359375q-0.609375 0 -1.640625 -0.375q-0.265625 -0.109375 -0.375 -0.109375q-0.296875 0 -0.5 0.46875l-0.296875 0l-0.140625 -3.0625l0.3125 0q0.40625 1.203125 1.109375 1.8125q0.71875 0.59375 1.359375 0.59375q0.4375 0 0.71875 -0.265625q0.28125 -0.28125 0.28125 -0.65625q0 -0.4375 -0.28125 -0.75q-0.265625 -0.328125 -1.21875 -0.96875q-1.390625 -0.96875 -1.796875 -1.484375q-0.609375 -0.75 -0.609375 -1.640625q0 -0.984375 0.671875 -1.78125q0.6875 -0.796875 1.96875 -0.796875q0.703125 0 1.34375 0.328125q0.25 0.140625 0.40625 0.140625q0.15625 0 0.25 -0.0625q0.109375 -0.078125 0.328125 -0.390625l0.3125 0zm1.4790039 12.484375l0 -0.421875q0.9375 -0.625 1.390625 -1.21875q0.609375 -0.8125 0.96875 -2.09375q0.4375 -1.609375 0.4375 -4.46875q0 -2.6875 -0.40625 -4.171875q-0.390625 -1.5 -1.078125 -2.421875q-0.46875 -0.640625 -1.3125 -1.109375l0 -0.46875q2.1875 0.75 3.703125 3.03125q1.53125 2.265625 1.53125 5.203125q0 2.90625 -1.53125 5.15625q-1.515625 2.25 -3.703125 2.984375z" fill-rule="nonzero"/><path fill="#cfe2f3" d="m74.073494 341.8263l0 0c0 52.89441 20.588104 99.089935 50.055115 112.31354l0 -24.518005l16.685036 36.543915l-16.685036 29.177124l0 -24.518005l0 0c-29.46701 -13.223602 -50.055115 -59.41913 -50.055115 -112.31351z" fill-rule="evenodd"/><path fill="#a5b4c2" d="m140.81364 242.51443l0 0c-34.997124 0 -64.05032 46.985565 -66.56732 107.65439l0 0c-1.3330002 -32.130188 5.081558 -63.776794 17.707329 -87.36017c12.625771 -23.583344 30.325523 -36.979263 48.859993 -36.979263z" fill-rule="evenodd"/><path fill="#000000" fill-opacity="0.0" d="m74.073494 341.8263l0 0c0 52.89441 20.588104 99.089935 50.055115 112.31354l0 -24.518005l16.685036 36.543915l-16.685036 29.177124l0 -24.518005l0 0c-29.46701 -13.223602 -50.055115 -59.41913 -50.055115 -112.31351l0 -16.685059l0 0c0 -64.063324 29.880585 -115.9969 66.74015 -115.9969l0 16.685043l0 0c-34.997124 0 -64.05032 46.985565 -66.56732 107.65439" fill-rule="evenodd"/><path stroke="#000000" stroke-width="1.0" stroke-linejoin="round" stroke-linecap="butt" d="m74.073494 341.8263l0 0c0 52.89441 20.588104 99.089935 50.055115 112.31354l0 -24.518005l16.685036 36.543915l-16.685036 29.177124l0 -24.518005l0 0c-29.46701 -13.223602 -50.055115 -59.41913 -50.055115 -112.31351l0 -16.685059l0 0c0 -64.063324 29.880585 -115.9969 66.74015 -115.9969l0 16.685043l0 0c-34.997124 0 -64.05032 46.985565 -66.56732 107.65439" fill-rule="evenodd"/><path fill="#000000" fill-opacity="0.0" d="m14.055119 445.0105l0 -189.95276l63.023624 0l0 189.95276z" fill-rule="evenodd"/><path fill="#000000" d="m57.615116 435.54175l-0.65625 0l0 -0.796875q0 -1.03125 -0.3125 -1.578125q-0.328125 -0.5625 -0.890625 -0.828125q-0.375 -0.15625 -2.21875 -0.15625l-15.6875 0q-1.828125 0 -2.28125 0.1875q-0.453125 0.1875 -0.796875 0.78125q-0.34375 0.59375 -0.34375 1.59375l0 0.796875l-0.65625 0l0 -10.671875q0 -4.28125 1.171875 -6.875q1.421875 -3.1875 4.3125 -4.828125q2.875 -1.640625 6.515625 -1.640625q2.515625 0 4.640625 0.8125q2.109375 0.796875 3.484375 2.09375q1.375 1.28125 2.21875 2.953125q0.828125 1.671875 1.28125 4.109375q0.21875 1.0625 0.21875 3.375l0 10.671875zm-22.484375 -9.09375l18.59375 0q1.484375 0 1.828125 -0.140625q0.328125 -0.140625 0.5 -0.46875q0.265625 -0.484375 0.265625 -1.375q0 -2.9375 -2.015625 -4.484375q-2.703125 -2.109375 -8.390625 -2.109375q-4.59375 0 -7.328125 1.4375q-2.15625 1.140625 -2.921875 2.9375q-0.546875 1.265625 -0.53125 4.203125zm6.046875 -24.466797l3.734375 0q-2.5625 -1.640625 -3.390625 -2.859375q-0.828125 -1.234375 -0.828125 -2.375q0 -0.984375 0.609375 -1.578125q0.59375 -0.59375 1.703125 -0.59375q1.171875 0 1.828125 0.578125q0.65625 0.5625 0.65625 1.375q0 0.9375 -0.59375 1.625q-0.609375 0.671875 -0.671875 0.796875q-0.109375 0.1875 -0.109375 0.40625q0 0.515625 0.390625 0.96875q0.59375 0.71875 1.703125 1.09375q1.703125 0.5625 3.765625 0.5625l3.765625 0l0.984375 -0.015625q1.015625 0 1.296875 -0.125q0.46875 -0.21875 0.6875 -0.625q0.21875 -0.421875 0.265625 -1.40625l0.640625 0l0 8.890625l-0.640625 0q-0.078125 -1.078125 -0.578125 -1.453125q-0.5 -0.375 -2.65625 -0.375l-9.078125 0q-1.40625 0 -1.796875 0.140625q-0.484375 0.171875 -0.71875 0.515625q-0.234375 0.328125 -0.3125 1.171875l-0.65625 0l0 -6.71875zm14.015625 -18.228516q2.65625 3.0 2.65625 5.390625q0 1.40625 -0.921875 2.34375q-0.9375 0.921875 -2.3125 0.921875q-1.890625 0 -3.390625 -1.609375q-1.5 -1.625 -4.0 -7.046875l-1.65625 0q-1.859375 0 -2.34375 0.203125q-0.484375 0.203125 -0.84375 0.765625q-0.359375 0.5625 -0.359375 1.265625q0 1.140625 0.515625 1.875q0.3125 0.453125 0.734375 0.453125q0.375 0 0.90625 -0.484375q0.765625 -0.671875 1.46875 -0.671875q0.859375 0 1.46875 0.640625q0.609375 0.640625 0.609375 1.6875q0 1.09375 -0.671875 1.84375q-0.671875 0.75 -1.5625 0.75q-1.265625 0 -2.421875 -1.0q-1.15625 -1.0 -1.765625 -2.796875q-0.609375 -1.796875 -0.609375 -3.71875q0 -2.34375 1.0 -3.703125q0.984375 -1.359375 2.140625 -1.765625q0.734375 -0.25 3.390625 -0.25l6.375 0q1.125 0 1.421875 -0.078125q0.296875 -0.09375 0.4375 -0.265625q0.140625 -0.1875 0.140625 -0.40625q0 -0.46875 -0.65625 -0.9375l0.421875 -0.53125q1.296875 0.875 1.890625 1.828125q0.59375 0.9375 0.59375 2.125q0 1.40625 -0.65625 2.203125q-0.671875 0.796875 -2.0 0.96875zm-1.28125 0l-5.515625 0q1.25 2.125 2.671875 3.15625q0.953125 0.6875 1.921875 0.6875q0.8125 0 1.421875 -0.578125q0.484375 -0.4375 0.484375 -1.234375q0 -0.875 -0.984375 -2.03125zm4.203125 -25.234375l-12.0625 4.5l12.0625 4.421875l0 0.90625l-11.921875 4.375q-2.734375 0.984375 -3.5625 1.671875q-0.5625 0.4375 -0.796875 1.34375l-0.65625 0l0 -8.296875l0.65625 0q0 0.84375 0.25 1.15625q0.234375 0.3125 0.546875 0.3125q0.3125 0 1.796875 -0.5625l6.421875 -2.40625l-6.421875 -2.3125l-0.421875 0.171875q-1.3125 0.53125 -1.671875 0.921875q-0.359375 0.390625 -0.5 1.21875l-0.65625 0l0 -8.421875l0.65625 0q0.046875 0.984375 0.265625 1.25q0.21875 0.265625 0.625 0.265625q0.390625 0 1.703125 -0.515625l6.421875 -2.3125l-5.90625 -2.109375q-1.265625 -0.453125 -1.71875 -0.453125q-0.6875 0 -1.0 0.328125q-0.328125 0.328125 -0.390625 1.296875l-0.65625 0l0 -4.859375l0.65625 0q0.09375 0.796875 0.5625 1.28125q0.46875 0.46875 2.65625 1.234375l13.0625 4.59375l0 1.0zm-24.875 -18.591797l24.921875 7.828125l0 2.25l-24.921875 -7.859375l0 -2.21875zm0.53125 -22.611328l6.453125 0l0 0.640625q-2.234375 0.5625 -3.203125 1.25q-0.96875 0.6875 -1.5625 1.875q-0.3125 0.671875 -0.3125 2.34375l0 1.765625l18.390625 0q1.828125 0 2.28125 -0.1875q0.453125 -0.203125 0.796875 -0.796875q0.34375 -0.59375 0.34375 -1.609375l0 -0.796875l0.65625 0l0 12.484375l-0.65625 0l0 -0.796875q0 -1.03125 -0.359375 -1.65625q-0.25 -0.46875 -0.84375 -0.734375q-0.421875 -0.1875 -2.21875 -0.1875l-18.390625 0l0 1.71875q0 2.40625 1.015625 3.5q1.4375 1.53125 4.0625 1.9375l0 0.671875l-6.453125 0l0 -21.421875zm21.421875 -8.269531q2.65625 3.0 2.65625 5.390625q0 1.40625 -0.921875 2.34375q-0.9375 0.921875 -2.3125 0.921875q-1.890625 0 -3.390625 -1.609375q-1.5 -1.625 -4.0 -7.046875l-1.65625 0q-1.859375 0 -2.34375 0.203125q-0.484375 0.203125 -0.84375 0.765625q-0.359375 0.5625 -0.359375 1.265625q0 1.140625 0.515625 1.875q0.3125 0.453125 0.734375 0.453125q0.375 0 0.90625 -0.484375q0.765625 -0.671875 1.46875 -0.671875q0.859375 0 1.46875 0.640625q0.609375 0.640625 0.609375 1.6875q0 1.09375 -0.671875 1.84375q-0.671875 0.75 -1.5625 0.75q-1.265625 0 -2.421875 -1.0q-1.15625 -1.0 -1.765625 -2.796875q-0.609375 -1.796875 -0.609375 -3.71875q0 -2.34375 1.0 -3.703125q0.984375 -1.359375 2.140625 -1.765625q0.734375 -0.25 3.390625 -0.25l6.375 0q1.125 0 1.421875 -0.078125q0.296875 -0.09375 0.4375 -0.265625q0.140625 -0.1875 0.140625 -0.40625q0 -0.46875 -0.65625 -0.9375l0.421875 -0.53125q1.296875 0.875 1.890625 1.828125q0.59375 0.9375 0.59375 2.125q0 1.40625 -0.65625 2.203125q-0.671875 0.796875 -2.0 0.96875zm-1.28125 0l-5.515625 0q1.25 2.125 2.671875 3.15625q0.953125 0.6875 1.921875 0.6875q0.8125 0 1.421875 -0.578125q0.484375 -0.4375 0.484375 -1.234375q0 -0.875 -0.984375 -2.03125zm-20.140625 -15.609375l15.6875 0l-3.75 -3.8125q-1.140625 -1.1875 -1.640625 -1.46875q-0.515625 -0.296875 -0.984375 -0.296875q-0.484375 0 -0.796875 0.390625q-0.3125 0.390625 -0.453125 1.515625l-0.65625 0l0 -7.375l0.65625 0q0.046875 1.0625 0.5 1.859375q0.4375 0.78125 2.6875 3.078125l1.765625 1.796875l5.65625 -3.859375q3.453125 -2.34375 3.875 -2.78125q0.59375 -0.59375 0.65625 -1.515625l0.640625 0l0 8.5l-0.640625 0q0 -0.5625 -0.203125 -0.8125q-0.21875 -0.265625 -0.453125 -0.265625q-0.40625 0 -1.5 0.734375l-4.765625 3.25l1.046875 1.0625l2.953125 0q1.875 0 2.34375 -0.34375q0.46875 -0.359375 0.578125 -1.453125l0.640625 0l0 8.484375l-0.640625 0q-0.09375 -1.03125 -0.65625 -1.46875q-0.390625 -0.296875 -2.265625 -0.296875l-16.703125 0q-1.859375 0 -2.3125 0.34375q-0.46875 0.34375 -0.609375 1.421875l-0.65625 0l0 -6.6875z" fill-rule="nonzero"/><path fill="#000000" d="m48.802616 266.1648l0 9.015625q3.28125 -0.15625 5.171875 -1.734375q1.453125 -1.21875 1.453125 -2.921875q0 -1.046875 -0.578125 -1.90625q-0.59375 -0.859375 -2.125 -1.84375l0.390625 -0.609375q2.71875 1.34375 3.859375 2.96875q1.140625 1.609375 1.140625 3.734375q0 3.65625 -2.828125 5.53125q-2.265625 1.515625 -5.625 1.515625q-4.109375 0 -6.53125 -2.21875q-2.4375 -2.234375 -2.4375 -5.21875q0 -2.5 2.046875 -4.328125q2.046875 -1.84375 6.0625 -1.984375zm-1.171875 4.328125q-2.828125 0 -3.875 0.3125q-1.0625 0.296875 -1.609375 0.953125q-0.3125 0.375 -0.3125 0.984375q0 0.921875 0.890625 1.5q1.5625 1.03125 4.296875 1.03125l0.609375 0l0 -4.78125z" fill-rule="nonzero"/><path fill="#000000" fill-opacity="0.0" d="m503.6063 230.4147l0 295.3386l-58.173218 0l0 -295.3386z" fill-rule="evenodd"/><path fill="#000000" d="m471.10504 254.6647l13.96875 5.75l0 8.625l-0.578125 0l0 -0.6875q0 -0.9375 -0.328125 -1.5q-0.21875 -0.390625 -0.734375 -0.625q-0.375 -0.171875 -1.953125 -0.171875l-13.96875 0q-1.625 0 -2.03125 0.171875q-0.40625 0.171875 -0.71875 0.703125q-0.296875 0.53125 -0.296875 1.421875l0 0.6875l-0.578125 0l0 -11.0625l0.578125 0l0 0.6875q0 0.9375 0.328125 1.5q0.21875 0.390625 0.75 0.625q0.375 0.171875 1.96875 0.171875l15.703125 0l-19.328125 -8.125l0 -0.375l19.1875 -8.25l-14.921875 0q-1.5625 0 -1.921875 0.078125q-0.78125 0.203125 -1.28125 0.875q-0.484375 0.6875 -0.484375 2.140625l-0.578125 0l0 -7.25l0.578125 0l0 0.21875q-0.015625 0.703125 0.21875 1.3125q0.25 0.609375 0.65625 0.921875q0.40625 0.3125 1.140625 0.484375q0.171875 0.03125 1.59375 0.03125l13.40625 0q1.609375 0 2.0 -0.171875q0.40625 -0.171875 0.703125 -0.703125q0.3125 -0.53125 0.3125 -1.421875l0 -0.671875l0.578125 0l0 8.65625l-13.96875 5.953125zm-5.0625 24.09375q-2.359375 -2.671875 -2.359375 -4.796875q0 -1.25 0.8125 -2.078125q0.828125 -0.828125 2.0625 -0.828125q1.671875 0 3.0 1.4375q1.34375 1.4375 3.5625 6.265625l1.46875 0q1.65625 0 2.078125 -0.1875q0.4375 -0.171875 0.75 -0.671875q0.328125 -0.5 0.328125 -1.125q0 -1.015625 -0.453125 -1.671875q-0.28125 -0.40625 -0.65625 -0.40625q-0.328125 0 -0.8125 0.4375q-0.671875 0.59375 -1.296875 0.59375q-0.765625 0 -1.3125 -0.578125q-0.53125 -0.5625 -0.53125 -1.484375q0 -0.984375 0.59375 -1.65625q0.59375 -0.65625 1.390625 -0.65625q1.125 0 2.140625 0.890625q1.03125 0.890625 1.578125 2.484375q0.546875 1.59375 0.546875 3.3125q0 2.078125 -0.890625 3.28125q-0.875 1.21875 -1.90625 1.578125q-0.65625 0.21875 -3.015625 0.21875l-5.671875 0q-1.0 0 -1.265625 0.078125q-0.25 0.078125 -0.375 0.234375q-0.125 0.15625 -0.125 0.359375q0 0.40625 0.578125 0.828125l-0.375 0.46875q-1.15625 -0.78125 -1.6875 -1.625q-0.515625 -0.828125 -0.515625 -1.890625q0 -1.25 0.578125 -1.953125q0.59375 -0.703125 1.78125 -0.859375zm1.140625 0l4.890625 0q-1.109375 -1.890625 -2.375 -2.8125q-0.84375 -0.609375 -1.703125 -0.609375q-0.71875 0 -1.265625 0.515625q-0.421875 0.390625 -0.421875 1.09375q0 0.78125 0.875 1.8125zm17.890625 13.875l-13.9375 0l3.328125 3.390625q1.015625 1.046875 1.46875 1.296875q0.453125 0.265625 0.875 0.265625q0.421875 0 0.703125 -0.34375q0.28125 -0.34375 0.40625 -1.34375l0.578125 0l0 6.546875l-0.578125 0q-0.046875 -0.9375 -0.453125 -1.640625q-0.390625 -0.703125 -2.390625 -2.75l-1.5625 -1.59375l-5.03125 3.4375q-3.0625 2.078125 -3.4375 2.46875q-0.53125 0.53125 -0.59375 1.34375l-0.5625 0l0 -7.546875l0.5625 0q0 0.5 0.1875 0.71875q0.1875 0.234375 0.40625 0.234375q0.359375 0 1.328125 -0.65625l4.234375 -2.890625l-0.921875 -0.9375l-2.625 0q-1.671875 0 -2.09375 0.3125q-0.40625 0.3125 -0.515625 1.28125l-0.5625 0l0 -7.546875l0.5625 0q0.09375 0.921875 0.59375 1.3125q0.34375 0.265625 2.015625 0.265625l14.84375 0q1.65625 0 2.0625 -0.3125q0.40625 -0.296875 0.53125 -1.265625l0.578125 0l0 5.953125zm-13.359375 24.234375l0 -8.015625q-2.90625 0.140625 -4.59375 1.546875q-1.296875 1.078125 -1.296875 2.59375q0 0.9375 0.515625 1.703125q0.53125 0.765625 1.890625 1.640625l-0.34375 0.53125q-2.421875 -1.1875 -3.4375 -2.625q-1.0 -1.4375 -1.0 -3.328125q0 -3.25 2.5 -4.921875q2.015625 -1.34375 5.0 -1.34375q3.65625 0 5.8125 1.96875q2.171875 1.984375 2.171875 4.640625q0 2.21875 -1.828125 3.84375q-1.8125 1.640625 -5.390625 1.765625zm1.046875 -3.84375q2.515625 0 3.453125 -0.28125q0.9375 -0.265625 1.421875 -0.84375q0.28125 -0.328125 0.28125 -0.875q0 -0.8125 -0.796875 -1.328125q-1.390625 -0.921875 -3.8125 -0.921875l-0.546875 0l0 4.25zm-8.296875 24.3125l-0.578125 0l0 -11.078125l0.578125 0l0 0.703125q0 0.921875 0.328125 1.484375q0.21875 0.40625 0.75 0.625q0.375 0.171875 1.96875 0.171875l13.9375 0q1.625 0 2.03125 -0.171875q0.40625 -0.171875 0.703125 -0.703125q0.3125 -0.515625 0.3125 -1.40625l0 -0.703125l0.578125 0l0 11.078125l-0.578125 0l0 -0.703125q0 -0.921875 -0.328125 -1.484375q-0.21875 -0.40625 -0.75 -0.640625q-0.375 -0.171875 -1.96875 -0.171875l-13.9375 0q-1.625 0 -2.03125 0.171875q-0.40625 0.1875 -0.71875 0.703125q-0.296875 0.53125 -0.296875 1.421875l0 0.703125zm14.03125 7.78125l-1.890625 0q1.21875 1.125 1.765625 2.15625q0.5625 1.03125 0.5625 2.21875q0 1.421875 -0.796875 2.359375q-0.78125 0.9375 -1.953125 1.25q-0.890625 0.25 -3.421875 0.25l-5.6875 0q-1.6875 0 -2.109375 0.296875q-0.40625 0.3125 -0.515625 1.28125l-0.5625 0l0 -7.390625l0.5625 0q0.109375 0.828125 0.6875 1.1875q0.390625 0.25 1.9375 0.25l6.5 0q1.796875 0 2.265625 -0.140625q0.46875 -0.140625 0.71875 -0.484375q0.265625 -0.328125 0.265625 -0.734375q0 -1.34375 -1.921875 -2.5l-7.828125 0q-1.640625 0 -2.078125 0.296875q-0.4375 0.3125 -0.546875 1.140625l-0.5625 0l0 -7.390625l0.5625 0q0.09375 0.921875 0.59375 1.3125q0.34375 0.265625 2.03125 0.265625l8.25 0q1.65625 0 2.0625 -0.3125q0.40625 -0.296875 0.53125 -1.265625l0.578125 0l0 5.953125zm-1.53125 18.234375l-10.140625 0q-1.46875 0 -1.84375 0.3125q-0.578125 0.5 -0.53125 1.84375l-0.5625 0l0 -8.609375l0.5625 0q0.015625 0.984375 0.21875 1.390625q0.21875 0.421875 0.59375 0.578125q0.375 0.15625 1.5625 0.15625l10.140625 0l0 -2.125l1.53125 0l0 2.125l1.078125 0l0.734375 -0.015625q2.25 0 3.75 1.640625q1.5 1.65625 1.5 4.46875q0 1.921875 -0.71875 2.84375q-0.71875 0.9375 -1.59375 0.9375q-0.703125 0 -1.21875 -0.578125q-0.515625 -0.578125 -0.515625 -1.53125q0 -0.8125 0.421875 -1.296875q0.421875 -0.46875 0.9375 -0.46875q0.140625 0 0.578125 0.09375q0.265625 0.0625 0.5 0.0625q0.328125 0 0.484375 -0.1875q0.234375 -0.25 0.234375 -0.609375q0 -0.453125 -0.375 -0.765625q-0.375 -0.296875 -1.203125 -0.296875l-2.734375 0.03125l-1.859375 0l0 2.15625l-1.53125 0l0 -2.15625zm-5.25 16.625l0 -8.015625q-2.90625 0.140625 -4.59375 1.546875q-1.296875 1.078125 -1.296875 2.59375q0 0.9375 0.515625 1.703125q0.53125 0.765625 1.890625 1.640625l-0.34375 0.53125q-2.421875 -1.1875 -3.4375 -2.625q-1.0 -1.4375 -1.0 -3.328125q0 -3.25 2.5 -4.921875q2.015625 -1.34375 5.0 -1.34375q3.65625 0 5.8125 1.96875q2.171875 1.984375 2.171875 4.640625q0 2.21875 -1.828125 3.84375q-1.8125 1.640625 -5.390625 1.765625zm1.046875 -3.84375q2.515625 0 3.453125 -0.28125q0.9375 -0.265625 1.421875 -0.84375q0.28125 -0.328125 0.28125 -0.875q0 -0.8125 -0.796875 -1.328125q-1.390625 -0.921875 -3.8125 -0.921875l-0.546875 0l0 4.25zm5.734375 11.734375l-3.3125 0q2.265625 1.453125 3.0 2.546875q0.75 1.09375 0.75 2.109375q0 0.875 -0.546875 1.390625q-0.53125 0.53125 -1.515625 0.53125q-1.046875 0 -1.625 -0.515625q-0.578125 -0.5 -0.578125 -1.21875q0 -0.828125 0.53125 -1.4375q0.53125 -0.609375 0.59375 -0.71875q0.09375 -0.15625 0.09375 -0.359375q0 -0.453125 -0.34375 -0.859375q-0.53125 -0.640625 -1.515625 -0.96875q-1.515625 -0.5 -3.34375 -0.5l-3.359375 0l-0.875 0.015625q-0.890625 0 -1.140625 0.109375q-0.421875 0.1875 -0.625 0.546875q-0.1875 0.375 -0.234375 1.25l-0.5625 0l0 -7.890625l0.5625 0q0.078125 0.953125 0.515625 1.28125q0.453125 0.34375 2.359375 0.34375l8.078125 0q1.25 0 1.59375 -0.125q0.4375 -0.15625 0.640625 -0.453125q0.203125 -0.296875 0.28125 -1.046875l0.578125 0l0 5.96875zm-6.78125 19.9375l0 -8.015625q-2.90625 0.140625 -4.59375 1.546875q-1.296875 1.078125 -1.296875 2.59375q0 0.9375 0.515625 1.703125q0.53125 0.765625 1.890625 1.640625l-0.34375 0.53125q-2.421875 -1.1875 -3.4375 -2.625q-1.0 -1.4375 -1.0 -3.328125q0 -3.25 2.5 -4.921875q2.015625 -1.34375 5.0 -1.34375q3.65625 0 5.8125 1.96875q2.171875 1.984375 2.171875 4.640625q0 2.21875 -1.828125 3.84375q-1.8125 1.640625 -5.390625 1.765625zm1.046875 -3.84375q2.515625 0 3.453125 -0.28125q0.9375 -0.265625 1.421875 -0.84375q0.28125 -0.328125 0.28125 -0.875q0 -0.8125 -0.796875 -1.328125q-1.390625 -0.921875 -3.8125 -0.921875l-0.546875 0l0 4.25zm5.734375 11.640625l-1.890625 0q1.21875 1.125 1.765625 2.15625q0.5625 1.03125 0.5625 2.21875q0 1.421875 -0.796875 2.359375q-0.78125 0.9375 -1.953125 1.25q-0.890625 0.25 -3.421875 0.25l-5.6875 0q-1.6875 0 -2.109375 0.296875q-0.40625 0.3125 -0.515625 1.28125l-0.5625 0l0 -7.390625l0.5625 0q0.109375 0.828125 0.6875 1.1875q0.390625 0.25 1.9375 0.25l6.5 0q1.796875 0 2.265625 -0.140625q0.46875 -0.140625 0.71875 -0.484375q0.265625 -0.328125 0.265625 -0.734375q0 -1.34375 -1.921875 -2.5l-7.828125 0q-1.640625 0 -2.078125 0.296875q-0.4375 0.3125 -0.546875 1.140625l-0.5625 0l0 -7.390625l0.5625 0q0.09375 0.921875 0.59375 1.3125q0.34375 0.265625 2.03125 0.265625l8.25 0q1.65625 0 2.0625 -0.3125q0.40625 -0.296875 0.53125 -1.265625l0.578125 0l0 5.953125zm-10.84375 23.75l-0.375 0.484375q-1.9375 -1.03125 -2.890625 -2.578125q-0.9375 -1.53125 -0.9375 -3.265625q0 -2.921875 2.203125 -4.671875q2.203125 -1.75 5.296875 -1.75q2.984375 0 5.25 1.59375q2.734375 1.921875 2.734375 5.296875q0 2.265625 -1.140625 3.59375q-1.140625 1.34375 -2.546875 1.34375q-0.890625 0 -1.421875 -0.546875q-0.53125 -0.53125 -0.53125 -1.40625q0 -0.921875 0.609375 -1.53125q0.609375 -0.59375 2.171875 -0.734375q0.984375 -0.09375 1.375 -0.453125q0.390625 -0.359375 0.390625 -0.84375q0 -0.75 -0.796875 -1.28125q-1.203125 -0.8125 -3.6875 -0.8125q-2.0625 0 -3.953125 0.65625q-1.875 0.65625 -2.796875 1.796875q-0.671875 0.859375 -0.671875 2.03125q0 0.765625 0.359375 1.453125q0.359375 0.6875 1.359375 1.625zm4.0625 14.65625l0 -8.015625q-2.90625 0.140625 -4.59375 1.546875q-1.296875 1.078125 -1.296875 2.59375q0 0.9375 0.515625 1.703125q0.53125 0.765625 1.890625 1.640625l-0.34375 0.53125q-2.421875 -1.1875 -3.4375 -2.625q-1.0 -1.4375 -1.0 -3.328125q0 -3.25 2.5 -4.921875q2.015625 -1.34375 5.0 -1.34375q3.65625 0 5.8125 1.96875q2.171875 1.984375 2.171875 4.640625q0 2.21875 -1.828125 3.84375q-1.8125 1.640625 -5.390625 1.765625zm1.046875 -3.84375q2.515625 0 3.453125 -0.28125q0.9375 -0.265625 1.421875 -0.84375q0.28125 -0.328125 0.28125 -0.875q0 -0.8125 -0.796875 -1.328125q-1.390625 -0.921875 -3.8125 -0.921875l-0.546875 0l0 4.25zm6.140625 14.90625l-4.984375 0.234375l0 -0.53125q2.21875 -0.953125 3.03125 -1.984375q0.8125 -1.015625 0.8125 -2.03125q0 -0.640625 -0.4375 -1.09375q-0.421875 -0.453125 -0.984375 -0.453125q-0.421875 0 -0.8125 0.3125q-0.640625 0.5 -2.203125 2.796875q-1.546875 2.296875 -2.640625 3.015625q-1.078125 0.734375 -2.421875 0.734375q-1.21875 0 -2.390625 -0.609375q-1.171875 -0.609375 -1.796875 -1.71875q-0.625 -1.109375 -0.625 -2.453125q0 -1.046875 0.65625 -2.796875q0.171875 -0.46875 0.171875 -0.640625q0 -0.515625 -0.78125 -0.859375l0 -0.515625l5.25 -0.25l0 0.53125q-2.0625 0.703125 -3.09375 1.921875q-1.03125 1.234375 -1.03125 2.328125q0 0.75 0.453125 1.21875q0.46875 0.484375 1.125 0.484375q0.75 0 1.296875 -0.46875q0.546875 -0.46875 1.65625 -2.09375q1.65625 -2.390625 2.53125 -3.09375q1.28125 -1.03125 2.828125 -1.03125q1.6875 0 3.046875 1.15625q1.375 1.171875 1.375 3.375q0 1.1875 -0.578125 2.296875q-0.234375 0.421875 -0.234375 0.6875q0 0.28125 0.109375 0.453125q0.125 0.171875 0.671875 0.546875l0 0.53125z" fill-rule="nonzero"/><path fill="#cfe2f3" d="m393.0866 497.0735l24.740234 0l0 -259.71655l-10.881836 0l16.818848 -23.748032l16.818817 23.748032l-10.881805 0l0 271.59058l-36.614258 0z" fill-rule="evenodd"/><path stroke="#000000" stroke-width="1.0" stroke-linejoin="round" stroke-linecap="butt" d="m393.0866 497.0735l24.740234 0l0 -259.71655l-10.881836 0l16.818848 -23.748032l16.818817 23.748032l-10.881805 0l0 271.59058l-36.614258 0z" fill-rule="evenodd"/></g></svg>