<?xml version='1.0'?>
<!--
Bitly Generated QR Code
v4
33x33
-->
<svg width='656' height='656'
xmlns='http://www.w3.org/2000/svg'
xmlns:xlink='http://www.w3.org/1999/xlink'>
	<g id='background' style='fill:#ffffff' >
<rect x="0" y="0" width="656" height="656" />
</g>
<g id='pips' style='fill:#000000' >
<path d="M64,256L80,256L96,256L96,272L80,272L64,272L64,256M64,320L80,320L80,304L96,304L112,304L112,320L96,320L96,336L80,336L64,336L64,320M64,368L80,368L80,384L80,400L96,400L96,416L80,416L80,432L80,448L96,448L96,464L80,464L64,464L64,448L64,432L64,416L64,400L64,384L64,368M80,208L96,208L96,224L80,224L80,208M80,352L96,352L112,352L128,352L128,336L128,320L144,320L160,320L176,320L176,304L160,304L160,288L176,288L192,288L192,304L208,304L224,304L224,320L240,320L240,336L240,352L240,368L224,368L224,384L224,400L208,400L192,400L192,384L208,384L208,368L192,368L192,352L208,352L208,336L208,320L192,320L192,336L176,336L160,336L160,352L144,352L144,368L144,384L160,384L176,384L176,400L160,400L144,400L128,400L128,416L128,432L112,432L112,416L112,400L112,384L128,384L128,368L112,368L96,368L80,368L80,352M96,240L112,240L112,224L112,208L112,192L128,192L144,192L144,208L128,208L128,224L128,240L144,240L144,224L144,208L160,208L160,224L176,224L176,240L160,240L160,256L144,256L128,256L128,272L144,272L160,272L160,288L144,288L128,288L128,304L112,304L112,288L112,272L112,256L96,256L96,240M128,432L144,432L144,448L128,448L128,432M144,416L160,416L176,416L176,400L192,400L192,416L208,416L224,416L240,416L240,432L256,432L256,448L240,448L224,448L208,448L208,464L224,464L240,464L240,480L224,480L224,496L224,512L208,512L208,496L192,496L192,480L192,464L176,464L160,464L144,464L144,448L160,448L176,448L176,432L160,432L144,432L144,416M160,192L176,192L192,192L192,208L176,208L160,208L160,192M160,256L176,256L176,272L160,272L160,256M160,352L176,352L176,368L160,368L160,352M192,96L208,96L208,80L224,80L240,80L240,64L256,64L256,80L256,96L272,96L288,96L288,112L272,112L272,128L256,128L256,112L240,112L224,112L208,112L208,128L192,128L192,112L192,96M192,160L208,160L208,176L192,176L192,160M192,208L208,208L208,192L208,176L224,176L224,192L224,208L224,224L208,224L208,240L192,240L192,224L192,208M192,256L208,256L208,240L224,240L224,224L240,224L240,240L240,256L224,256L224,272L240,272L240,288L240,304L224,304L224,288L208,288L208,272L192,272L192,256M192,512L208,512L208,528L224,528L224,544L208,544L192,544L192,528L192,512M208,560L224,560L224,576L240,576L256,576L272,576L272,560L288,560L288,544L288,528L272,528L256,528L256,512L272,512L288,512L288,496L272,496L256,496L256,512L240,512L240,496L240,480L256,480L256,464L272,464L272,448L288,448L288,464L304,464L320,464L336,464L336,480L320,480L320,496L336,496L336,512L352,512L368,512L368,528L352,528L352,544L352,560L368,560L368,576L352,576L336,576L320,576L320,560L336,560L336,544L320,544L320,528L320,512L304,512L304,528L304,544L304,560L304,576L320,576L320,592L304,592L288,592L272,592L256,592L240,592L224,592L208,592L208,576L208,560M224,128L240,128L240,144L240,160L240,176L224,176L224,160L224,144L224,128M224,544L240,544L240,560L224,560L224,544M240,176L256,176L256,192L240,192L240,176M240,528L256,528L256,544L240,544L240,528M256,144L272,144L272,160L272,176L256,176L256,160L256,144M256,192L272,192L272,208L288,208L288,224L288,240L272,240L272,224L256,224L256,208L256,192M256,416L272,416L288,416L304,416L304,432L288,432L272,432L256,432L256,416M272,64L288,64L288,80L272,80L272,64M288,80L304,80L320,80L320,64L336,64L336,80L352,80L368,80L368,96L384,96L384,112L368,112L368,128L368,144L384,144L384,160L368,160L368,176L368,192L352,192L352,208L368,208L368,224L368,240L352,240L352,224L336,224L336,240L320,240L304,240L304,224L304,208L288,208L288,192L288,176L288,160L304,160L304,176L320,176L320,192L320,208L336,208L336,192L336,176L352,176L352,160L352,144L352,128L336,128L320,128L320,144L336,144L336,160L336,176L320,176L320,160L304,160L304,144L288,144L288,128L288,112L304,112L304,96L288,96L288,80M320,96L320,112L336,112L336,96L320,96M304,432L320,432L336,432L336,416L352,416L368,416L368,432L384,432L384,416L400,416L416,416L432,416L448,416L448,432L464,432L464,448L480,448L496,448L496,432L480,432L480,416L480,400L480,384L496,384L512,384L512,400L496,400L496,416L512,416L512,432L528,432L528,448L528,464L544,464L560,464L560,448L544,448L544,432L544,416L560,416L560,400L560,384L576,384L576,400L592,400L592,416L592,432L592,448L592,464L576,464L576,480L560,480L544,480L544,496L560,496L576,496L576,512L576,528L576,544L592,544L592,560L592,576L576,576L560,576L560,560L560,544L560,528L560,512L544,512L544,528L528,528L512,528L512,544L496,544L496,528L480,528L480,544L464,544L464,528L448,528L432,528L432,544L416,544L400,544L400,560L400,576L400,592L384,592L368,592L368,576L384,576L384,560L384,544L368,544L368,528L384,528L384,512L400,512L400,496L416,496L432,496L432,512L448,512L448,496L432,496L432,480L416,480L400,480L400,464L416,464L432,464L432,448L432,432L416,432L400,432L400,448L400,464L384,464L384,448L368,448L352,448L352,464L336,464L336,448L320,448L304,448L304,432M336,480L352,480L368,480L368,496L352,496L336,496L336,480M368,64L384,64L400,64L400,80L416,80L416,64L432,64L432,80L432,96L416,96L416,112L432,112L432,96L448,96L448,80L448,64L464,64L464,80L464,96L464,112L464,128L448,128L448,144L432,144L432,160L432,176L416,176L416,160L400,160L400,144L384,144L384,128L400,128L400,112L400,96L384,96L384,80L368,80L368,64M368,192L384,192L384,208L368,208L368,192M368,464L384,464L384,480L368,480L368,464M368,496L384,496L384,512L368,512L368,496M384,160L400,160L400,176L400,192L384,192L384,176L384,160M384,208L400,208L400,224L384,224L384,208M400,224L416,224L416,240L400,240L400,224M416,192L432,192L432,176L448,176L448,192L448,208L448,224L448,240L432,240L432,224L432,208L416,208L416,192M416,256L432,256L432,272L448,272L448,256L464,256L464,272L480,272L480,288L480,304L496,304L496,320L496,336L480,336L480,352L464,352L448,352L448,336L464,336L464,320L448,320L448,304L464,304L464,288L448,288L432,288L416,288L416,272L416,256M416,336L432,336L432,352L416,352L416,336M416,384L432,384L432,400L416,400L416,384M416,560L432,560L448,560L448,576L464,576L480,576L480,592L464,592L448,592L432,592L432,576L416,576L416,560M432,352L448,352L448,368L464,368L480,368L480,384L464,384L448,384L432,384L432,368L432,352M448,144L464,144L464,160L464,176L448,176L448,160L448,144M448,400L464,400L464,416L448,416L448,400M464,464L464,480L464,496L464,512L480,512L496,512L512,512L512,496L512,480L512,464L496,464L480,464L464,464M448,544L464,544L464,560L448,560L448,544M464,208L480,208L480,224L480,240L464,240L464,224L464,208M480,240L496,240L496,224L496,208L512,208L528,208L528,224L512,224L512,240L528,240L528,256L544,256L544,272L528,272L512,272L512,256L496,256L496,272L480,272L480,256L480,240M480,480L496,480L496,496L480,496L480,480M496,336L512,336L528,336L528,320L544,320L544,304L560,304L576,304L576,320L560,320L560,336L544,336L544,352L560,352L560,368L560,384L544,384L544,400L528,400L528,384L512,384L512,368L512,352L496,352L496,336M512,288L528,288L528,304L528,320L512,320L512,304L512,288M512,400L528,400L528,416L512,416L512,400M512,544L528,544L544,544L544,560L544,576L528,576L528,560L512,560L512,544M512,576L528,576L528,592L512,592L512,576M528,192L544,192L560,192L560,208L560,224L576,224L592,224L592,240L592,256L592,272L576,272L576,288L560,288L544,288L544,272L560,272L560,256L576,256L576,240L560,240L560,256L544,256L544,240L528,240L528,224L544,224L544,208L528,208L528,192M544,576L560,576L560,592L544,592L544,576M560,336L576,336L592,336L592,352L592,368L592,384L576,384L576,368L576,352L560,352L560,336Z" />
</g>
<g id='corners-outer-1' style='fill:#000000' >
<path d="M64,64L80,64L96,64L112,64L128,64L144,64L160,64L176,64L176,80L176,96L176,112L176,128L176,144L176,160L176,176L160,176L144,176L128,176L112,176L96,176L80,176L64,176L64,160L64,144L64,128L64,112L64,96L64,80L64,64M80,80L80,96L80,112L80,128L80,144L80,160L96,160L112,160L128,160L144,160L160,160L160,144L160,128L160,112L160,96L160,80L144,80L128,80L112,80L96,80L80,80Z" />
</g>
<g id='corners-outer-2' style='fill:#000000' >
<path d="M480,64L496,64L512,64L528,64L544,64L560,64L576,64L592,64L592,80L592,96L592,112L592,128L592,144L592,160L592,176L576,176L560,176L544,176L528,176L512,176L496,176L480,176L480,160L480,144L480,128L480,112L480,96L480,80L480,64M496,80L496,96L496,112L496,128L496,144L496,160L512,160L528,160L544,160L560,160L576,160L576,144L576,128L576,112L576,96L576,80L560,80L544,80L528,80L512,80L496,80Z" />
</g>
<g id='corners-outer-3' style='fill:#000000' >
<path d="M64,480L80,480L96,480L112,480L128,480L144,480L160,480L176,480L176,496L176,512L176,528L176,544L176,560L176,576L176,592L160,592L144,592L128,592L112,592L96,592L80,592L64,592L64,576L64,560L64,544L64,528L64,512L64,496L64,480M80,496L80,512L80,528L80,544L80,560L80,576L96,576L112,576L128,576L144,576L160,576L160,560L160,544L160,528L160,512L160,496L144,496L128,496L112,496L96,496L80,496Z" />
</g>
<g id='corners-inner-1' style='fill:#000000' >
<path d="M96,96L112,96L128,96L144,96L144,112L144,128L144,144L128,144L112,144L96,144L96,128L96,112L96,96Z" />
</g>
<g id='corners-inner-2' style='fill:#000000' >
<path d="M512,96L528,96L544,96L560,96L560,112L560,128L560,144L544,144L528,144L512,144L512,128L512,112L512,96Z" />
</g>
<g id='corners-inner-3' style='fill:#000000' >
<path d="M96,512L112,512L128,512L144,512L144,528L144,544L144,560L128,560L112,560L96,560L96,544L96,528L96,512Z" />
</g>
<g id='logo-svg' style='fill:#000000' >
<g transform='translate(248 248) scale(16.00 16.00)'>
<!-- Bitly Logo © Bitly Inc. -->
<path d="m1.6949 8.6756c-1.0984-1.0588-1.6474-2.2669-1.6474-3.6241 0-2.9 2.2527-5.0233 4.9329-5.0233 2.7081 0 4.9671 2.1231 4.9671 5.0233 0 2.7411-2.422 4.8621-4.5374 4.8621-.8761 0-1.509-.3309-1.8399-.846-.1171-.1824-.2215-.4762-.2426-.6544-.0141-.1188-.0141-.5128 0-1.1821 0-.3901 0-.8883 0-1.4949.0124-.9029.1089-2.0976-.2497-1.8223-.1064.1025-.1492.2089-.3769.2188-.2279-.0166-.2921-.2604-.2542-.3915.1351-.4707.5326-.8477 1.1642-.7796s.8744.4856.8912 1.0492c0 .6816-.0166 1.4251-.0166 1.5115v.073c.0032.0678-.0067.1225.0733.0772.0817-.0554.1522-.1035.2114-.144.4324-.3272 1.4929-.6722 2.3164.144.3133.3106.6989.9853.4745 2.026-.0361.1091-.0072.1235.0866.0433.0775-.0772 1.1402-1.0331 1.1402-2.842 0-2.0278-1.7805-3.7207-3.807-3.7207-1.7659 0-3.7868 1.4036-3.7868 3.8729 0 .7672.2752 1.7159.9494 2.4572.1101.1262.1935.2151.2505.2661.3076.2641.348.5965.1438.838-.2626.2646-.5435.2856-.8422.0629zm3.7281.1121c.9175-.0148 1.0652-.9665 1.0702-1.5041 0-.794-.4044-1.0751-1.011-.9519-.4883.0988-.9816.6066-1.0358 1.3118-.0099.1183-.0148.3106-.005.4933.0248.4834.4292.6608.9816.6509z"/>
</g></g>
</svg>
