<?xml version="1.0" encoding="UTF-8"?>
<svg id="Layer_1" data-name="Layer 1" xmlns="http://www.w3.org/2000/svg" viewBox="0 0 1023.34 404.33">
  <defs>
    <style>
      .cls-1 {
        fill: #040404;
      }

      .cls-2 {
        fill: #fff;
      }

      .cls-3 {
        fill: #797979;
      }
    </style>
  </defs>
  <g id="_9Fkfrs.tif" data-name="9Fkfrs.tif">
    <g>
      <path class="cls-2" d="m492.74,184.72c.32-.34.64-.69.97-1.03.76.34,2.57-.92,2.15,1.14-.51,2.49,1.23,1.66,2.31,1.82,1.46.21,1.58-.78,1.49-1.82-.1-1.18.62-2.99-1.37-3.07-1.78-.07-3.99-1.07-5.2,1.34-.43.38-.85.75-1.28,1.13-.46.42-.87.96-.13,1.36.85.47.81-.45,1.06-.88ZM695.38,24c.93,4.72-.12,9.51.79,14.31.65,3.43,2.81,5.23,5.31,5.45,6.06.53,12.2.19,18.31.19.87,0,1.65-.14,1.62-1.29-.02-.84-.06-1.6-1.22-1.7-3.88-.33-3.51-3.26-3.53-5.9-.03-5.63-.02-11.26-.02-16.88.37-.22.75-.44,1.12-.66l-1.13-.65c-1.09-1.24-8.55-1.38-9.04-.08-.44,1.17-.26,2.23,1.53,2.29,1.47.05,2.52.97,2.3,2.58-.79,5.67,1.81,11.63-2.62,17.11-1.98,2.44-3.76,2.12-5.85,2.13-2.61.01-2.54-2.1-2.56-3.95-.04-5.81-.41-11.64.05-17.41.35-4.31-3.2-3.73-5.15-5.06-2.17-1.47-3.75,1.43-4.16,2.12-1,1.68.59,3.41,2.19,4.58.81.85.64,2.42,2.06,2.83Zm36.92,69.98c.35.98.96,1.68,2.04,1.87.09,3.98.23,7.95.24,11.93,0,2.43.92,5.57-3.49,5.23-.49-.04-1.13,1.05-1.56,1.7-.08.12.46.96.72.96,4.38.06,8.76.04,13.14.04.02-.46.03-.93.05-1.39-1.59-.66-3.46-.74-4.49-2.46-2.38-3.98.23-17.49,4.18-20.07,2.48-1.62,5.36-2.13,6.91,1.18,2.65,5.65.7,11.75,1.21,17.62.29,3.44-3.83,1.25-4.5,3.47-.13.44-.14.93-.17,1.17h14.91c-2.43-2.07-5.81-.59-5.85-3.13-.08-6.3-1.77-12.86,1.97-18.75,1.51-2.38,4.07-2.91,6.58-2.43,2.41.47,3.3,2.52,3.33,4.86.06,3.99.06,7.97.11,11.96.03,2.55.33,5.16-3.51,5.18-.56,0-1.16,1.05-1.62,1.71-.09.13.43.99.68.99,4.41.06,8.81.05,13.22.05.17-.5.34-1.01.51-1.51-4.43.12-4.86-2.35-4.66-5.53.2-3.31.07-6.64.03-9.97-.09-7.95-3.35-10.73-11.13-9.84-2.78.32-4.34,2.41-6.31,3.78-2.6-4.98-7.21-4.36-10.93-3.45-3.15.77-6.11.36-8.23-.89-2.81-1.66-4.68-.28-5.62,1.13-1.07,1.61.61,3.44,2.26,4.57ZM130.95,381.36c.35.98.96,1.68,2.04,1.87.09,3.98.23,7.95.24,11.93,0,2.43.92,5.56-3.48,5.23-.5-.04-1.13,1.04-1.57,1.69-.08.12.45.97.71.97,4.38.06,8.77.04,13.15.04.05-.5.1-1.01.15-1.51-2-.34-3.95-.83-4.89-2.69-1.57-3.08.69-15.54,2.92-18.43,1.83-2.38,4.27-2.84,6.6-2.04,1.94.66,3.02,2.78,3.04,5.06.04,4.32.02,8.64.08,12.95.03,2.12.08,4.04-3,3.85-.9-.05-1.81.86-1.71,2.03.03.3.61.79.95.8,4.27.05,8.55.04,13.68.04-2-2.83-5.51-1.04-5.55-3.61-.1-6.3-1.76-12.85,1.92-18.75,1.5-2.41,4.04-2.96,6.55-2.48,2.69.52,3.4,2.81,3.43,5.29.03,2.99.03,5.98.08,8.97.06,3.72.91,7.81-4.64,8.56-.56.08-.63,1.07-.45,1.48h13.83c-4.16-.99-4.26-3.83-4.11-7,.14-2.98-.27-6.01.08-8.96,1.12-9.62-7.12-13.45-15.35-8.37-1.43.88-2.16,1.04-3.33-.12-2.83-2.8-6.66-2.58-9.76-1.64-3.16.96-6.12.38-8.23-.87-2.81-1.67-4.68-.27-5.62,1.14-1.07,1.61.62,3.43,2.26,4.57Zm321.28-98.36c-4.32,5.56-4.57,11.36-7.42,15.94-.68,1.1.78,1.67,1.81,1.44,4.54-1.01,4.18,1.9,4.17,4.86-.06,13.46-.23,26.93.09,40.39.1,4.42-1.09,5.43-5.47,5.42-43.93-.18-87.86-.12-131.78-.08-1.83,0-3.81-.5-6.14.91,2.12,1.4,3.94.97,5.62.97,44.93.03,89.85-.02,134.78.1,3.76.01,5.09-.71,5.01-4.81-.28-14.62-.14-29.25-.06-43.88,0-1.48-1.2-3.97,2.12-3.85,4.2.15,2.95-2.03,1.94-4.37-1.63-3.81-3.88-7.39-4.66-13.03Zm-7.31-166.26c1.68,4.57,3.35,8.74,4.7,13.03.42,1.33.54,2.8,2.08,2.88,1.85.1.89-1.79,1.3-2.69,1.52-3.34,2.32-6.97,4.22-10.17.81-1.36,1.25-3.19-1.29-2.92-3.45.37-3.17-1.66-3.16-3.93.05-13.96.2-27.91-.08-41.86-.09-4.41.91-5.74,5.58-5.72,43.91.2,87.81.13,131.72.09,1.79,0,3.82.63,5.58-.79-1.15-1.68-2.59-1.07-3.77-1.07-45.74-.04-91.47.02-137.21-.12-3.64-.01-3.89,1.45-3.87,4.33.11,14.29-.1,28.58.14,42.86.07,4.37-.19,7.53-5.94,6.1ZM969.16,19.95c0-4.43-.18-7.76.04-11.06.32-4.88.65-9.53-6.64-7.84-1.19.28-2.27-2.3-3.27-.25-.81,1.66.68,2.83,1.85,3.66,2.8,1.97,3.96,4.79,2.81,7.72-1.26,3.21-4.39,4.06-7.79,3.85-3.78-.23-6.44,1.55-9.05,4.34-4.29,4.57-3.18,9.89-2.65,14.92.46,4.4,6.95,7.73,11.39,7.82,3.67.08,7.02-1.57,11.05-.41,4.98,1.43,5.2.62,3.32-3.76-.18-.42.08-1.03-.08-1.48-2.1-6.12-.36-12.43-.99-17.52ZM14.28,326.31c-2.16-.42-5.21,1.18-7.37-1.66-.89-1.17-2.51-2.3-1.49-3.78.84-1.21,2.22-.02,3.46.3,8.02,2.07,14.55-4.71,12.37-12.53-.28-.99-2.55-2.22.18-3.51,1.9-.9,2.35-.63,3.17,1.13.67,1.44,2.19,1.47,3.16.04.9-1.35.44-2.18-1.08-3.07-1.47-.85-2.92-1.26-4.14-.48-2.74,1.76-5.27,1.37-8.33.78-6.75-1.3-12.79,3.2-11.74,9.19.75,4.28-.04,8.56.97,12.54.69,2.7.53,4.11-1.43,5.84-2.72,2.4-2.6,4.9-.04,7.59,6.32,6.62,16.22,5.85,22.83.38,4.31-3.57,2.8-9.68-2.32-11.83-2.56-1.08-5.13-.8-8.19-.92Zm426.3-71.76c-.67-.43-1.34-.85-2.01-1.28,1.53-6.24,2.85-12.53,4.66-18.68.88-3,.79-4.43-2.76-4.06-1.15.12-2.33,0-3.49.03-.96.03-2.05-.1-2.21,1.32-.14,1.33.54,1.8,1.74,1.65,2.16-.27,1.66.72,1.29,2.15-1.27,4.88-2.42,9.8-3.46,14.74-1.41,6.65-4.1,13.03-4.48,19.9-.06,1.09-.86,2.9,1.31,3.09,1.6.14,2.25-.92,2.62-2.37.76-2.97,1.75-5.88,2.5-8.85.88-3.51,2.83-3.34,5.28-1.69,1.8,1.21,2.22,2.5,1.35,4.81-.95,2.52.14,5.06,2.22,7.07,1.58,1.53,3.44,1.41,5.09.84,3.05-1.05,5.51-6.68,4.68-10.77-1.12,2.35-1.95,4.42-3.07,6.31-.65,1.11-1.73,2.18-3.28,1.57-1.46-.57-1-1.98-.83-2.99,1.01-5.75-.69-9.64-7.2-10.25,4.77-6.71,7.29-8.71,11.74-9.37-.03,1.6-1.64,3.5.41,4.65.93.52,2.19.32,3.25-.53,1.53-1.23.76-2.77.73-4.16-.03-1.32-1.05-2-2.33-2.13-3.37-.33-6.57.01-8.91,2.84-1.67,2.01-3.23,4.1-4.83,6.16ZM960.4,114.92c-4.5-.64-4.26-3.66-4.24-6.73.06-10.3.06-20.6-.02-30.91,0-1.22,1.02-3.38-1.55-3.35-2.44.03-5.01-.73-7.28.55-.41.23-.47,2.4.82,2.27,4.6-.47,2.91,2.79,3.02,4.84.15,2.9.04,5.82.04,8.87-8.82-3.2-13.99-1.97-18.34,4.36-2.67,3.88-2.19,13,1.01,17.1,2.79,3.57,9.52,5.08,14.38,3.29.9-.33,1.67-1.54,2.84-.58,2.87,2.36,5.96.86,9.32.29Zm-227.95-73.49c5.3,3.47,10.12,3.44,14.57.09,6.16-4.63,8.34-9.76,4.55-18.89-2.14-5.17-8.98-8.75-16.64-5.49-.69.29-1.54,1.44-2.07.52-2-3.44-5.04-.99-7.53-1.52-1.06-.22-1.93.24-1.87,1.61.05,1.16.81,1.29,1.69,1.24,3.2-.21,3.31,1.9,3.3,4.23-.04,7.63,0,15.26-.02,22.89,0,2.76.31,5.7-3.58,6.34-.34.06-.82.71-.83,1.1-.02.72.52,1.14,1.29,1.14,4,0,7.99,0,11.99,0l.85-1.15c-8.45-1.34-5.06-7.04-5.69-12.13Zm33.46.35c4.77,3.04,9.43,2.94,14.08-.19,5.66-3.8,8.23-12.53,4.63-19.04-2.98-5.38-9.57-8.43-16.75-5.39-.68.29-1.52,1.43-2.07.5-2-3.43-5.04-.98-7.53-1.5-1.06-.23-1.92.26-1.86,1.62.06,1.16.83,1.28,1.69,1.23,3.21-.21,3.3,1.91,3.29,4.24-.03,7.62,0,15.25-.02,22.87,0,2.76.31,5.69-3.56,6.34-.57.1-1.16.79-.71,1.53.21.34.75.68,1.15.68,4,.05,8,.03,12,.03-5.31-3.46-5.63-4.31-4.34-12.93ZM124.09,329.03c1.24.51,1.7.65,2.11.88,4.96,2.92,9.46,1.55,13.47-1.8,4.77-3.99,6.27-8.97,4.64-15.23-1.31-5.02-4.27-8.63-8.93-9.17-6.14-.71-12.45.54-18.7-.17-.91-.1-1.57.33-1.59,1.4-.02,1.04.48,1.52,1.48,1.44,3.51-.29,3.53,2.03,3.51,4.52-.05,7.63,0,15.26-.02,22.89,0,2.61.23,5.36-3.37,5.99-.69.12-1.2.68-.97,1.41.11.37.66.85,1.02.85,4.08.06,8.16.04,12.24.04.09-.42.19-.84.28-1.26-7.66-1.37-4.63-6.95-5.17-11.8Zm87.5-13.34l-1.27-.45c0-6.9,0-13.8,0-20.71,0-6.39,0-6.43-6.41-6.07-.98.05-2.59-.79-2.8,1-.12,1.03.88,1.88,1.91,1.91,3.33.11,2.94,2.47,2.94,4.61,0,6.98-.1,13.97.04,20.95.1,4.81.77,9.71-4.9,12.17-.08.04.07.6.07.63h13.69c-1.74-1.74-5.1-.71-4.87-4.25.18-2.67-1.1-5.77,2.03-7.67.75-.45,1.56-1.75,2.34-.35,1.18,2.1,2.29,4.71,3.8,6.04,3,2.66.13,4.5-.11,6.44h11.81c-5.9-3.51-7.69-9.9-11.57-14.6-1.61-1.95-1.28-2.59.62-4.12,3.06-2.45,6.43-4.39,9.79-6.45-3.03-.39-5.84-.41-8.66-.37-.75,0-2.16-.19-1.92.84,1.43,6.17-5.26,6.34-6.54,10.44Zm-108.07,11.92c1.12,1.28-.56,3.62,1.91,3.68,2.46.07,4.95-.08,7.38-.43.37-.05.64-2.24-.48-2.36-5.26-.56-3.88-4.5-4-7.56-.15-3.81-.04-7.63-.04-11.45q0-6.87-6.89-6.04c-.89.11-2.08-.34-2.28,1.15-.16,1.21.26,1.81,1.6,1.84,1.27.03,2.33.76,2.34,2.07.03,5.14.42,10.35-.3,15.39-.58,4.09-4.17,4.98-8,4.45-3.93-.55-2.61-3.66-2.73-5.84-.22-4.14-.07-8.29-.07-12.44q0-7.48-7.38-6.57c-.87.11-2.27-.36-2.29,1.08,0,.58.98,1.66,1.54,1.67,3.83.08,3.35,2.81,3.46,5.25.24,4.94-.52,9.91.69,14.85.53,2.18,1.43,3.78,3.68,3.89,4.03.2,8.26,1,11.85-2.63Zm330.72-161.21c-1.51-3.47-4.4-4.7-7.61-3.43-3.26,1.29-4.21,4.69-4.85,7.92-.1.52.22,1.5.6,1.65.94.37,1.43-.26,1.62-1.24.16-.79.51-1.55.81-2.32.75-1.92,1.18-5.05,3.84-4.06,2.5.93.83,3.43.22,5.44-1.55,5.13-2.89,10.34-4.01,15.58-.22,1.05-1.27,3.07,1.09,3.69,2.11.55,3-.83,3.51-2.4.6-1.84.77-3.8,1.31-5.66,1.51-5.23,1.93-10.94,6.44-14.88,1.98-1.73,4.63-2.95,6.69-1.73,2.01,1.19,1.7,3.7,1.15,6.43-.88,4.4-3.32,8.32-3.43,12.91-.07,2.75.93,5.1,3.07,6.18,2.2,1.11,4.25-.36,6.02-2.18,2.1-2.16,3-4.67,3.62-7.7-3.48.5-2.13,4.39-4.48,5.55-1.13.56-2.02,2.1-3.4,1.37-1.47-.78-.74-2.37-.4-3.54,1.04-3.57,2.39-7.05,3.37-10.63,2.15-7.84-1.53-11.91-9.36-10.65-2.48.4-3.78,2.42-5.81,3.7Zm371.39-60.27c-1.57,1.6-1.15,2.66-1.32,3.6-.21,1.12.84,2.92-1.37,3.05-2.66.16-1.63-2.07-1.7-3.2-.21-3.47-.04-6.96-.1-10.44-.19-11.26-8.32-12.01-16.72-9.23-2.19.72-3.31,2.46-3,5.03.18,1.49-.18,3.25,1.56,3.75.87.25,2.32-.32,3.05-1.01,1.08-1.02.75-2.83-.07-3.62-2.9-2.8.42-2.67,1.49-3.05,1.18-.42,2.63-.23,3.95-.12,4.19.37,4.46,3.97,4.82,6.79.45,3.5-2.77,1.96-4.33,2.1-3.51.31-6.61,1.72-9.36,3.56-2.93,1.97-4.09,5.4-2.93,8.7.98,2.77,3.77,3.88,6.82,3.78,3.23-.1,6.67.71,9.28-2.06.93-.99,1.57-.81,2.32.19,1.81,2.44,4.27,2.69,6.5,1.06,3.04-2.21,1.97-5.25,1.13-8.89Zm98.49-90.11c-8.27-.05-13.78,5.22-13.88,13.28-.1,7.52,5.35,13.65,12.16,13.68,9.06.04,14.79-4.95,14.82-12.94.04-8.44-5.13-13.98-13.11-14.02Zm-99.48,26.96c8.36,1.47,13.6-6.59,13.69-13.08.13-9.04-5.4-13.93-15.23-13.88-6.35.03-11.73,6.17-11.76,13.42-.03,7.95,5.47,13.55,13.3,13.54ZM66.81,303.39c-8.2-.03-13.71,5.43-13.68,13.56.03,7.32,5.43,13.36,12.01,13.4,9.15.07,14.88-4.86,14.98-12.86.1-8.56-5.1-14.07-13.31-14.1ZM856.67,16.03c-2.3.26-4.57-.43-6.76,1.78-6.17,6.25-7.36,12.14-3.25,19.74,4.14,7.65,15.86,8.3,20.22,1.01.52-.87,2.25-2.26.84-3.31-1.77-1.32-2.52.51-3.04,1.85-.74,1.96-1.79,3.44-4.02,3.86-6.23,1.17-12.15-4.38-11.39-10.63.23-1.93,1.59-1.34,2.59-1.37,3.32-.08,6.65-.03,9.97-.03,6.91,0,8.14-1.95,4.72-8.25-2.04-3.77-5.43-5.52-9.89-4.66Zm133.66,12.91c2.49,0,4.99-.01,7.48,0,1.22,0,2.44,0,2.29-1.73-.42-4.59-1.62-9.4-6.32-10.7-3.74-1.04-8.34-2.12-12.03,1.45-6.25,6.04-7.52,12.41-3.1,19.67,2.6,4.26,6.9,6.43,11.97,6.28,4.19-.12,6.71-2.89,8.54-6.36.39-.74,1.76-1.59.36-2.37-.98-.55-2.1-.49-2.53,1.2-1.25,4.84-5.09,5.01-9.05,4.57-3.23-.36-7.19-5.86-6.61-10.21.51-3.82,4.03-.96,6.05-1.73.87-.33,1.97-.06,2.97-.06ZM189.63,376.23c-.83,0-1.69.13-2.49-.02-5.18-.97-7.88,2.06-8.74,6.34-.83,4.09,2.15,6.46,5.8,7.7,2.39.81,4.91,1.24,7.27,2.12,2.25.84,4.11,2.23,3.6,5.1-.48,2.77-2.33,3.48-4.96,3.78-5.24.59-8.03-1.68-9.05-6.63-.24-1.16-.77-2.23-2.16-2.29-.28-.01-.84.59-.84.91-.04,3.15-.07,6.31.1,9.45.02.44,1.07,1.78,1.77.92,2.07-2.53,3.52-.45,5.35.27,4.4,1.72,12.2-1.81,13.29-5.81,1.33-4.86-1.65-9.03-7.71-10.9-1.99-.61-4.05-1.15-5.89-2.07-1.91-.96-3.92-2.19-2.56-4.98,1.15-2.36,3.19-3.24,5.59-2.78,3.39.64,6.65,1.68,6.98,6,.06.75-.21,1.86,1.04,1.76.53-.04,1.28-.61,1.46-1.1,1.39-3.79-1.39-7.74-5.37-7.75-.83,0-1.66,0-2.49-.01Zm55.64-59.91c1.5,0,3-.04,4.49,0,3.24.1,5.88.86,4.54-4.71-1.01-4.19-3.13-7.2-6.22-7.87-3.78-.82-8.37-1.91-11.99,1.92-5.7,6.03-6.94,12.51-2.6,19.41,2.65,4.22,6.93,6.45,12.03,6.2,4.15-.21,6.7-2.92,8.48-6.46.39-.77,1.7-1.63.21-2.32-1.02-.47-1.95-.33-2.39,1.41-1.34,5.27-5.79,4.71-9.7,4.34-2.74-.26-6.77-6.8-6.01-10.25.77-3.54,4.11-.94,6.19-1.62.9-.3,1.98-.05,2.98-.05ZM868.28,101.79c1.66,0,3.35-.19,4.98.04,4.05.55,5.04-.37,4.31-4.87-.7-4.36-3.17-7.19-6.33-7.78-3.63-.69-8.02-1.86-11.58,1.76-7.28,7.42-6.22,12.33-2.91,19.31,2.16,4.55,6.76,6.5,11.78,6.51,4.43,0,6.98-2.97,8.9-6.6.42-.8,1.55-1.69-.04-2.25-.82-.29-1.85-.36-2.17,1.17-.99,4.7-4.6,5-8.45,4.74-3.71-.26-8.4-6.35-7.31-10.5.83-3.18,4.2-.86,6.34-1.47.77-.22,1.65-.04,2.48-.04Zm-189.17-85.78c-1,0-2.02.14-2.99-.02-5.05-.84-7.4,2.32-8.26,6.35-.83,3.89,1.97,6.27,5.34,7.57,2.5.97,5.23,1.33,7.75,2.24,2.26.82,4.1,2.23,3.6,5.11-.49,2.77-2.34,3.48-4.96,3.77-5.25.6-8.02-1.7-9.05-6.64-.24-1.16-.77-2.23-2.16-2.28-.28,0-.83.59-.84.92-.04,3.15-.06,6.31.1,9.45.02.43,1.06,1.78,1.78.9,2.07-2.54,3.52-.44,5.35.28,4.35,1.69,12.2-1.86,13.28-5.82,1.32-4.86-1.64-9.02-7.72-10.89-1.99-.61-4.05-1.15-5.9-2.07-1.91-.96-3.92-2.19-2.55-4.98,1.16-2.36,3.2-3.23,5.6-2.78,3.39.63,6.64,1.7,6.97,6.01.06.75-.19,1.86,1.05,1.76.53-.04,1.27-.61,1.45-1.11,1.39-3.8-1.39-7.74-5.37-7.75-.83,0-1.66,0-2.49-.01Zm249.41,91.93c-2.78-.22-2.98,1.47-3.77,2.63-1.22,1.8-2.59,3.22-5.17,3.3-5.67.18-7.33-1.66-9.46-7.5-1.75-4.8.25-4.77,3.76-4.62,3.82.16,7.65.07,11.47.01,1.19-.02,2.77.51,2.84-1.68.15-4.5-2.69-10.32-6.62-10.92-4.27-.65-9.01-1.8-12.8,2.52-4.42,5.03-5.76,10.13-2.95,16.42,2.43,5.43,6.57,8.75,12.28,8.67,5.58-.08,8.11-3.93,10.41-8.84ZM103.42,395.3c-2.13-.15-2.8.62-3.36,1.72-1.16,2.26-2.53,4.09-5.53,4.22-5.76.25-7.27-1.49-9.57-7.92-1.54-4.29.03-4.29,3.24-4.19,3.99.14,7.98.07,11.97,0,1.02-.02,3.09.4,2.72-1.08-.81-3.19-.1-6.87-3.13-9.48-3.82-3.29-13.3-4.03-17.49,1.85-3.97,5.58-3.81,11.16-.91,16.83,2.44,4.77,6.87,6.96,12.06,6.86,5.27-.11,7.79-3.99,10-8.8ZM838.12,25.05c2.59-8.68,2.33-9.15-5.97-8.98-2.7.05-5.61-1.09-8.11.83-2.33,1.78-4,4.43-3.53,7.09.71,4.05,4.29,6.04,8.01,6.86,2.36.52,4.68.95,6.74,2.17,2.84,1.68,2.95,5.59.3,7.34-3.11,2.05-9.34.4-11-2.97-.71-1.45-1.16-3.04-1.94-4.45-.47-.85-1.91-1.64-2.07-.18-.34,3.26-.11,6.58.06,9.87.02.42,1.02,1.71,1.83.64,1.87-2.49,3.33-.4,4.95.23,4.45,1.73,11.56-1.13,12.83-5.14,1.75-5.56-.6-9.54-6.73-11.39-1.84-.56-3.75-.95-5.48-1.76-2.03-.95-4.66-1.97-3.35-5.02,1.14-2.64,3.28-3.39,6.31-2.96,4.7.66,5.99,3.98,7.15,7.82ZM181.89,330.34c.22-.53.45-1.05.67-1.58-4.78.08-4.8-2.82-4.77-5.96.08-8.61.05-17.22.02-25.83,0-2.63.63-5.67-.48-7.76-1.03-1.94-4.25-.43-6.47-.84-.92-.17-1.95-2.03-2.74-.12-.58,1.41.3,2.99,1.69,3.06,3.81.17,3.48,2.71,3.48,5.23,0,8.61-.03,17.22.01,25.83.01,2.59.2,5.08-3.57,5.13-.81,0-1.86.94-1.54,2.15.29,1.11,1.35.67,2.08.68,3.87.05,7.75.02,11.62.02ZM935.06,42.64l.76-1.27c-6.87.24-7.02-3.91-6.63-8.5.14-1.65-.06-3.32.04-4.97.21-3.29,1.15-6.34,3.45-8.8.84-.9,2.08-2.43,2.52.4.44,2.77,2.49,2.62,4.54,2.32,1.24-.18,1.68-.64.9-1.94-1.11-1.86-.54-5.81-4.03-4.73-4.78,1.48-9.5.51-14.23.92-3.36.29-2.59,1.88-1.08,3.46,3.15,3.29,3.9,7.16,4.02,11.6.13,4.61-.35,8.47-5.01,10.64-.08.04.09.61.14.87h14.6Zm82.94.3c.22-.54.45-1.08.67-1.62-6.53.34-6.96-3.52-6.57-8.05.16-1.82-.11-3.67.06-5.48.3-3.25,1.09-6.37,3.51-8.8.82-.83,2.05-1.92,2.34.17.36,2.51,1.87,3.19,3.79,2.7,2.32-.59,1.41-2.79,1.12-4.19-.45-2.14-2.3-3.61-4.31-2.56-3.75,1.95-7.55.42-11.27.92-1.37.18-3.2-.68-4.01.93-.88,1.76.97,2.56,1.89,3.64,3.82,4.46,2.78,9.85,2.91,15.02.07,2.89-1.45,4.3-4.07,5-.38.1-.76,1.07-.74,1.62.03.96.97.69,1.55.69,4.38.03,8.76.02,13.14.02Zm-558.68,100.97c12.96,20.32,13.38,40.42-.29,60.69,9.54-6.59,13.06-16.16,13.59-26.93.65-13.19-1.97-25.33-13.3-33.77Zm-41.51-.23c-8.01,2-15.29,17.74-15.01,31.86.2,10.53,7.13,27.85,13.92,28.61-13.21-20.22-13.6-40.25,1.09-60.47Zm-19.7,71.28c.01.33.02.67.03,1h107.39c0-.33,0-.67,0-1h-107.42Zm442.2-136.98c-.48-.07-.97-.13-1.45-.2-1.58,4.46-.85,10.48-7.48,11.53-.33.05-.85,1.08-.79,1.13.56.53,1.3,1.41,1.84,1.32,4.13-.69,3.99,1.81,3.88,4.67-.15,3.97,0,7.96-.02,11.94-.01,2.99-.13,6.37,3.38,7.3,2.77.73,6.49,1.37,8.41-1.23,1.92-2.61,3-6.1,1.65-10.32-2.46,2.43-.72,5.01-2.03,7.01-.96,1.46-1.53,2.8-3.57,2.69-2.11-.11-2.87-1.32-2.95-3.22-.15-3.3-.4-6.61-.42-9.91-.06-8.99-.02-9,8.1-10.35-.99-.88-2.22-.58-3.26-.45-4.12.53-5.88-1.01-5.34-5.26.28-2.18.05-4.43.05-6.64Zm-13.99,26.05c-1.46,2.22-.55,3.99-1.08,5.44-.68,1.89-.86,4.3-3.83,4.34-3.23.04-3.29-2.38-3.39-4.44-.24-4.46,0-8.96-.31-13.41-.28-3.92,1.29-5.42,5.1-5.16.96.07,2.2.63,3.26-.96-1.27,0-2.25-.12-3.19.02-4.33.64-6.11-1.01-5.62-5.48.23-2.1.53-4.41-.31-6.4-1.41.03-1.49.63-1.63,1.31-.85,4.22-.94,8.95-6.7,9.91-.39.06-1.02,1.18-.88,1.43.38.66,1,1.4,1.97,1.21,3.97-.81,3.66,1.76,3.62,4.35-.07,4.64.08,9.29.01,13.93-.04,3.22,1.44,5.67,4.41,6.19,6.99,1.23,10.93-4.07,8.56-12.26ZM64.5,365.08c-.73.44-1.2.57-1.23.78-.84,4.55-.81,9.63-6.97,10.8-.42.08-1.21.77-.68,1.48.35.48,1.1,1.11,1.54,1.02,4.79-.96,3.93,2.39,3.95,5.06.02,3.81-.02,7.63.03,11.44.08,6.78,1.45,7.91,8.28,7.6,2.05-.09,4.16-.58,4.32-2.42.24-2.8,3.14-5.76-.19-9.37-.3,2.68-.26,4.68-.81,6.49-.5,1.61-1.19,3.41-3.65,3.27-2.46-.14-3.03-1.64-3.11-3.62-.16-3.64-.34-7.28-.37-10.91-.05-7.92-.02-7.92,7.62-8.6.12-.01.2-.36.47-.86-1.2,0-2.2-.13-3.15.02-4.55.72-5.88-1.39-5.47-5.63.2-2.02.58-4.22-.56-6.55ZM896.2,115.79c.38-.57.76-1.13,1.15-1.7-8.56.59-7.04-4.78-7.09-9.23-.02-1.49-.12-2.99.02-4.47.29-3.09,1.18-6,3.34-8.33.76-.82,2.07-2.6,2.55.15.44,2.48,1.99,2.94,3.94,2.48,1.24-.29,1.89-1.51,1.55-2.85-.48-1.89-1.48-3.6-3.74-2.93-4.59,1.36-9.1-.25-13.63-.01-.66.03-1.33.03-1.98.15-.76.13-1.05.67-1.03,1.42.02.71.21,1.4,1.03,1.35,5.05-.33,3.83,3.37,3.92,6.13.09,2.98.03,5.97.02,8.95-.01,2.73.37,5.65-3.58,6.2-.76.11-1.43.92-1.26,1.86.06.33.62.8.95.81,4.61.05,9.23.04,13.84.04ZM119.98,402.68c-6.24-.83-6.29-5.05-5.92-9.63.13-1.65-.1-3.33.05-4.98.3-3.26,1.1-6.36,3.48-8.81.8-.82,2.05-1.97,2.36.09.37,2.49,1.78,3.07,3.77,2.79,1.96-.28,1.27-2.03,1.32-3.23.12-2.72-1.98-3.13-3.73-2.59-4.3,1.34-8.47-.25-12.69-.07-.66.03-1.33.09-1.99.12-.96.04-1.53.43-1.53,1.49,0,1.08.58,1.45,1.55,1.38,3.58-.25,3.46,2.2,3.43,4.63-.03,2.33.02,4.65-.01,6.98-.05,4.21,1.6,9.17-4.68,10.7-.16.04-.12.87-.2,1.61,4.62,0,9.1.01,13.58-.02.41,0,.81-.3,1.22-.46Zm-75.7-73.47c-2-1-4.58-.66-5.79-2.89-1.69-3.12.12-16.62,2.67-19.39,1.5-1.63,2.77-2.85,3.12.83.12,1.29,1.84,1.75,3.29,1.62,1.7-.15,1.48-1.43,1.57-2.58.13-1.68-.34-3.22-2.16-3.29-2.05-.08-4.29-.84-6.2.74-.67.56-1.57,1.89-2.34.65-1.96-3.13-4.76-.91-7.11-1.37-.66-.13-1.81-.33-2.02.81-.17.94.6,1.78,1.32,1.81,4.08.2,3.5,3.1,3.5,5.7,0,3.82,0,7.64,0,11.46,0,2.09.51,4.5-3.04,4.13-.96-.1-1.8.83-1.8,1.97,0,.3.58.88.87.87,4.63-.14,9.33.62,14.1-1.06Zm154.56.78c.24-.43.49-.86.73-1.29-5.11.24-4.83-2.91-4.79-5.99.05-4.49.01-8.98.01-13.47,0-5.93-1.47-7.09-7.25-5.85-.86.18-1.62.22-1.6,1.35.01.91.24,1.72,1.33,1.63,3.14-.27,2.94,1.94,2.97,3.94.04,2.49.03,4.99,0,7.48-.04,4.36,1.39,9.4-4.96,10.94-.15.04-.1.88-.14,1.26h13.69Zm291.86-158.36c-1.89,0-3.68-.03-5.47.02-.61.01-1.45-.05-1.43.9.01.37.45,1.05.66,1.03,3.01-.23,1.34,1.84,1.16,2.68-1.35,6.09-2.85,12.15-4.36,18.2-.45,1.81-1.77,4.3.58,4.97,2.84.8,2.51-2.16,2.84-3.98.06-.32-.04-.67.02-.99.3-1.54.51-3.72,2.38-3.48,1.68.21,3.91,1.03,3.58,3.8-.22,1.81-.06,3.48,1.48,4.96,1.39,1.34,2.44.71,3.35-.14,1.71-1.6-.75-1.22-1.11-1.64-1.05-1.24-.73-2.54-.65-3.78.1-1.7-.42-3.28-1.86-3.71-3.71-1.1-1.14-2.99-.4-4.91-1.82-.18-2.88,1.88-4.42.71,1.17-4.7,2.35-9.44,3.64-14.65Zm-23.6,89.82c.47,0,.94,0,1.41.01.74-10.09,1.52-20.19,2.2-30.29.15-2.3-1.63-2.58-3.37-2.59-2.26-.01-2.57,1.54-2.63,3.35-.34,9.94.56,19.77,2.4,29.52Zm-273.1,31.27c.15-2.3-.97-3.26-3.23-3.24-2.17.02-2.94,1.18-2.77,3.14.19,2.23,1.55,3.7,3.7,3.71,2.18.01,2.34-1.87,2.3-3.61Zm273.62-26.27c-2.4-.03-2.91,1.37-2.89,3.24.03,2.13,1.24,2.9,3.2,2.74,1.99-.16,2.9-1.24,2.78-3.27-.13-2.1-1.28-2.87-3.09-2.71Z"/>
      <path class="cls-1" d="m452.23,283c.79,5.64,3.03,9.22,4.66,13.03,1,2.34,2.25,4.52-1.94,4.37-3.32-.12-2.11,2.37-2.12,3.85-.08,14.63-.22,29.26.06,43.88.08,4.11-1.26,4.82-5.01,4.81-44.93-.12-89.85-.07-134.78-.1-1.67,0-3.5.43-5.62-.97,2.33-1.41,4.31-.91,6.14-.91,43.93-.03,87.86-.1,131.78.08,4.38.02,5.57-1,5.47-5.42-.31-13.46-.15-26.92-.09-40.39.01-2.96.37-5.87-4.17-4.86-1.03.23-2.49-.34-1.81-1.44,2.84-4.58,3.09-10.38,7.42-15.94Z"/>
      <path class="cls-1" d="m130.95,381.36c-1.64-1.13-3.33-2.96-2.26-4.57.93-1.4,2.81-2.8,5.62-1.14,2.11,1.25,5.07,1.83,8.23.87,3.1-.94,6.93-1.16,9.76,1.64,1.17,1.16,1.9,1,3.33.12,8.23-5.08,16.48-1.25,15.35,8.37-.34,2.95.06,5.98-.08,8.96-.15,3.16-.05,6,4.11,7h-13.83c-.17-.41-.11-1.4.45-1.48,5.55-.75,4.7-4.84,4.64-8.56-.05-2.99-.05-5.98-.08-8.97-.03-2.49-.74-4.78-3.43-5.29-2.51-.48-5.05.07-6.55,2.48-3.68,5.9-2.02,12.45-1.92,18.75.04,2.57,3.55.79,5.55,3.61-5.14,0-9.41.02-13.68-.04-.33,0-.92-.5-.95-.8-.1-1.17.82-2.08,1.71-2.03,3.08.19,3.03-1.73,3-3.85-.06-4.32-.04-8.64-.08-12.95-.02-2.28-1.09-4.4-3.04-5.06-2.33-.79-4.76-.33-6.6,2.04-2.23,2.89-4.48,15.35-2.92,18.43.94,1.86,2.89,2.35,4.89,2.69-.05.5-.1,1.01-.15,1.51-4.38,0-8.77.02-13.15-.04-.26,0-.79-.85-.71-.97.44-.65,1.08-1.73,1.57-1.69,4.41.33,3.49-2.8,3.48-5.23,0-3.98-.16-7.95-.24-11.93q.76-1.66-2.04-1.87Z"/>
      <path class="cls-1" d="m732.3,93.98c-1.64-1.13-3.33-2.96-2.26-4.57.94-1.41,2.81-2.79,5.62-1.13,2.12,1.25,5.08,1.66,8.23.89,3.72-.91,8.33-1.52,10.93,3.45,1.97-1.38,3.53-3.47,6.31-3.78,7.78-.89,11.04,1.89,11.13,9.84.04,3.32.17,6.66-.03,9.97-.19,3.17.23,5.65,4.66,5.53-.17.5-.34,1.01-.51,1.51-4.41,0-8.81.02-13.22-.05-.25,0-.77-.86-.68-.99.45-.66,1.06-1.71,1.62-1.71,3.84-.02,3.55-2.63,3.51-5.18-.05-3.99-.06-7.97-.11-11.96-.03-2.35-.92-4.4-3.33-4.86-2.51-.49-5.07.05-6.58,2.43-3.74,5.88-2.05,12.45-1.97,18.75.03,2.54,3.41,1.06,5.85,3.13h-14.91c.03-.25.04-.73.17-1.17.67-2.22,4.8-.03,4.5-3.47-.5-5.88,1.44-11.97-1.21-17.62-1.55-3.3-4.43-2.8-6.91-1.18-3.95,2.58-6.56,16.09-4.18,20.07,1.03,1.72,2.9,1.8,4.49,2.46-.02.46-.03.93-.05,1.39-4.38,0-8.76.02-13.14-.04-.26,0-.8-.84-.72-.96.44-.65,1.07-1.73,1.56-1.7,4.41.34,3.5-2.79,3.49-5.23,0-3.98-.16-7.96-.24-11.93q.76-1.66-2.04-1.87Z"/>
      <path class="cls-1" d="m444.92,116.74c5.75,1.43,6.01-1.72,5.94-6.1-.23-14.28-.03-28.57-.14-42.86-.02-2.88.22-4.34,3.87-4.33,45.74.14,91.47.09,137.21.12,1.18,0,2.62-.61,3.77,1.07-1.76,1.42-3.79.79-5.58.79-43.91.04-87.81.11-131.72-.09-4.67-.02-5.68,1.3-5.58,5.72.29,13.95.13,27.91.08,41.86,0,2.27-.29,4.3,3.16,3.93,2.53-.27,2.1,1.56,1.29,2.92-1.9,3.21-2.7,6.84-4.22,10.17-.41.91.55,2.79-1.3,2.69-1.54-.08-1.66-1.54-2.08-2.88-1.34-4.28-3.02-8.46-4.7-13.03Z"/>
      <path class="cls-1" d="m969.16,19.95c.63,5.08-1.12,11.4.99,17.52.15.45-.11,1.05.08,1.48,1.88,4.38,1.66,5.19-3.32,3.76-4.02-1.15-7.38.49-11.05.41-4.44-.09-10.92-3.42-11.39-7.82-.53-5.03-1.63-10.35,2.65-14.92,2.62-2.79,5.28-4.57,9.05-4.34,3.4.21,6.54-.64,7.79-3.85,1.15-2.94,0-5.76-2.81-7.72-1.18-.82-2.66-2-1.85-3.66,1-2.05,2.08.53,3.27.25,7.28-1.69,6.96,2.96,6.64,7.84-.22,3.3-.04,6.64-.04,11.06Zm-4.59,9.87c0-1.41-.06-2.4.01-3.39.31-4.25-.9-7.62-5.56-8.4-4.8-.8-8.52,1.37-9.46,6.24-.78,4.07-1.09,8.44.73,12.51,2.36,5.3,7.88,6.24,12.19,2.37,3.18-2.86,1.61-6.46,2.09-9.33Z"/>
      <path class="cls-1" d="m14.28,326.31c3.07.13,5.63-.16,8.19.92,5.12,2.16,6.63,8.26,2.32,11.83-6.6,5.47-16.51,6.24-22.83-.38-2.57-2.69-2.68-5.18.04-7.59,1.96-1.73,2.11-3.15,1.43-5.84-1.01-3.98-.22-8.26-.97-12.54-1.05-5.99,4.99-10.49,11.74-9.19,3.07.59,5.59.98,8.33-.78,1.22-.79,2.68-.37,4.14.48,1.52.88,1.98,1.72,1.08,3.07-.96,1.44-2.49,1.41-3.16-.04-.81-1.76-1.27-2.03-3.17-1.13-2.73,1.3-.46,2.52-.18,3.51,2.18,7.82-4.35,14.6-12.37,12.53-1.24-.32-2.63-1.51-3.46-.3-1.01,1.47.6,2.61,1.49,3.78,2.16,2.84,5.21,1.24,7.37,1.66Zm-.51,4.04c-1.98,0-3.63.04-5.29,0-2.13-.06-3.57,1.17-4.11,2.92-.58,1.88-.35,3.81,1.51,5.31,4.5,3.63,11.25,3.67,15.61-.08,2.98-2.56,2.35-5.96-1.25-7.61-2.27-1.04-4.56-.17-6.49-.53Zm-6.69-16.66c-.38,2.49,1.41,5.42,4.83,5.44,4.07.03,5.53-3.37,5.25-7.26-.22-3.18-.37-6.4-4.87-6.5-5.23-.11-4.94,3.62-5.22,8.31Z"/>
      <path class="cls-1" d="m440.57,254.55c1.61-2.06,3.17-4.15,4.83-6.16,2.34-2.82,5.54-3.16,8.91-2.84,1.28.12,2.3.81,2.33,2.13.03,1.39.8,2.93-.73,4.16-1.06.85-2.32,1.05-3.25.53-2.04-1.15-.44-3.06-.41-4.65-4.46.67-6.98,2.66-11.74,9.37,6.51.61,8.22,4.51,7.2,10.25-.18,1.01-.63,2.41.83,2.99,1.55.61,2.63-.46,3.28-1.57,1.12-1.9,1.95-3.96,3.07-6.31.83,4.09-1.63,9.72-4.68,10.77-1.66.57-3.51.69-5.09-.84-2.07-2.01-3.17-4.55-2.22-7.07.87-2.31.45-3.6-1.35-4.81-2.45-1.65-4.39-1.82-5.28,1.69-.74,2.97-1.73,5.88-2.5,8.85-.37,1.45-1.02,2.51-2.62,2.37-2.18-.19-1.37-2-1.31-3.09.38-6.87,3.07-13.24,4.48-19.9,1.04-4.94,2.19-9.86,3.46-14.74.37-1.43.87-2.42-1.29-2.15-1.21.15-1.89-.32-1.74-1.65.15-1.43,1.25-1.29,2.21-1.32,1.16-.04,2.34.09,3.49-.03,3.55-.37,3.65,1.07,2.76,4.06-1.81,6.15-3.14,12.44-4.66,18.68.67.43,1.34.85,2.01,1.28Z"/>
      <path class="cls-1" d="m960.4,114.92c-3.36.57-6.46,2.08-9.32-.29-1.17-.96-1.95.25-2.84.58-4.86,1.79-11.6.28-14.38-3.29-3.2-4.1-3.68-13.22-1.01-17.1,4.35-6.32,9.52-7.56,18.34-4.36,0-3.05.11-5.97-.04-8.87-.11-2.05,1.58-5.31-3.02-4.84-1.29.13-1.22-2.04-.82-2.27,2.26-1.28,4.83-.53,7.28-.55,2.57-.03,1.54,2.13,1.55,3.35.08,10.3.09,20.6.02,30.91-.02,3.06-.26,6.08,4.24,6.73Zm-8.81-12.06c0-1.4-.07-2.39.01-3.38.34-4.21-.71-7.69-5.36-8.61-4.86-.96-8.96,1.51-9.74,6.51-.61,3.92-1.01,8.1.76,12.05,2.57,5.74,8.56,6.66,12.8,2,2.49-2.75,1.07-5.98,1.53-8.57Z"/>
      <path class="cls-1" d="m732.44,41.43c.63,5.09-2.76,10.79,5.69,12.13l-.85,1.15c-4,0-7.99,0-11.99,0-.77,0-1.31-.43-1.29-1.14.01-.39.49-1.05.83-1.1,3.88-.63,3.57-3.57,3.58-6.34,0-7.63-.02-15.26.02-22.89.01-2.33-.09-4.44-3.3-4.23-.88.06-1.63-.08-1.69-1.24-.06-1.37.81-1.84,1.87-1.61,2.49.53,5.53-1.92,7.53,1.52.53.91,1.38-.23,2.07-.52,7.66-3.26,14.5.32,16.64,5.49,3.79,9.13,1.61,14.26-4.55,18.89-4.44,3.34-9.27,3.37-14.57-.09Zm-.02-12.34c0,1.66-.25,3.37.05,4.97.66,3.42,1.84,7.17,5.67,7.66,3.4.44,6.58-1.24,8.05-4.96,2.03-5.13,1.85-10.27-.19-15.24-.96-2.35-3.01-3.67-5.97-3.57-5.45.19-7.62,3.17-7.61,11.13Z"/>
      <path class="cls-1" d="m765.9,41.78c-1.28,8.62-.97,9.47,4.34,12.93-4,0-8,.02-12-.03-.4,0-.94-.34-1.15-.68-.45-.74.15-1.44.71-1.53,3.88-.65,3.56-3.59,3.56-6.34.01-7.62-.02-15.25.02-22.87.01-2.33-.08-4.44-3.29-4.24-.87.06-1.64-.06-1.69-1.23-.07-1.36.79-1.85,1.86-1.62,2.49.53,5.53-1.92,7.53,1.5.54.93,1.38-.21,2.07-.5,7.17-3.03,13.77,0,16.75,5.39,3.6,6.51,1.04,15.24-4.63,19.04-4.65,3.12-9.31,3.23-14.08.19Zm-.51-13.04c0,2.07-.23,3.77.05,5.38.59,3.49,1.97,7.1,5.73,7.62,3.44.47,6.49-1.37,8.04-5.03,1.82-4.29,1.43-8.58.54-12.93-.57-2.78-1.95-5.09-4.82-5.69-3.23-.68-5.91.31-8.26,3.04-2.26,2.63-.6,5.4-1.27,7.6Z"/>
      <path class="cls-1" d="m124.09,329.03c.54,4.85-2.5,10.43,5.17,11.8-.09.42-.19.84-.28,1.26-4.08,0-8.16.02-12.24-.04-.36,0-.91-.49-1.02-.85-.23-.74.28-1.29.97-1.41,3.6-.63,3.37-3.38,3.37-5.99,0-7.63-.03-15.26.02-22.89.01-2.5,0-4.81-3.51-4.52-.99.08-1.5-.41-1.48-1.44.02-1.07.68-1.5,1.59-1.4,6.24.71,12.56-.54,18.7.17,4.66.54,7.62,4.15,8.93,9.17,1.63,6.26.13,11.24-4.64,15.23-4,3.35-8.5,4.71-13.47,1.8-.4-.24-.87-.37-2.11-.88Zm-.01-12.72c0,1.83-.32,3.73.07,5.47.75,3.38,2.13,7.04,5.97,7.36,3.15.26,6.23-1.28,7.66-4.84,2.06-5.13,1.9-10.25-.05-15.23-.92-2.35-2.89-3.78-5.88-3.72-5.61.11-7.78,3-7.78,10.97Z"/>
      <path class="cls-1" d="m211.59,315.69c1.29-4.09,7.97-4.26,6.54-10.44-.24-1.03,1.18-.83,1.92-.84,2.81-.04,5.63-.01,8.66.37-3.36,2.06-6.73,4-9.79,6.45-1.9,1.53-2.23,2.17-.62,4.12,3.88,4.7,5.67,11.09,11.57,14.6h-11.81c.24-1.94,3.11-3.78.11-6.44-1.5-1.33-2.62-3.94-3.8-6.04-.79-1.4-1.6-.1-2.34.35-3.13,1.91-1.85,5-2.03,7.67-.23,3.54,3.14,2.51,4.87,4.25h-13.69s-.15-.6-.07-.63c5.67-2.46,5-7.36,4.9-12.17-.14-6.98-.03-13.97-.04-20.95,0-2.14.39-4.49-2.94-4.61-1.04-.04-2.03-.88-1.91-1.91.21-1.78,1.81-.95,2.8-1,6.41-.35,6.41-.32,6.41,6.07,0,6.9,0,13.8,0,20.71l1.27.45Z"/>
      <path class="cls-1" d="m716.64,18.17c0,5.63,0,11.26.02,16.88.01,2.64-.35,5.57,3.53,5.9,1.16.1,1.19.85,1.22,1.7.03,1.15-.75,1.29-1.62,1.29-6.11,0-12.25.35-18.31-.19-2.5-.22-4.66-2.02-5.31-5.45-.9-4.8.14-9.59-.79-14.31,1.15-2.32,1.15-2.33-2.06-2.83-1.6-1.17-3.19-2.9-2.19-4.58.41-.69,1.99-3.6,4.16-2.12,1.95,1.32,5.5.75,5.15,5.06-.47,5.77-.09,11.61-.05,17.41.01,1.85-.06,3.96,2.56,3.95,2.1-.01,3.87.31,5.85-2.13,4.44-5.47,1.83-11.43,2.62-17.11.22-1.61-.83-2.53-2.3-2.58-1.79-.06-1.97-1.12-1.53-2.29.49-1.3,7.95-1.16,9.04.08,0,.44,0,.87,0,1.31Z"/>
      <path class="cls-1" d="m103.52,327.61c-3.59,3.63-7.82,2.83-11.85,2.63-2.24-.11-3.14-1.72-3.68-3.89-1.21-4.93-.45-9.9-.69-14.85-.12-2.44.37-5.17-3.46-5.25-.56-.01-1.55-1.1-1.54-1.67.02-1.44,1.41-.97,2.29-1.08q7.38-.92,7.38,6.57c0,4.15-.16,8.31.07,12.44.12,2.18-1.2,5.29,2.73,5.84,3.84.53,7.42-.36,8-4.45.72-5.04.33-10.25.3-15.39,0-1.31-1.07-2.04-2.34-2.07-1.34-.03-1.75-.63-1.6-1.84.19-1.49,1.39-1.05,2.28-1.15q6.89-.83,6.89,6.04c0,3.82-.11,7.64.04,11.45.12,3.06-1.26,7,4,7.56,1.12.12.85,2.31.48,2.36-2.43.35-4.92.5-7.38.43-2.46-.07-.78-2.41-1.91-3.68Z"/>
      <path class="cls-1" d="m434.24,166.39c2.03-1.27,3.33-3.3,5.81-3.7,7.83-1.26,11.51,2.81,9.36,10.65-.98,3.58-2.32,7.06-3.37,10.63-.34,1.16-1.07,2.76.4,3.54,1.38.73,2.27-.81,3.4-1.37,2.34-1.16.99-5.05,4.48-5.55-.62,3.04-1.52,5.54-3.62,7.7-1.77,1.82-3.82,3.29-6.02,2.18-2.14-1.08-3.14-3.43-3.07-6.18.11-4.59,2.55-8.51,3.43-12.91.55-2.73.86-5.24-1.15-6.43-2.06-1.22-4.71,0-6.69,1.73-4.52,3.95-4.93,9.65-6.44,14.88-.54,1.86-.71,3.83-1.31,5.66-.51,1.56-1.41,2.95-3.51,2.4-2.36-.62-1.32-2.64-1.09-3.69,1.12-5.24,2.46-10.45,4.01-15.58.61-2.01,2.28-4.51-.22-5.44-2.66-.99-3.08,2.14-3.84,4.06-.3.76-.65,1.52-.81,2.32-.19.98-.68,1.61-1.62,1.24-.37-.15-.7-1.14-.6-1.65.64-3.23,1.59-6.63,4.85-7.92,3.21-1.27,6.1-.04,7.61,3.43Z"/>
      <path class="cls-1" d="m805.63,106.12c.84,3.64,1.91,6.67-1.13,8.89-2.23,1.63-4.7,1.37-6.5-1.06-.74-1-1.38-1.18-2.32-.19-2.61,2.77-6.05,1.95-9.28,2.06-3.05.1-5.84-1.01-6.82-3.78-1.16-3.29,0-6.73,2.93-8.7,2.75-1.84,5.85-3.25,9.36-3.56,1.56-.14,4.78,1.4,4.33-2.1-.37-2.83-.63-6.43-4.82-6.79-1.32-.12-2.77-.3-3.95.12-1.07.38-4.39.25-1.49,3.05.82.79,1.15,2.6.07,3.62-.73.69-2.18,1.26-3.05,1.01-1.73-.5-1.38-2.27-1.56-3.75-.31-2.57.81-4.31,3-5.03,8.41-2.77,16.53-2.02,16.72,9.23.06,3.48-.11,6.97.1,10.44.07,1.13-.96,3.36,1.7,3.2,2.21-.13,1.17-1.93,1.37-3.05.18-.94-.25-2,1.32-3.6Zm-9.29-.45c-.32-1.51,1.13-4.04-2.44-3.93-4.53.14-9.65,4.19-9.5,7.98.11,2.81,2.21,4.58,4.5,4.94,4.19.66,7.45-3.53,7.44-8.99Z"/>
      <path class="cls-1" d="m904.12,16.01c7.97.04,13.15,5.58,13.11,14.02-.04,7.99-5.76,12.98-14.82,12.94-6.81-.03-12.26-6.16-12.16-13.68.1-8.06,5.61-13.33,13.88-13.28Zm8.07,13.08c0-8.36-2.99-11.61-9.88-11.11-5.58.4-5.77,5.07-6.83,8.65-2.13,7.25,3.09,14.87,9.39,14.32,4.86-.42,7.31-4.39,7.31-11.86Z"/>
      <path class="cls-1" d="m804.64,42.96c-7.83.01-13.33-5.59-13.3-13.54.03-7.25,5.41-13.39,11.76-13.42,9.83-.05,15.36,4.84,15.23,13.88-.09,6.49-5.33,14.55-13.69,13.08Zm.42-24.95c-5.12-1-8.34,3.03-8.55,10.9-.19,7.19,3.45,12.44,8.33,12.21,4.93-.23,8.24-2.82,8.4-12.39.12-7.49-2.61-10.8-8.19-10.72Z"/>
      <path class="cls-1" d="m66.81,303.39c8.21.03,13.41,5.54,13.31,14.1-.1,8.01-5.83,12.93-14.98,12.86-6.58-.05-11.98-6.08-12.01-13.4-.03-8.12,5.48-13.59,13.68-13.56Zm.45,2.01c-5.5-.97-8.7,2.57-8.94,10.99-.21,7.21,3.45,12.41,8.41,12.11,4.85-.29,8-2.75,8.31-11.97.25-7.44-2.52-11.14-7.78-11.13Z"/>
      <path class="cls-1" d="m856.67,16.03c4.46-.86,7.84.9,9.89,4.66,3.41,6.29,2.19,8.24-4.72,8.25-3.32,0-6.65-.05-9.97.03-1,.02-2.35-.56-2.59,1.37-.75,6.25,5.16,11.81,11.39,10.63,2.23-.42,3.28-1.9,4.02-3.86.51-1.34,1.26-3.18,3.04-1.85,1.41,1.05-.32,2.44-.84,3.31-4.37,7.29-16.08,6.64-20.22-1.01-4.12-7.6-2.93-13.49,3.25-19.74,2.18-2.21,4.46-1.52,6.76-1.78Zm.15,11.67c1.37-2.89,6.45,2.73,6.36-3.25-.05-3.6-1.53-6.69-6.23-6.48-3.83.17-6.76,2.73-6.54,6.8.25,4.68,4.17,1.1,6.42,2.93Z"/>
      <path class="cls-1" d="m990.34,28.94c-1,0-2.1-.28-2.97.06-2.02.77-5.55-2.08-6.05,1.73-.58,4.35,3.38,9.85,6.61,10.21,3.97.44,7.8.28,9.05-4.57.44-1.69,1.55-1.75,2.53-1.2,1.4.78.03,1.64-.36,2.37-1.82,3.48-4.35,6.25-8.54,6.36-5.07.14-9.37-2.02-11.97-6.28-4.43-7.25-3.15-13.63,3.1-19.67,3.69-3.57,8.29-2.48,12.03-1.45,4.7,1.3,5.91,6.11,6.32,10.7.16,1.73-1.06,1.74-2.29,1.73-2.49-.02-4.99,0-7.48,0Zm-1.64-1.5c1.84-1.91,6.1,2.42,6.41-2.84.24-4.1-2.47-6.63-6.64-6.59-3.41.03-6.76,3.53-6.19,7.09.7,4.42,4.42.68,6.43,2.34Z"/>
      <path class="cls-1" d="m189.63,376.25c.83,0,1.66,0,2.49,0,3.98,0,6.76,3.96,5.37,7.75-.18.5-.93,1.06-1.46,1.1-1.25.1-.99-1.01-1.04-1.76-.33-4.32-3.59-5.36-6.98-6-2.4-.45-4.44.43-5.59,2.78-1.36,2.79.64,4.02,2.56,4.98,1.85.93,3.9,1.46,5.89,2.07,6.07,1.87,9.04,6.04,7.71,10.9-1.09,4-8.89,7.53-13.29,5.81-1.83-.71-3.28-2.8-5.35-.27-.7.86-1.75-.47-1.77-.92-.17-3.14-.14-6.3-.1-9.45,0-.32.56-.92.84-.91,1.39.06,1.92,1.13,2.16,2.29,1.02,4.95,3.81,7.22,9.05,6.63,2.62-.3,4.47-1.01,4.96-3.78.5-2.87-1.36-4.27-3.6-5.1-2.36-.88-4.88-1.31-7.27-2.12-3.65-1.24-6.63-3.6-5.8-7.7.87-4.28,3.56-7.31,8.74-6.34.8.15,1.66.02,2.49.03Z"/>
      <path class="cls-1" d="m245.27,316.33c-1,0-2.08-.25-2.98.05-2.07.69-5.41-1.91-6.19,1.62-.76,3.45,3.27,9.99,6.01,10.25,3.91.37,8.36.93,9.7-4.34.44-1.74,1.37-1.88,2.39-1.41,1.49.69.18,1.55-.21,2.32-1.77,3.54-4.33,6.26-8.48,6.46-5.1.25-9.38-1.98-12.03-6.2-4.34-6.9-3.1-13.38,2.6-19.41,3.62-3.83,8.21-2.74,11.99-1.92,3.09.67,5.21,3.68,6.22,7.87,1.34,5.57-1.3,4.81-4.54,4.71-1.5-.05-2.99,0-4.49,0Zm-1.63-1.28c1.35-2.7,6.51,2.73,6.21-3.37-.18-3.63-1.75-6.61-6.41-6.32-3.64.23-6.79,3.12-6.37,6.96.48,4.46,4.26.97,6.57,2.73Z"/>
      <path class="cls-1" d="m868.28,101.79c-.83,0-1.72-.18-2.48.04-2.14.61-5.5-1.71-6.34,1.47-1.09,4.15,3.59,10.25,7.31,10.5,3.86.27,7.47-.04,8.45-4.74.32-1.53,1.35-1.46,2.17-1.17,1.59.57.47,1.45.04,2.25-1.92,3.63-4.48,6.6-8.9,6.6-5.02,0-9.62-1.96-11.78-6.51-3.31-6.98-4.37-11.89,2.91-19.31,3.56-3.63,7.95-2.45,11.58-1.76,3.16.6,5.63,3.42,6.33,7.78.72,4.51-.27,5.43-4.31,4.87-1.63-.22-3.32-.04-4.98-.04Zm-1.46-1.24c1.37-2.88,6.45,2.73,6.35-3.26-.06-3.6-1.54-6.69-6.24-6.47-3.82.18-6.76,2.74-6.53,6.8.26,4.67,4.17,1.09,6.42,2.93Z"/>
      <path class="cls-1" d="m679.1,16.02c.83,0,1.66,0,2.49,0,3.99,0,6.76,3.94,5.37,7.75-.18.5-.93,1.07-1.45,1.11-1.25.1-.99-1.01-1.05-1.76-.33-4.31-3.57-5.37-6.97-6.01-2.4-.45-4.44.42-5.6,2.78-1.37,2.79.64,4.02,2.55,4.98,1.85.93,3.9,1.46,5.9,2.07,6.07,1.87,9.04,6.03,7.72,10.89-1.08,3.95-8.94,7.51-13.28,5.82-1.83-.71-3.28-2.82-5.35-.28-.71.88-1.75-.47-1.78-.9-.17-3.14-.15-6.3-.1-9.45,0-.33.56-.93.84-.92,1.4.05,1.92,1.12,2.16,2.28,1.03,4.94,3.8,7.24,9.05,6.64,2.62-.3,4.48-1,4.96-3.77.5-2.87-1.34-4.29-3.6-5.11-2.52-.91-5.25-1.28-7.75-2.24-3.37-1.3-6.17-3.69-5.34-7.57.86-4.03,3.21-7.18,8.26-6.35.97.16,1.99.02,2.99.04Z"/>
      <path class="cls-1" d="m928.51,107.94c-2.29,4.91-4.83,8.76-10.41,8.84-5.71.08-9.86-3.24-12.28-8.67-2.81-6.29-1.47-11.39,2.95-16.42,3.79-4.32,8.53-3.16,12.8-2.52,3.93.6,6.77,6.41,6.62,10.92-.08,2.19-1.65,1.66-2.84,1.68-3.82.06-7.65.15-11.47-.01-3.51-.15-5.51-.18-3.76,4.62,2.13,5.84,3.78,7.68,9.46,7.5,2.57-.08,3.95-1.5,5.17-3.3.79-1.16.99-2.85,3.77-2.63Zm-11.74-7.65c1.84-1.9,6.09,2.42,6.41-2.83.25-4.1-2.47-6.63-6.63-6.6-3.42.03-6.76,3.52-6.2,7.08.69,4.41,4.41.7,6.42,2.34Z"/>
      <path class="cls-1" d="m103.42,395.3c-2.21,4.82-4.73,8.69-10,8.8-5.19.11-9.62-2.09-12.06-6.86-2.9-5.67-3.06-11.25.91-16.83,4.18-5.87,13.67-5.14,17.49-1.85,3.03,2.61,2.32,6.29,3.13,9.48.38,1.49-1.69,1.06-2.72,1.08-3.99.07-7.98.13-11.97,0-3.21-.11-4.78-.1-3.24,4.19,2.3,6.43,3.81,8.17,9.57,7.92,3-.13,4.37-1.96,5.53-4.22.56-1.1,1.23-1.87,3.36-1.72Zm-11.75-7.63c1.83-1.92,6.11,2.43,6.4-2.85.23-4.11-2.48-6.62-6.65-6.58-3.41.04-6.76,3.55-6.18,7.1.71,4.42,4.43.66,6.44,2.33Z"/>
      <path class="cls-1" d="m838.12,25.05c-1.16-3.84-2.46-7.16-7.15-7.82-3.03-.43-5.17.32-6.31,2.96-1.32,3.05,1.32,4.06,3.35,5.02,1.72.81,3.64,1.2,5.48,1.76,6.13,1.85,8.48,5.83,6.73,11.39-1.26,4.01-8.38,6.87-12.83,5.14-1.62-.63-3.08-2.72-4.95-.23-.8,1.07-1.81-.22-1.83-.64-.17-3.29-.4-6.62-.06-9.87.15-1.46,1.6-.67,2.07.18.78,1.41,1.23,3,1.94,4.45,1.66,3.37,7.88,5.03,11,2.97,2.65-1.75,2.54-5.66-.3-7.34-2.06-1.22-4.38-1.65-6.74-2.17-3.72-.82-7.3-2.81-8.01-6.86-.47-2.66,1.2-5.3,3.53-7.09,2.51-1.92,5.42-.77,8.11-.83,8.3-.17,8.56.3,5.97,8.98Z"/>
      <path class="cls-1" d="m181.89,330.34c-3.87,0-7.75.02-11.62-.02-.73,0-1.79.43-2.08-.68-.32-1.21.73-2.14,1.54-2.15,3.77-.05,3.58-2.54,3.57-5.13-.04-8.61-.02-17.22-.01-25.83,0-2.51.33-5.05-3.48-5.23-1.39-.06-2.27-1.65-1.69-3.06.79-1.91,1.82-.05,2.74.12,2.22.41,5.44-1.09,6.47.84,1.11,2.09.47,5.13.48,7.76.03,8.61.06,17.22-.02,25.83-.03,3.14,0,6.04,4.77,5.96-.22.53-.45,1.05-.67,1.58Z"/>
      <path class="cls-1" d="m935.06,42.64h-14.6c-.05-.27-.21-.84-.14-.87,4.65-2.17,5.13-6.03,5.01-10.64-.12-4.43-.88-8.31-4.02-11.6-1.51-1.58-2.28-3.16,1.08-3.46,4.72-.41,9.45.56,14.23-.92,3.49-1.08,2.92,2.88,4.03,4.73.78,1.3.34,1.76-.9,1.94-2.05.3-4.1.45-4.54-2.32-.45-2.83-1.68-1.31-2.52-.4-2.29,2.45-3.24,5.51-3.45,8.8-.1,1.65.1,3.33-.04,4.97-.4,4.59-.24,8.74,6.63,8.5l-.76,1.27Z"/>
      <path class="cls-1" d="m1018,42.95c-4.38,0-8.76.02-13.14-.02-.58,0-1.52.27-1.55-.69-.02-.55.36-1.52.74-1.62,2.63-.69,4.15-2.11,4.07-5-.13-5.18.91-10.56-2.91-15.02-.92-1.07-2.77-1.88-1.89-3.64.81-1.61,2.64-.75,4.01-.93,3.72-.5,7.53,1.03,11.27-.92,2.02-1.05,3.86.42,4.31,2.56.29,1.4,1.2,3.6-1.12,4.19-1.92.48-3.43-.2-3.79-2.7-.3-2.09-1.52-.99-2.34-.17-2.42,2.42-3.21,5.55-3.51,8.8-.17,1.81.1,3.67-.06,5.48-.39,4.54.05,8.39,6.57,8.05-.22.54-.45,1.08-.67,1.62Z"/>
      <path class="cls-1" d="m459.32,143.92c11.33,8.44,13.96,20.57,13.3,33.77-.53,10.77-4.05,20.33-13.59,26.93,13.66-20.28,13.24-40.37.29-60.69Z"/>
      <path class="cls-1" d="m417.81,143.69c-14.69,20.22-14.3,40.25-1.09,60.47-6.79-.76-13.72-18.09-13.92-28.61-.27-14.12,7-29.86,15.01-31.86Z"/>
      <path class="cls-1" d="m398.11,214.97h107.42c0,.33,0,.67,0,1h-107.39c-.01-.33-.02-.67-.03-1Z"/>
      <path class="cls-1" d="m840.31,77.99c0,2.22.23,4.46-.05,6.64-.54,4.25,1.22,5.79,5.34,5.26,1.05-.13,2.27-.43,3.26.45-8.12,1.36-8.16,1.36-8.1,10.35.02,3.31.27,6.61.42,9.91.08,1.9.84,3.1,2.95,3.22,2.04.11,2.61-1.22,3.57-2.69,1.31-2-.43-4.58,2.03-7.01,1.35,4.22.27,7.71-1.65,10.32-1.91,2.61-5.64,1.97-8.41,1.23-3.5-.93-3.39-4.31-3.38-7.3.01-3.98-.12-7.96.02-11.94.1-2.85.25-5.36-3.88-4.67-.54.09-1.29-.79-1.84-1.32-.06-.06.45-1.08.79-1.13,6.64-1.05,5.91-7.07,7.48-11.53.48.07.97.13,1.45.2Z"/>
      <path class="cls-1" d="m826.32,104.04c2.37,8.19-1.57,13.49-8.56,12.26-2.97-.52-4.45-2.97-4.41-6.19.06-4.64-.09-9.29-.01-13.93.04-2.59.35-5.16-3.62-4.35-.96.2-1.59-.54-1.97-1.21-.14-.25.49-1.37.88-1.43,5.76-.96,5.85-5.69,6.7-9.91.14-.68.21-1.28,1.63-1.31.84,1.99.54,4.3.31,6.4-.49,4.47,1.3,6.12,5.62,5.48.94-.14,1.93-.02,3.19-.02-1.07,1.59-2.31,1.03-3.26.96-3.8-.26-5.37,1.24-5.1,5.16.32,4.46.07,8.95.31,13.41.11,2.06.16,4.48,3.39,4.44,2.97-.04,3.14-2.45,3.83-4.34.53-1.45-.38-3.22,1.08-5.44Z"/>
      <path class="cls-1" d="m64.5,365.08c1.14,2.33.76,4.52.56,6.55-.41,4.25.92,6.35,5.47,5.63.95-.15,1.94-.02,3.15-.02-.27.5-.35.85-.47.86-7.64.68-7.67.68-7.62,8.6.03,3.64.21,7.28.37,10.91.09,1.98.66,3.48,3.11,3.62,2.46.14,3.15-1.66,3.65-3.27.56-1.81.51-3.81.81-6.49,3.33,3.6.44,6.56.19,9.37-.16,1.84-2.27,2.33-4.32,2.42-6.83.31-8.2-.82-8.28-7.6-.04-3.81,0-7.63-.03-11.44-.01-2.68.85-6.02-3.95-5.06-.44.09-1.18-.54-1.54-1.02-.53-.71.26-1.4.68-1.48,6.16-1.17,6.13-6.24,6.97-10.8.04-.21.51-.34,1.23-.78Z"/>
      <path class="cls-1" d="m896.2,115.79c-4.61,0-9.23.02-13.84-.04-.33,0-.89-.48-.95-.81-.17-.94.5-1.76,1.26-1.86,3.94-.55,3.57-3.47,3.58-6.2.01-2.98.08-5.97-.02-8.95-.09-2.76,1.13-6.46-3.92-6.13-.82.05-1.01-.63-1.03-1.35-.02-.75.28-1.29,1.03-1.42.65-.11,1.32-.11,1.98-.15,4.54-.23,9.05,1.38,13.63.01,2.25-.67,3.26,1.04,3.74,2.93.34,1.34-.32,2.56-1.55,2.85-1.94.46-3.5,0-3.94-2.48-.49-2.75-1.8-.97-2.55-.15-2.16,2.33-3.05,5.24-3.34,8.33-.14,1.48-.04,2.98-.02,4.47.05,4.44-1.48,9.82,7.09,9.23-.38.57-.76,1.13-1.15,1.7Z"/>
      <path class="cls-1" d="m119.98,402.68c-.41.16-.81.46-1.22.46-4.48.03-8.96.02-13.58.02.08-.74.04-1.57.2-1.61,6.28-1.53,4.63-6.49,4.68-10.7.03-2.33-.02-4.65.01-6.98.03-2.43.15-4.88-3.43-4.63-.97.07-1.55-.31-1.55-1.38,0-1.06.57-1.45,1.53-1.49.66-.03,1.33-.09,1.99-.12,4.22-.18,8.39,1.41,12.69.07,1.75-.55,3.85-.13,3.73,2.59-.05,1.2.64,2.95-1.32,3.23-1.99.28-3.4-.3-3.77-2.79-.31-2.06-1.56-.91-2.36-.09-2.38,2.44-3.19,5.55-3.48,8.81-.15,1.65.09,3.33-.05,4.98-.37,4.58-.32,8.8,5.92,9.63Z"/>
      <path class="cls-1" d="m44.29,329.21c-4.78,1.69-9.47.92-14.1,1.06-.3,0-.87-.57-.87-.87,0-1.13.84-2.07,1.8-1.97,3.56.37,3.04-2.03,3.04-4.13,0-3.82,0-7.64,0-11.46,0-2.6.58-5.5-3.5-5.7-.72-.04-1.49-.88-1.32-1.81.21-1.14,1.35-.94,2.02-.81,2.35.46,5.15-1.76,7.11,1.37.77,1.24,1.67-.09,2.34-.65,1.91-1.58,4.14-.82,6.2-.74,1.81.07,2.29,1.6,2.16,3.29-.09,1.15.13,2.43-1.57,2.58-1.45.13-3.17-.33-3.29-1.62-.35-3.68-1.63-2.46-3.12-.83-2.55,2.78-4.35,16.27-2.67,19.39,1.2,2.23,3.78,1.9,5.79,2.89Z"/>
      <path class="cls-1" d="m198.85,329.99h-13.69c.04-.38,0-1.22.14-1.26,6.36-1.54,4.92-6.58,4.96-10.94.02-2.49.03-4.99,0-7.48-.03-2,.17-4.21-2.97-3.94-1.1.09-1.32-.72-1.33-1.63-.02-1.13.74-1.17,1.6-1.35,5.78-1.24,7.25-.08,7.25,5.85,0,4.49.04,8.98-.01,13.47-.04,3.08-.32,6.23,4.79,5.99-.24.43-.49.86-.73,1.29Z"/>
      <path class="cls-1" d="m490.7,171.62c-1.3,5.21-2.48,9.95-3.64,14.65,1.54,1.18,2.61-.89,4.42-.71-.75,1.91-3.31,3.81.4,4.91,1.43.42,1.96,2.01,1.86,3.71-.08,1.23-.4,2.54.65,3.78.35.42,2.82.04,1.11,1.64-.91.85-1.96,1.48-3.35.14-1.55-1.48-1.7-3.15-1.48-4.96.33-2.77-1.91-3.59-3.58-3.8-1.86-.23-2.08,1.95-2.38,3.48-.06.32.04.67-.02.99-.33,1.82,0,4.78-2.84,3.98-2.35-.67-1.03-3.16-.58-4.97,1.51-6.06,3.01-12.11,4.36-18.2.19-.85,1.85-2.92-1.16-2.68-.2.02-.65-.67-.66-1.03-.03-.95.81-.89,1.43-.9,1.79-.04,3.58-.02,5.47-.02Z"/>
      <path class="cls-1" d="m467.1,261.45c-1.84-9.75-2.74-19.57-2.4-29.52.06-1.81.38-3.36,2.63-3.35,1.75,0,3.53.29,3.37,2.59-.68,10.1-1.46,20.19-2.2,30.29-.47,0-.94,0-1.41-.01Z"/>
      <path class="cls-1" d="m194,292.73c.05,1.73-.12,3.61-2.3,3.6-2.15-.01-3.5-1.48-3.7-3.71-.17-1.95.6-3.11,2.77-3.14,2.27-.02,3.38.94,3.23,3.25Z"/>
      <path class="cls-1" d="m467.62,266.45c1.81-.15,2.96.61,3.09,2.71.12,2.02-.78,3.11-2.78,3.27-1.96.16-3.18-.61-3.2-2.74-.02-1.86.49-3.27,2.89-3.24Z"/>
      <path class="cls-1" d="m493.09,183.11c1.21-2.41,3.42-1.41,5.2-1.34,1.98.08,1.27,1.89,1.37,3.07.09,1.04-.04,2.03-1.49,1.82-1.08-.16-2.83.67-2.31-1.82.43-2.07-1.39-.8-2.15-1.14-.19-.2-.4-.4-.61-.58Z"/>
      <path class="cls-3" d="m693.32,21.18c3.2.49,3.21.5,2.06,2.83-1.42-.41-1.25-1.98-2.06-2.83Z"/>
      <path class="cls-3" d="m732.3,93.98q2.81.21,2.04,1.87c-1.08-.19-1.69-.88-2.04-1.87Z"/>
      <path class="cls-3" d="m130.95,381.36q2.81.21,2.04,1.87c-1.08-.19-1.69-.88-2.04-1.87Z"/>
      <path class="cls-3" d="m716.64,18.17c0-.44,0-.87,0-1.31.38.22.75.43,1.13.65-.37.22-.75.44-1.12.66Z"/>
      <path class="cls-1" d="m493.7,183.69c-.32.34-.64.69-.97,1.03-.31-.16-.62-.32-.93-.48.43-.38.85-.75,1.28-1.13.21.18.42.38.61.58Z"/>
      <path class="cls-1" d="m492.74,184.72c-.25.43-.21,1.35-1.06.88-.73-.41-.32-.94.13-1.36.31.16.62.32.93.48Z"/>
    </g>
  </g>
</svg>